<?xml version="1.0" encoding="UTF-8" standalone="no"?>
<!DOCTYPE svg PUBLIC "-//W3C//DTD SVG 1.1//EN"
 "http://www.w3.org/Graphics/SVG/1.1/DTD/svg11.dtd">
<!-- Generated by graphviz version 2.43.0 (0)
 -->
<!-- Title: %3 Pages: 1 -->
<svg width="475pt" height="240pt"
 viewBox="0.00 0.00 475.00 239.74" xmlns="http://www.w3.org/2000/svg" xmlns:xlink="http://www.w3.org/1999/xlink">
<g id="graph0" class="graph" transform="scale(1 1) rotate(0) translate(36 203.74)">
<title>%3</title>
<polygon fill="dimgray" stroke="transparent" points="-36,36 -36,-203.74 439,-203.74 439,36 -36,36"/>
<text text-anchor="middle" x="201.5" y="-152.54" font-family="Helvetica,sans-Serif" font-size="14.00">Sweep&#39;s Plan &amp; Progress</text>
<!-- start -->
<g id="node1" class="node">
<title>start</title>
</g>
<!-- db7650cd&#45;0fd1&#45;4d4f&#45;9e3b&#45;9a8913dd1a88 -->
<g id="node3" class="node">
<title>db7650cd&#45;0fd1&#45;4d4f&#45;9e3b&#45;9a8913dd1a88</title>
<ellipse fill="yellow" stroke="black" cx="121.5" cy="-101.87" rx="69.09" ry="26.74"/>
<text text-anchor="middle" x="121.5" y="-105.67" font-family="Helvetica,sans-Serif" font-size="14.00">⋯ Modify</text>
<text text-anchor="middle" x="121.5" y="-90.67" font-family="Helvetica,sans-Serif" font-size="14.00">src/main.py</text>
</g>
<!-- start&#45;&gt;db7650cd&#45;0fd1&#45;4d4f&#45;9e3b&#45;9a8913dd1a88 -->
<g id="edge4" class="edge">
<title>start&#45;&gt;db7650cd&#45;0fd1&#45;4d4f&#45;9e3b&#45;9a8913dd1a88</title>
<path fill="none" stroke="black" d="M1.27,-101.87C5.03,-101.87 21.99,-101.87 42.05,-101.87"/>
<polygon fill="black" stroke="black" points="42.11,-105.37 52.11,-101.87 42.11,-98.37 42.11,-105.37"/>
<text text-anchor="middle" x="26.6" y="-108.67" font-family="Helvetica,sans-Serif" font-size="14.00">Start</text>
</g>
<!-- end -->
<g id="node2" class="node">
<title>end</title>
</g>
<!-- 500ef977&#45;0779&#45;4a56&#45;ab33&#45;0aa3418acc71 -->
<g id="node4" class="node">
<title>500ef977&#45;0779&#45;4a56&#45;ab33&#45;0aa3418acc71</title>
<ellipse fill="white" stroke="black" cx="285.5" cy="-101.87" rx="59.29" ry="26.74"/>
<text text-anchor="middle" x="285.5" y="-105.67" font-family="Helvetica,sans-Serif" font-size="14.00">▶ Modify</text>
<text text-anchor="middle" x="285.5" y="-90.67" font-family="Helvetica,sans-Serif" font-size="14.00">src/api.py</text>
</g>
<!-- db7650cd&#45;0fd1&#45;4d4f&#45;9e3b&#45;9a8913dd1a88&#45;&gt;500ef977&#45;0779&#45;4a56&#45;ab33&#45;0aa3418acc71 -->
<g id="edge2" class="edge">
<title>db7650cd&#45;0fd1&#45;4d4f&#45;9e3b&#45;9a8913dd1a88&#45;&gt;500ef977&#45;0779&#45;4a56&#45;ab33&#45;0aa3418acc71</title>
<path fill="none" stroke="black" d="M191.01,-101.87C199.32,-101.87 207.63,-101.87 215.94,-101.87"/>
<polygon fill="black" stroke="black" points="216.07,-105.37 226.07,-101.87 216.07,-98.37 216.07,-105.37"/>
</g>
<!-- 7cf26340&#45;096e&#45;4442&#45;9ae3&#45;547fb9e8499b -->
<g id="node5" class="node">
<title>7cf26340&#45;096e&#45;4442&#45;9ae3&#45;547fb9e8499b</title>
<polygon fill="white" stroke="black" points="170.5,-38 72.5,-38 72.5,0 170.5,0 170.5,-38"/>
<text text-anchor="middle" x="121.5" y="-22.8" font-family="Helvetica,sans-Serif" font-size="14.00">▶ Check</text>
<text text-anchor="middle" x="121.5" y="-7.8" font-family="Helvetica,sans-Serif" font-size="14.00">src/main.py</text>
</g>
<!-- db7650cd&#45;0fd1&#45;4d4f&#45;9e3b&#45;9a8913dd1a88&#45;&gt;7cf26340&#45;096e&#45;4442&#45;9ae3&#45;547fb9e8499b -->
<g id="edge1" class="edge">
<title>db7650cd&#45;0fd1&#45;4d4f&#45;9e3b&#45;9a8913dd1a88&#45;&gt;7cf26340&#45;096e&#45;4442&#45;9ae3&#45;547fb9e8499b</title>
<path fill="none" stroke="black" stroke-dasharray="5,2" d="M121.5,-74.84C121.5,-66.3 121.5,-56.78 121.5,-48.1"/>
<polygon fill="black" stroke="black" points="125,-48.05 121.5,-38.05 118,-48.05 125,-48.05"/>
</g>
<!-- 500ef977&#45;0779&#45;4a56&#45;ab33&#45;0aa3418acc71&#45;&gt;end -->
<g id="edge5" class="edge">
<title>500ef977&#45;0779&#45;4a56&#45;ab33&#45;0aa3418acc71&#45;&gt;end</title>
<path fill="none" stroke="black" d="M345.03,-101.87C362.83,-101.87 380.51,-101.87 391.46,-101.87"/>
<polygon fill="black" stroke="black" points="391.77,-105.37 401.77,-101.87 391.77,-98.37 391.77,-105.37"/>
<text text-anchor="middle" x="373.45" y="-108.67" font-family="Helvetica,sans-Serif" font-size="14.00">Finish</text>
</g>
<!-- 94a50291&#45;2640&#45;4d22&#45;a639&#45;daee76b68af3 -->
<g id="node6" class="node">
<title>94a50291&#45;2640&#45;4d22&#45;a639&#45;daee76b68af3</title>
<polygon fill="white" stroke="black" points="327.5,-38 243.5,-38 243.5,0 327.5,0 327.5,-38"/>
<text text-anchor="middle" x="285.5" y="-22.8" font-family="Helvetica,sans-Serif" font-size="14.00">▶ Check</text>
<text text-anchor="middle" x="285.5" y="-7.8" font-family="Helvetica,sans-Serif" font-size="14.00">src/api.py</text>
</g>
<!-- 500ef977&#45;0779&#45;4a56&#45;ab33&#45;0aa3418acc71&#45;&gt;94a50291&#45;2640&#45;4d22&#45;a639&#45;daee76b68af3 -->
<g id="edge3" class="edge">
<title>500ef977&#45;0779&#45;4a56&#45;ab33&#45;0aa3418acc71&#45;&gt;94a50291&#45;2640&#45;4d22&#45;a639&#45;daee76b68af3</title>
<path fill="none" stroke="black" stroke-dasharray="5,2" d="M285.5,-74.84C285.5,-66.3 285.5,-56.78 285.5,-48.1"/>
<polygon fill="black" stroke="black" points="289,-48.05 285.5,-38.05 282,-48.05 289,-48.05"/>
</g>
</g>
</svg>
