<?xml version="1.0" encoding="UTF-8" standalone="no"?>
<!DOCTYPE svg PUBLIC "-//W3C//DTD SVG 1.1//EN"
 "http://www.w3.org/Graphics/SVG/1.1/DTD/svg11.dtd">
<!-- Generated by graphviz version 2.43.0 (0)
 -->
<!-- Title: %3 Pages: 1 -->
<svg width="576pt" height="238pt"
 viewBox="0.00 0.00 576.00 237.74" xmlns="http://www.w3.org/2000/svg" xmlns:xlink="http://www.w3.org/1999/xlink">
<g id="graph0" class="graph" transform="scale(1 1) rotate(0) translate(36 201.74)">
<title>%3</title>
<polygon fill="dimgray" stroke="transparent" points="-36,36 -36,-201.74 540,-201.74 540,36 -36,36"/>
<text text-anchor="middle" x="252" y="-150.54" font-family="Helvetica,sans-Serif" font-size="14.00">Sweep&#39;s Plan &amp; Progress</text>
<!-- start -->
<g id="node1" class="node">
<title>start</title>
</g>
<!-- 6fbeaf13&#45;5de6&#45;4c01&#45;841d&#45;7386f41bffb2 -->
<g id="node3" class="node">
<title>6fbeaf13&#45;5de6&#45;4c01&#45;841d&#45;7386f41bffb2</title>
<ellipse fill="yellow" stroke="black" cx="173" cy="-99.87" rx="69.09" ry="26.74"/>
<text text-anchor="middle" x="173" y="-103.67" font-family="Helvetica,sans-Serif" font-size="14.00">⋯ Modify</text>
<text text-anchor="middle" x="173" y="-88.67" font-family="Helvetica,sans-Serif" font-size="14.00">src/main.py</text>
</g>
<!-- start&#45;&gt;6fbeaf13&#45;5de6&#45;4c01&#45;841d&#45;7386f41bffb2 -->
<g id="edge4" class="edge">
<title>start&#45;&gt;6fbeaf13&#45;5de6&#45;4c01&#45;841d&#45;7386f41bffb2</title>
<path fill="none" stroke="black" d="M52.77,-99.87C56.53,-99.87 73.49,-99.87 93.55,-99.87"/>
<polygon fill="black" stroke="black" points="93.61,-103.37 103.61,-99.87 93.61,-96.37 93.61,-103.37"/>
<text text-anchor="middle" x="78.1" y="-106.67" font-family="Helvetica,sans-Serif" font-size="14.00">Start</text>
</g>
<!-- end -->
<g id="node2" class="node">
<title>end</title>
</g>
<!-- 4e4adb16&#45;4b97&#45;42d9&#45;9256&#45;aac12701f9d6 -->
<g id="node4" class="node">
<title>4e4adb16&#45;4b97&#45;42d9&#45;9256&#45;aac12701f9d6</title>
<ellipse fill="white" stroke="black" cx="362" cy="-99.87" rx="59.29" ry="26.74"/>
<text text-anchor="middle" x="362" y="-103.67" font-family="Helvetica,sans-Serif" font-size="14.00">▶ Modify</text>
<text text-anchor="middle" x="362" y="-88.67" font-family="Helvetica,sans-Serif" font-size="14.00">src/api.py</text>
</g>
<!-- 6fbeaf13&#45;5de6&#45;4c01&#45;841d&#45;7386f41bffb2&#45;&gt;4e4adb16&#45;4b97&#45;42d9&#45;9256&#45;aac12701f9d6 -->
<g id="edge2" class="edge">
<title>6fbeaf13&#45;5de6&#45;4c01&#45;841d&#45;7386f41bffb2&#45;&gt;4e4adb16&#45;4b97&#45;42d9&#45;9256&#45;aac12701f9d6</title>
<path fill="none" stroke="black" d="M242.4,-99.87C258.91,-99.87 275.41,-99.87 291.92,-99.87"/>
<polygon fill="black" stroke="black" points="292.2,-103.37 302.2,-99.87 292.2,-96.37 292.2,-103.37"/>
</g>
<!-- e34f7650&#45;3928&#45;404c&#45;aa1d&#45;94ab2661733b -->
<g id="node5" class="node">
<title>e34f7650&#45;3928&#45;404c&#45;aa1d&#45;94ab2661733b</title>
<polygon fill="white" stroke="black" points="250,-36 0,-36 0,0 250,0 250,-36"/>
<text text-anchor="middle" x="125" y="-14.3" font-family="Helvetica,sans-Serif" font-size="14.00">▶ Ran sandbox for `src/main.py`.</text>
</g>
<!-- 6fbeaf13&#45;5de6&#45;4c01&#45;841d&#45;7386f41bffb2&#45;&gt;e34f7650&#45;3928&#45;404c&#45;aa1d&#45;94ab2661733b -->
<g id="edge1" class="edge">
<title>6fbeaf13&#45;5de6&#45;4c01&#45;841d&#45;7386f41bffb2&#45;&gt;e34f7650&#45;3928&#45;404c&#45;aa1d&#45;94ab2661733b</title>
<path fill="none" stroke="black" stroke-dasharray="5,2" d="M157.81,-73.6C152.29,-64.41 146.05,-54.02 140.5,-44.79"/>
<polygon fill="black" stroke="black" points="143.39,-42.8 135.24,-36.04 137.39,-46.41 143.39,-42.8"/>
</g>
<!-- 4e4adb16&#45;4b97&#45;42d9&#45;9256&#45;aac12701f9d6&#45;&gt;end -->
<g id="edge5" class="edge">
<title>4e4adb16&#45;4b97&#45;42d9&#45;9256&#45;aac12701f9d6&#45;&gt;end</title>
<path fill="none" stroke="black" d="M421.53,-99.87C439.33,-99.87 457.01,-99.87 467.96,-99.87"/>
<polygon fill="black" stroke="black" points="468.27,-103.37 478.27,-99.87 468.27,-96.37 468.27,-103.37"/>
<text text-anchor="middle" x="449.95" y="-106.67" font-family="Helvetica,sans-Serif" font-size="14.00">Finish</text>
</g>
<!-- d5a6bf0a&#45;7324&#45;48e6&#45;afc3&#45;5cc1da3467dc -->
<g id="node6" class="node">
<title>d5a6bf0a&#45;7324&#45;48e6&#45;afc3&#45;5cc1da3467dc</title>
<polygon fill="white" stroke="black" points="504,-36 268,-36 268,0 504,0 504,-36"/>
<text text-anchor="middle" x="386" y="-14.3" font-family="Helvetica,sans-Serif" font-size="14.00">▶ Ran sandbox for `src/api.py`.</text>
</g>
<!-- 4e4adb16&#45;4b97&#45;42d9&#45;9256&#45;aac12701f9d6&#45;&gt;d5a6bf0a&#45;7324&#45;48e6&#45;afc3&#45;5cc1da3467dc -->
<g id="edge3" class="edge">
<title>4e4adb16&#45;4b97&#45;42d9&#45;9256&#45;aac12701f9d6&#45;&gt;d5a6bf0a&#45;7324&#45;48e6&#45;afc3&#45;5cc1da3467dc</title>
<path fill="none" stroke="black" stroke-dasharray="5,2" d="M369.73,-73.16C372.33,-64.51 375.23,-54.83 377.86,-46.07"/>
<polygon fill="black" stroke="black" points="381.26,-46.92 380.79,-36.34 374.56,-44.91 381.26,-46.92"/>
</g>
</g>
</svg>
