<?xml version="1.0" encoding="UTF-8" standalone="no"?>
<!DOCTYPE svg PUBLIC "-//W3C//DTD SVG 1.1//EN"
 "http://www.w3.org/Graphics/SVG/1.1/DTD/svg11.dtd">
<!-- Generated by graphviz version 8.0.3 (0)
 -->
<!-- Pages: 1 -->
<svg width="747pt" height="224pt"
 viewBox="0.00 0.00 747.00 223.74" xmlns="http://www.w3.org/2000/svg" xmlns:xlink="http://www.w3.org/1999/xlink">
<g id="graph0" class="graph" transform="scale(1 1) rotate(0) translate(36 187.74)">
<polygon fill="white" stroke="none" points="-36,36 -36,-187.74 711,-187.74 711,36 -36,36"/>
<text text-anchor="middle" x="98.5" y="-136.54" font-family="Times,serif" font-size="14.00">Sweep&#39;s Plan &amp; Progress</text>
<!-- start -->
<g id="node1" class="node">
<title>start</title>
</g>
<!-- 8d965438&#45;b748&#45;4d1d&#45;8993&#45;e9023f215c7b -->
<g id="node3" class="node">
<title>8d965438&#45;b748&#45;4d1d&#45;8993&#45;e9023f215c7b</title>
<ellipse fill="yellow" stroke="black" cx="119.5" cy="-101.87" rx="63.78" ry="26.74"/>
<text text-anchor="middle" x="119.5" y="-105.67" font-family="Times,serif" font-size="14.00">⋯ Create</text>
<text text-anchor="middle" x="119.5" y="-90.67" font-family="Times,serif" font-size="14.00">src/cnn.py</text>
</g>
<!-- start&#45;&gt;8d965438&#45;b748&#45;4d1d&#45;8993&#45;e9023f215c7b -->
<g id="edge6" class="edge">
<title>start&#45;&gt;8d965438&#45;b748&#45;4d1d&#45;8993&#45;e9023f215c7b</title>
<path fill="none" stroke="black" d="M0.84,-101.87C3.58,-101.87 22.48,-101.87 44.41,-101.87"/>
<polygon fill="black" stroke="black" points="44.36,-105.37 54.36,-101.87 44.36,-98.37 44.36,-105.37"/>
<text text-anchor="middle" x="28.43" y="-108.67" font-family="Times,serif" font-size="14.00">Start</text>
</g>
<!-- end -->
<g id="node2" class="node">
<title>end</title>
</g>
<!-- 0ba05d22&#45;7fc5&#45;489d&#45;8d55&#45;755c04ac11ec -->
<g id="node4" class="node">
<title>0ba05d22&#45;7fc5&#45;489d&#45;8d55&#45;755c04ac11ec</title>
<ellipse fill="white" stroke="black" cx="336.5" cy="-101.87" rx="70.92" ry="26.74"/>
<text text-anchor="middle" x="336.5" y="-105.67" font-family="Times,serif" font-size="14.00">▶ Modify</text>
<text text-anchor="middle" x="336.5" y="-90.67" font-family="Times,serif" font-size="14.00">src/main.py</text>
</g>
<!-- 8d965438&#45;b748&#45;4d1d&#45;8993&#45;e9023f215c7b&#45;&gt;0ba05d22&#45;7fc5&#45;489d&#45;8d55&#45;755c04ac11ec -->
<g id="edge2" class="edge">
<title>8d965438&#45;b748&#45;4d1d&#45;8993&#45;e9023f215c7b&#45;&gt;0ba05d22&#45;7fc5&#45;489d&#45;8d55&#45;755c04ac11ec</title>
<path fill="none" stroke="black" d="M183.73,-101.87C205.84,-101.87 230.92,-101.87 254.28,-101.87"/>
<polygon fill="black" stroke="black" points="254.22,-105.37 264.22,-101.87 254.22,-98.37 254.22,-105.37"/>
<text text-anchor="middle" x="224.46" y="-108.67" font-family="Times,serif" font-size="14.00">Continue</text>
</g>
<!-- a82a2c6d&#45;1879&#45;41ab&#45;a4fb&#45;5fef960cd9de -->
<g id="node6" class="node">
<title>a82a2c6d&#45;1879&#45;41ab&#45;a4fb&#45;5fef960cd9de</title>
<polygon fill="white" stroke="black" points="164.5,-38 74.5,-38 74.5,0 164.5,0 164.5,-38"/>
<text text-anchor="middle" x="119.5" y="-22.8" font-family="Times,serif" font-size="14.00">▶ Check</text>
<text text-anchor="middle" x="119.5" y="-7.8" font-family="Times,serif" font-size="14.00">src/cnn.py</text>
</g>
<!-- 8d965438&#45;b748&#45;4d1d&#45;8993&#45;e9023f215c7b&#45;&gt;a82a2c6d&#45;1879&#45;41ab&#45;a4fb&#45;5fef960cd9de -->
<g id="edge1" class="edge">
<title>8d965438&#45;b748&#45;4d1d&#45;8993&#45;e9023f215c7b&#45;&gt;a82a2c6d&#45;1879&#45;41ab&#45;a4fb&#45;5fef960cd9de</title>
<path fill="none" stroke="black" stroke-dasharray="5,2" d="M119.5,-74.84C119.5,-66.58 119.5,-57.41 119.5,-48.96"/>
<polygon fill="black" stroke="black" points="123,-49.05 119.5,-39.05 116,-49.05 123,-49.05"/>
</g>
<!-- 2aae825a&#45;535e&#45;4a6b&#45;a7bc&#45;a334c4a600b6 -->
<g id="node5" class="node">
<title>2aae825a&#45;535e&#45;4a6b&#45;a7bc&#45;a334c4a600b6</title>
<ellipse fill="white" stroke="black" cx="550.5" cy="-101.87" rx="60.62" ry="26.74"/>
<text text-anchor="middle" x="550.5" y="-105.67" font-family="Times,serif" font-size="14.00">▶ Modify</text>
<text text-anchor="middle" x="550.5" y="-90.67" font-family="Times,serif" font-size="14.00">src/api.py</text>
</g>
<!-- 0ba05d22&#45;7fc5&#45;489d&#45;8d55&#45;755c04ac11ec&#45;&gt;2aae825a&#45;535e&#45;4a6b&#45;a7bc&#45;a334c4a600b6 -->
<g id="edge4" class="edge">
<title>0ba05d22&#45;7fc5&#45;489d&#45;8d55&#45;755c04ac11ec&#45;&gt;2aae825a&#45;535e&#45;4a6b&#45;a7bc&#45;a334c4a600b6</title>
<path fill="none" stroke="black" d="M407.76,-101.87C430.54,-101.87 455.76,-101.87 478.58,-101.87"/>
<polygon fill="black" stroke="black" points="478.57,-105.37 488.57,-101.87 478.57,-98.37 478.57,-105.37"/>
<text text-anchor="middle" x="448.45" y="-108.67" font-family="Times,serif" font-size="14.00">Continue</text>
</g>
<!-- 784ea062&#45;63b5&#45;4d21&#45;b188&#45;3f79ca7e6a53 -->
<g id="node7" class="node">
<title>784ea062&#45;63b5&#45;4d21&#45;b188&#45;3f79ca7e6a53</title>
<polygon fill="white" stroke="black" points="386.5,-38 286.5,-38 286.5,0 386.5,0 386.5,-38"/>
<text text-anchor="middle" x="336.5" y="-22.8" font-family="Times,serif" font-size="14.00">▶ Check</text>
<text text-anchor="middle" x="336.5" y="-7.8" font-family="Times,serif" font-size="14.00">src/main.py</text>
</g>
<!-- 0ba05d22&#45;7fc5&#45;489d&#45;8d55&#45;755c04ac11ec&#45;&gt;784ea062&#45;63b5&#45;4d21&#45;b188&#45;3f79ca7e6a53 -->
<g id="edge3" class="edge">
<title>0ba05d22&#45;7fc5&#45;489d&#45;8d55&#45;755c04ac11ec&#45;&gt;784ea062&#45;63b5&#45;4d21&#45;b188&#45;3f79ca7e6a53</title>
<path fill="none" stroke="black" stroke-dasharray="5,2" d="M336.5,-74.84C336.5,-66.58 336.5,-57.41 336.5,-48.96"/>
<polygon fill="black" stroke="black" points="340,-49.05 336.5,-39.05 333,-49.05 340,-49.05"/>
</g>
<!-- 2aae825a&#45;535e&#45;4a6b&#45;a7bc&#45;a334c4a600b6&#45;&gt;end -->
<g id="edge7" class="edge">
<title>2aae825a&#45;535e&#45;4a6b&#45;a7bc&#45;a334c4a600b6&#45;&gt;end</title>
<path fill="none" stroke="black" d="M611.41,-101.87C631.39,-101.87 651.53,-101.87 663.5,-101.87"/>
<polygon fill="black" stroke="black" points="663.14,-105.37 673.14,-101.87 663.14,-98.37 663.14,-105.37"/>
<text text-anchor="middle" x="642.66" y="-108.67" font-family="Times,serif" font-size="14.00">Finish</text>
</g>
<!-- af28e76e&#45;1905&#45;42ac&#45;a7bf&#45;3d344227f0ce -->
<g id="node8" class="node">
<title>af28e76e&#45;1905&#45;42ac&#45;a7bf&#45;3d344227f0ce</title>
<polygon fill="white" stroke="black" points="593.5,-38 507.5,-38 507.5,0 593.5,0 593.5,-38"/>
<text text-anchor="middle" x="550.5" y="-22.8" font-family="Times,serif" font-size="14.00">▶ Check</text>
<text text-anchor="middle" x="550.5" y="-7.8" font-family="Times,serif" font-size="14.00">src/api.py</text>
</g>
<!-- 2aae825a&#45;535e&#45;4a6b&#45;a7bc&#45;a334c4a600b6&#45;&gt;af28e76e&#45;1905&#45;42ac&#45;a7bf&#45;3d344227f0ce -->
<g id="edge5" class="edge">
<title>2aae825a&#45;535e&#45;4a6b&#45;a7bc&#45;a334c4a600b6&#45;&gt;af28e76e&#45;1905&#45;42ac&#45;a7bf&#45;3d344227f0ce</title>
<path fill="none" stroke="black" stroke-dasharray="5,2" d="M550.5,-74.84C550.5,-66.58 550.5,-57.41 550.5,-48.96"/>
<polygon fill="black" stroke="black" points="554,-49.05 550.5,-39.05 547,-49.05 554,-49.05"/>
</g>
</g>
</svg>
