<?xml version="1.0" encoding="UTF-8" standalone="no"?>
<!DOCTYPE svg PUBLIC "-//W3C//DTD SVG 1.1//EN"
 "http://www.w3.org/Graphics/SVG/1.1/DTD/svg11.dtd">
<!-- Generated by graphviz version 8.0.3 (0)
 -->
<!-- Pages: 1 -->
<svg width="580pt" height="238pt"
 viewBox="0.00 0.00 580.00 237.74" xmlns="http://www.w3.org/2000/svg" xmlns:xlink="http://www.w3.org/1999/xlink">
<g id="graph0" class="graph" transform="scale(1 1) rotate(0) translate(36 201.74)">
<polygon fill="dimgray" stroke="none" points="-36,36 -36,-201.74 544,-201.74 544,36 -36,36"/>
<text text-anchor="middle" x="254" y="-150.54" font-family="Helvetica,sans-Serif" font-size="14.00">Sweep&#39;s Plan &amp; Progress</text>
<!-- start -->
<g id="node1" class="node">
<title>start</title>
</g>
<!-- 26359dc1&#45;d0f9&#45;4265&#45;8f81&#45;289e7aab0704 -->
<g id="node3" class="node">
<title>26359dc1&#45;d0f9&#45;4265&#45;8f81&#45;289e7aab0704</title>
<ellipse fill="#0ee832" stroke="black" cx="176" cy="-99.87" rx="69.09" ry="26.74"/>
<text text-anchor="middle" x="176" y="-103.67" font-family="Helvetica,sans-Serif" font-size="14.00">✓ Modify</text>
<text text-anchor="middle" x="176" y="-88.67" font-family="Helvetica,sans-Serif" font-size="14.00">src/main.py</text>
</g>
<!-- start&#45;&gt;26359dc1&#45;d0f9&#45;4265&#45;8f81&#45;289e7aab0704 -->
<g id="edge4" class="edge">
<title>start&#45;&gt;26359dc1&#45;d0f9&#45;4265&#45;8f81&#45;289e7aab0704</title>
<path fill="none" stroke="black" d="M55.35,-99.87C57.98,-99.87 75.26,-99.87 95.96,-99.87"/>
<polygon fill="black" stroke="black" points="95.69,-103.37 105.69,-99.87 95.69,-96.37 95.69,-103.37"/>
<text text-anchor="middle" x="81.1" y="-106.67" font-family="Helvetica,sans-Serif" font-size="14.00">Start</text>
</g>
<!-- end -->
<g id="node2" class="node">
<title>end</title>
</g>
<!-- d2e418e3&#45;a6fe&#45;4370&#45;a9a1&#45;fba42f8a675a -->
<g id="node4" class="node">
<title>d2e418e3&#45;a6fe&#45;4370&#45;a9a1&#45;fba42f8a675a</title>
<ellipse fill="white" stroke="black" cx="365" cy="-99.87" rx="59.29" ry="26.74"/>
<text text-anchor="middle" x="365" y="-103.67" font-family="Helvetica,sans-Serif" font-size="14.00">▶ Modify</text>
<text text-anchor="middle" x="365" y="-88.67" font-family="Helvetica,sans-Serif" font-size="14.00">src/api.py</text>
</g>
<!-- 26359dc1&#45;d0f9&#45;4265&#45;8f81&#45;289e7aab0704&#45;&gt;d2e418e3&#45;a6fe&#45;4370&#45;a9a1&#45;fba42f8a675a -->
<g id="edge2" class="edge">
<title>26359dc1&#45;d0f9&#45;4265&#45;8f81&#45;289e7aab0704&#45;&gt;d2e418e3&#45;a6fe&#45;4370&#45;a9a1&#45;fba42f8a675a</title>
<path fill="none" stroke="black" d="M245.4,-99.87C261.88,-99.87 278.36,-99.87 294.84,-99.87"/>
<polygon fill="black" stroke="black" points="294.67,-103.37 304.67,-99.87 294.67,-96.37 294.67,-103.37"/>
</g>
<!-- 1835017f&#45;cb4e&#45;43ed&#45;9261&#45;3634f2e1a120 -->
<g id="node5" class="node">
<title>1835017f&#45;cb4e&#45;43ed&#45;9261&#45;3634f2e1a120</title>
<polygon fill="yellow" stroke="black" points="254,-36 0,-36 0,0 254,0 254,-36"/>
<text text-anchor="middle" x="127" y="-14.3" font-family="Helvetica,sans-Serif" font-size="14.00">⋯ Ran sandbox for `src/main.py`.</text>
</g>
<!-- 26359dc1&#45;d0f9&#45;4265&#45;8f81&#45;289e7aab0704&#45;&gt;1835017f&#45;cb4e&#45;43ed&#45;9261&#45;3634f2e1a120 -->
<g id="edge1" class="edge">
<title>26359dc1&#45;d0f9&#45;4265&#45;8f81&#45;289e7aab0704&#45;&gt;1835017f&#45;cb4e&#45;43ed&#45;9261&#45;3634f2e1a120</title>
<path fill="none" stroke="black" stroke-dasharray="5,2" d="M160.5,-73.6C154.98,-64.6 148.75,-54.46 143.18,-45.37"/>
<polygon fill="black" stroke="black" points="145.66,-43.73 137.45,-37.04 139.7,-47.39 145.66,-43.73"/>
</g>
<!-- d2e418e3&#45;a6fe&#45;4370&#45;a9a1&#45;fba42f8a675a&#45;&gt;end -->
<g id="edge5" class="edge">
<title>d2e418e3&#45;a6fe&#45;4370&#45;a9a1&#45;fba42f8a675a&#45;&gt;end</title>
<path fill="none" stroke="black" d="M424.53,-99.87C442.31,-99.87 459.97,-99.87 470.92,-99.87"/>
<polygon fill="black" stroke="black" points="470.67,-103.37 480.67,-99.87 470.67,-96.37 470.67,-103.37"/>
<text text-anchor="middle" x="452.95" y="-106.67" font-family="Helvetica,sans-Serif" font-size="14.00">Finish</text>
</g>
<!-- ee398e36&#45;f0d0&#45;4906&#45;969b&#45;d0cd3edc4283 -->
<g id="node6" class="node">
<title>ee398e36&#45;f0d0&#45;4906&#45;969b&#45;d0cd3edc4283</title>
<polygon fill="white" stroke="black" points="508,-36 272,-36 272,0 508,0 508,-36"/>
<text text-anchor="middle" x="390" y="-14.3" font-family="Helvetica,sans-Serif" font-size="14.00">▶ Ran sandbox for `src/api.py`.</text>
</g>
<!-- d2e418e3&#45;a6fe&#45;4370&#45;a9a1&#45;fba42f8a675a&#45;&gt;ee398e36&#45;f0d0&#45;4906&#45;969b&#45;d0cd3edc4283 -->
<g id="edge3" class="edge">
<title>d2e418e3&#45;a6fe&#45;4370&#45;a9a1&#45;fba42f8a675a&#45;&gt;ee398e36&#45;f0d0&#45;4906&#45;969b&#45;d0cd3edc4283</title>
<path fill="none" stroke="black" stroke-dasharray="5,2" d="M373.05,-73.16C375.7,-64.69 378.65,-55.25 381.35,-46.65"/>
<polygon fill="black" stroke="black" points="384.93,-47.93 384.57,-37.34 378.25,-45.83 384.93,-47.93"/>
</g>
</g>
</svg>
