<?xml version="1.0" encoding="UTF-8" standalone="no"?>
<!DOCTYPE svg PUBLIC "-//W3C//DTD SVG 1.1//EN"
 "http://www.w3.org/Graphics/SVG/1.1/DTD/svg11.dtd">
<!-- Generated by graphviz version 2.43.0 (0)
 -->
<!-- Title: %3 Pages: 1 -->
<svg width="579pt" height="599pt"
 viewBox="0.00 0.00 579.13 599.22" xmlns="http://www.w3.org/2000/svg" xmlns:xlink="http://www.w3.org/1999/xlink">
<g id="graph0" class="graph" transform="scale(1 1) rotate(0) translate(36 563.22)">
<title>%3</title>
<polygon fill="dimgray" stroke="transparent" points="-36,36 -36,-563.22 543.13,-563.22 543.13,36 -36,36"/>
<text text-anchor="middle" x="253.57" y="-512.02" font-family="Helvetica,sans-Serif" font-size="14.00">Sweep&#39;s Plan &amp; Progress</text>
<!-- start -->
<g id="node1" class="node">
<title>start</title>
</g>
<!-- 3e1aa324&#45;24c5&#45;457e&#45;ad59&#45;71db9288c149 -->
<g id="node3" class="node">
<title>3e1aa324&#45;24c5&#45;457e&#45;ad59&#45;71db9288c149</title>
<ellipse fill="#0ee832" stroke="black" cx="292.63" cy="-461.35" rx="92.76" ry="26.74"/>
<text text-anchor="middle" x="292.63" y="-465.15" font-family="Helvetica,sans-Serif" font-size="14.00">✓ Create</text>
<text text-anchor="middle" x="292.63" y="-450.15" font-family="Helvetica,sans-Serif" font-size="14.00">src/test_main.py</text>
</g>
<!-- start&#45;&gt;3e1aa324&#45;24c5&#45;457e&#45;ad59&#45;71db9288c149 -->
<g id="edge11" class="edge">
<title>start&#45;&gt;3e1aa324&#45;24c5&#45;457e&#45;ad59&#45;71db9288c149</title>
<path fill="none" stroke="black" d="M148.28,-461.35C151.72,-461.35 168.5,-461.35 189.48,-461.35"/>
<polygon fill="black" stroke="black" points="189.73,-464.85 199.73,-461.35 189.73,-457.85 189.73,-464.85"/>
<text text-anchor="middle" x="174.07" y="-468.15" font-family="Helvetica,sans-Serif" font-size="14.00">Start</text>
</g>
<!-- end -->
<g id="node2" class="node">
<title>end</title>
</g>
<!-- 3e1aa324&#45;24c5&#45;457e&#45;ad59&#45;71db9288c149&#45;&gt;end -->
<g id="edge12" class="edge">
<title>3e1aa324&#45;24c5&#45;457e&#45;ad59&#45;71db9288c149&#45;&gt;end</title>
<path fill="none" stroke="black" d="M385.68,-461.35C404.6,-461.35 421.97,-461.35 432.65,-461.35"/>
<polygon fill="black" stroke="black" points="432.94,-464.85 442.94,-461.35 432.94,-457.85 432.94,-464.85"/>
<text text-anchor="middle" x="414.2" y="-468.15" font-family="Helvetica,sans-Serif" font-size="14.00">Finish</text>
</g>
<!-- 8630f1a1&#45;6c93&#45;4286&#45;9f62&#45;85931dd553a1 -->
<g id="node4" class="node">
<title>8630f1a1&#45;6c93&#45;4286&#45;9f62&#45;85931dd553a1</title>
<polygon fill="#ee0000" stroke="black" points="192.13,-397.48 61.13,-397.48 61.13,-359.48 192.13,-359.48 192.13,-397.48"/>
<text text-anchor="middle" x="126.63" y="-382.28" font-family="Helvetica,sans-Serif" font-size="14.00">✗ Check</text>
<text text-anchor="middle" x="126.63" y="-367.28" font-family="Helvetica,sans-Serif" font-size="14.00">src/test_main.py</text>
</g>
<!-- 3e1aa324&#45;24c5&#45;457e&#45;ad59&#45;71db9288c149&#45;&gt;8630f1a1&#45;6c93&#45;4286&#45;9f62&#45;85931dd553a1 -->
<g id="edge1" class="edge">
<title>3e1aa324&#45;24c5&#45;457e&#45;ad59&#45;71db9288c149&#45;&gt;8630f1a1&#45;6c93&#45;4286&#45;9f62&#45;85931dd553a1</title>
<path fill="none" stroke="black" stroke-dasharray="5,2" d="M246.39,-437.82C223.46,-426.65 195.83,-413.19 172.89,-402.02"/>
<polygon fill="black" stroke="black" points="174.23,-398.77 163.7,-397.54 171.16,-405.07 174.23,-398.77"/>
</g>
<!-- b1404f88&#45;786b&#45;4933&#45;9780&#45;b6caa36ec433 -->
<g id="node5" class="node">
<title>b1404f88&#45;786b&#45;4933&#45;9780&#45;b6caa36ec433</title>
<polygon fill="#ee0000" stroke="black" points="358.13,-397.48 227.13,-397.48 227.13,-359.48 358.13,-359.48 358.13,-397.48"/>
<text text-anchor="middle" x="292.63" y="-382.28" font-family="Helvetica,sans-Serif" font-size="14.00">✗ Check</text>
<text text-anchor="middle" x="292.63" y="-367.28" font-family="Helvetica,sans-Serif" font-size="14.00">src/test_main.py</text>
</g>
<!-- 3e1aa324&#45;24c5&#45;457e&#45;ad59&#45;71db9288c149&#45;&gt;b1404f88&#45;786b&#45;4933&#45;9780&#45;b6caa36ec433 -->
<g id="edge4" class="edge">
<title>3e1aa324&#45;24c5&#45;457e&#45;ad59&#45;71db9288c149&#45;&gt;b1404f88&#45;786b&#45;4933&#45;9780&#45;b6caa36ec433</title>
<path fill="none" stroke="black" stroke-dasharray="5,2" d="M292.63,-434.32C292.63,-425.78 292.63,-416.26 292.63,-407.58"/>
<polygon fill="black" stroke="black" points="296.13,-407.53 292.63,-397.53 289.13,-407.53 296.13,-407.53"/>
</g>
<!-- cfe9e19e&#45;788d&#45;40b2&#45;85b2&#45;9d594bc56b01 -->
<g id="node6" class="node">
<title>cfe9e19e&#45;788d&#45;40b2&#45;85b2&#45;9d594bc56b01</title>
<polygon fill="white" stroke="black" points="507.13,-397.48 376.13,-397.48 376.13,-359.48 507.13,-359.48 507.13,-397.48"/>
<text text-anchor="middle" x="441.63" y="-382.28" font-family="Helvetica,sans-Serif" font-size="14.00">▶ Check</text>
<text text-anchor="middle" x="441.63" y="-367.28" font-family="Helvetica,sans-Serif" font-size="14.00">src/test_main.py</text>
</g>
<!-- 3e1aa324&#45;24c5&#45;457e&#45;ad59&#45;71db9288c149&#45;&gt;cfe9e19e&#45;788d&#45;40b2&#45;85b2&#45;9d594bc56b01 -->
<g id="edge10" class="edge">
<title>3e1aa324&#45;24c5&#45;457e&#45;ad59&#45;71db9288c149&#45;&gt;cfe9e19e&#45;788d&#45;40b2&#45;85b2&#45;9d594bc56b01</title>
<path fill="none" stroke="black" stroke-dasharray="5,2" d="M334.93,-437.39C355.07,-426.46 379.11,-413.41 399.26,-402.48"/>
<polygon fill="black" stroke="black" points="401.1,-405.46 408.22,-397.61 397.76,-399.31 401.1,-405.46"/>
</g>
<!-- f05df1d8&#45;af7c&#45;4e7a&#45;9cfc&#45;25ade5d0fb35 -->
<g id="node7" class="node">
<title>f05df1d8&#45;af7c&#45;4e7a&#45;9cfc&#45;25ade5d0fb35</title>
<ellipse fill="#0ee832" stroke="black" cx="92.63" cy="-281.61" rx="92.76" ry="26.74"/>
<text text-anchor="middle" x="92.63" y="-285.41" font-family="Helvetica,sans-Serif" font-size="14.00">✓ Modify</text>
<text text-anchor="middle" x="92.63" y="-270.41" font-family="Helvetica,sans-Serif" font-size="14.00">src/test_main.py</text>
</g>
<!-- 8630f1a1&#45;6c93&#45;4286&#45;9f62&#45;85931dd553a1&#45;&gt;f05df1d8&#45;af7c&#45;4e7a&#45;9cfc&#45;25ade5d0fb35 -->
<g id="edge2" class="edge">
<title>8630f1a1&#45;6c93&#45;4286&#45;9f62&#45;85931dd553a1&#45;&gt;f05df1d8&#45;af7c&#45;4e7a&#45;9cfc&#45;25ade5d0fb35</title>
<path fill="none" stroke="black" d="M110.99,-359.46C107.01,-354 103.15,-347.78 100.63,-341.48 97.76,-334.29 95.88,-326.25 94.66,-318.48"/>
<polygon fill="black" stroke="black" points="98.13,-318 93.42,-308.52 91.18,-318.87 98.13,-318"/>
<text text-anchor="middle" x="198.13" y="-330.28" font-family="Helvetica,sans-Serif" font-size="14.00">Additional changes required</text>
</g>
<!-- 84d92349&#45;2187&#45;4fd9&#45;8fb6&#45;2ca61035cfa9 -->
<g id="node8" class="node">
<title>84d92349&#45;2187&#45;4fd9&#45;8fb6&#45;2ca61035cfa9</title>
<ellipse fill="#0ee832" stroke="black" cx="310.63" cy="-281.61" rx="92.76" ry="26.74"/>
<text text-anchor="middle" x="310.63" y="-285.41" font-family="Helvetica,sans-Serif" font-size="14.00">✓ Modify</text>
<text text-anchor="middle" x="310.63" y="-270.41" font-family="Helvetica,sans-Serif" font-size="14.00">src/test_main.py</text>
</g>
<!-- b1404f88&#45;786b&#45;4933&#45;9780&#45;b6caa36ec433&#45;&gt;84d92349&#45;2187&#45;4fd9&#45;8fb6&#45;2ca61035cfa9 -->
<g id="edge5" class="edge">
<title>b1404f88&#45;786b&#45;4933&#45;9780&#45;b6caa36ec433&#45;&gt;84d92349&#45;2187&#45;4fd9&#45;8fb6&#45;2ca61035cfa9</title>
<path fill="none" stroke="black" d="M296.1,-359.19C298.27,-347.78 301.13,-332.69 303.74,-318.92"/>
<polygon fill="black" stroke="black" points="307.25,-319.22 305.67,-308.74 300.37,-317.91 307.25,-319.22"/>
<text text-anchor="middle" x="400.13" y="-330.28" font-family="Helvetica,sans-Serif" font-size="14.00">Additional changes required</text>
</g>
<!-- 75d010a9&#45;7271&#45;4bc1&#45;95f7&#45;d85b30ac8f52 -->
<g id="node9" class="node">
<title>75d010a9&#45;7271&#45;4bc1&#45;95f7&#45;d85b30ac8f52</title>
<polygon fill="yellow" stroke="black" points="158.13,-217.74 27.13,-217.74 27.13,-179.74 158.13,-179.74 158.13,-217.74"/>
<text text-anchor="middle" x="92.63" y="-202.54" font-family="Helvetica,sans-Serif" font-size="14.00">⋯ Check</text>
<text text-anchor="middle" x="92.63" y="-187.54" font-family="Helvetica,sans-Serif" font-size="14.00">src/test_main.py</text>
</g>
<!-- f05df1d8&#45;af7c&#45;4e7a&#45;9cfc&#45;25ade5d0fb35&#45;&gt;75d010a9&#45;7271&#45;4bc1&#45;95f7&#45;d85b30ac8f52 -->
<g id="edge3" class="edge">
<title>f05df1d8&#45;af7c&#45;4e7a&#45;9cfc&#45;25ade5d0fb35&#45;&gt;75d010a9&#45;7271&#45;4bc1&#45;95f7&#45;d85b30ac8f52</title>
<path fill="none" stroke="black" stroke-dasharray="5,2" d="M92.63,-254.58C92.63,-246.04 92.63,-236.52 92.63,-227.84"/>
<polygon fill="black" stroke="black" points="96.13,-227.79 92.63,-217.79 89.13,-227.79 96.13,-227.79"/>
</g>
<!-- 8ea75ef7&#45;7898&#45;402c&#45;8c9e&#45;1cc779051213 -->
<g id="node10" class="node">
<title>8ea75ef7&#45;7898&#45;402c&#45;8c9e&#45;1cc779051213</title>
<polygon fill="#ee0000" stroke="black" points="341.13,-217.74 210.13,-217.74 210.13,-179.74 341.13,-179.74 341.13,-217.74"/>
<text text-anchor="middle" x="275.63" y="-202.54" font-family="Helvetica,sans-Serif" font-size="14.00">✗ Check</text>
<text text-anchor="middle" x="275.63" y="-187.54" font-family="Helvetica,sans-Serif" font-size="14.00">src/test_main.py</text>
</g>
<!-- 84d92349&#45;2187&#45;4fd9&#45;8fb6&#45;2ca61035cfa9&#45;&gt;8ea75ef7&#45;7898&#45;402c&#45;8c9e&#45;1cc779051213 -->
<g id="edge6" class="edge">
<title>84d92349&#45;2187&#45;4fd9&#45;8fb6&#45;2ca61035cfa9&#45;&gt;8ea75ef7&#45;7898&#45;402c&#45;8c9e&#45;1cc779051213</title>
<path fill="none" stroke="black" stroke-dasharray="5,2" d="M299.36,-254.58C295.55,-245.76 291.28,-235.89 287.42,-226.99"/>
<polygon fill="black" stroke="black" points="290.63,-225.58 283.44,-217.79 284.2,-228.36 290.63,-225.58"/>
</g>
<!-- 5f084205&#45;9d68&#45;4f81&#45;96c1&#45;b9c4208dc909 -->
<g id="node11" class="node">
<title>5f084205&#45;9d68&#45;4f81&#45;96c1&#45;b9c4208dc909</title>
<polygon fill="white" stroke="black" points="490.13,-217.74 359.13,-217.74 359.13,-179.74 490.13,-179.74 490.13,-217.74"/>
<text text-anchor="middle" x="424.63" y="-202.54" font-family="Helvetica,sans-Serif" font-size="14.00">▶ Check</text>
<text text-anchor="middle" x="424.63" y="-187.54" font-family="Helvetica,sans-Serif" font-size="14.00">src/test_main.py</text>
</g>
<!-- 84d92349&#45;2187&#45;4fd9&#45;8fb6&#45;2ca61035cfa9&#45;&gt;5f084205&#45;9d68&#45;4f81&#45;96c1&#45;b9c4208dc909 -->
<g id="edge9" class="edge">
<title>84d92349&#45;2187&#45;4fd9&#45;8fb6&#45;2ca61035cfa9&#45;&gt;5f084205&#45;9d68&#45;4f81&#45;96c1&#45;b9c4208dc909</title>
<path fill="none" stroke="black" stroke-dasharray="5,2" d="M344.53,-256.57C359.12,-246.21 376.15,-234.13 390.74,-223.78"/>
<polygon fill="black" stroke="black" points="392.88,-226.55 399.01,-217.91 388.83,-220.84 392.88,-226.55"/>
</g>
<!-- 1676f287&#45;a3bd&#45;4c7e&#45;b762&#45;ca0d154169f8 -->
<g id="node12" class="node">
<title>1676f287&#45;a3bd&#45;4c7e&#45;b762&#45;ca0d154169f8</title>
<ellipse fill="yellow" stroke="black" cx="275.63" cy="-101.87" rx="92.76" ry="26.74"/>
<text text-anchor="middle" x="275.63" y="-105.67" font-family="Helvetica,sans-Serif" font-size="14.00">⋯ Modify</text>
<text text-anchor="middle" x="275.63" y="-90.67" font-family="Helvetica,sans-Serif" font-size="14.00">src/test_main.py</text>
</g>
<!-- 8ea75ef7&#45;7898&#45;402c&#45;8c9e&#45;1cc779051213&#45;&gt;1676f287&#45;a3bd&#45;4c7e&#45;b762&#45;ca0d154169f8 -->
<g id="edge7" class="edge">
<title>8ea75ef7&#45;7898&#45;402c&#45;8c9e&#45;1cc779051213&#45;&gt;1676f287&#45;a3bd&#45;4c7e&#45;b762&#45;ca0d154169f8</title>
<path fill="none" stroke="black" d="M275.63,-179.45C275.63,-168.03 275.63,-152.95 275.63,-139.18"/>
<polygon fill="black" stroke="black" points="279.13,-139 275.63,-129 272.13,-139 279.13,-139"/>
<text text-anchor="middle" x="373.13" y="-150.54" font-family="Helvetica,sans-Serif" font-size="14.00">Additional changes required</text>
</g>
<!-- 0c2eb4b7&#45;5203&#45;42fe&#45;8cc0&#45;a264ff947d76 -->
<g id="node13" class="node">
<title>0c2eb4b7&#45;5203&#45;42fe&#45;8cc0&#45;a264ff947d76</title>
<polygon fill="white" stroke="black" points="341.13,-38 210.13,-38 210.13,0 341.13,0 341.13,-38"/>
<text text-anchor="middle" x="275.63" y="-22.8" font-family="Helvetica,sans-Serif" font-size="14.00">▶ Check</text>
<text text-anchor="middle" x="275.63" y="-7.8" font-family="Helvetica,sans-Serif" font-size="14.00">src/test_main.py</text>
</g>
<!-- 1676f287&#45;a3bd&#45;4c7e&#45;b762&#45;ca0d154169f8&#45;&gt;0c2eb4b7&#45;5203&#45;42fe&#45;8cc0&#45;a264ff947d76 -->
<g id="edge8" class="edge">
<title>1676f287&#45;a3bd&#45;4c7e&#45;b762&#45;ca0d154169f8&#45;&gt;0c2eb4b7&#45;5203&#45;42fe&#45;8cc0&#45;a264ff947d76</title>
<path fill="none" stroke="black" stroke-dasharray="5,2" d="M275.63,-74.84C275.63,-66.3 275.63,-56.78 275.63,-48.1"/>
<polygon fill="black" stroke="black" points="279.13,-48.05 275.63,-38.05 272.13,-48.05 279.13,-48.05"/>
</g>
</g>
</svg>
