<?xml version="1.0" encoding="UTF-8" standalone="no"?>
<!DOCTYPE svg PUBLIC "-//W3C//DTD SVG 1.1//EN"
 "http://www.w3.org/Graphics/SVG/1.1/DTD/svg11.dtd">
<!-- Generated by graphviz version 8.0.3 (0)
 -->
<!-- Pages: 1 -->
<svg width="730pt" height="408pt"
 viewBox="0.00 0.00 729.50 408.48" xmlns="http://www.w3.org/2000/svg" xmlns:xlink="http://www.w3.org/1999/xlink">
<g id="graph0" class="graph" transform="scale(1 1) rotate(0) translate(36 372.48)">
<polygon fill="white" stroke="none" points="-36,36 -36,-372.48 693.5,-372.48 693.5,36 -36,36"/>
<!-- start -->
<g id="node1" class="node">
<title>start</title>
</g>
<!-- 7a9e7495&#45;862e&#45;462d&#45;8905&#45;a56984bc32f9 -->
<g id="node2" class="node">
<title>7a9e7495&#45;862e&#45;462d&#45;8905&#45;a56984bc32f9</title>
<ellipse fill="green" stroke="black" cx="119.5" cy="-309.61" rx="63.78" ry="26.74"/>
<text text-anchor="middle" x="119.5" y="-313.41" font-family="Times,serif" font-size="14.00">✓ Create</text>
<text text-anchor="middle" x="119.5" y="-298.41" font-family="Times,serif" font-size="14.00">src/cnn.py</text>
</g>
<!-- start&#45;&gt;7a9e7495&#45;862e&#45;462d&#45;8905&#45;a56984bc32f9 -->
<g id="edge9" class="edge">
<title>start&#45;&gt;7a9e7495&#45;862e&#45;462d&#45;8905&#45;a56984bc32f9</title>
<path fill="none" stroke="black" d="M0.84,-309.61C3.58,-309.61 22.48,-309.61 44.41,-309.61"/>
<polygon fill="black" stroke="black" points="44.36,-313.11 54.36,-309.61 44.36,-306.11 44.36,-313.11"/>
<text text-anchor="middle" x="28.43" y="-316.41" font-family="Times,serif" font-size="14.00">Start</text>
</g>
<!-- d6c1ba26&#45;3e14&#45;4ba9&#45;9fb1&#45;0383ca2d12f5 -->
<g id="node3" class="node">
<title>d6c1ba26&#45;3e14&#45;4ba9&#45;9fb1&#45;0383ca2d12f5</title>
<ellipse fill="green" stroke="black" cx="336.5" cy="-309.61" rx="70.92" ry="26.74"/>
<text text-anchor="middle" x="336.5" y="-313.41" font-family="Times,serif" font-size="14.00">✓ Modify</text>
<text text-anchor="middle" x="336.5" y="-298.41" font-family="Times,serif" font-size="14.00">src/main.py</text>
</g>
<!-- 7a9e7495&#45;862e&#45;462d&#45;8905&#45;a56984bc32f9&#45;&gt;d6c1ba26&#45;3e14&#45;4ba9&#45;9fb1&#45;0383ca2d12f5 -->
<g id="edge2" class="edge">
<title>7a9e7495&#45;862e&#45;462d&#45;8905&#45;a56984bc32f9&#45;&gt;d6c1ba26&#45;3e14&#45;4ba9&#45;9fb1&#45;0383ca2d12f5</title>
<path fill="none" stroke="black" d="M183.73,-309.61C205.84,-309.61 230.92,-309.61 254.28,-309.61"/>
<polygon fill="black" stroke="black" points="254.22,-313.11 264.22,-309.61 254.22,-306.11 254.22,-313.11"/>
<text text-anchor="middle" x="224.46" y="-316.41" font-family="Times,serif" font-size="14.00">Continue</text>
</g>
<!-- 45ebdc98&#45;a141&#45;4a5b&#45;a221&#45;d57b1a9d6983 -->
<g id="node5" class="node">
<title>45ebdc98&#45;a141&#45;4a5b&#45;a221&#45;d57b1a9d6983</title>
<polygon fill="green" stroke="black" points="164.5,-231.74 74.5,-231.74 74.5,-193.74 164.5,-193.74 164.5,-231.74"/>
<text text-anchor="middle" x="119.5" y="-216.54" font-family="Times,serif" font-size="14.00">✓ Check</text>
<text text-anchor="middle" x="119.5" y="-201.54" font-family="Times,serif" font-size="14.00">src/cnn.py</text>
</g>
<!-- 7a9e7495&#45;862e&#45;462d&#45;8905&#45;a56984bc32f9&#45;&gt;45ebdc98&#45;a141&#45;4a5b&#45;a221&#45;d57b1a9d6983 -->
<g id="edge1" class="edge">
<title>7a9e7495&#45;862e&#45;462d&#45;8905&#45;a56984bc32f9&#45;&gt;45ebdc98&#45;a141&#45;4a5b&#45;a221&#45;d57b1a9d6983</title>
<path fill="none" stroke="black" stroke-dasharray="5,2" d="M119.5,-282.44C119.5,-270.17 119.5,-255.52 119.5,-242.91"/>
<polygon fill="black" stroke="black" points="123,-243.02 119.5,-233.02 116,-243.02 123,-243.02"/>
<text text-anchor="middle" x="173" y="-253.54" font-family="Times,serif" font-size="14.00">Check changes</text>
</g>
<!-- ce25d42b&#45;abf9&#45;472a&#45;a152&#45;7cd87b5c7b67 -->
<g id="node4" class="node">
<title>ce25d42b&#45;abf9&#45;472a&#45;a152&#45;7cd87b5c7b67</title>
<ellipse fill="green" stroke="black" cx="550.5" cy="-309.61" rx="60.62" ry="26.74"/>
<text text-anchor="middle" x="550.5" y="-313.41" font-family="Times,serif" font-size="14.00">✓ Modify</text>
<text text-anchor="middle" x="550.5" y="-298.41" font-family="Times,serif" font-size="14.00">src/api.py</text>
</g>
<!-- d6c1ba26&#45;3e14&#45;4ba9&#45;9fb1&#45;0383ca2d12f5&#45;&gt;ce25d42b&#45;abf9&#45;472a&#45;a152&#45;7cd87b5c7b67 -->
<g id="edge4" class="edge">
<title>d6c1ba26&#45;3e14&#45;4ba9&#45;9fb1&#45;0383ca2d12f5&#45;&gt;ce25d42b&#45;abf9&#45;472a&#45;a152&#45;7cd87b5c7b67</title>
<path fill="none" stroke="black" d="M407.76,-309.61C430.54,-309.61 455.76,-309.61 478.58,-309.61"/>
<polygon fill="black" stroke="black" points="478.57,-313.11 488.57,-309.61 478.57,-306.11 478.57,-313.11"/>
<text text-anchor="middle" x="448.45" y="-316.41" font-family="Times,serif" font-size="14.00">Continue</text>
</g>
<!-- 53d6762a&#45;6365&#45;4410&#45;ac3d&#45;fe1b8567aa95 -->
<g id="node6" class="node">
<title>53d6762a&#45;6365&#45;4410&#45;ac3d&#45;fe1b8567aa95</title>
<polygon fill="red" stroke="black" points="385.5,-231.74 285.5,-231.74 285.5,-193.74 385.5,-193.74 385.5,-231.74"/>
<text text-anchor="middle" x="335.5" y="-216.54" font-family="Times,serif" font-size="14.00">✗ Check</text>
<text text-anchor="middle" x="335.5" y="-201.54" font-family="Times,serif" font-size="14.00">src/main.py</text>
</g>
<!-- d6c1ba26&#45;3e14&#45;4ba9&#45;9fb1&#45;0383ca2d12f5&#45;&gt;53d6762a&#45;6365&#45;4410&#45;ac3d&#45;fe1b8567aa95 -->
<g id="edge3" class="edge">
<title>d6c1ba26&#45;3e14&#45;4ba9&#45;9fb1&#45;0383ca2d12f5&#45;&gt;53d6762a&#45;6365&#45;4410&#45;ac3d&#45;fe1b8567aa95</title>
<path fill="none" stroke="black" stroke-dasharray="5,2" d="M293.15,-288.08C284.47,-281.85 276.48,-274.12 271.5,-264.74 266.09,-254.56 270.54,-245.71 279.14,-238.37"/>
<polygon fill="black" stroke="black" points="280.92,-240.69 287.05,-232.05 276.87,-234.98 280.92,-240.69"/>
<text text-anchor="middle" x="325" y="-253.54" font-family="Times,serif" font-size="14.00">Check changes</text>
</g>
<!-- d6c1ba26&#45;3e14&#45;4ba9&#45;9fb1&#45;0383ca2d12f5&#45;&gt;53d6762a&#45;6365&#45;4410&#45;ac3d&#45;fe1b8567aa95 -->
<g id="edge8" class="edge">
<title>d6c1ba26&#45;3e14&#45;4ba9&#45;9fb1&#45;0383ca2d12f5&#45;&gt;53d6762a&#45;6365&#45;4410&#45;ac3d&#45;fe1b8567aa95</title>
<path fill="none" stroke="black" stroke-dasharray="5,2" d="M367.6,-285.22C377.41,-274.88 384.34,-262.25 378.5,-249.74 376.89,-246.28 374.76,-243.04 372.31,-240.03"/>
<polygon fill="black" stroke="black" points="375.19,-237.94 365.74,-233.16 370.15,-242.79 375.19,-237.94"/>
<text text-anchor="middle" x="435" y="-253.54" font-family="Times,serif" font-size="14.00">Check changes</text>
</g>
<!-- 9f07f935&#45;e7d1&#45;4485&#45;848d&#45;06ce7ab1ec58 -->
<g id="node7" class="node">
<title>9f07f935&#45;e7d1&#45;4485&#45;848d&#45;06ce7ab1ec58</title>
<polygon fill="green" stroke="black" points="593.5,-231.74 507.5,-231.74 507.5,-193.74 593.5,-193.74 593.5,-231.74"/>
<text text-anchor="middle" x="550.5" y="-216.54" font-family="Times,serif" font-size="14.00">✓ Check</text>
<text text-anchor="middle" x="550.5" y="-201.54" font-family="Times,serif" font-size="14.00">src/api.py</text>
</g>
<!-- ce25d42b&#45;abf9&#45;472a&#45;a152&#45;7cd87b5c7b67&#45;&gt;9f07f935&#45;e7d1&#45;4485&#45;848d&#45;06ce7ab1ec58 -->
<g id="edge5" class="edge">
<title>ce25d42b&#45;abf9&#45;472a&#45;a152&#45;7cd87b5c7b67&#45;&gt;9f07f935&#45;e7d1&#45;4485&#45;848d&#45;06ce7ab1ec58</title>
<path fill="none" stroke="black" stroke-dasharray="5,2" d="M550.5,-282.44C550.5,-270.17 550.5,-255.52 550.5,-242.91"/>
<polygon fill="black" stroke="black" points="554,-243.02 550.5,-233.02 547,-243.02 554,-243.02"/>
<text text-anchor="middle" x="604" y="-253.54" font-family="Times,serif" font-size="14.00">Check changes</text>
</g>
<!-- 3618993c&#45;5d44&#45;4cb3&#45;919b&#45;78c92a064cc7 -->
<g id="node8" class="node">
<title>3618993c&#45;5d44&#45;4cb3&#45;919b&#45;78c92a064cc7</title>
<ellipse fill="yellow" stroke="black" cx="244.5" cy="-115.87" rx="70.92" ry="26.74"/>
<text text-anchor="middle" x="244.5" y="-119.67" font-family="Times,serif" font-size="14.00">⋯ Modify</text>
<text text-anchor="middle" x="244.5" y="-104.67" font-family="Times,serif" font-size="14.00">src/main.py</text>
</g>
<!-- 53d6762a&#45;6365&#45;4410&#45;ac3d&#45;fe1b8567aa95&#45;&gt;3618993c&#45;5d44&#45;4cb3&#45;919b&#45;78c92a064cc7 -->
<g id="edge6" class="edge">
<title>53d6762a&#45;6365&#45;4410&#45;ac3d&#45;fe1b8567aa95&#45;&gt;3618993c&#45;5d44&#45;4cb3&#45;919b&#45;78c92a064cc7</title>
<path fill="none" stroke="black" d="M285.2,-202.88C269.93,-197.6 254.77,-189.18 245.5,-175.74 241.08,-169.33 239.2,-161.53 238.75,-153.73"/>
<polygon fill="black" stroke="black" points="242.26,-153.91 238.92,-143.85 235.26,-153.79 242.26,-153.91"/>
<text text-anchor="middle" x="329" y="-164.54" font-family="Times,serif" font-size="14.00">More changes required</text>
</g>
<!-- end -->
<g id="node9" class="node">
<title>end</title>
</g>
<!-- 53d6762a&#45;6365&#45;4410&#45;ac3d&#45;fe1b8567aa95&#45;&gt;end -->
<g id="edge10" class="edge">
<title>53d6762a&#45;6365&#45;4410&#45;ac3d&#45;fe1b8567aa95&#45;&gt;end</title>
<path fill="none" stroke="black" d="M385.83,-197.4C396.16,-192.19 405.89,-185.16 412.5,-175.74 443.82,-131.07 434.59,-60.56 429.18,-32.3"/>
<polygon fill="black" stroke="black" points="432.44,-31.79 426.93,-22.74 425.59,-33.25 432.44,-31.79"/>
<text text-anchor="middle" x="458" y="-112.17" font-family="Times,serif" font-size="14.00">Finish</text>
</g>
<!-- 847c906b&#45;d870&#45;44b3&#45;b2d3&#45;48b7f9712305 -->
<g id="node10" class="node">
<title>847c906b&#45;d870&#45;44b3&#45;b2d3&#45;48b7f9712305</title>
<polygon fill="white" stroke="black" points="294.5,-38 194.5,-38 194.5,0 294.5,0 294.5,-38"/>
<text text-anchor="middle" x="244.5" y="-22.8" font-family="Times,serif" font-size="14.00">▶ Check</text>
<text text-anchor="middle" x="244.5" y="-7.8" font-family="Times,serif" font-size="14.00">src/main.py</text>
</g>
<!-- 3618993c&#45;5d44&#45;4cb3&#45;919b&#45;78c92a064cc7&#45;&gt;847c906b&#45;d870&#45;44b3&#45;b2d3&#45;48b7f9712305 -->
<g id="edge7" class="edge">
<title>3618993c&#45;5d44&#45;4cb3&#45;919b&#45;78c92a064cc7&#45;&gt;847c906b&#45;d870&#45;44b3&#45;b2d3&#45;48b7f9712305</title>
<path fill="none" stroke="black" stroke-dasharray="5,2" d="M244.5,-88.7C244.5,-76.43 244.5,-61.78 244.5,-49.17"/>
<polygon fill="black" stroke="black" points="248,-49.28 244.5,-39.28 241,-49.28 248,-49.28"/>
<text text-anchor="middle" x="298" y="-59.8" font-family="Times,serif" font-size="14.00">Check changes</text>
</g>
</g>
</svg>
