<?xml version="1.0" encoding="UTF-8" standalone="no"?>
<!DOCTYPE svg PUBLIC "-//W3C//DTD SVG 1.1//EN"
 "http://www.w3.org/Graphics/SVG/1.1/DTD/svg11.dtd">
<!-- Generated by graphviz version 8.0.3 (0)
 -->
<!-- Pages: 1 -->
<svg width="475pt" height="165pt"
 viewBox="0.00 0.00 475.00 164.74" xmlns="http://www.w3.org/2000/svg" xmlns:xlink="http://www.w3.org/1999/xlink">
<g id="graph0" class="graph" transform="scale(1 1) rotate(0) translate(36 128.74)">
<polygon fill="dimgray" stroke="none" points="-36,36 -36,-128.74 439,-128.74 439,36 -36,36"/>
<text text-anchor="middle" x="201.5" y="-77.54" font-family="Helvetica,sans-Serif" font-size="14.00">Sweep&#39;s Plan &amp; Progress</text>
<!-- start -->
<g id="node1" class="node">
<title>start</title>
</g>
<!-- c004644e&#45;1a3f&#45;4d17&#45;b812&#45;f6c22c0693d3 -->
<g id="node3" class="node">
<title>c004644e&#45;1a3f&#45;4d17&#45;b812&#45;f6c22c0693d3</title>
<ellipse fill="#0ee832" stroke="black" cx="121.5" cy="-26.87" rx="69.09" ry="26.74"/>
<text text-anchor="middle" x="121.5" y="-30.67" font-family="Helvetica,sans-Serif" font-size="14.00">✓ Modify</text>
<text text-anchor="middle" x="121.5" y="-15.67" font-family="Helvetica,sans-Serif" font-size="14.00">src/main.py</text>
</g>
<!-- start&#45;&gt;c004644e&#45;1a3f&#45;4d17&#45;b812&#45;f6c22c0693d3 -->
<g id="edge2" class="edge">
<title>start&#45;&gt;c004644e&#45;1a3f&#45;4d17&#45;b812&#45;f6c22c0693d3</title>
<path fill="none" stroke="black" d="M0.85,-26.87C3.48,-26.87 20.76,-26.87 41.46,-26.87"/>
<polygon fill="black" stroke="black" points="41.19,-30.37 51.19,-26.87 41.19,-23.37 41.19,-30.37"/>
<text text-anchor="middle" x="26.6" y="-33.67" font-family="Helvetica,sans-Serif" font-size="14.00">Start</text>
</g>
<!-- end -->
<g id="node2" class="node">
<title>end</title>
</g>
<!-- 212f957a&#45;4bdb&#45;4c53&#45;a472&#45;86d09c24033a -->
<g id="node4" class="node">
<title>212f957a&#45;4bdb&#45;4c53&#45;a472&#45;86d09c24033a</title>
<ellipse fill="yellow" stroke="black" cx="285.5" cy="-26.87" rx="59.29" ry="26.74"/>
<text text-anchor="middle" x="285.5" y="-30.67" font-family="Helvetica,sans-Serif" font-size="14.00">⋯ Modify</text>
<text text-anchor="middle" x="285.5" y="-15.67" font-family="Helvetica,sans-Serif" font-size="14.00">src/api.py</text>
</g>
<!-- c004644e&#45;1a3f&#45;4d17&#45;b812&#45;f6c22c0693d3&#45;&gt;212f957a&#45;4bdb&#45;4c53&#45;a472&#45;86d09c24033a -->
<g id="edge1" class="edge">
<title>c004644e&#45;1a3f&#45;4d17&#45;b812&#45;f6c22c0693d3&#45;&gt;212f957a&#45;4bdb&#45;4c53&#45;a472&#45;86d09c24033a</title>
<path fill="none" stroke="black" d="M191.01,-26.87C199.04,-26.87 207.08,-26.87 215.12,-26.87"/>
<polygon fill="black" stroke="black" points="215.07,-30.37 225.07,-26.87 215.07,-23.37 215.07,-30.37"/>
</g>
<!-- 212f957a&#45;4bdb&#45;4c53&#45;a472&#45;86d09c24033a&#45;&gt;end -->
<g id="edge3" class="edge">
<title>212f957a&#45;4bdb&#45;4c53&#45;a472&#45;86d09c24033a&#45;&gt;end</title>
<path fill="none" stroke="black" d="M345.03,-26.87C362.81,-26.87 380.47,-26.87 391.42,-26.87"/>
<polygon fill="black" stroke="black" points="391.17,-30.37 401.17,-26.87 391.17,-23.37 391.17,-30.37"/>
<text text-anchor="middle" x="373.45" y="-33.67" font-family="Helvetica,sans-Serif" font-size="14.00">Finish</text>
</g>
</g>
</svg>
