<?xml version="1.0" encoding="UTF-8" standalone="no"?>
<!DOCTYPE svg PUBLIC "-//W3C//DTD SVG 1.1//EN"
 "http://www.w3.org/Graphics/SVG/1.1/DTD/svg11.dtd">
<!-- Generated by graphviz version 8.0.3 (0)
 -->
<!-- Pages: 1 -->
<svg width="747pt" height="408pt"
 viewBox="0.00 0.00 747.00 408.48" xmlns="http://www.w3.org/2000/svg" xmlns:xlink="http://www.w3.org/1999/xlink">
<g id="graph0" class="graph" transform="scale(1 1) rotate(0) translate(36 372.48)">
<polygon fill="white" stroke="none" points="-36,36 -36,-372.48 711,-372.48 711,36 -36,36"/>
<!-- start -->
<g id="node1" class="node">
<title>start</title>
</g>
<!-- 0324cc8d&#45;1261&#45;4e1d&#45;a1e4&#45;9518488e3bf6 -->
<g id="node3" class="node">
<title>0324cc8d&#45;1261&#45;4e1d&#45;a1e4&#45;9518488e3bf6</title>
<ellipse fill="green" stroke="black" cx="119.5" cy="-309.61" rx="63.78" ry="26.74"/>
<text text-anchor="middle" x="119.5" y="-313.41" font-family="Times,serif" font-size="14.00">✓ Create</text>
<text text-anchor="middle" x="119.5" y="-298.41" font-family="Times,serif" font-size="14.00">src/cnn.py</text>
</g>
<!-- start&#45;&gt;0324cc8d&#45;1261&#45;4e1d&#45;a1e4&#45;9518488e3bf6 -->
<g id="edge9" class="edge">
<title>start&#45;&gt;0324cc8d&#45;1261&#45;4e1d&#45;a1e4&#45;9518488e3bf6</title>
<path fill="none" stroke="black" d="M0.84,-309.61C3.58,-309.61 22.48,-309.61 44.41,-309.61"/>
<polygon fill="black" stroke="black" points="44.36,-313.11 54.36,-309.61 44.36,-306.11 44.36,-313.11"/>
<text text-anchor="middle" x="28.43" y="-316.41" font-family="Times,serif" font-size="14.00">Start</text>
</g>
<!-- end -->
<g id="node2" class="node">
<title>end</title>
</g>
<!-- e8f9d531&#45;ba09&#45;4be0&#45;b851&#45;adc0277a5e1b -->
<g id="node4" class="node">
<title>e8f9d531&#45;ba09&#45;4be0&#45;b851&#45;adc0277a5e1b</title>
<ellipse fill="green" stroke="black" cx="336.5" cy="-309.61" rx="70.92" ry="26.74"/>
<text text-anchor="middle" x="336.5" y="-313.41" font-family="Times,serif" font-size="14.00">✓ Modify</text>
<text text-anchor="middle" x="336.5" y="-298.41" font-family="Times,serif" font-size="14.00">src/main.py</text>
</g>
<!-- 0324cc8d&#45;1261&#45;4e1d&#45;a1e4&#45;9518488e3bf6&#45;&gt;e8f9d531&#45;ba09&#45;4be0&#45;b851&#45;adc0277a5e1b -->
<g id="edge2" class="edge">
<title>0324cc8d&#45;1261&#45;4e1d&#45;a1e4&#45;9518488e3bf6&#45;&gt;e8f9d531&#45;ba09&#45;4be0&#45;b851&#45;adc0277a5e1b</title>
<path fill="none" stroke="black" d="M183.73,-309.61C205.84,-309.61 230.92,-309.61 254.28,-309.61"/>
<polygon fill="black" stroke="black" points="254.22,-313.11 264.22,-309.61 254.22,-306.11 254.22,-313.11"/>
<text text-anchor="middle" x="224.46" y="-316.41" font-family="Times,serif" font-size="14.00">Continue</text>
</g>
<!-- 592d6a62&#45;d740&#45;4885&#45;857a&#45;0def11c3caf7 -->
<g id="node6" class="node">
<title>592d6a62&#45;d740&#45;4885&#45;857a&#45;0def11c3caf7</title>
<polygon fill="green" stroke="black" points="164.5,-231.74 74.5,-231.74 74.5,-193.74 164.5,-193.74 164.5,-231.74"/>
<text text-anchor="middle" x="119.5" y="-216.54" font-family="Times,serif" font-size="14.00">✓ Check</text>
<text text-anchor="middle" x="119.5" y="-201.54" font-family="Times,serif" font-size="14.00">src/cnn.py</text>
</g>
<!-- 0324cc8d&#45;1261&#45;4e1d&#45;a1e4&#45;9518488e3bf6&#45;&gt;592d6a62&#45;d740&#45;4885&#45;857a&#45;0def11c3caf7 -->
<g id="edge1" class="edge">
<title>0324cc8d&#45;1261&#45;4e1d&#45;a1e4&#45;9518488e3bf6&#45;&gt;592d6a62&#45;d740&#45;4885&#45;857a&#45;0def11c3caf7</title>
<path fill="none" stroke="black" stroke-dasharray="5,2" d="M119.5,-282.44C119.5,-270.17 119.5,-255.52 119.5,-242.91"/>
<polygon fill="black" stroke="black" points="123,-243.02 119.5,-233.02 116,-243.02 123,-243.02"/>
<text text-anchor="middle" x="173" y="-253.54" font-family="Times,serif" font-size="14.00">Check changes</text>
</g>
<!-- 4eed8f98&#45;01f1&#45;47e7&#45;9368&#45;aa649de06fb2 -->
<g id="node5" class="node">
<title>4eed8f98&#45;01f1&#45;47e7&#45;9368&#45;aa649de06fb2</title>
<ellipse fill="white" stroke="black" cx="550.5" cy="-309.61" rx="60.62" ry="26.74"/>
<text text-anchor="middle" x="550.5" y="-313.41" font-family="Times,serif" font-size="14.00">▶ Modify</text>
<text text-anchor="middle" x="550.5" y="-298.41" font-family="Times,serif" font-size="14.00">src/api.py</text>
</g>
<!-- e8f9d531&#45;ba09&#45;4be0&#45;b851&#45;adc0277a5e1b&#45;&gt;4eed8f98&#45;01f1&#45;47e7&#45;9368&#45;aa649de06fb2 -->
<g id="edge7" class="edge">
<title>e8f9d531&#45;ba09&#45;4be0&#45;b851&#45;adc0277a5e1b&#45;&gt;4eed8f98&#45;01f1&#45;47e7&#45;9368&#45;aa649de06fb2</title>
<path fill="none" stroke="black" d="M407.76,-309.61C430.54,-309.61 455.76,-309.61 478.58,-309.61"/>
<polygon fill="black" stroke="black" points="478.57,-313.11 488.57,-309.61 478.57,-306.11 478.57,-313.11"/>
<text text-anchor="middle" x="448.45" y="-316.41" font-family="Times,serif" font-size="14.00">Continue</text>
</g>
<!-- be55a2c4&#45;6366&#45;487a&#45;b573&#45;8ed01324fd2c -->
<g id="node7" class="node">
<title>be55a2c4&#45;6366&#45;487a&#45;b573&#45;8ed01324fd2c</title>
<polygon fill="red" stroke="black" points="320.5,-231.74 220.5,-231.74 220.5,-193.74 320.5,-193.74 320.5,-231.74"/>
<text text-anchor="middle" x="270.5" y="-216.54" font-family="Times,serif" font-size="14.00">✗ Check</text>
<text text-anchor="middle" x="270.5" y="-201.54" font-family="Times,serif" font-size="14.00">src/main.py</text>
</g>
<!-- e8f9d531&#45;ba09&#45;4be0&#45;b851&#45;adc0277a5e1b&#45;&gt;be55a2c4&#45;6366&#45;487a&#45;b573&#45;8ed01324fd2c -->
<g id="edge3" class="edge">
<title>e8f9d531&#45;ba09&#45;4be0&#45;b851&#45;adc0277a5e1b&#45;&gt;be55a2c4&#45;6366&#45;487a&#45;b573&#45;8ed01324fd2c</title>
<path fill="none" stroke="black" stroke-dasharray="5,2" d="M290.9,-288.79C281.54,-282.51 272.9,-274.57 267.5,-264.74 263.83,-258.05 262.96,-250.11 263.43,-242.5"/>
<polygon fill="black" stroke="black" points="267.01,-243.16 264.9,-232.78 260.07,-242.21 267.01,-243.16"/>
<text text-anchor="middle" x="321" y="-253.54" font-family="Times,serif" font-size="14.00">Check changes</text>
</g>
<!-- c10d3fb2&#45;01ae&#45;4fd1&#45;b98c&#45;9627bde7a703 -->
<g id="node8" class="node">
<title>c10d3fb2&#45;01ae&#45;4fd1&#45;b98c&#45;9627bde7a703</title>
<polygon fill="yellow" stroke="black" points="450.5,-231.74 350.5,-231.74 350.5,-193.74 450.5,-193.74 450.5,-231.74"/>
<text text-anchor="middle" x="400.5" y="-216.54" font-family="Times,serif" font-size="14.00">⋯ Check</text>
<text text-anchor="middle" x="400.5" y="-201.54" font-family="Times,serif" font-size="14.00">src/main.py</text>
</g>
<!-- e8f9d531&#45;ba09&#45;4be0&#45;b851&#45;adc0277a5e1b&#45;&gt;c10d3fb2&#45;01ae&#45;4fd1&#45;b98c&#45;9627bde7a703 -->
<g id="edge6" class="edge">
<title>e8f9d531&#45;ba09&#45;4be0&#45;b851&#45;adc0277a5e1b&#45;&gt;c10d3fb2&#45;01ae&#45;4fd1&#45;b98c&#45;9627bde7a703</title>
<path fill="none" stroke="black" stroke-dasharray="5,2" d="M362.59,-284.42C368.28,-278.35 373.96,-271.59 378.5,-264.74 383.12,-257.78 387.13,-249.69 390.41,-242.03"/>
<polygon fill="black" stroke="black" points="393.96,-243.59 394.44,-233 387.46,-240.98 393.96,-243.59"/>
<text text-anchor="middle" x="441" y="-253.54" font-family="Times,serif" font-size="14.00">Check changes</text>
</g>
<!-- 4eed8f98&#45;01f1&#45;47e7&#45;9368&#45;aa649de06fb2&#45;&gt;end -->
<g id="edge10" class="edge">
<title>4eed8f98&#45;01f1&#45;47e7&#45;9368&#45;aa649de06fb2&#45;&gt;end</title>
<path fill="none" stroke="black" d="M611.41,-309.61C631.39,-309.61 651.53,-309.61 663.5,-309.61"/>
<polygon fill="black" stroke="black" points="663.14,-313.11 673.14,-309.61 663.14,-306.11 663.14,-313.11"/>
<text text-anchor="middle" x="642.66" y="-316.41" font-family="Times,serif" font-size="14.00">Finish</text>
</g>
<!-- 2b792c9d&#45;2337&#45;4e7d&#45;a9f0&#45;9e7ef0be3a76 -->
<g id="node9" class="node">
<title>2b792c9d&#45;2337&#45;4e7d&#45;a9f0&#45;9e7ef0be3a76</title>
<polygon fill="white" stroke="black" points="593.5,-231.74 507.5,-231.74 507.5,-193.74 593.5,-193.74 593.5,-231.74"/>
<text text-anchor="middle" x="550.5" y="-216.54" font-family="Times,serif" font-size="14.00">▶ Check</text>
<text text-anchor="middle" x="550.5" y="-201.54" font-family="Times,serif" font-size="14.00">src/api.py</text>
</g>
<!-- 4eed8f98&#45;01f1&#45;47e7&#45;9368&#45;aa649de06fb2&#45;&gt;2b792c9d&#45;2337&#45;4e7d&#45;a9f0&#45;9e7ef0be3a76 -->
<g id="edge8" class="edge">
<title>4eed8f98&#45;01f1&#45;47e7&#45;9368&#45;aa649de06fb2&#45;&gt;2b792c9d&#45;2337&#45;4e7d&#45;a9f0&#45;9e7ef0be3a76</title>
<path fill="none" stroke="black" stroke-dasharray="5,2" d="M550.5,-282.44C550.5,-270.17 550.5,-255.52 550.5,-242.91"/>
<polygon fill="black" stroke="black" points="554,-243.02 550.5,-233.02 547,-243.02 554,-243.02"/>
<text text-anchor="middle" x="604" y="-253.54" font-family="Times,serif" font-size="14.00">Check changes</text>
</g>
<!-- f5f307a0&#45;1ee2&#45;4aae&#45;b0f0&#45;d54122a9f935 -->
<g id="node10" class="node">
<title>f5f307a0&#45;1ee2&#45;4aae&#45;b0f0&#45;d54122a9f935</title>
<ellipse fill="yellow" stroke="black" cx="270.5" cy="-115.87" rx="70.92" ry="26.74"/>
<text text-anchor="middle" x="270.5" y="-119.67" font-family="Times,serif" font-size="14.00">⋯ Modify</text>
<text text-anchor="middle" x="270.5" y="-104.67" font-family="Times,serif" font-size="14.00">src/main.py</text>
</g>
<!-- be55a2c4&#45;6366&#45;487a&#45;b573&#45;8ed01324fd2c&#45;&gt;f5f307a0&#45;1ee2&#45;4aae&#45;b0f0&#45;d54122a9f935 -->
<g id="edge4" class="edge">
<title>be55a2c4&#45;6366&#45;487a&#45;b573&#45;8ed01324fd2c&#45;&gt;f5f307a0&#45;1ee2&#45;4aae&#45;b0f0&#45;d54122a9f935</title>
<path fill="none" stroke="black" d="M270.5,-193.45C270.5,-182.26 270.5,-167.54 270.5,-153.99"/>
<polygon fill="black" stroke="black" points="274,-154 270.5,-144 267,-154 274,-154"/>
<text text-anchor="middle" x="354" y="-164.54" font-family="Times,serif" font-size="14.00">More changes required</text>
</g>
<!-- 4f455142&#45;4b29&#45;49b2&#45;9833&#45;8f690ad5a6a2 -->
<g id="node11" class="node">
<title>4f455142&#45;4b29&#45;49b2&#45;9833&#45;8f690ad5a6a2</title>
<polygon fill="white" stroke="black" points="320.5,-38 220.5,-38 220.5,0 320.5,0 320.5,-38"/>
<text text-anchor="middle" x="270.5" y="-22.8" font-family="Times,serif" font-size="14.00">▶ Check</text>
<text text-anchor="middle" x="270.5" y="-7.8" font-family="Times,serif" font-size="14.00">src/main.py</text>
</g>
<!-- f5f307a0&#45;1ee2&#45;4aae&#45;b0f0&#45;d54122a9f935&#45;&gt;4f455142&#45;4b29&#45;49b2&#45;9833&#45;8f690ad5a6a2 -->
<g id="edge5" class="edge">
<title>f5f307a0&#45;1ee2&#45;4aae&#45;b0f0&#45;d54122a9f935&#45;&gt;4f455142&#45;4b29&#45;49b2&#45;9833&#45;8f690ad5a6a2</title>
<path fill="none" stroke="black" stroke-dasharray="5,2" d="M270.5,-88.7C270.5,-76.43 270.5,-61.78 270.5,-49.17"/>
<polygon fill="black" stroke="black" points="274,-49.28 270.5,-39.28 267,-49.28 274,-49.28"/>
<text text-anchor="middle" x="324" y="-59.8" font-family="Times,serif" font-size="14.00">Check changes</text>
</g>
</g>
</svg>
