<?xml version="1.0" encoding="UTF-8" standalone="no"?>
<!DOCTYPE svg PUBLIC "-//W3C//DTD SVG 1.1//EN"
 "http://www.w3.org/Graphics/SVG/1.1/DTD/svg11.dtd">
<!-- Generated by graphviz version 8.0.3 (0)
 -->
<!-- Pages: 1 -->
<svg width="576pt" height="238pt"
 viewBox="0.00 0.00 576.00 237.74" xmlns="http://www.w3.org/2000/svg" xmlns:xlink="http://www.w3.org/1999/xlink">
<g id="graph0" class="graph" transform="scale(1 1) rotate(0) translate(36 201.74)">
<polygon fill="dimgray" stroke="none" points="-36,36 -36,-201.74 540,-201.74 540,36 -36,36"/>
<text text-anchor="middle" x="252" y="-150.54" font-family="Helvetica,sans-Serif" font-size="14.00">Sweep&#39;s Plan &amp; Progress</text>
<!-- start -->
<g id="node1" class="node">
<title>start</title>
</g>
<!-- 26359dc1&#45;d0f9&#45;4265&#45;8f81&#45;289e7aab0704 -->
<g id="node3" class="node">
<title>26359dc1&#45;d0f9&#45;4265&#45;8f81&#45;289e7aab0704</title>
<ellipse fill="yellow" stroke="black" cx="173" cy="-99.87" rx="69.09" ry="26.74"/>
<text text-anchor="middle" x="173" y="-103.67" font-family="Helvetica,sans-Serif" font-size="14.00">⋯ Modify</text>
<text text-anchor="middle" x="173" y="-88.67" font-family="Helvetica,sans-Serif" font-size="14.00">src/main.py</text>
</g>
<!-- start&#45;&gt;26359dc1&#45;d0f9&#45;4265&#45;8f81&#45;289e7aab0704 -->
<g id="edge4" class="edge">
<title>start&#45;&gt;26359dc1&#45;d0f9&#45;4265&#45;8f81&#45;289e7aab0704</title>
<path fill="none" stroke="black" d="M52.35,-99.87C54.98,-99.87 72.26,-99.87 92.96,-99.87"/>
<polygon fill="black" stroke="black" points="92.69,-103.37 102.69,-99.87 92.69,-96.37 92.69,-103.37"/>
<text text-anchor="middle" x="78.1" y="-106.67" font-family="Helvetica,sans-Serif" font-size="14.00">Start</text>
</g>
<!-- end -->
<g id="node2" class="node">
<title>end</title>
</g>
<!-- d2e418e3&#45;a6fe&#45;4370&#45;a9a1&#45;fba42f8a675a -->
<g id="node4" class="node">
<title>d2e418e3&#45;a6fe&#45;4370&#45;a9a1&#45;fba42f8a675a</title>
<ellipse fill="white" stroke="black" cx="362" cy="-99.87" rx="59.29" ry="26.74"/>
<text text-anchor="middle" x="362" y="-103.67" font-family="Helvetica,sans-Serif" font-size="14.00">▶ Modify</text>
<text text-anchor="middle" x="362" y="-88.67" font-family="Helvetica,sans-Serif" font-size="14.00">src/api.py</text>
</g>
<!-- 26359dc1&#45;d0f9&#45;4265&#45;8f81&#45;289e7aab0704&#45;&gt;d2e418e3&#45;a6fe&#45;4370&#45;a9a1&#45;fba42f8a675a -->
<g id="edge2" class="edge">
<title>26359dc1&#45;d0f9&#45;4265&#45;8f81&#45;289e7aab0704&#45;&gt;d2e418e3&#45;a6fe&#45;4370&#45;a9a1&#45;fba42f8a675a</title>
<path fill="none" stroke="black" d="M242.4,-99.87C258.88,-99.87 275.36,-99.87 291.84,-99.87"/>
<polygon fill="black" stroke="black" points="291.67,-103.37 301.67,-99.87 291.67,-96.37 291.67,-103.37"/>
</g>
<!-- 1835017f&#45;cb4e&#45;43ed&#45;9261&#45;3634f2e1a120 -->
<g id="node5" class="node">
<title>1835017f&#45;cb4e&#45;43ed&#45;9261&#45;3634f2e1a120</title>
<polygon fill="white" stroke="black" points="250,-36 0,-36 0,0 250,0 250,-36"/>
<text text-anchor="middle" x="125" y="-14.3" font-family="Helvetica,sans-Serif" font-size="14.00">▶ Ran sandbox for `src/main.py`.</text>
</g>
<!-- 26359dc1&#45;d0f9&#45;4265&#45;8f81&#45;289e7aab0704&#45;&gt;1835017f&#45;cb4e&#45;43ed&#45;9261&#45;3634f2e1a120 -->
<g id="edge1" class="edge">
<title>26359dc1&#45;d0f9&#45;4265&#45;8f81&#45;289e7aab0704&#45;&gt;1835017f&#45;cb4e&#45;43ed&#45;9261&#45;3634f2e1a120</title>
<path fill="none" stroke="black" stroke-dasharray="5,2" d="M157.81,-73.6C152.41,-64.6 146.31,-54.46 140.85,-45.37"/>
<polygon fill="black" stroke="black" points="143.39,-43.8 135.24,-37.04 137.39,-47.41 143.39,-43.8"/>
</g>
<!-- d2e418e3&#45;a6fe&#45;4370&#45;a9a1&#45;fba42f8a675a&#45;&gt;end -->
<g id="edge5" class="edge">
<title>d2e418e3&#45;a6fe&#45;4370&#45;a9a1&#45;fba42f8a675a&#45;&gt;end</title>
<path fill="none" stroke="black" d="M421.53,-99.87C439.31,-99.87 456.97,-99.87 467.92,-99.87"/>
<polygon fill="black" stroke="black" points="467.67,-103.37 477.67,-99.87 467.67,-96.37 467.67,-103.37"/>
<text text-anchor="middle" x="449.95" y="-106.67" font-family="Helvetica,sans-Serif" font-size="14.00">Finish</text>
</g>
<!-- ee398e36&#45;f0d0&#45;4906&#45;969b&#45;d0cd3edc4283 -->
<g id="node6" class="node">
<title>ee398e36&#45;f0d0&#45;4906&#45;969b&#45;d0cd3edc4283</title>
<polygon fill="white" stroke="black" points="504,-36 268,-36 268,0 504,0 504,-36"/>
<text text-anchor="middle" x="386" y="-14.3" font-family="Helvetica,sans-Serif" font-size="14.00">▶ Ran sandbox for `src/api.py`.</text>
</g>
<!-- d2e418e3&#45;a6fe&#45;4370&#45;a9a1&#45;fba42f8a675a&#45;&gt;ee398e36&#45;f0d0&#45;4906&#45;969b&#45;d0cd3edc4283 -->
<g id="edge3" class="edge">
<title>d2e418e3&#45;a6fe&#45;4370&#45;a9a1&#45;fba42f8a675a&#45;&gt;ee398e36&#45;f0d0&#45;4906&#45;969b&#45;d0cd3edc4283</title>
<path fill="none" stroke="black" stroke-dasharray="5,2" d="M369.73,-73.16C372.27,-64.69 375.11,-55.25 377.69,-46.65"/>
<polygon fill="black" stroke="black" points="381.26,-47.92 380.79,-37.34 374.56,-45.91 381.26,-47.92"/>
</g>
</g>
</svg>
