<?xml version="1.0" encoding="UTF-8" standalone="no"?>
<!DOCTYPE svg PUBLIC "-//W3C//DTD SVG 1.1//EN"
 "http://www.w3.org/Graphics/SVG/1.1/DTD/svg11.dtd">
<!-- Generated by graphviz version 8.0.3 (0)
 -->
<!-- Pages: 1 -->
<svg width="653pt" height="240pt"
 viewBox="0.00 0.00 653.00 239.74" xmlns="http://www.w3.org/2000/svg" xmlns:xlink="http://www.w3.org/1999/xlink">
<g id="graph0" class="graph" transform="scale(1 1) rotate(0) translate(36 203.74)">
<polygon fill="white" stroke="none" points="-36,36 -36,-203.74 617,-203.74 617,36 -36,36"/>
<text text-anchor="middle" x="290.5" y="-152.54" font-family="Times,serif" font-size="14.00">Sweep&#39;s Plan &amp; Progress</text>
<!-- start -->
<g id="node1" class="node">
<title>start</title>
</g>
<!-- 31bcfb07&#45;638f&#45;471f&#45;9bad&#45;41894c0cf5e4 -->
<g id="node3" class="node">
<title>31bcfb07&#45;638f&#45;471f&#45;9bad&#45;41894c0cf5e4</title>
<ellipse fill="green" stroke="black" cx="119.5" cy="-101.87" rx="63.78" ry="26.74"/>
<text text-anchor="middle" x="119.5" y="-105.67" font-family="Times,serif" font-size="14.00">✓ Create</text>
<text text-anchor="middle" x="119.5" y="-90.67" font-family="Times,serif" font-size="14.00">src/cnn.py</text>
</g>
<!-- start&#45;&gt;31bcfb07&#45;638f&#45;471f&#45;9bad&#45;41894c0cf5e4 -->
<g id="edge6" class="edge">
<title>start&#45;&gt;31bcfb07&#45;638f&#45;471f&#45;9bad&#45;41894c0cf5e4</title>
<path fill="none" stroke="black" d="M0.84,-101.87C3.58,-101.87 22.48,-101.87 44.41,-101.87"/>
<polygon fill="black" stroke="black" points="44.36,-105.37 54.36,-101.87 44.36,-98.37 44.36,-105.37"/>
<text text-anchor="middle" x="28.43" y="-108.67" font-family="Times,serif" font-size="14.00">Start</text>
</g>
<!-- end -->
<g id="node2" class="node">
<title>end</title>
</g>
<!-- 86720529&#45;515a&#45;4e5c&#45;ad59&#45;19b4ca13d5fc -->
<g id="node4" class="node">
<title>86720529&#45;515a&#45;4e5c&#45;ad59&#45;19b4ca13d5fc</title>
<ellipse fill="white" stroke="black" cx="289.5" cy="-101.87" rx="70.92" ry="26.74"/>
<text text-anchor="middle" x="289.5" y="-105.67" font-family="Times,serif" font-size="14.00">▶ Modify</text>
<text text-anchor="middle" x="289.5" y="-90.67" font-family="Times,serif" font-size="14.00">src/main.py</text>
</g>
<!-- 31bcfb07&#45;638f&#45;471f&#45;9bad&#45;41894c0cf5e4&#45;&gt;86720529&#45;515a&#45;4e5c&#45;ad59&#45;19b4ca13d5fc -->
<g id="edge2" class="edge">
<title>31bcfb07&#45;638f&#45;471f&#45;9bad&#45;41894c0cf5e4&#45;&gt;86720529&#45;515a&#45;4e5c&#45;ad59&#45;19b4ca13d5fc</title>
<path fill="none" stroke="black" d="M183.58,-101.87C191.55,-101.87 199.51,-101.87 207.48,-101.87"/>
<polygon fill="black" stroke="black" points="207.34,-105.37 217.34,-101.87 207.34,-98.37 207.34,-105.37"/>
</g>
<!-- b9a01dc2&#45;21d2&#45;4ea0&#45;a4bc&#45;4268feeca5aa -->
<g id="node6" class="node">
<title>b9a01dc2&#45;21d2&#45;4ea0&#45;a4bc&#45;4268feeca5aa</title>
<polygon fill="yellow" stroke="black" points="164.5,-38 74.5,-38 74.5,0 164.5,0 164.5,-38"/>
<text text-anchor="middle" x="119.5" y="-22.8" font-family="Times,serif" font-size="14.00">⋯ Check</text>
<text text-anchor="middle" x="119.5" y="-7.8" font-family="Times,serif" font-size="14.00">src/cnn.py</text>
</g>
<!-- 31bcfb07&#45;638f&#45;471f&#45;9bad&#45;41894c0cf5e4&#45;&gt;b9a01dc2&#45;21d2&#45;4ea0&#45;a4bc&#45;4268feeca5aa -->
<g id="edge1" class="edge">
<title>31bcfb07&#45;638f&#45;471f&#45;9bad&#45;41894c0cf5e4&#45;&gt;b9a01dc2&#45;21d2&#45;4ea0&#45;a4bc&#45;4268feeca5aa</title>
<path fill="none" stroke="black" stroke-dasharray="5,2" d="M119.5,-74.84C119.5,-66.58 119.5,-57.41 119.5,-48.96"/>
<polygon fill="black" stroke="black" points="123,-49.05 119.5,-39.05 116,-49.05 123,-49.05"/>
</g>
<!-- 567fb94e&#45;ebc5&#45;4618&#45;9bb2&#45;235837b1ae72 -->
<g id="node5" class="node">
<title>567fb94e&#45;ebc5&#45;4618&#45;9bb2&#45;235837b1ae72</title>
<ellipse fill="white" stroke="black" cx="456.5" cy="-101.87" rx="60.62" ry="26.74"/>
<text text-anchor="middle" x="456.5" y="-105.67" font-family="Times,serif" font-size="14.00">▶ Modify</text>
<text text-anchor="middle" x="456.5" y="-90.67" font-family="Times,serif" font-size="14.00">src/api.py</text>
</g>
<!-- 86720529&#45;515a&#45;4e5c&#45;ad59&#45;19b4ca13d5fc&#45;&gt;567fb94e&#45;ebc5&#45;4618&#45;9bb2&#45;235837b1ae72 -->
<g id="edge4" class="edge">
<title>86720529&#45;515a&#45;4e5c&#45;ad59&#45;19b4ca13d5fc&#45;&gt;567fb94e&#45;ebc5&#45;4618&#45;9bb2&#45;235837b1ae72</title>
<path fill="none" stroke="black" d="M360.61,-101.87C368.59,-101.87 376.57,-101.87 384.56,-101.87"/>
<polygon fill="black" stroke="black" points="384.44,-105.37 394.44,-101.87 384.44,-98.37 384.44,-105.37"/>
</g>
<!-- d350cf1d&#45;59b5&#45;4d5e&#45;b9a2&#45;72e9d88d42ff -->
<g id="node7" class="node">
<title>d350cf1d&#45;59b5&#45;4d5e&#45;b9a2&#45;72e9d88d42ff</title>
<polygon fill="white" stroke="black" points="339.5,-38 239.5,-38 239.5,0 339.5,0 339.5,-38"/>
<text text-anchor="middle" x="289.5" y="-22.8" font-family="Times,serif" font-size="14.00">▶ Check</text>
<text text-anchor="middle" x="289.5" y="-7.8" font-family="Times,serif" font-size="14.00">src/main.py</text>
</g>
<!-- 86720529&#45;515a&#45;4e5c&#45;ad59&#45;19b4ca13d5fc&#45;&gt;d350cf1d&#45;59b5&#45;4d5e&#45;b9a2&#45;72e9d88d42ff -->
<g id="edge3" class="edge">
<title>86720529&#45;515a&#45;4e5c&#45;ad59&#45;19b4ca13d5fc&#45;&gt;d350cf1d&#45;59b5&#45;4d5e&#45;b9a2&#45;72e9d88d42ff</title>
<path fill="none" stroke="black" stroke-dasharray="5,2" d="M289.5,-74.84C289.5,-66.58 289.5,-57.41 289.5,-48.96"/>
<polygon fill="black" stroke="black" points="293,-49.05 289.5,-39.05 286,-49.05 293,-49.05"/>
</g>
<!-- 567fb94e&#45;ebc5&#45;4618&#45;9bb2&#45;235837b1ae72&#45;&gt;end -->
<g id="edge7" class="edge">
<title>567fb94e&#45;ebc5&#45;4618&#45;9bb2&#45;235837b1ae72&#45;&gt;end</title>
<path fill="none" stroke="black" d="M517.41,-101.87C537.39,-101.87 557.53,-101.87 569.5,-101.87"/>
<polygon fill="black" stroke="black" points="569.14,-105.37 579.14,-101.87 569.14,-98.37 569.14,-105.37"/>
<text text-anchor="middle" x="548.66" y="-108.67" font-family="Times,serif" font-size="14.00">Finish</text>
</g>
<!-- 13dae220&#45;e15f&#45;4faa&#45;9e0f&#45;81d263a7f9df -->
<g id="node8" class="node">
<title>13dae220&#45;e15f&#45;4faa&#45;9e0f&#45;81d263a7f9df</title>
<polygon fill="white" stroke="black" points="499.5,-38 413.5,-38 413.5,0 499.5,0 499.5,-38"/>
<text text-anchor="middle" x="456.5" y="-22.8" font-family="Times,serif" font-size="14.00">▶ Check</text>
<text text-anchor="middle" x="456.5" y="-7.8" font-family="Times,serif" font-size="14.00">src/api.py</text>
</g>
<!-- 567fb94e&#45;ebc5&#45;4618&#45;9bb2&#45;235837b1ae72&#45;&gt;13dae220&#45;e15f&#45;4faa&#45;9e0f&#45;81d263a7f9df -->
<g id="edge5" class="edge">
<title>567fb94e&#45;ebc5&#45;4618&#45;9bb2&#45;235837b1ae72&#45;&gt;13dae220&#45;e15f&#45;4faa&#45;9e0f&#45;81d263a7f9df</title>
<path fill="none" stroke="black" stroke-dasharray="5,2" d="M456.5,-74.84C456.5,-66.58 456.5,-57.41 456.5,-48.96"/>
<polygon fill="black" stroke="black" points="460,-49.05 456.5,-39.05 453,-49.05 460,-49.05"/>
</g>
</g>
</svg>
