<?xml version="1.0" encoding="UTF-8" standalone="no"?>
<!DOCTYPE svg PUBLIC "-//W3C//DTD SVG 1.1//EN"
 "http://www.w3.org/Graphics/SVG/1.1/DTD/svg11.dtd">
<!-- Generated by graphviz version 8.0.3 (0)
 -->
<!-- Pages: 1 -->
<svg width="854pt" height="238pt"
 viewBox="0.00 0.00 854.00 237.74" xmlns="http://www.w3.org/2000/svg" xmlns:xlink="http://www.w3.org/1999/xlink">
<g id="graph0" class="graph" transform="scale(1 1) rotate(0) translate(36 201.74)">
<polygon fill="dimgray" stroke="none" points="-36,36 -36,-201.74 818,-201.74 818,36 -36,36"/>
<text text-anchor="middle" x="391" y="-150.54" font-family="Helvetica,sans-Serif" font-size="14.00">Sweep&#39;s Plan &amp; Progress</text>
<!-- start -->
<g id="node1" class="node">
<title>start</title>
</g>
<!-- 555ae169&#45;498e&#45;4232&#45;aa1d&#45;82a4af670766 -->
<g id="node3" class="node">
<title>555ae169&#45;498e&#45;4232&#45;aa1d&#45;82a4af670766</title>
<ellipse fill="yellow" stroke="black" cx="176" cy="-99.87" rx="76.24" ry="26.74"/>
<text text-anchor="middle" x="176" y="-103.67" font-family="Helvetica,sans-Serif" font-size="14.00">⋯ Create</text>
<text text-anchor="middle" x="176" y="-88.67" font-family="Helvetica,sans-Serif" font-size="14.00">src/trainer.py</text>
</g>
<!-- start&#45;&gt;555ae169&#45;498e&#45;4232&#45;aa1d&#45;82a4af670766 -->
<g id="edge6" class="edge">
<title>start&#45;&gt;555ae169&#45;498e&#45;4232&#45;aa1d&#45;82a4af670766</title>
<path fill="none" stroke="black" d="M48.37,-99.87C51.04,-99.87 67.97,-99.87 88.68,-99.87"/>
<polygon fill="black" stroke="black" points="88.45,-103.37 98.45,-99.87 88.45,-96.37 88.45,-103.37"/>
<text text-anchor="middle" x="74.07" y="-106.67" font-family="Helvetica,sans-Serif" font-size="14.00">Start</text>
</g>
<!-- end -->
<g id="node2" class="node">
<title>end</title>
</g>
<!-- cf9874d1&#45;795e&#45;4143&#45;a4b4&#45;89f312bf24f5 -->
<g id="node4" class="node">
<title>cf9874d1&#45;795e&#45;4143&#45;a4b4&#45;89f312bf24f5</title>
<ellipse fill="white" stroke="black" cx="403" cy="-99.87" rx="69.09" ry="26.74"/>
<text text-anchor="middle" x="403" y="-103.67" font-family="Helvetica,sans-Serif" font-size="14.00">▶ Modify</text>
<text text-anchor="middle" x="403" y="-88.67" font-family="Helvetica,sans-Serif" font-size="14.00">src/main.py</text>
</g>
<!-- 555ae169&#45;498e&#45;4232&#45;aa1d&#45;82a4af670766&#45;&gt;cf9874d1&#45;795e&#45;4143&#45;a4b4&#45;89f312bf24f5 -->
<g id="edge2" class="edge">
<title>555ae169&#45;498e&#45;4232&#45;aa1d&#45;82a4af670766&#45;&gt;cf9874d1&#45;795e&#45;4143&#45;a4b4&#45;89f312bf24f5</title>
<path fill="none" stroke="black" d="M252.7,-99.87C276.04,-99.87 299.37,-99.87 322.71,-99.87"/>
<polygon fill="black" stroke="black" points="322.43,-103.37 332.43,-99.87 322.43,-96.37 322.43,-103.37"/>
</g>
<!-- 9be424e9&#45;f5c4&#45;4bcb&#45;bf2c&#45;5875bf4d676f -->
<g id="node6" class="node">
<title>9be424e9&#45;f5c4&#45;4bcb&#45;bf2c&#45;5875bf4d676f</title>
<polygon fill="white" stroke="black" points="260,-36 0,-36 0,0 260,0 260,-36"/>
<text text-anchor="middle" x="130" y="-14.3" font-family="Helvetica,sans-Serif" font-size="14.00">▶ Ran sandbox for `src/trainer.py`.</text>
</g>
<!-- 555ae169&#45;498e&#45;4232&#45;aa1d&#45;82a4af670766&#45;&gt;9be424e9&#45;f5c4&#45;4bcb&#45;bf2c&#45;5875bf4d676f -->
<g id="edge1" class="edge">
<title>555ae169&#45;498e&#45;4232&#45;aa1d&#45;82a4af670766&#45;&gt;9be424e9&#45;f5c4&#45;4bcb&#45;bf2c&#45;5875bf4d676f</title>
<path fill="none" stroke="black" stroke-dasharray="5,2" d="M161.19,-73.16C156.15,-64.41 150.51,-54.62 145.43,-45.79"/>
<polygon fill="black" stroke="black" points="148.01,-44.26 139.98,-37.34 141.94,-47.75 148.01,-44.26"/>
</g>
<!-- a6fd1452&#45;a168&#45;435c&#45;a89f&#45;44923d5002b6 -->
<g id="node5" class="node">
<title>a6fd1452&#45;a168&#45;435c&#45;a89f&#45;44923d5002b6</title>
<ellipse fill="white" stroke="black" cx="616" cy="-99.87" rx="59.29" ry="26.74"/>
<text text-anchor="middle" x="616" y="-103.67" font-family="Helvetica,sans-Serif" font-size="14.00">▶ Modify</text>
<text text-anchor="middle" x="616" y="-88.67" font-family="Helvetica,sans-Serif" font-size="14.00">src/api.py</text>
</g>
<!-- cf9874d1&#45;795e&#45;4143&#45;a4b4&#45;89f312bf24f5&#45;&gt;a6fd1452&#45;a168&#45;435c&#45;a89f&#45;44923d5002b6 -->
<g id="edge4" class="edge">
<title>cf9874d1&#45;795e&#45;4143&#45;a4b4&#45;89f312bf24f5&#45;&gt;a6fd1452&#45;a168&#45;435c&#45;a89f&#45;44923d5002b6</title>
<path fill="none" stroke="black" d="M472.47,-99.87C496.81,-99.87 521.15,-99.87 545.49,-99.87"/>
<polygon fill="black" stroke="black" points="545.29,-103.37 555.29,-99.87 545.29,-96.37 545.29,-103.37"/>
</g>
<!-- a7e57b13&#45;2f99&#45;4ece&#45;9277&#45;cef5f734ac09 -->
<g id="node7" class="node">
<title>a7e57b13&#45;2f99&#45;4ece&#45;9277&#45;cef5f734ac09</title>
<polygon fill="white" stroke="black" points="528,-36 278,-36 278,0 528,0 528,-36"/>
<text text-anchor="middle" x="403" y="-14.3" font-family="Helvetica,sans-Serif" font-size="14.00">▶ Ran sandbox for `src/main.py`.</text>
</g>
<!-- cf9874d1&#45;795e&#45;4143&#45;a4b4&#45;89f312bf24f5&#45;&gt;a7e57b13&#45;2f99&#45;4ece&#45;9277&#45;cef5f734ac09 -->
<g id="edge3" class="edge">
<title>cf9874d1&#45;795e&#45;4143&#45;a4b4&#45;89f312bf24f5&#45;&gt;a7e57b13&#45;2f99&#45;4ece&#45;9277&#45;cef5f734ac09</title>
<path fill="none" stroke="black" stroke-dasharray="5,2" d="M403,-72.72C403,-64.46 403,-55.31 403,-46.93"/>
<polygon fill="black" stroke="black" points="406.5,-47.15 403,-37.15 399.5,-47.15 406.5,-47.15"/>
</g>
<!-- a6fd1452&#45;a168&#45;435c&#45;a89f&#45;44923d5002b6&#45;&gt;end -->
<g id="edge7" class="edge">
<title>a6fd1452&#45;a168&#45;435c&#45;a89f&#45;44923d5002b6&#45;&gt;end</title>
<path fill="none" stroke="black" d="M675.53,-99.87C693.31,-99.87 710.97,-99.87 721.92,-99.87"/>
<polygon fill="black" stroke="black" points="721.67,-103.37 731.67,-99.87 721.67,-96.37 721.67,-103.37"/>
<text text-anchor="middle" x="703.95" y="-106.67" font-family="Helvetica,sans-Serif" font-size="14.00">Finish</text>
</g>
<!-- 54a356c1&#45;1bac&#45;462f&#45;8f77&#45;6f5932a6cae1 -->
<g id="node8" class="node">
<title>54a356c1&#45;1bac&#45;462f&#45;8f77&#45;6f5932a6cae1</title>
<polygon fill="white" stroke="black" points="782,-36 546,-36 546,0 782,0 782,-36"/>
<text text-anchor="middle" x="664" y="-14.3" font-family="Helvetica,sans-Serif" font-size="14.00">▶ Ran sandbox for `src/api.py`.</text>
</g>
<!-- a6fd1452&#45;a168&#45;435c&#45;a89f&#45;44923d5002b6&#45;&gt;54a356c1&#45;1bac&#45;462f&#45;8f77&#45;6f5932a6cae1 -->
<g id="edge5" class="edge">
<title>a6fd1452&#45;a168&#45;435c&#45;a89f&#45;44923d5002b6&#45;&gt;54a356c1&#45;1bac&#45;462f&#45;8f77&#45;6f5932a6cae1</title>
<path fill="none" stroke="black" stroke-dasharray="5,2" d="M631.19,-73.6C636.59,-64.6 642.69,-54.46 648.15,-45.37"/>
<polygon fill="black" stroke="black" points="651.61,-47.41 653.76,-37.04 645.61,-43.8 651.61,-47.41"/>
</g>
</g>
</svg>
