<?xml version="1.0" encoding="UTF-8" standalone="no"?>
<!DOCTYPE svg PUBLIC "-//W3C//DTD SVG 1.1//EN"
 "http://www.w3.org/Graphics/SVG/1.1/DTD/svg11.dtd">
<!-- Generated by graphviz version 2.43.0 (0)
 -->
<!-- Title: %3 Pages: 1 -->
<svg width="1114pt" height="771pt"
 viewBox="0.00 0.00 1113.50 770.96" xmlns="http://www.w3.org/2000/svg" xmlns:xlink="http://www.w3.org/1999/xlink">
<g id="graph0" class="graph" transform="scale(1 1) rotate(0) translate(36 734.96)">
<title>%3</title>
<polygon fill="dimgray" stroke="transparent" points="-36,36 -36,-734.96 1077.5,-734.96 1077.5,36 -36,36"/>
<text text-anchor="middle" x="520.75" y="-683.76" font-family="Helvetica,sans-Serif" font-size="14.00">Sweep&#39;s Plan &amp; Progress</text>
<!-- start -->
<g id="node1" class="node">
<title>start</title>
</g>
<!-- 6fbeaf13&#45;5de6&#45;4c01&#45;841d&#45;7386f41bffb2 -->
<g id="node3" class="node">
<title>6fbeaf13&#45;5de6&#45;4c01&#45;841d&#45;7386f41bffb2</title>
<ellipse fill="#0ee832" stroke="black" cx="662.5" cy="-633.09" rx="69.09" ry="26.74"/>
<text text-anchor="middle" x="662.5" y="-636.89" font-family="Helvetica,sans-Serif" font-size="14.00">✓ Modify</text>
<text text-anchor="middle" x="662.5" y="-621.89" font-family="Helvetica,sans-Serif" font-size="14.00">src/main.py</text>
</g>
<!-- start&#45;&gt;6fbeaf13&#45;5de6&#45;4c01&#45;841d&#45;7386f41bffb2 -->
<g id="edge13" class="edge">
<title>start&#45;&gt;6fbeaf13&#45;5de6&#45;4c01&#45;841d&#45;7386f41bffb2</title>
<path fill="none" stroke="black" d="M542.27,-633.09C546.03,-633.09 562.99,-633.09 583.05,-633.09"/>
<polygon fill="black" stroke="black" points="583.11,-636.59 593.11,-633.09 583.11,-629.59 583.11,-636.59"/>
<text text-anchor="middle" x="567.6" y="-639.89" font-family="Helvetica,sans-Serif" font-size="14.00">Start</text>
</g>
<!-- end -->
<g id="node2" class="node">
<title>end</title>
</g>
<!-- 4e4adb16&#45;4b97&#45;42d9&#45;9256&#45;aac12701f9d6 -->
<g id="node4" class="node">
<title>4e4adb16&#45;4b97&#45;42d9&#45;9256&#45;aac12701f9d6</title>
<ellipse fill="white" stroke="black" cx="875.5" cy="-633.09" rx="59.29" ry="26.74"/>
<text text-anchor="middle" x="875.5" y="-636.89" font-family="Helvetica,sans-Serif" font-size="14.00">▶ Modify</text>
<text text-anchor="middle" x="875.5" y="-621.89" font-family="Helvetica,sans-Serif" font-size="14.00">src/api.py</text>
</g>
<!-- 6fbeaf13&#45;5de6&#45;4c01&#45;841d&#45;7386f41bffb2&#45;&gt;4e4adb16&#45;4b97&#45;42d9&#45;9256&#45;aac12701f9d6 -->
<g id="edge11" class="edge">
<title>6fbeaf13&#45;5de6&#45;4c01&#45;841d&#45;7386f41bffb2&#45;&gt;4e4adb16&#45;4b97&#45;42d9&#45;9256&#45;aac12701f9d6</title>
<path fill="none" stroke="black" d="M731.97,-633.09C756.61,-633.09 781.25,-633.09 805.89,-633.09"/>
<polygon fill="black" stroke="black" points="806.07,-636.59 816.07,-633.09 806.07,-629.59 806.07,-636.59"/>
</g>
<!-- e34f7650&#45;3928&#45;404c&#45;aa1d&#45;94ab2661733b -->
<g id="node5" class="node">
<title>e34f7650&#45;3928&#45;404c&#45;aa1d&#45;94ab2661733b</title>
<polygon fill="#ee0000" stroke="black" points="519,-569.22 268,-569.22 268,-533.22 519,-533.22 519,-569.22"/>
<text text-anchor="middle" x="393.5" y="-547.52" font-family="Helvetica,sans-Serif" font-size="14.00">✗ Ran sandbox for `src/main.py`.</text>
</g>
<!-- 6fbeaf13&#45;5de6&#45;4c01&#45;841d&#45;7386f41bffb2&#45;&gt;e34f7650&#45;3928&#45;404c&#45;aa1d&#45;94ab2661733b -->
<g id="edge1" class="edge">
<title>6fbeaf13&#45;5de6&#45;4c01&#45;841d&#45;7386f41bffb2&#45;&gt;e34f7650&#45;3928&#45;404c&#45;aa1d&#45;94ab2661733b</title>
<path fill="none" stroke="black" stroke-dasharray="5,2" d="M608.71,-616.12C566.14,-603.48 506.46,-585.76 460.74,-572.19"/>
<polygon fill="black" stroke="black" points="461.5,-568.76 450.92,-569.27 459.51,-575.47 461.5,-568.76"/>
</g>
<!-- 6012deef&#45;d083&#45;447b&#45;a931&#45;34894862448e -->
<g id="node6" class="node">
<title>6012deef&#45;d083&#45;447b&#45;a931&#45;34894862448e</title>
<polygon fill="white" stroke="black" points="787.5,-569.22 537.5,-569.22 537.5,-533.22 787.5,-533.22 787.5,-569.22"/>
<text text-anchor="middle" x="662.5" y="-547.52" font-family="Helvetica,sans-Serif" font-size="14.00">▶ Ran sandbox for `src/main.py`.</text>
</g>
<!-- 6fbeaf13&#45;5de6&#45;4c01&#45;841d&#45;7386f41bffb2&#45;&gt;6012deef&#45;d083&#45;447b&#45;a931&#45;34894862448e -->
<g id="edge10" class="edge">
<title>6fbeaf13&#45;5de6&#45;4c01&#45;841d&#45;7386f41bffb2&#45;&gt;6012deef&#45;d083&#45;447b&#45;a931&#45;34894862448e</title>
<path fill="none" stroke="black" stroke-dasharray="5,2" d="M662.5,-605.94C662.5,-597.49 662.5,-588.11 662.5,-579.58"/>
<polygon fill="black" stroke="black" points="666,-579.37 662.5,-569.37 659,-579.37 666,-579.37"/>
</g>
<!-- 4e4adb16&#45;4b97&#45;42d9&#45;9256&#45;aac12701f9d6&#45;&gt;end -->
<g id="edge14" class="edge">
<title>4e4adb16&#45;4b97&#45;42d9&#45;9256&#45;aac12701f9d6&#45;&gt;end</title>
<path fill="none" stroke="black" d="M935.03,-633.09C952.83,-633.09 970.51,-633.09 981.46,-633.09"/>
<polygon fill="black" stroke="black" points="981.77,-636.59 991.77,-633.09 981.77,-629.59 981.77,-636.59"/>
<text text-anchor="middle" x="963.45" y="-639.89" font-family="Helvetica,sans-Serif" font-size="14.00">Finish</text>
</g>
<!-- d5a6bf0a&#45;7324&#45;48e6&#45;afc3&#45;5cc1da3467dc -->
<g id="node7" class="node">
<title>d5a6bf0a&#45;7324&#45;48e6&#45;afc3&#45;5cc1da3467dc</title>
<polygon fill="white" stroke="black" points="1041.5,-569.22 805.5,-569.22 805.5,-533.22 1041.5,-533.22 1041.5,-569.22"/>
<text text-anchor="middle" x="923.5" y="-547.52" font-family="Helvetica,sans-Serif" font-size="14.00">▶ Ran sandbox for `src/api.py`.</text>
</g>
<!-- 4e4adb16&#45;4b97&#45;42d9&#45;9256&#45;aac12701f9d6&#45;&gt;d5a6bf0a&#45;7324&#45;48e6&#45;afc3&#45;5cc1da3467dc -->
<g id="edge12" class="edge">
<title>4e4adb16&#45;4b97&#45;42d9&#45;9256&#45;aac12701f9d6&#45;&gt;d5a6bf0a&#45;7324&#45;48e6&#45;afc3&#45;5cc1da3467dc</title>
<path fill="none" stroke="black" stroke-dasharray="5,2" d="M890.69,-606.82C896.21,-597.63 902.45,-587.24 908,-578.01"/>
<polygon fill="black" stroke="black" points="911.11,-579.63 913.26,-569.26 905.11,-576.02 911.11,-579.63"/>
</g>
<!-- 9b1347c3&#45;94cc&#45;4671&#45;839d&#45;e9c7399ca35c -->
<g id="node8" class="node">
<title>9b1347c3&#45;94cc&#45;4671&#45;839d&#45;e9c7399ca35c</title>
<ellipse fill="#0ee832" stroke="black" cx="393.5" cy="-455.35" rx="69.09" ry="26.74"/>
<text text-anchor="middle" x="393.5" y="-459.15" font-family="Helvetica,sans-Serif" font-size="14.00">✓ Modify</text>
<text text-anchor="middle" x="393.5" y="-444.15" font-family="Helvetica,sans-Serif" font-size="14.00">src/main.py</text>
</g>
<!-- e34f7650&#45;3928&#45;404c&#45;aa1d&#45;94ab2661733b&#45;&gt;9b1347c3&#45;94cc&#45;4671&#45;839d&#45;e9c7399ca35c -->
<g id="edge2" class="edge">
<title>e34f7650&#45;3928&#45;404c&#45;aa1d&#45;94ab2661733b&#45;&gt;9b1347c3&#45;94cc&#45;4671&#45;839d&#45;e9c7399ca35c</title>
<path fill="none" stroke="black" d="M393.5,-533C393.5,-521.7 393.5,-506.49 393.5,-492.6"/>
<polygon fill="black" stroke="black" points="397,-492.32 393.5,-482.32 390,-492.32 397,-492.32"/>
<text text-anchor="middle" x="491" y="-504.02" font-family="Helvetica,sans-Serif" font-size="14.00">Additional changes required</text>
</g>
<!-- df73bb63&#45;28ab&#45;42da&#45;b801&#45;587f2027fde2 -->
<g id="node9" class="node">
<title>df73bb63&#45;28ab&#45;42da&#45;b801&#45;587f2027fde2</title>
<polygon fill="#ee0000" stroke="black" points="385,-391.48 134,-391.48 134,-355.48 385,-355.48 385,-391.48"/>
<text text-anchor="middle" x="259.5" y="-369.78" font-family="Helvetica,sans-Serif" font-size="14.00">✗ Ran sandbox for `src/main.py`.</text>
</g>
<!-- 9b1347c3&#45;94cc&#45;4671&#45;839d&#45;e9c7399ca35c&#45;&gt;df73bb63&#45;28ab&#45;42da&#45;b801&#45;587f2027fde2 -->
<g id="edge3" class="edge">
<title>9b1347c3&#45;94cc&#45;4671&#45;839d&#45;e9c7399ca35c&#45;&gt;df73bb63&#45;28ab&#45;42da&#45;b801&#45;587f2027fde2</title>
<path fill="none" stroke="black" stroke-dasharray="5,2" d="M356.88,-432.53C338.37,-421.49 315.93,-408.12 297.26,-396.99"/>
<polygon fill="black" stroke="black" points="298.81,-393.84 288.43,-391.72 295.23,-399.85 298.81,-393.84"/>
</g>
<!-- 7c297597&#45;dc49&#45;4f9b&#45;8cf1&#45;9b48fb420919 -->
<g id="node10" class="node">
<title>7c297597&#45;dc49&#45;4f9b&#45;8cf1&#45;9b48fb420919</title>
<polygon fill="white" stroke="black" points="653.5,-391.48 403.5,-391.48 403.5,-355.48 653.5,-355.48 653.5,-391.48"/>
<text text-anchor="middle" x="528.5" y="-369.78" font-family="Helvetica,sans-Serif" font-size="14.00">▶ Ran sandbox for `src/main.py`.</text>
</g>
<!-- 9b1347c3&#45;94cc&#45;4671&#45;839d&#45;e9c7399ca35c&#45;&gt;7c297597&#45;dc49&#45;4f9b&#45;8cf1&#45;9b48fb420919 -->
<g id="edge9" class="edge">
<title>9b1347c3&#45;94cc&#45;4671&#45;839d&#45;e9c7399ca35c&#45;&gt;7c297597&#45;dc49&#45;4f9b&#45;8cf1&#45;9b48fb420919</title>
<path fill="none" stroke="black" stroke-dasharray="5,2" d="M430.39,-432.53C449.13,-421.44 471.85,-407.99 490.71,-396.84"/>
<polygon fill="black" stroke="black" points="492.53,-399.83 499.35,-391.72 488.96,-393.8 492.53,-399.83"/>
</g>
<!-- 214900e7&#45;1b8e&#45;4d5f&#45;979e&#45;27d1634f2718 -->
<g id="node11" class="node">
<title>214900e7&#45;1b8e&#45;4d5f&#45;979e&#45;27d1634f2718</title>
<ellipse fill="#0ee832" stroke="black" cx="259.5" cy="-277.61" rx="69.09" ry="26.74"/>
<text text-anchor="middle" x="259.5" y="-281.41" font-family="Helvetica,sans-Serif" font-size="14.00">✓ Modify</text>
<text text-anchor="middle" x="259.5" y="-266.41" font-family="Helvetica,sans-Serif" font-size="14.00">src/main.py</text>
</g>
<!-- df73bb63&#45;28ab&#45;42da&#45;b801&#45;587f2027fde2&#45;&gt;214900e7&#45;1b8e&#45;4d5f&#45;979e&#45;27d1634f2718 -->
<g id="edge4" class="edge">
<title>df73bb63&#45;28ab&#45;42da&#45;b801&#45;587f2027fde2&#45;&gt;214900e7&#45;1b8e&#45;4d5f&#45;979e&#45;27d1634f2718</title>
<path fill="none" stroke="black" d="M259.5,-355.26C259.5,-343.96 259.5,-328.75 259.5,-314.86"/>
<polygon fill="black" stroke="black" points="263,-314.58 259.5,-304.58 256,-314.58 263,-314.58"/>
<text text-anchor="middle" x="357" y="-326.28" font-family="Helvetica,sans-Serif" font-size="14.00">Additional changes required</text>
</g>
<!-- 1cf496af&#45;86ec&#45;4049&#45;ba9e&#45;b27b5833f7b4 -->
<g id="node12" class="node">
<title>1cf496af&#45;86ec&#45;4049&#45;ba9e&#45;b27b5833f7b4</title>
<polygon fill="#ee0000" stroke="black" points="251,-213.74 0,-213.74 0,-177.74 251,-177.74 251,-213.74"/>
<text text-anchor="middle" x="125.5" y="-192.04" font-family="Helvetica,sans-Serif" font-size="14.00">✗ Ran sandbox for `src/main.py`.</text>
</g>
<!-- 214900e7&#45;1b8e&#45;4d5f&#45;979e&#45;27d1634f2718&#45;&gt;1cf496af&#45;86ec&#45;4049&#45;ba9e&#45;b27b5833f7b4 -->
<g id="edge5" class="edge">
<title>214900e7&#45;1b8e&#45;4d5f&#45;979e&#45;27d1634f2718&#45;&gt;1cf496af&#45;86ec&#45;4049&#45;ba9e&#45;b27b5833f7b4</title>
<path fill="none" stroke="black" stroke-dasharray="5,2" d="M222.88,-254.79C204.37,-243.75 181.93,-230.38 163.26,-219.25"/>
<polygon fill="black" stroke="black" points="164.81,-216.1 154.43,-213.98 161.23,-222.11 164.81,-216.1"/>
</g>
<!-- 4aa1873c&#45;87e5&#45;453f&#45;a0ad&#45;7bd1d207ccc6 -->
<g id="node13" class="node">
<title>4aa1873c&#45;87e5&#45;453f&#45;a0ad&#45;7bd1d207ccc6</title>
<polygon fill="white" stroke="black" points="519.5,-213.74 269.5,-213.74 269.5,-177.74 519.5,-177.74 519.5,-213.74"/>
<text text-anchor="middle" x="394.5" y="-192.04" font-family="Helvetica,sans-Serif" font-size="14.00">▶ Ran sandbox for `src/main.py`.</text>
</g>
<!-- 214900e7&#45;1b8e&#45;4d5f&#45;979e&#45;27d1634f2718&#45;&gt;4aa1873c&#45;87e5&#45;453f&#45;a0ad&#45;7bd1d207ccc6 -->
<g id="edge8" class="edge">
<title>214900e7&#45;1b8e&#45;4d5f&#45;979e&#45;27d1634f2718&#45;&gt;4aa1873c&#45;87e5&#45;453f&#45;a0ad&#45;7bd1d207ccc6</title>
<path fill="none" stroke="black" stroke-dasharray="5,2" d="M296.39,-254.79C315.13,-243.7 337.85,-230.25 356.71,-219.1"/>
<polygon fill="black" stroke="black" points="358.53,-222.09 365.35,-213.98 354.96,-216.06 358.53,-222.09"/>
</g>
<!-- d2cce630&#45;d2a1&#45;4da3&#45;a431&#45;a5f710338b0a -->
<g id="node14" class="node">
<title>d2cce630&#45;d2a1&#45;4da3&#45;a431&#45;a5f710338b0a</title>
<ellipse fill="yellow" stroke="black" cx="125.5" cy="-99.87" rx="69.09" ry="26.74"/>
<text text-anchor="middle" x="125.5" y="-103.67" font-family="Helvetica,sans-Serif" font-size="14.00">⋯ Modify</text>
<text text-anchor="middle" x="125.5" y="-88.67" font-family="Helvetica,sans-Serif" font-size="14.00">src/main.py</text>
</g>
<!-- 1cf496af&#45;86ec&#45;4049&#45;ba9e&#45;b27b5833f7b4&#45;&gt;d2cce630&#45;d2a1&#45;4da3&#45;a431&#45;a5f710338b0a -->
<g id="edge6" class="edge">
<title>1cf496af&#45;86ec&#45;4049&#45;ba9e&#45;b27b5833f7b4&#45;&gt;d2cce630&#45;d2a1&#45;4da3&#45;a431&#45;a5f710338b0a</title>
<path fill="none" stroke="black" d="M125.5,-177.52C125.5,-166.22 125.5,-151.01 125.5,-137.12"/>
<polygon fill="black" stroke="black" points="129,-136.84 125.5,-126.84 122,-136.84 129,-136.84"/>
<text text-anchor="middle" x="223" y="-148.54" font-family="Helvetica,sans-Serif" font-size="14.00">Additional changes required</text>
</g>
<!-- 0a95c220&#45;b968&#45;4500&#45;80d4&#45;de928f077419 -->
<g id="node15" class="node">
<title>0a95c220&#45;b968&#45;4500&#45;80d4&#45;de928f077419</title>
<polygon fill="white" stroke="black" points="250.5,-36 0.5,-36 0.5,0 250.5,0 250.5,-36"/>
<text text-anchor="middle" x="125.5" y="-14.3" font-family="Helvetica,sans-Serif" font-size="14.00">▶ Ran sandbox for `src/main.py`.</text>
</g>
<!-- d2cce630&#45;d2a1&#45;4da3&#45;a431&#45;a5f710338b0a&#45;&gt;0a95c220&#45;b968&#45;4500&#45;80d4&#45;de928f077419 -->
<g id="edge7" class="edge">
<title>d2cce630&#45;d2a1&#45;4da3&#45;a431&#45;a5f710338b0a&#45;&gt;0a95c220&#45;b968&#45;4500&#45;80d4&#45;de928f077419</title>
<path fill="none" stroke="black" stroke-dasharray="5,2" d="M125.5,-72.72C125.5,-64.27 125.5,-54.89 125.5,-46.36"/>
<polygon fill="black" stroke="black" points="129,-46.15 125.5,-36.15 122,-46.15 129,-46.15"/>
</g>
</g>
</svg>
