<?xml version="1.0" encoding="UTF-8" standalone="no"?>
<!DOCTYPE svg PUBLIC "-//W3C//DTD SVG 1.1//EN"
 "http://www.w3.org/Graphics/SVG/1.1/DTD/svg11.dtd">
<!-- Generated by graphviz version 8.0.3 (0)
 -->
<!-- Pages: 1 -->
<svg width="846pt" height="238pt"
 viewBox="0.00 0.00 845.50 237.74" xmlns="http://www.w3.org/2000/svg" xmlns:xlink="http://www.w3.org/1999/xlink">
<g id="graph0" class="graph" transform="scale(1 1) rotate(0) translate(36 201.74)">
<polygon fill="dimgray" stroke="none" points="-36,36 -36,-201.74 809.5,-201.74 809.5,36 -36,36"/>
<text text-anchor="middle" x="386.75" y="-150.54" font-family="Helvetica,sans-Serif" font-size="14.00">Sweep&#39;s Plan &amp; Progress</text>
<!-- start -->
<g id="node1" class="node">
<title>start</title>
</g>
<!-- 26585cb2&#45;c43e&#45;4576&#45;8d78&#45;578a5ed14234 -->
<g id="node3" class="node">
<title>26585cb2&#45;c43e&#45;4576&#45;8d78&#45;578a5ed14234</title>
<ellipse fill="#0ee832" stroke="black" cx="172.5" cy="-99.87" rx="69.09" ry="26.74"/>
<text text-anchor="middle" x="172.5" y="-103.67" font-family="Helvetica,sans-Serif" font-size="14.00">✓ Modify</text>
<text text-anchor="middle" x="172.5" y="-88.67" font-family="Helvetica,sans-Serif" font-size="14.00">src/main.py</text>
</g>
<!-- start&#45;&gt;26585cb2&#45;c43e&#45;4576&#45;8d78&#45;578a5ed14234 -->
<g id="edge6" class="edge">
<title>start&#45;&gt;26585cb2&#45;c43e&#45;4576&#45;8d78&#45;578a5ed14234</title>
<path fill="none" stroke="black" d="M51.85,-99.87C54.48,-99.87 71.76,-99.87 92.46,-99.87"/>
<polygon fill="black" stroke="black" points="92.19,-103.37 102.19,-99.87 92.19,-96.37 92.19,-103.37"/>
<text text-anchor="middle" x="77.6" y="-106.67" font-family="Helvetica,sans-Serif" font-size="14.00">Start</text>
</g>
<!-- end -->
<g id="node2" class="node">
<title>end</title>
</g>
<!-- 2d25dc7b&#45;cb68&#45;44b7&#45;aa54&#45;b478e9472fbc -->
<g id="node4" class="node">
<title>2d25dc7b&#45;cb68&#45;44b7&#45;aa54&#45;b478e9472fbc</title>
<ellipse fill="yellow" stroke="black" cx="394.5" cy="-99.87" rx="69.09" ry="26.74"/>
<text text-anchor="middle" x="394.5" y="-103.67" font-family="Helvetica,sans-Serif" font-size="14.00">⋯ Modify</text>
<text text-anchor="middle" x="394.5" y="-88.67" font-family="Helvetica,sans-Serif" font-size="14.00">src/main.py</text>
</g>
<!-- 26585cb2&#45;c43e&#45;4576&#45;8d78&#45;578a5ed14234&#45;&gt;2d25dc7b&#45;cb68&#45;44b7&#45;aa54&#45;b478e9472fbc -->
<g id="edge2" class="edge">
<title>26585cb2&#45;c43e&#45;4576&#45;8d78&#45;578a5ed14234&#45;&gt;2d25dc7b&#45;cb68&#45;44b7&#45;aa54&#45;b478e9472fbc</title>
<path fill="none" stroke="black" d="M241.88,-99.87C266.02,-99.87 290.17,-99.87 314.32,-99.87"/>
<polygon fill="black" stroke="black" points="314.04,-103.37 324.04,-99.87 314.04,-96.37 314.04,-103.37"/>
</g>
<!-- 45ae481b&#45;7462&#45;4a05&#45;bcca&#45;57c480289028 -->
<g id="node6" class="node">
<title>45ae481b&#45;7462&#45;4a05&#45;bcca&#45;57c480289028</title>
<polygon fill="#0ee832" stroke="black" points="251,-36 0,-36 0,0 251,0 251,-36"/>
<text text-anchor="middle" x="125.5" y="-14.3" font-family="Helvetica,sans-Serif" font-size="14.00">✓ Ran sandbox for `src/main.py`.</text>
</g>
<!-- 26585cb2&#45;c43e&#45;4576&#45;8d78&#45;578a5ed14234&#45;&gt;45ae481b&#45;7462&#45;4a05&#45;bcca&#45;57c480289028 -->
<g id="edge1" class="edge">
<title>26585cb2&#45;c43e&#45;4576&#45;8d78&#45;578a5ed14234&#45;&gt;45ae481b&#45;7462&#45;4a05&#45;bcca&#45;57c480289028</title>
<path fill="none" stroke="black" stroke-dasharray="5,2" d="M157.63,-73.6C152.34,-64.6 146.36,-54.46 141.02,-45.37"/>
<polygon fill="black" stroke="black" points="143.61,-43.88 135.53,-37.04 137.58,-47.43 143.61,-43.88"/>
</g>
<!-- dd4675f0&#45;8c61&#45;4ca3&#45;9912&#45;d5a1b4b2c43f -->
<g id="node5" class="node">
<title>dd4675f0&#45;8c61&#45;4ca3&#45;9912&#45;d5a1b4b2c43f</title>
<ellipse fill="white" stroke="black" cx="607.5" cy="-99.87" rx="59.29" ry="26.74"/>
<text text-anchor="middle" x="607.5" y="-103.67" font-family="Helvetica,sans-Serif" font-size="14.00">▶ Modify</text>
<text text-anchor="middle" x="607.5" y="-88.67" font-family="Helvetica,sans-Serif" font-size="14.00">src/api.py</text>
</g>
<!-- 2d25dc7b&#45;cb68&#45;44b7&#45;aa54&#45;b478e9472fbc&#45;&gt;dd4675f0&#45;8c61&#45;4ca3&#45;9912&#45;d5a1b4b2c43f -->
<g id="edge4" class="edge">
<title>2d25dc7b&#45;cb68&#45;44b7&#45;aa54&#45;b478e9472fbc&#45;&gt;dd4675f0&#45;8c61&#45;4ca3&#45;9912&#45;d5a1b4b2c43f</title>
<path fill="none" stroke="black" d="M463.97,-99.87C488.31,-99.87 512.65,-99.87 536.99,-99.87"/>
<polygon fill="black" stroke="black" points="536.79,-103.37 546.79,-99.87 536.79,-96.37 536.79,-103.37"/>
</g>
<!-- 4e46626d&#45;512b&#45;460a&#45;84df&#45;221b87ef6e02 -->
<g id="node7" class="node">
<title>4e46626d&#45;512b&#45;460a&#45;84df&#45;221b87ef6e02</title>
<polygon fill="white" stroke="black" points="519.5,-36 269.5,-36 269.5,0 519.5,0 519.5,-36"/>
<text text-anchor="middle" x="394.5" y="-14.3" font-family="Helvetica,sans-Serif" font-size="14.00">▶ Ran sandbox for `src/main.py`.</text>
</g>
<!-- 2d25dc7b&#45;cb68&#45;44b7&#45;aa54&#45;b478e9472fbc&#45;&gt;4e46626d&#45;512b&#45;460a&#45;84df&#45;221b87ef6e02 -->
<g id="edge3" class="edge">
<title>2d25dc7b&#45;cb68&#45;44b7&#45;aa54&#45;b478e9472fbc&#45;&gt;4e46626d&#45;512b&#45;460a&#45;84df&#45;221b87ef6e02</title>
<path fill="none" stroke="black" stroke-dasharray="5,2" d="M394.5,-72.72C394.5,-64.46 394.5,-55.31 394.5,-46.93"/>
<polygon fill="black" stroke="black" points="398,-47.15 394.5,-37.15 391,-47.15 398,-47.15"/>
</g>
<!-- dd4675f0&#45;8c61&#45;4ca3&#45;9912&#45;d5a1b4b2c43f&#45;&gt;end -->
<g id="edge7" class="edge">
<title>dd4675f0&#45;8c61&#45;4ca3&#45;9912&#45;d5a1b4b2c43f&#45;&gt;end</title>
<path fill="none" stroke="black" d="M667.03,-99.87C684.81,-99.87 702.47,-99.87 713.42,-99.87"/>
<polygon fill="black" stroke="black" points="713.17,-103.37 723.17,-99.87 713.17,-96.37 713.17,-103.37"/>
<text text-anchor="middle" x="695.45" y="-106.67" font-family="Helvetica,sans-Serif" font-size="14.00">Finish</text>
</g>
<!-- 75ba9e0e&#45;ba19&#45;4bbb&#45;b233&#45;3a098b70664c -->
<g id="node8" class="node">
<title>75ba9e0e&#45;ba19&#45;4bbb&#45;b233&#45;3a098b70664c</title>
<polygon fill="white" stroke="black" points="773.5,-36 537.5,-36 537.5,0 773.5,0 773.5,-36"/>
<text text-anchor="middle" x="655.5" y="-14.3" font-family="Helvetica,sans-Serif" font-size="14.00">▶ Ran sandbox for `src/api.py`.</text>
</g>
<!-- dd4675f0&#45;8c61&#45;4ca3&#45;9912&#45;d5a1b4b2c43f&#45;&gt;75ba9e0e&#45;ba19&#45;4bbb&#45;b233&#45;3a098b70664c -->
<g id="edge5" class="edge">
<title>dd4675f0&#45;8c61&#45;4ca3&#45;9912&#45;d5a1b4b2c43f&#45;&gt;75ba9e0e&#45;ba19&#45;4bbb&#45;b233&#45;3a098b70664c</title>
<path fill="none" stroke="black" stroke-dasharray="5,2" d="M622.69,-73.6C628.09,-64.6 634.19,-54.46 639.65,-45.37"/>
<polygon fill="black" stroke="black" points="643.11,-47.41 645.26,-37.04 637.11,-43.8 643.11,-47.41"/>
</g>
</g>
</svg>
