<?xml version="1.0" encoding="UTF-8" standalone="no"?>
<!DOCTYPE svg PUBLIC "-//W3C//DTD SVG 1.1//EN"
 "http://www.w3.org/Graphics/SVG/1.1/DTD/svg11.dtd">
<!-- Generated by graphviz version 8.0.3 (0)
 -->
<!-- Pages: 1 -->
<svg width="747pt" height="389pt"
 viewBox="0.00 0.00 747.00 389.48" xmlns="http://www.w3.org/2000/svg" xmlns:xlink="http://www.w3.org/1999/xlink">
<g id="graph0" class="graph" transform="scale(1 1) rotate(0) translate(36 353.48)">
<polygon fill="white" stroke="none" points="-36,36 -36,-353.48 711,-353.48 711,36 -36,36"/>
<text text-anchor="middle" x="98.5" y="-302.28" font-family="Times,serif" font-size="14.00">Sweep&#39;s Plan &amp; Progress</text>
<!-- start -->
<g id="node1" class="node">
<title>start</title>
</g>
<!-- 8d965438&#45;b748&#45;4d1d&#45;8993&#45;e9023f215c7b -->
<g id="node3" class="node">
<title>8d965438&#45;b748&#45;4d1d&#45;8993&#45;e9023f215c7b</title>
<ellipse fill="green" stroke="black" cx="119.5" cy="-267.61" rx="63.78" ry="26.74"/>
<text text-anchor="middle" x="119.5" y="-271.41" font-family="Times,serif" font-size="14.00">✓ Create</text>
<text text-anchor="middle" x="119.5" y="-256.41" font-family="Times,serif" font-size="14.00">src/cnn.py</text>
</g>
<!-- start&#45;&gt;8d965438&#45;b748&#45;4d1d&#45;8993&#45;e9023f215c7b -->
<g id="edge9" class="edge">
<title>start&#45;&gt;8d965438&#45;b748&#45;4d1d&#45;8993&#45;e9023f215c7b</title>
<path fill="none" stroke="black" d="M0.84,-267.61C3.58,-267.61 22.48,-267.61 44.41,-267.61"/>
<polygon fill="black" stroke="black" points="44.36,-271.11 54.36,-267.61 44.36,-264.11 44.36,-271.11"/>
<text text-anchor="middle" x="28.43" y="-274.41" font-family="Times,serif" font-size="14.00">Start</text>
</g>
<!-- end -->
<g id="node2" class="node">
<title>end</title>
</g>
<!-- 0ba05d22&#45;7fc5&#45;489d&#45;8d55&#45;755c04ac11ec -->
<g id="node4" class="node">
<title>0ba05d22&#45;7fc5&#45;489d&#45;8d55&#45;755c04ac11ec</title>
<ellipse fill="green" stroke="black" cx="336.5" cy="-267.61" rx="70.92" ry="26.74"/>
<text text-anchor="middle" x="336.5" y="-271.41" font-family="Times,serif" font-size="14.00">✓ Modify</text>
<text text-anchor="middle" x="336.5" y="-256.41" font-family="Times,serif" font-size="14.00">src/main.py</text>
</g>
<!-- 8d965438&#45;b748&#45;4d1d&#45;8993&#45;e9023f215c7b&#45;&gt;0ba05d22&#45;7fc5&#45;489d&#45;8d55&#45;755c04ac11ec -->
<g id="edge2" class="edge">
<title>8d965438&#45;b748&#45;4d1d&#45;8993&#45;e9023f215c7b&#45;&gt;0ba05d22&#45;7fc5&#45;489d&#45;8d55&#45;755c04ac11ec</title>
<path fill="none" stroke="black" d="M183.73,-267.61C205.84,-267.61 230.92,-267.61 254.28,-267.61"/>
<polygon fill="black" stroke="black" points="254.22,-271.11 264.22,-267.61 254.22,-264.11 254.22,-271.11"/>
<text text-anchor="middle" x="224.46" y="-274.41" font-family="Times,serif" font-size="14.00">Continue</text>
</g>
<!-- a82a2c6d&#45;1879&#45;41ab&#45;a4fb&#45;5fef960cd9de -->
<g id="node6" class="node">
<title>a82a2c6d&#45;1879&#45;41ab&#45;a4fb&#45;5fef960cd9de</title>
<polygon fill="green" stroke="black" points="164.5,-203.74 74.5,-203.74 74.5,-165.74 164.5,-165.74 164.5,-203.74"/>
<text text-anchor="middle" x="119.5" y="-188.54" font-family="Times,serif" font-size="14.00">✓ Check</text>
<text text-anchor="middle" x="119.5" y="-173.54" font-family="Times,serif" font-size="14.00">src/cnn.py</text>
</g>
<!-- 8d965438&#45;b748&#45;4d1d&#45;8993&#45;e9023f215c7b&#45;&gt;a82a2c6d&#45;1879&#45;41ab&#45;a4fb&#45;5fef960cd9de -->
<g id="edge1" class="edge">
<title>8d965438&#45;b748&#45;4d1d&#45;8993&#45;e9023f215c7b&#45;&gt;a82a2c6d&#45;1879&#45;41ab&#45;a4fb&#45;5fef960cd9de</title>
<path fill="none" stroke="black" stroke-dasharray="5,2" d="M119.5,-240.58C119.5,-232.32 119.5,-223.15 119.5,-214.7"/>
<polygon fill="black" stroke="black" points="123,-214.79 119.5,-204.79 116,-214.79 123,-214.79"/>
</g>
<!-- 2aae825a&#45;535e&#45;4a6b&#45;a7bc&#45;a334c4a600b6 -->
<g id="node5" class="node">
<title>2aae825a&#45;535e&#45;4a6b&#45;a7bc&#45;a334c4a600b6</title>
<ellipse fill="white" stroke="black" cx="550.5" cy="-267.61" rx="60.62" ry="26.74"/>
<text text-anchor="middle" x="550.5" y="-271.41" font-family="Times,serif" font-size="14.00">▶ Modify</text>
<text text-anchor="middle" x="550.5" y="-256.41" font-family="Times,serif" font-size="14.00">src/api.py</text>
</g>
<!-- 0ba05d22&#45;7fc5&#45;489d&#45;8d55&#45;755c04ac11ec&#45;&gt;2aae825a&#45;535e&#45;4a6b&#45;a7bc&#45;a334c4a600b6 -->
<g id="edge7" class="edge">
<title>0ba05d22&#45;7fc5&#45;489d&#45;8d55&#45;755c04ac11ec&#45;&gt;2aae825a&#45;535e&#45;4a6b&#45;a7bc&#45;a334c4a600b6</title>
<path fill="none" stroke="black" d="M407.76,-267.61C430.54,-267.61 455.76,-267.61 478.58,-267.61"/>
<polygon fill="black" stroke="black" points="478.57,-271.11 488.57,-267.61 478.57,-264.11 478.57,-271.11"/>
<text text-anchor="middle" x="448.45" y="-274.41" font-family="Times,serif" font-size="14.00">Continue</text>
</g>
<!-- 784ea062&#45;63b5&#45;4d21&#45;b188&#45;3f79ca7e6a53 -->
<g id="node7" class="node">
<title>784ea062&#45;63b5&#45;4d21&#45;b188&#45;3f79ca7e6a53</title>
<polygon fill="red" stroke="black" points="327.5,-203.74 227.5,-203.74 227.5,-165.74 327.5,-165.74 327.5,-203.74"/>
<text text-anchor="middle" x="277.5" y="-188.54" font-family="Times,serif" font-size="14.00">✗ Check</text>
<text text-anchor="middle" x="277.5" y="-173.54" font-family="Times,serif" font-size="14.00">src/main.py</text>
</g>
<!-- 0ba05d22&#45;7fc5&#45;489d&#45;8d55&#45;755c04ac11ec&#45;&gt;784ea062&#45;63b5&#45;4d21&#45;b188&#45;3f79ca7e6a53 -->
<g id="edge3" class="edge">
<title>0ba05d22&#45;7fc5&#45;489d&#45;8d55&#45;755c04ac11ec&#45;&gt;784ea062&#45;63b5&#45;4d21&#45;b188&#45;3f79ca7e6a53</title>
<path fill="none" stroke="black" stroke-dasharray="5,2" d="M318.16,-241.47C311.56,-232.42 304.09,-222.19 297.37,-212.98"/>
<polygon fill="black" stroke="black" points="299.68,-211.2 290.96,-205.19 294.03,-215.33 299.68,-211.2"/>
</g>
<!-- 5c2f387c&#45;db77&#45;4b6c&#45;b51c&#45;8a1ebaa0f3d2 -->
<g id="node8" class="node">
<title>5c2f387c&#45;db77&#45;4b6c&#45;b51c&#45;8a1ebaa0f3d2</title>
<polygon fill="white" stroke="black" points="445.5,-203.74 345.5,-203.74 345.5,-165.74 445.5,-165.74 445.5,-203.74"/>
<text text-anchor="middle" x="395.5" y="-188.54" font-family="Times,serif" font-size="14.00">▶ Check</text>
<text text-anchor="middle" x="395.5" y="-173.54" font-family="Times,serif" font-size="14.00">src/main.py</text>
</g>
<!-- 0ba05d22&#45;7fc5&#45;489d&#45;8d55&#45;755c04ac11ec&#45;&gt;5c2f387c&#45;db77&#45;4b6c&#45;b51c&#45;8a1ebaa0f3d2 -->
<g id="edge6" class="edge">
<title>0ba05d22&#45;7fc5&#45;489d&#45;8d55&#45;755c04ac11ec&#45;&gt;5c2f387c&#45;db77&#45;4b6c&#45;b51c&#45;8a1ebaa0f3d2</title>
<path fill="none" stroke="black" stroke-dasharray="5,2" d="M354.84,-241.47C361.44,-232.42 368.91,-222.19 375.63,-212.98"/>
<polygon fill="black" stroke="black" points="378.97,-215.33 382.04,-205.19 373.32,-211.2 378.97,-215.33"/>
</g>
<!-- 2aae825a&#45;535e&#45;4a6b&#45;a7bc&#45;a334c4a600b6&#45;&gt;end -->
<g id="edge10" class="edge">
<title>2aae825a&#45;535e&#45;4a6b&#45;a7bc&#45;a334c4a600b6&#45;&gt;end</title>
<path fill="none" stroke="black" d="M611.41,-267.61C631.39,-267.61 651.53,-267.61 663.5,-267.61"/>
<polygon fill="black" stroke="black" points="663.14,-271.11 673.14,-267.61 663.14,-264.11 663.14,-271.11"/>
<text text-anchor="middle" x="642.66" y="-274.41" font-family="Times,serif" font-size="14.00">Finish</text>
</g>
<!-- af28e76e&#45;1905&#45;42ac&#45;a7bf&#45;3d344227f0ce -->
<g id="node9" class="node">
<title>af28e76e&#45;1905&#45;42ac&#45;a7bf&#45;3d344227f0ce</title>
<polygon fill="white" stroke="black" points="593.5,-203.74 507.5,-203.74 507.5,-165.74 593.5,-165.74 593.5,-203.74"/>
<text text-anchor="middle" x="550.5" y="-188.54" font-family="Times,serif" font-size="14.00">▶ Check</text>
<text text-anchor="middle" x="550.5" y="-173.54" font-family="Times,serif" font-size="14.00">src/api.py</text>
</g>
<!-- 2aae825a&#45;535e&#45;4a6b&#45;a7bc&#45;a334c4a600b6&#45;&gt;af28e76e&#45;1905&#45;42ac&#45;a7bf&#45;3d344227f0ce -->
<g id="edge8" class="edge">
<title>2aae825a&#45;535e&#45;4a6b&#45;a7bc&#45;a334c4a600b6&#45;&gt;af28e76e&#45;1905&#45;42ac&#45;a7bf&#45;3d344227f0ce</title>
<path fill="none" stroke="black" stroke-dasharray="5,2" d="M550.5,-240.58C550.5,-232.32 550.5,-223.15 550.5,-214.7"/>
<polygon fill="black" stroke="black" points="554,-214.79 550.5,-204.79 547,-214.79 554,-214.79"/>
</g>
<!-- 4abf41de&#45;00a5&#45;4e2d&#45;b975&#45;8750e6f1cc3d -->
<g id="node10" class="node">
<title>4abf41de&#45;00a5&#45;4e2d&#45;b975&#45;8750e6f1cc3d</title>
<ellipse fill="yellow" stroke="black" cx="277.5" cy="-101.87" rx="70.92" ry="26.74"/>
<text text-anchor="middle" x="277.5" y="-105.67" font-family="Times,serif" font-size="14.00">⋯ Modify</text>
<text text-anchor="middle" x="277.5" y="-90.67" font-family="Times,serif" font-size="14.00">src/main.py</text>
</g>
<!-- 784ea062&#45;63b5&#45;4d21&#45;b188&#45;3f79ca7e6a53&#45;&gt;4abf41de&#45;00a5&#45;4e2d&#45;b975&#45;8750e6f1cc3d -->
<g id="edge4" class="edge">
<title>784ea062&#45;63b5&#45;4d21&#45;b188&#45;3f79ca7e6a53&#45;&gt;4abf41de&#45;00a5&#45;4e2d&#45;b975&#45;8750e6f1cc3d</title>
<path fill="none" stroke="black" d="M277.5,-165.39C277.5,-157.79 277.5,-148.68 277.5,-139.81"/>
<polygon fill="black" stroke="black" points="281,-139.81 277.5,-129.81 274,-139.81 281,-139.81"/>
</g>
<!-- 6f8e11ae&#45;953f&#45;4084&#45;a88c&#45;d2ad9f5f506d -->
<g id="node11" class="node">
<title>6f8e11ae&#45;953f&#45;4084&#45;a88c&#45;d2ad9f5f506d</title>
<polygon fill="white" stroke="black" points="327.5,-38 227.5,-38 227.5,0 327.5,0 327.5,-38"/>
<text text-anchor="middle" x="277.5" y="-22.8" font-family="Times,serif" font-size="14.00">▶ Check</text>
<text text-anchor="middle" x="277.5" y="-7.8" font-family="Times,serif" font-size="14.00">src/main.py</text>
</g>
<!-- 4abf41de&#45;00a5&#45;4e2d&#45;b975&#45;8750e6f1cc3d&#45;&gt;6f8e11ae&#45;953f&#45;4084&#45;a88c&#45;d2ad9f5f506d -->
<g id="edge5" class="edge">
<title>4abf41de&#45;00a5&#45;4e2d&#45;b975&#45;8750e6f1cc3d&#45;&gt;6f8e11ae&#45;953f&#45;4084&#45;a88c&#45;d2ad9f5f506d</title>
<path fill="none" stroke="black" stroke-dasharray="5,2" d="M277.5,-74.84C277.5,-66.58 277.5,-57.41 277.5,-48.96"/>
<polygon fill="black" stroke="black" points="281,-49.05 277.5,-39.05 274,-49.05 281,-49.05"/>
</g>
</g>
</svg>
