<?xml version="1.0" encoding="UTF-8" standalone="no"?>
<!DOCTYPE svg PUBLIC "-//W3C//DTD SVG 1.1//EN"
 "http://www.w3.org/Graphics/SVG/1.1/DTD/svg11.dtd">
<!-- Generated by graphviz version 8.0.3 (0)
 -->
<!-- Pages: 1 -->
<svg width="838pt" height="238pt"
 viewBox="0.00 0.00 838.00 237.74" xmlns="http://www.w3.org/2000/svg" xmlns:xlink="http://www.w3.org/1999/xlink">
<g id="graph0" class="graph" transform="scale(1 1) rotate(0) translate(36 201.74)">
<polygon fill="dimgray" stroke="none" points="-36,36 -36,-201.74 802,-201.74 802,36 -36,36"/>
<text text-anchor="middle" x="383" y="-150.54" font-family="Helvetica,sans-Serif" font-size="14.00">Sweep&#39;s Plan &amp; Progress</text>
<!-- start -->
<g id="node1" class="node">
<title>start</title>
</g>
<!-- 9cef481a&#45;ec58&#45;4035&#45;ada2&#45;50cf4411c0a2 -->
<g id="node3" class="node">
<title>9cef481a&#45;ec58&#45;4035&#45;ada2&#45;50cf4411c0a2</title>
<ellipse fill="#0ee832" stroke="black" cx="169" cy="-99.87" rx="62.87" ry="26.74"/>
<text text-anchor="middle" x="169" y="-103.67" font-family="Helvetica,sans-Serif" font-size="14.00">✓ Create</text>
<text text-anchor="middle" x="169" y="-88.67" font-family="Helvetica,sans-Serif" font-size="14.00">src/cnn.py</text>
</g>
<!-- start&#45;&gt;9cef481a&#45;ec58&#45;4035&#45;ada2&#45;50cf4411c0a2 -->
<g id="edge6" class="edge">
<title>start&#45;&gt;9cef481a&#45;ec58&#45;4035&#45;ada2&#45;50cf4411c0a2</title>
<path fill="none" stroke="black" d="M54.33,-99.87C56.91,-99.87 74.3,-99.87 94.78,-99.87"/>
<polygon fill="black" stroke="black" points="94.72,-103.37 104.72,-99.87 94.72,-96.37 94.72,-103.37"/>
<text text-anchor="middle" x="80.28" y="-106.67" font-family="Helvetica,sans-Serif" font-size="14.00">Start</text>
</g>
<!-- end -->
<g id="node2" class="node">
<title>end</title>
</g>
<!-- bf04b430&#45;4756&#45;470c&#45;9667&#45;b99374a7bcb9 -->
<g id="node4" class="node">
<title>bf04b430&#45;4756&#45;470c&#45;9667&#45;b99374a7bcb9</title>
<ellipse fill="#ee0000" stroke="black" cx="386" cy="-99.87" rx="69.09" ry="26.74"/>
<text text-anchor="middle" x="386" y="-103.67" font-family="Helvetica,sans-Serif" font-size="14.00">✗ Modify</text>
<text text-anchor="middle" x="386" y="-88.67" font-family="Helvetica,sans-Serif" font-size="14.00">src/main.py</text>
</g>
<!-- 9cef481a&#45;ec58&#45;4035&#45;ada2&#45;50cf4411c0a2&#45;&gt;bf04b430&#45;4756&#45;470c&#45;9667&#45;b99374a7bcb9 -->
<g id="edge2" class="edge">
<title>9cef481a&#45;ec58&#45;4035&#45;ada2&#45;50cf4411c0a2&#45;&gt;bf04b430&#45;4756&#45;470c&#45;9667&#45;b99374a7bcb9</title>
<path fill="none" stroke="black" d="M232.15,-99.87C256.67,-99.87 281.19,-99.87 305.7,-99.87"/>
<polygon fill="black" stroke="black" points="305.59,-103.37 315.59,-99.87 305.59,-96.37 305.59,-103.37"/>
</g>
<!-- cd77d82d&#45;641f&#45;4e2d&#45;832c&#45;abf9371b58e4 -->
<g id="node6" class="node">
<title>cd77d82d&#45;641f&#45;4e2d&#45;832c&#45;abf9371b58e4</title>
<polygon fill="#0ee832" stroke="black" points="242,-36 0,-36 0,0 242,0 242,-36"/>
<text text-anchor="middle" x="121" y="-14.3" font-family="Helvetica,sans-Serif" font-size="14.00">✓ Ran sandbox for `src/cnn.py`.</text>
</g>
<!-- 9cef481a&#45;ec58&#45;4035&#45;ada2&#45;50cf4411c0a2&#45;&gt;cd77d82d&#45;641f&#45;4e2d&#45;832c&#45;abf9371b58e4 -->
<g id="edge1" class="edge">
<title>9cef481a&#45;ec58&#45;4035&#45;ada2&#45;50cf4411c0a2&#45;&gt;cd77d82d&#45;641f&#45;4e2d&#45;832c&#45;abf9371b58e4</title>
<path fill="none" stroke="black" stroke-dasharray="5,2" d="M153.81,-73.6C148.41,-64.6 142.31,-54.46 136.85,-45.37"/>
<polygon fill="black" stroke="black" points="139.39,-43.8 131.24,-37.04 133.39,-47.41 139.39,-43.8"/>
</g>
<!-- 5e56e1f6&#45;1a18&#45;402f&#45;8463&#45;ce87b9fa25da -->
<g id="node5" class="node">
<title>5e56e1f6&#45;1a18&#45;402f&#45;8463&#45;ce87b9fa25da</title>
<ellipse fill="white" stroke="black" cx="599" cy="-99.87" rx="59.29" ry="26.74"/>
<text text-anchor="middle" x="599" y="-103.67" font-family="Helvetica,sans-Serif" font-size="14.00">▶ Modify</text>
<text text-anchor="middle" x="599" y="-88.67" font-family="Helvetica,sans-Serif" font-size="14.00">src/api.py</text>
</g>
<!-- bf04b430&#45;4756&#45;470c&#45;9667&#45;b99374a7bcb9&#45;&gt;5e56e1f6&#45;1a18&#45;402f&#45;8463&#45;ce87b9fa25da -->
<g id="edge4" class="edge">
<title>bf04b430&#45;4756&#45;470c&#45;9667&#45;b99374a7bcb9&#45;&gt;5e56e1f6&#45;1a18&#45;402f&#45;8463&#45;ce87b9fa25da</title>
<path fill="none" stroke="black" d="M455.47,-99.87C479.81,-99.87 504.15,-99.87 528.49,-99.87"/>
<polygon fill="black" stroke="black" points="528.29,-103.37 538.29,-99.87 528.29,-96.37 528.29,-103.37"/>
</g>
<!-- b24d0505&#45;1c0f&#45;4b5a&#45;b13b&#45;de03112370a7 -->
<g id="node7" class="node">
<title>b24d0505&#45;1c0f&#45;4b5a&#45;b13b&#45;de03112370a7</title>
<polygon fill="#ee0000" stroke="black" points="511.5,-36 260.5,-36 260.5,0 511.5,0 511.5,-36"/>
<text text-anchor="middle" x="386" y="-14.3" font-family="Helvetica,sans-Serif" font-size="14.00">✗ Ran sandbox for `src/main.py`.</text>
</g>
<!-- bf04b430&#45;4756&#45;470c&#45;9667&#45;b99374a7bcb9&#45;&gt;b24d0505&#45;1c0f&#45;4b5a&#45;b13b&#45;de03112370a7 -->
<g id="edge3" class="edge">
<title>bf04b430&#45;4756&#45;470c&#45;9667&#45;b99374a7bcb9&#45;&gt;b24d0505&#45;1c0f&#45;4b5a&#45;b13b&#45;de03112370a7</title>
<path fill="none" stroke="black" stroke-dasharray="5,2" d="M386,-72.72C386,-64.46 386,-55.31 386,-46.93"/>
<polygon fill="black" stroke="black" points="389.5,-47.15 386,-37.15 382.5,-47.15 389.5,-47.15"/>
</g>
<!-- 5e56e1f6&#45;1a18&#45;402f&#45;8463&#45;ce87b9fa25da&#45;&gt;end -->
<g id="edge7" class="edge">
<title>5e56e1f6&#45;1a18&#45;402f&#45;8463&#45;ce87b9fa25da&#45;&gt;end</title>
<path fill="none" stroke="black" d="M658.53,-99.87C676.31,-99.87 693.97,-99.87 704.92,-99.87"/>
<polygon fill="black" stroke="black" points="704.67,-103.37 714.67,-99.87 704.67,-96.37 704.67,-103.37"/>
<text text-anchor="middle" x="686.95" y="-106.67" font-family="Helvetica,sans-Serif" font-size="14.00">Finish</text>
</g>
<!-- e1bd40a6&#45;63e2&#45;4338&#45;a8d3&#45;d10f41301605 -->
<g id="node8" class="node">
<title>e1bd40a6&#45;63e2&#45;4338&#45;a8d3&#45;d10f41301605</title>
<polygon fill="white" stroke="black" points="766,-36 530,-36 530,0 766,0 766,-36"/>
<text text-anchor="middle" x="648" y="-14.3" font-family="Helvetica,sans-Serif" font-size="14.00">▶ Ran sandbox for `src/api.py`.</text>
</g>
<!-- 5e56e1f6&#45;1a18&#45;402f&#45;8463&#45;ce87b9fa25da&#45;&gt;e1bd40a6&#45;63e2&#45;4338&#45;a8d3&#45;d10f41301605 -->
<g id="edge5" class="edge">
<title>5e56e1f6&#45;1a18&#45;402f&#45;8463&#45;ce87b9fa25da&#45;&gt;e1bd40a6&#45;63e2&#45;4338&#45;a8d3&#45;d10f41301605</title>
<path fill="none" stroke="black" stroke-dasharray="5,2" d="M614.5,-73.6C620.02,-64.6 626.25,-54.46 631.82,-45.37"/>
<polygon fill="black" stroke="black" points="635.3,-47.39 637.55,-37.04 629.34,-43.73 635.3,-47.39"/>
</g>
</g>
</svg>
