<?xml version="1.0" encoding="UTF-8" standalone="no"?>
<!DOCTYPE svg PUBLIC "-//W3C//DTD SVG 1.1//EN"
 "http://www.w3.org/Graphics/SVG/1.1/DTD/svg11.dtd">
<!-- Generated by graphviz version 8.0.3 (0)
 -->
<!-- Pages: 1 -->
<svg width="844pt" height="238pt"
 viewBox="0.00 0.00 844.00 237.74" xmlns="http://www.w3.org/2000/svg" xmlns:xlink="http://www.w3.org/1999/xlink">
<g id="graph0" class="graph" transform="scale(1 1) rotate(0) translate(36 201.74)">
<polygon fill="dimgray" stroke="none" points="-36,36 -36,-201.74 808,-201.74 808,36 -36,36"/>
<text text-anchor="middle" x="386" y="-150.54" font-family="Helvetica,sans-Serif" font-size="14.00">Sweep&#39;s Plan &amp; Progress</text>
<!-- start -->
<g id="node1" class="node">
<title>start</title>
</g>
<!-- 3d9a6f8b&#45;07c9&#45;4349&#45;8d47&#45;be3cac19039d -->
<g id="node3" class="node">
<title>3d9a6f8b&#45;07c9&#45;4349&#45;8d47&#45;be3cac19039d</title>
<ellipse fill="yellow" stroke="black" cx="172" cy="-99.87" rx="69.09" ry="26.74"/>
<text text-anchor="middle" x="172" y="-103.67" font-family="Helvetica,sans-Serif" font-size="14.00">⋯ Modify</text>
<text text-anchor="middle" x="172" y="-88.67" font-family="Helvetica,sans-Serif" font-size="14.00">src/main.py</text>
</g>
<!-- start&#45;&gt;3d9a6f8b&#45;07c9&#45;4349&#45;8d47&#45;be3cac19039d -->
<g id="edge6" class="edge">
<title>start&#45;&gt;3d9a6f8b&#45;07c9&#45;4349&#45;8d47&#45;be3cac19039d</title>
<path fill="none" stroke="black" d="M51.35,-99.87C53.98,-99.87 71.26,-99.87 91.96,-99.87"/>
<polygon fill="black" stroke="black" points="91.69,-103.37 101.69,-99.87 91.69,-96.37 91.69,-103.37"/>
<text text-anchor="middle" x="77.1" y="-106.67" font-family="Helvetica,sans-Serif" font-size="14.00">Start</text>
</g>
<!-- end -->
<g id="node2" class="node">
<title>end</title>
</g>
<!-- 46bb8e72&#45;0680&#45;40bd&#45;8c74&#45;b7403bbc35a1 -->
<g id="node4" class="node">
<title>46bb8e72&#45;0680&#45;40bd&#45;8c74&#45;b7403bbc35a1</title>
<ellipse fill="white" stroke="black" cx="393" cy="-99.87" rx="69.09" ry="26.74"/>
<text text-anchor="middle" x="393" y="-103.67" font-family="Helvetica,sans-Serif" font-size="14.00">▶ Modify</text>
<text text-anchor="middle" x="393" y="-88.67" font-family="Helvetica,sans-Serif" font-size="14.00">src/main.py</text>
</g>
<!-- 3d9a6f8b&#45;07c9&#45;4349&#45;8d47&#45;be3cac19039d&#45;&gt;46bb8e72&#45;0680&#45;40bd&#45;8c74&#45;b7403bbc35a1 -->
<g id="edge2" class="edge">
<title>3d9a6f8b&#45;07c9&#45;4349&#45;8d47&#45;be3cac19039d&#45;&gt;46bb8e72&#45;0680&#45;40bd&#45;8c74&#45;b7403bbc35a1</title>
<path fill="none" stroke="black" d="M241.49,-99.87C265.19,-99.87 288.88,-99.87 312.57,-99.87"/>
<polygon fill="black" stroke="black" points="312.46,-103.37 322.46,-99.87 312.46,-96.37 312.46,-103.37"/>
</g>
<!-- 4017ff02&#45;d909&#45;4abe&#45;a912&#45;1637b3828317 -->
<g id="node6" class="node">
<title>4017ff02&#45;d909&#45;4abe&#45;a912&#45;1637b3828317</title>
<polygon fill="white" stroke="black" points="250,-36 0,-36 0,0 250,0 250,-36"/>
<text text-anchor="middle" x="125" y="-14.3" font-family="Helvetica,sans-Serif" font-size="14.00">▶ Ran sandbox for `src/main.py`.</text>
</g>
<!-- 3d9a6f8b&#45;07c9&#45;4349&#45;8d47&#45;be3cac19039d&#45;&gt;4017ff02&#45;d909&#45;4abe&#45;a912&#45;1637b3828317 -->
<g id="edge1" class="edge">
<title>3d9a6f8b&#45;07c9&#45;4349&#45;8d47&#45;be3cac19039d&#45;&gt;4017ff02&#45;d909&#45;4abe&#45;a912&#45;1637b3828317</title>
<path fill="none" stroke="black" stroke-dasharray="5,2" d="M157.13,-73.6C151.84,-64.6 145.86,-54.46 140.52,-45.37"/>
<polygon fill="black" stroke="black" points="143.11,-43.88 135.03,-37.04 137.08,-47.43 143.11,-43.88"/>
</g>
<!-- aa73cd0b&#45;ae34&#45;409a&#45;9079&#45;012cbe384887 -->
<g id="node5" class="node">
<title>aa73cd0b&#45;ae34&#45;409a&#45;9079&#45;012cbe384887</title>
<ellipse fill="white" stroke="black" cx="606" cy="-99.87" rx="59.29" ry="26.74"/>
<text text-anchor="middle" x="606" y="-103.67" font-family="Helvetica,sans-Serif" font-size="14.00">▶ Modify</text>
<text text-anchor="middle" x="606" y="-88.67" font-family="Helvetica,sans-Serif" font-size="14.00">src/api.py</text>
</g>
<!-- 46bb8e72&#45;0680&#45;40bd&#45;8c74&#45;b7403bbc35a1&#45;&gt;aa73cd0b&#45;ae34&#45;409a&#45;9079&#45;012cbe384887 -->
<g id="edge4" class="edge">
<title>46bb8e72&#45;0680&#45;40bd&#45;8c74&#45;b7403bbc35a1&#45;&gt;aa73cd0b&#45;ae34&#45;409a&#45;9079&#45;012cbe384887</title>
<path fill="none" stroke="black" d="M462.47,-99.87C486.81,-99.87 511.15,-99.87 535.49,-99.87"/>
<polygon fill="black" stroke="black" points="535.29,-103.37 545.29,-99.87 535.29,-96.37 535.29,-103.37"/>
</g>
<!-- a8cbcd5a&#45;2198&#45;46b8&#45;b1bb&#45;a5480019587c -->
<g id="node7" class="node">
<title>a8cbcd5a&#45;2198&#45;46b8&#45;b1bb&#45;a5480019587c</title>
<polygon fill="white" stroke="black" points="518,-36 268,-36 268,0 518,0 518,-36"/>
<text text-anchor="middle" x="393" y="-14.3" font-family="Helvetica,sans-Serif" font-size="14.00">▶ Ran sandbox for `src/main.py`.</text>
</g>
<!-- 46bb8e72&#45;0680&#45;40bd&#45;8c74&#45;b7403bbc35a1&#45;&gt;a8cbcd5a&#45;2198&#45;46b8&#45;b1bb&#45;a5480019587c -->
<g id="edge3" class="edge">
<title>46bb8e72&#45;0680&#45;40bd&#45;8c74&#45;b7403bbc35a1&#45;&gt;a8cbcd5a&#45;2198&#45;46b8&#45;b1bb&#45;a5480019587c</title>
<path fill="none" stroke="black" stroke-dasharray="5,2" d="M393,-72.72C393,-64.46 393,-55.31 393,-46.93"/>
<polygon fill="black" stroke="black" points="396.5,-47.15 393,-37.15 389.5,-47.15 396.5,-47.15"/>
</g>
<!-- aa73cd0b&#45;ae34&#45;409a&#45;9079&#45;012cbe384887&#45;&gt;end -->
<g id="edge7" class="edge">
<title>aa73cd0b&#45;ae34&#45;409a&#45;9079&#45;012cbe384887&#45;&gt;end</title>
<path fill="none" stroke="black" d="M665.53,-99.87C683.31,-99.87 700.97,-99.87 711.92,-99.87"/>
<polygon fill="black" stroke="black" points="711.67,-103.37 721.67,-99.87 711.67,-96.37 711.67,-103.37"/>
<text text-anchor="middle" x="693.95" y="-106.67" font-family="Helvetica,sans-Serif" font-size="14.00">Finish</text>
</g>
<!-- 3aaf0457&#45;b190&#45;499c&#45;bbad&#45;959ec9a18207 -->
<g id="node8" class="node">
<title>3aaf0457&#45;b190&#45;499c&#45;bbad&#45;959ec9a18207</title>
<polygon fill="white" stroke="black" points="772,-36 536,-36 536,0 772,0 772,-36"/>
<text text-anchor="middle" x="654" y="-14.3" font-family="Helvetica,sans-Serif" font-size="14.00">▶ Ran sandbox for `src/api.py`.</text>
</g>
<!-- aa73cd0b&#45;ae34&#45;409a&#45;9079&#45;012cbe384887&#45;&gt;3aaf0457&#45;b190&#45;499c&#45;bbad&#45;959ec9a18207 -->
<g id="edge5" class="edge">
<title>aa73cd0b&#45;ae34&#45;409a&#45;9079&#45;012cbe384887&#45;&gt;3aaf0457&#45;b190&#45;499c&#45;bbad&#45;959ec9a18207</title>
<path fill="none" stroke="black" stroke-dasharray="5,2" d="M621.19,-73.6C626.59,-64.6 632.69,-54.46 638.15,-45.37"/>
<polygon fill="black" stroke="black" points="641.61,-47.41 643.76,-37.04 635.61,-43.8 641.61,-47.41"/>
</g>
</g>
</svg>
