<?xml version="1.0" encoding="UTF-8" standalone="no"?>
<!DOCTYPE svg PUBLIC "-//W3C//DTD SVG 1.1//EN"
 "http://www.w3.org/Graphics/SVG/1.1/DTD/svg11.dtd">
<!-- Generated by graphviz version 8.0.3 (0)
 -->
<!-- Pages: 1 -->
<svg width="840pt" height="238pt"
 viewBox="0.00 0.00 839.50 237.74" xmlns="http://www.w3.org/2000/svg" xmlns:xlink="http://www.w3.org/1999/xlink">
<g id="graph0" class="graph" transform="scale(1 1) rotate(0) translate(36 201.74)">
<polygon fill="dimgray" stroke="none" points="-36,36 -36,-201.74 803.5,-201.74 803.5,36 -36,36"/>
<text text-anchor="middle" x="383.75" y="-150.54" font-family="Helvetica,sans-Serif" font-size="14.00">Sweep&#39;s Plan &amp; Progress</text>
<!-- start -->
<g id="node1" class="node">
<title>start</title>
</g>
<!-- e3c7c8fb&#45;da8a&#45;4268&#45;b388&#45;bf0037793772 -->
<g id="node3" class="node">
<title>e3c7c8fb&#45;da8a&#45;4268&#45;b388&#45;bf0037793772</title>
<ellipse fill="#0ee832" stroke="black" cx="171.5" cy="-99.87" rx="62.87" ry="26.74"/>
<text text-anchor="middle" x="171.5" y="-103.67" font-family="Helvetica,sans-Serif" font-size="14.00">✓ Create</text>
<text text-anchor="middle" x="171.5" y="-88.67" font-family="Helvetica,sans-Serif" font-size="14.00">src/cnn.py</text>
</g>
<!-- start&#45;&gt;e3c7c8fb&#45;da8a&#45;4268&#45;b388&#45;bf0037793772 -->
<g id="edge6" class="edge">
<title>start&#45;&gt;e3c7c8fb&#45;da8a&#45;4268&#45;b388&#45;bf0037793772</title>
<path fill="none" stroke="black" d="M56.83,-99.87C59.41,-99.87 76.8,-99.87 97.28,-99.87"/>
<polygon fill="black" stroke="black" points="97.22,-103.37 107.22,-99.87 97.22,-96.37 97.22,-103.37"/>
<text text-anchor="middle" x="82.78" y="-106.67" font-family="Helvetica,sans-Serif" font-size="14.00">Start</text>
</g>
<!-- end -->
<g id="node2" class="node">
<title>end</title>
</g>
<!-- 077c83a6&#45;64c5&#45;458e&#45;b8be&#45;ad27099ca264 -->
<g id="node4" class="node">
<title>077c83a6&#45;64c5&#45;458e&#45;b8be&#45;ad27099ca264</title>
<ellipse fill="white" stroke="black" cx="388.5" cy="-99.87" rx="69.09" ry="26.74"/>
<text text-anchor="middle" x="388.5" y="-103.67" font-family="Helvetica,sans-Serif" font-size="14.00">▶ Modify</text>
<text text-anchor="middle" x="388.5" y="-88.67" font-family="Helvetica,sans-Serif" font-size="14.00">src/main.py</text>
</g>
<!-- e3c7c8fb&#45;da8a&#45;4268&#45;b388&#45;bf0037793772&#45;&gt;077c83a6&#45;64c5&#45;458e&#45;b8be&#45;ad27099ca264 -->
<g id="edge2" class="edge">
<title>e3c7c8fb&#45;da8a&#45;4268&#45;b388&#45;bf0037793772&#45;&gt;077c83a6&#45;64c5&#45;458e&#45;b8be&#45;ad27099ca264</title>
<path fill="none" stroke="black" d="M234.65,-99.87C259.17,-99.87 283.69,-99.87 308.2,-99.87"/>
<polygon fill="black" stroke="black" points="308.09,-103.37 318.09,-99.87 308.09,-96.37 308.09,-103.37"/>
</g>
<!-- 47e31b0c&#45;afad&#45;4469&#45;8b36&#45;de44bff0df05 -->
<g id="node6" class="node">
<title>47e31b0c&#45;afad&#45;4469&#45;8b36&#45;de44bff0df05</title>
<polygon fill="yellow" stroke="black" points="245,-36 0,-36 0,0 245,0 245,-36"/>
<text text-anchor="middle" x="122.5" y="-14.3" font-family="Helvetica,sans-Serif" font-size="14.00">⋯ Ran sandbox for `src/cnn.py`.</text>
</g>
<!-- e3c7c8fb&#45;da8a&#45;4268&#45;b388&#45;bf0037793772&#45;&gt;47e31b0c&#45;afad&#45;4469&#45;8b36&#45;de44bff0df05 -->
<g id="edge1" class="edge">
<title>e3c7c8fb&#45;da8a&#45;4268&#45;b388&#45;bf0037793772&#45;&gt;47e31b0c&#45;afad&#45;4469&#45;8b36&#45;de44bff0df05</title>
<path fill="none" stroke="black" stroke-dasharray="5,2" d="M156,-73.6C150.48,-64.6 144.25,-54.46 138.68,-45.37"/>
<polygon fill="black" stroke="black" points="141.16,-43.73 132.95,-37.04 135.2,-47.39 141.16,-43.73"/>
</g>
<!-- d814e5e2&#45;1a0f&#45;4b00&#45;8295&#45;9097472a4278 -->
<g id="node5" class="node">
<title>d814e5e2&#45;1a0f&#45;4b00&#45;8295&#45;9097472a4278</title>
<ellipse fill="white" stroke="black" cx="601.5" cy="-99.87" rx="59.29" ry="26.74"/>
<text text-anchor="middle" x="601.5" y="-103.67" font-family="Helvetica,sans-Serif" font-size="14.00">▶ Modify</text>
<text text-anchor="middle" x="601.5" y="-88.67" font-family="Helvetica,sans-Serif" font-size="14.00">src/api.py</text>
</g>
<!-- 077c83a6&#45;64c5&#45;458e&#45;b8be&#45;ad27099ca264&#45;&gt;d814e5e2&#45;1a0f&#45;4b00&#45;8295&#45;9097472a4278 -->
<g id="edge4" class="edge">
<title>077c83a6&#45;64c5&#45;458e&#45;b8be&#45;ad27099ca264&#45;&gt;d814e5e2&#45;1a0f&#45;4b00&#45;8295&#45;9097472a4278</title>
<path fill="none" stroke="black" d="M457.97,-99.87C482.31,-99.87 506.65,-99.87 530.99,-99.87"/>
<polygon fill="black" stroke="black" points="530.79,-103.37 540.79,-99.87 530.79,-96.37 530.79,-103.37"/>
</g>
<!-- 46b96f2b&#45;c7b7&#45;4039&#45;80da&#45;997a5eacccf5 -->
<g id="node7" class="node">
<title>46b96f2b&#45;c7b7&#45;4039&#45;80da&#45;997a5eacccf5</title>
<polygon fill="white" stroke="black" points="513.5,-36 263.5,-36 263.5,0 513.5,0 513.5,-36"/>
<text text-anchor="middle" x="388.5" y="-14.3" font-family="Helvetica,sans-Serif" font-size="14.00">▶ Ran sandbox for `src/main.py`.</text>
</g>
<!-- 077c83a6&#45;64c5&#45;458e&#45;b8be&#45;ad27099ca264&#45;&gt;46b96f2b&#45;c7b7&#45;4039&#45;80da&#45;997a5eacccf5 -->
<g id="edge3" class="edge">
<title>077c83a6&#45;64c5&#45;458e&#45;b8be&#45;ad27099ca264&#45;&gt;46b96f2b&#45;c7b7&#45;4039&#45;80da&#45;997a5eacccf5</title>
<path fill="none" stroke="black" stroke-dasharray="5,2" d="M388.5,-72.72C388.5,-64.46 388.5,-55.31 388.5,-46.93"/>
<polygon fill="black" stroke="black" points="392,-47.15 388.5,-37.15 385,-47.15 392,-47.15"/>
</g>
<!-- d814e5e2&#45;1a0f&#45;4b00&#45;8295&#45;9097472a4278&#45;&gt;end -->
<g id="edge7" class="edge">
<title>d814e5e2&#45;1a0f&#45;4b00&#45;8295&#45;9097472a4278&#45;&gt;end</title>
<path fill="none" stroke="black" d="M661.03,-99.87C678.81,-99.87 696.47,-99.87 707.42,-99.87"/>
<polygon fill="black" stroke="black" points="707.17,-103.37 717.17,-99.87 707.17,-96.37 707.17,-103.37"/>
<text text-anchor="middle" x="689.45" y="-106.67" font-family="Helvetica,sans-Serif" font-size="14.00">Finish</text>
</g>
<!-- e247f84a&#45;1b51&#45;4225&#45;9084&#45;698663b4c4cc -->
<g id="node8" class="node">
<title>e247f84a&#45;1b51&#45;4225&#45;9084&#45;698663b4c4cc</title>
<polygon fill="white" stroke="black" points="767.5,-36 531.5,-36 531.5,0 767.5,0 767.5,-36"/>
<text text-anchor="middle" x="649.5" y="-14.3" font-family="Helvetica,sans-Serif" font-size="14.00">▶ Ran sandbox for `src/api.py`.</text>
</g>
<!-- d814e5e2&#45;1a0f&#45;4b00&#45;8295&#45;9097472a4278&#45;&gt;e247f84a&#45;1b51&#45;4225&#45;9084&#45;698663b4c4cc -->
<g id="edge5" class="edge">
<title>d814e5e2&#45;1a0f&#45;4b00&#45;8295&#45;9097472a4278&#45;&gt;e247f84a&#45;1b51&#45;4225&#45;9084&#45;698663b4c4cc</title>
<path fill="none" stroke="black" stroke-dasharray="5,2" d="M616.69,-73.6C622.09,-64.6 628.19,-54.46 633.65,-45.37"/>
<polygon fill="black" stroke="black" points="637.11,-47.41 639.26,-37.04 631.11,-43.8 637.11,-47.41"/>
</g>
</g>
</svg>
