<?xml version="1.0" encoding="UTF-8" standalone="no"?>
<!DOCTYPE svg PUBLIC "-//W3C//DTD SVG 1.1//EN"
 "http://www.w3.org/Graphics/SVG/1.1/DTD/svg11.dtd">
<!-- Generated by graphviz version 8.0.3 (0)
 -->
<!-- Pages: 1 -->
<svg width="842pt" height="238pt"
 viewBox="0.00 0.00 842.00 237.74" xmlns="http://www.w3.org/2000/svg" xmlns:xlink="http://www.w3.org/1999/xlink">
<g id="graph0" class="graph" transform="scale(1 1) rotate(0) translate(36 201.74)">
<polygon fill="dimgray" stroke="none" points="-36,36 -36,-201.74 806,-201.74 806,36 -36,36"/>
<text text-anchor="middle" x="385" y="-150.54" font-family="Helvetica,sans-Serif" font-size="14.00">Sweep&#39;s Plan &amp; Progress</text>
<!-- start -->
<g id="node1" class="node">
<title>start</title>
</g>
<!-- d215315f&#45;2065&#45;4765&#45;9bf9&#45;fbac8bf7f14c -->
<g id="node3" class="node">
<title>d215315f&#45;2065&#45;4765&#45;9bf9&#45;fbac8bf7f14c</title>
<ellipse fill="#0ee832" stroke="black" cx="169" cy="-99.87" rx="62.87" ry="26.74"/>
<text text-anchor="middle" x="169" y="-103.67" font-family="Helvetica,sans-Serif" font-size="14.00">✓ Create</text>
<text text-anchor="middle" x="169" y="-88.67" font-family="Helvetica,sans-Serif" font-size="14.00">src/cnn.py</text>
</g>
<!-- start&#45;&gt;d215315f&#45;2065&#45;4765&#45;9bf9&#45;fbac8bf7f14c -->
<g id="edge6" class="edge">
<title>start&#45;&gt;d215315f&#45;2065&#45;4765&#45;9bf9&#45;fbac8bf7f14c</title>
<path fill="none" stroke="black" d="M54.33,-99.87C56.91,-99.87 74.3,-99.87 94.78,-99.87"/>
<polygon fill="black" stroke="black" points="94.72,-103.37 104.72,-99.87 94.72,-96.37 94.72,-103.37"/>
<text text-anchor="middle" x="80.28" y="-106.67" font-family="Helvetica,sans-Serif" font-size="14.00">Start</text>
</g>
<!-- end -->
<g id="node2" class="node">
<title>end</title>
</g>
<!-- 1da466ef&#45;048a&#45;4ba9&#45;993c&#45;6494c4baef6a -->
<g id="node4" class="node">
<title>1da466ef&#45;048a&#45;4ba9&#45;993c&#45;6494c4baef6a</title>
<ellipse fill="#0ee832" stroke="black" cx="386" cy="-99.87" rx="69.09" ry="26.74"/>
<text text-anchor="middle" x="386" y="-103.67" font-family="Helvetica,sans-Serif" font-size="14.00">✓ Modify</text>
<text text-anchor="middle" x="386" y="-88.67" font-family="Helvetica,sans-Serif" font-size="14.00">src/main.py</text>
</g>
<!-- d215315f&#45;2065&#45;4765&#45;9bf9&#45;fbac8bf7f14c&#45;&gt;1da466ef&#45;048a&#45;4ba9&#45;993c&#45;6494c4baef6a -->
<g id="edge2" class="edge">
<title>d215315f&#45;2065&#45;4765&#45;9bf9&#45;fbac8bf7f14c&#45;&gt;1da466ef&#45;048a&#45;4ba9&#45;993c&#45;6494c4baef6a</title>
<path fill="none" stroke="black" d="M232.15,-99.87C256.67,-99.87 281.19,-99.87 305.7,-99.87"/>
<polygon fill="black" stroke="black" points="305.59,-103.37 315.59,-99.87 305.59,-96.37 305.59,-103.37"/>
</g>
<!-- 3555c4d0&#45;bfda&#45;4848&#45;bc02&#45;70ca3a58d1a4 -->
<g id="node6" class="node">
<title>3555c4d0&#45;bfda&#45;4848&#45;bc02&#45;70ca3a58d1a4</title>
<polygon fill="#0ee832" stroke="black" points="242,-36 0,-36 0,0 242,0 242,-36"/>
<text text-anchor="middle" x="121" y="-14.3" font-family="Helvetica,sans-Serif" font-size="14.00">✓ Ran sandbox for `src/cnn.py`.</text>
</g>
<!-- d215315f&#45;2065&#45;4765&#45;9bf9&#45;fbac8bf7f14c&#45;&gt;3555c4d0&#45;bfda&#45;4848&#45;bc02&#45;70ca3a58d1a4 -->
<g id="edge1" class="edge">
<title>d215315f&#45;2065&#45;4765&#45;9bf9&#45;fbac8bf7f14c&#45;&gt;3555c4d0&#45;bfda&#45;4848&#45;bc02&#45;70ca3a58d1a4</title>
<path fill="none" stroke="black" stroke-dasharray="5,2" d="M153.81,-73.6C148.41,-64.6 142.31,-54.46 136.85,-45.37"/>
<polygon fill="black" stroke="black" points="139.39,-43.8 131.24,-37.04 133.39,-47.41 139.39,-43.8"/>
</g>
<!-- 09f96df0&#45;a5db&#45;4e2b&#45;97c6&#45;5d7224071eb9 -->
<g id="node5" class="node">
<title>09f96df0&#45;a5db&#45;4e2b&#45;97c6&#45;5d7224071eb9</title>
<ellipse fill="#0ee832" stroke="black" cx="600" cy="-99.87" rx="59.29" ry="26.74"/>
<text text-anchor="middle" x="600" y="-103.67" font-family="Helvetica,sans-Serif" font-size="14.00">✓ Modify</text>
<text text-anchor="middle" x="600" y="-88.67" font-family="Helvetica,sans-Serif" font-size="14.00">src/api.py</text>
</g>
<!-- 1da466ef&#45;048a&#45;4ba9&#45;993c&#45;6494c4baef6a&#45;&gt;09f96df0&#45;a5db&#45;4e2b&#45;97c6&#45;5d7224071eb9 -->
<g id="edge4" class="edge">
<title>1da466ef&#45;048a&#45;4ba9&#45;993c&#45;6494c4baef6a&#45;&gt;09f96df0&#45;a5db&#45;4e2b&#45;97c6&#45;5d7224071eb9</title>
<path fill="none" stroke="black" d="M455.38,-99.87C480.07,-99.87 504.76,-99.87 529.44,-99.87"/>
<polygon fill="black" stroke="black" points="529.4,-103.37 539.4,-99.87 529.4,-96.37 529.4,-103.37"/>
</g>
<!-- b6678373&#45;c803&#45;4f02&#45;9025&#45;0ef77a39fc3a -->
<g id="node7" class="node">
<title>b6678373&#45;c803&#45;4f02&#45;9025&#45;0ef77a39fc3a</title>
<polygon fill="#0ee832" stroke="black" points="511.5,-36 260.5,-36 260.5,0 511.5,0 511.5,-36"/>
<text text-anchor="middle" x="386" y="-14.3" font-family="Helvetica,sans-Serif" font-size="14.00">✓ Ran sandbox for `src/main.py`.</text>
</g>
<!-- 1da466ef&#45;048a&#45;4ba9&#45;993c&#45;6494c4baef6a&#45;&gt;b6678373&#45;c803&#45;4f02&#45;9025&#45;0ef77a39fc3a -->
<g id="edge3" class="edge">
<title>1da466ef&#45;048a&#45;4ba9&#45;993c&#45;6494c4baef6a&#45;&gt;b6678373&#45;c803&#45;4f02&#45;9025&#45;0ef77a39fc3a</title>
<path fill="none" stroke="black" stroke-dasharray="5,2" d="M386,-72.72C386,-64.46 386,-55.31 386,-46.93"/>
<polygon fill="black" stroke="black" points="389.5,-47.15 386,-37.15 382.5,-47.15 389.5,-47.15"/>
</g>
<!-- 09f96df0&#45;a5db&#45;4e2b&#45;97c6&#45;5d7224071eb9&#45;&gt;end -->
<g id="edge7" class="edge">
<title>09f96df0&#45;a5db&#45;4e2b&#45;97c6&#45;5d7224071eb9&#45;&gt;end</title>
<path fill="none" stroke="black" d="M659.53,-99.87C677.31,-99.87 694.97,-99.87 705.92,-99.87"/>
<polygon fill="black" stroke="black" points="705.67,-103.37 715.67,-99.87 705.67,-96.37 705.67,-103.37"/>
<text text-anchor="middle" x="687.95" y="-106.67" font-family="Helvetica,sans-Serif" font-size="14.00">Finish</text>
</g>
<!-- 2235eedb&#45;35bf&#45;45c6&#45;a14a&#45;b811955472d1 -->
<g id="node8" class="node">
<title>2235eedb&#45;35bf&#45;45c6&#45;a14a&#45;b811955472d1</title>
<polygon fill="yellow" stroke="black" points="770,-36 530,-36 530,0 770,0 770,-36"/>
<text text-anchor="middle" x="650" y="-14.3" font-family="Helvetica,sans-Serif" font-size="14.00">⋯ Ran sandbox for `src/api.py`.</text>
</g>
<!-- 09f96df0&#45;a5db&#45;4e2b&#45;97c6&#45;5d7224071eb9&#45;&gt;2235eedb&#45;35bf&#45;45c6&#45;a14a&#45;b811955472d1 -->
<g id="edge5" class="edge">
<title>09f96df0&#45;a5db&#45;4e2b&#45;97c6&#45;5d7224071eb9&#45;&gt;2235eedb&#45;35bf&#45;45c6&#45;a14a&#45;b811955472d1</title>
<path fill="none" stroke="black" stroke-dasharray="5,2" d="M615.55,-74.04C621.25,-64.93 627.72,-54.59 633.5,-45.35"/>
<polygon fill="black" stroke="black" points="636.88,-47.56 639.22,-37.22 630.95,-43.84 636.88,-47.56"/>
</g>
</g>
</svg>
