<?xml version="1.0" encoding="UTF-8" standalone="no"?>
<!DOCTYPE svg PUBLIC "-//W3C//DTD SVG 1.1//EN"
 "http://www.w3.org/Graphics/SVG/1.1/DTD/svg11.dtd">
<!-- Generated by graphviz version 8.0.3 (0)
 -->
<!-- Pages: 1 -->
<svg width="840pt" height="238pt"
 viewBox="0.00 0.00 840.00 237.74" xmlns="http://www.w3.org/2000/svg" xmlns:xlink="http://www.w3.org/1999/xlink">
<g id="graph0" class="graph" transform="scale(1 1) rotate(0) translate(36 201.74)">
<polygon fill="dimgray" stroke="none" points="-36,36 -36,-201.74 804,-201.74 804,36 -36,36"/>
<text text-anchor="middle" x="384" y="-150.54" font-family="Helvetica,sans-Serif" font-size="14.00">Sweep&#39;s Plan &amp; Progress</text>
<!-- start -->
<g id="node1" class="node">
<title>start</title>
</g>
<!-- 30a49582&#45;162b&#45;47a2&#45;b578&#45;4b19408ea077 -->
<g id="node3" class="node">
<title>30a49582&#45;162b&#45;47a2&#45;b578&#45;4b19408ea077</title>
<ellipse fill="#0ee832" stroke="black" cx="170" cy="-99.87" rx="62.87" ry="26.74"/>
<text text-anchor="middle" x="170" y="-103.67" font-family="Helvetica,sans-Serif" font-size="14.00">✓ Create</text>
<text text-anchor="middle" x="170" y="-88.67" font-family="Helvetica,sans-Serif" font-size="14.00">src/cnn.py</text>
</g>
<!-- start&#45;&gt;30a49582&#45;162b&#45;47a2&#45;b578&#45;4b19408ea077 -->
<g id="edge6" class="edge">
<title>start&#45;&gt;30a49582&#45;162b&#45;47a2&#45;b578&#45;4b19408ea077</title>
<path fill="none" stroke="black" d="M55.33,-99.87C57.91,-99.87 75.3,-99.87 95.78,-99.87"/>
<polygon fill="black" stroke="black" points="95.72,-103.37 105.72,-99.87 95.72,-96.37 95.72,-103.37"/>
<text text-anchor="middle" x="81.28" y="-106.67" font-family="Helvetica,sans-Serif" font-size="14.00">Start</text>
</g>
<!-- end -->
<g id="node2" class="node">
<title>end</title>
</g>
<!-- b112ee2d&#45;4ab4&#45;4099&#45;8087&#45;4809ac97da57 -->
<g id="node4" class="node">
<title>b112ee2d&#45;4ab4&#45;4099&#45;8087&#45;4809ac97da57</title>
<ellipse fill="#0ee832" stroke="black" cx="387" cy="-99.87" rx="69.09" ry="26.74"/>
<text text-anchor="middle" x="387" y="-103.67" font-family="Helvetica,sans-Serif" font-size="14.00">✓ Modify</text>
<text text-anchor="middle" x="387" y="-88.67" font-family="Helvetica,sans-Serif" font-size="14.00">src/main.py</text>
</g>
<!-- 30a49582&#45;162b&#45;47a2&#45;b578&#45;4b19408ea077&#45;&gt;b112ee2d&#45;4ab4&#45;4099&#45;8087&#45;4809ac97da57 -->
<g id="edge2" class="edge">
<title>30a49582&#45;162b&#45;47a2&#45;b578&#45;4b19408ea077&#45;&gt;b112ee2d&#45;4ab4&#45;4099&#45;8087&#45;4809ac97da57</title>
<path fill="none" stroke="black" d="M233.15,-99.87C257.67,-99.87 282.19,-99.87 306.7,-99.87"/>
<polygon fill="black" stroke="black" points="306.59,-103.37 316.59,-99.87 306.59,-96.37 306.59,-103.37"/>
</g>
<!-- 5d7c4675&#45;bb84&#45;43d4&#45;a8f1&#45;f90f82f10f0b -->
<g id="node6" class="node">
<title>5d7c4675&#45;bb84&#45;43d4&#45;a8f1&#45;f90f82f10f0b</title>
<polygon fill="#0ee832" stroke="black" points="242,-36 0,-36 0,0 242,0 242,-36"/>
<text text-anchor="middle" x="121" y="-14.3" font-family="Helvetica,sans-Serif" font-size="14.00">✓ Ran sandbox for `src/cnn.py`.</text>
</g>
<!-- 30a49582&#45;162b&#45;47a2&#45;b578&#45;4b19408ea077&#45;&gt;5d7c4675&#45;bb84&#45;43d4&#45;a8f1&#45;f90f82f10f0b -->
<g id="edge1" class="edge">
<title>30a49582&#45;162b&#45;47a2&#45;b578&#45;4b19408ea077&#45;&gt;5d7c4675&#45;bb84&#45;43d4&#45;a8f1&#45;f90f82f10f0b</title>
<path fill="none" stroke="black" stroke-dasharray="5,2" d="M154.5,-73.6C148.98,-64.6 142.75,-54.46 137.18,-45.37"/>
<polygon fill="black" stroke="black" points="139.66,-43.73 131.45,-37.04 133.7,-47.39 139.66,-43.73"/>
</g>
<!-- 2d5b39d3&#45;5a51&#45;44ea&#45;9a55&#45;5bde4f1d36cc -->
<g id="node5" class="node">
<title>2d5b39d3&#45;5a51&#45;44ea&#45;9a55&#45;5bde4f1d36cc</title>
<ellipse fill="white" stroke="black" cx="601" cy="-99.87" rx="59.29" ry="26.74"/>
<text text-anchor="middle" x="601" y="-103.67" font-family="Helvetica,sans-Serif" font-size="14.00">▶ Modify</text>
<text text-anchor="middle" x="601" y="-88.67" font-family="Helvetica,sans-Serif" font-size="14.00">src/api.py</text>
</g>
<!-- b112ee2d&#45;4ab4&#45;4099&#45;8087&#45;4809ac97da57&#45;&gt;2d5b39d3&#45;5a51&#45;44ea&#45;9a55&#45;5bde4f1d36cc -->
<g id="edge4" class="edge">
<title>b112ee2d&#45;4ab4&#45;4099&#45;8087&#45;4809ac97da57&#45;&gt;2d5b39d3&#45;5a51&#45;44ea&#45;9a55&#45;5bde4f1d36cc</title>
<path fill="none" stroke="black" d="M456.38,-99.87C481.07,-99.87 505.76,-99.87 530.44,-99.87"/>
<polygon fill="black" stroke="black" points="530.4,-103.37 540.4,-99.87 530.4,-96.37 530.4,-103.37"/>
</g>
<!-- 9acd0971&#45;414d&#45;40e6&#45;a1fa&#45;5c63214bde25 -->
<g id="node7" class="node">
<title>9acd0971&#45;414d&#45;40e6&#45;a1fa&#45;5c63214bde25</title>
<polygon fill="yellow" stroke="black" points="514,-36 260,-36 260,0 514,0 514,-36"/>
<text text-anchor="middle" x="387" y="-14.3" font-family="Helvetica,sans-Serif" font-size="14.00">⋯ Ran sandbox for `src/main.py`.</text>
</g>
<!-- b112ee2d&#45;4ab4&#45;4099&#45;8087&#45;4809ac97da57&#45;&gt;9acd0971&#45;414d&#45;40e6&#45;a1fa&#45;5c63214bde25 -->
<g id="edge3" class="edge">
<title>b112ee2d&#45;4ab4&#45;4099&#45;8087&#45;4809ac97da57&#45;&gt;9acd0971&#45;414d&#45;40e6&#45;a1fa&#45;5c63214bde25</title>
<path fill="none" stroke="black" stroke-dasharray="5,2" d="M387,-72.72C387,-64.46 387,-55.31 387,-46.93"/>
<polygon fill="black" stroke="black" points="390.5,-47.15 387,-37.15 383.5,-47.15 390.5,-47.15"/>
</g>
<!-- 2d5b39d3&#45;5a51&#45;44ea&#45;9a55&#45;5bde4f1d36cc&#45;&gt;end -->
<g id="edge7" class="edge">
<title>2d5b39d3&#45;5a51&#45;44ea&#45;9a55&#45;5bde4f1d36cc&#45;&gt;end</title>
<path fill="none" stroke="black" d="M660.53,-99.87C678.31,-99.87 695.97,-99.87 706.92,-99.87"/>
<polygon fill="black" stroke="black" points="706.67,-103.37 716.67,-99.87 706.67,-96.37 706.67,-103.37"/>
<text text-anchor="middle" x="688.95" y="-106.67" font-family="Helvetica,sans-Serif" font-size="14.00">Finish</text>
</g>
<!-- b8c0a2d5&#45;eea5&#45;42ac&#45;94bf&#45;496119a6c092 -->
<g id="node8" class="node">
<title>b8c0a2d5&#45;eea5&#45;42ac&#45;94bf&#45;496119a6c092</title>
<polygon fill="white" stroke="black" points="768,-36 532,-36 532,0 768,0 768,-36"/>
<text text-anchor="middle" x="650" y="-14.3" font-family="Helvetica,sans-Serif" font-size="14.00">▶ Ran sandbox for `src/api.py`.</text>
</g>
<!-- 2d5b39d3&#45;5a51&#45;44ea&#45;9a55&#45;5bde4f1d36cc&#45;&gt;b8c0a2d5&#45;eea5&#45;42ac&#45;94bf&#45;496119a6c092 -->
<g id="edge5" class="edge">
<title>2d5b39d3&#45;5a51&#45;44ea&#45;9a55&#45;5bde4f1d36cc&#45;&gt;b8c0a2d5&#45;eea5&#45;42ac&#45;94bf&#45;496119a6c092</title>
<path fill="none" stroke="black" stroke-dasharray="5,2" d="M616.5,-73.6C622.02,-64.6 628.25,-54.46 633.82,-45.37"/>
<polygon fill="black" stroke="black" points="637.3,-47.39 639.55,-37.04 631.34,-43.73 637.3,-47.39"/>
</g>
</g>
</svg>
