<?xml version="1.0" encoding="UTF-8" standalone="no"?>
<!DOCTYPE svg PUBLIC "-//W3C//DTD SVG 1.1//EN"
 "http://www.w3.org/Graphics/SVG/1.1/DTD/svg11.dtd">
<!-- Generated by graphviz version 2.43.0 (0)
 -->
<!-- Title: %3 Pages: 1 -->
<svg width="422pt" height="419pt"
 viewBox="0.00 0.00 422.13 419.48" xmlns="http://www.w3.org/2000/svg" xmlns:xlink="http://www.w3.org/1999/xlink">
<g id="graph0" class="graph" transform="scale(1 1) rotate(0) translate(36 383.48)">
<title>%3</title>
<polygon fill="dimgray" stroke="transparent" points="-36,36 -36,-383.48 386.13,-383.48 386.13,36 -36,36"/>
<text text-anchor="middle" x="175.07" y="-332.28" font-family="Helvetica,sans-Serif" font-size="14.00">Sweep&#39;s Plan &amp; Progress</text>
<!-- start -->
<g id="node1" class="node">
<title>start</title>
</g>
<!-- 3e1aa324&#45;24c5&#45;457e&#45;ad59&#45;71db9288c149 -->
<g id="node3" class="node">
<title>3e1aa324&#45;24c5&#45;457e&#45;ad59&#45;71db9288c149</title>
<ellipse fill="#0ee832" stroke="black" cx="198.63" cy="-281.61" rx="92.76" ry="26.74"/>
<text text-anchor="middle" x="198.63" y="-285.41" font-family="Helvetica,sans-Serif" font-size="14.00">✓ Create</text>
<text text-anchor="middle" x="198.63" y="-270.41" font-family="Helvetica,sans-Serif" font-size="14.00">src/test_main.py</text>
</g>
<!-- start&#45;&gt;3e1aa324&#45;24c5&#45;457e&#45;ad59&#45;71db9288c149 -->
<g id="edge5" class="edge">
<title>start&#45;&gt;3e1aa324&#45;24c5&#45;457e&#45;ad59&#45;71db9288c149</title>
<path fill="none" stroke="black" d="M54.28,-281.61C57.72,-281.61 74.5,-281.61 95.48,-281.61"/>
<polygon fill="black" stroke="black" points="95.73,-285.11 105.73,-281.61 95.73,-278.11 95.73,-285.11"/>
<text text-anchor="middle" x="80.07" y="-288.41" font-family="Helvetica,sans-Serif" font-size="14.00">Start</text>
</g>
<!-- end -->
<g id="node2" class="node">
<title>end</title>
</g>
<!-- 3e1aa324&#45;24c5&#45;457e&#45;ad59&#45;71db9288c149&#45;&gt;end -->
<g id="edge6" class="edge">
<title>3e1aa324&#45;24c5&#45;457e&#45;ad59&#45;71db9288c149&#45;&gt;end</title>
<path fill="none" stroke="black" d="M291.68,-281.61C310.6,-281.61 327.97,-281.61 338.65,-281.61"/>
<polygon fill="black" stroke="black" points="338.94,-285.11 348.94,-281.61 338.94,-278.11 338.94,-285.11"/>
<text text-anchor="middle" x="320.2" y="-288.41" font-family="Helvetica,sans-Serif" font-size="14.00">Finish</text>
</g>
<!-- 8630f1a1&#45;6c93&#45;4286&#45;9f62&#45;85931dd553a1 -->
<g id="node4" class="node">
<title>8630f1a1&#45;6c93&#45;4286&#45;9f62&#45;85931dd553a1</title>
<polygon fill="#ee0000" stroke="black" points="158.13,-217.74 27.13,-217.74 27.13,-179.74 158.13,-179.74 158.13,-217.74"/>
<text text-anchor="middle" x="92.63" y="-202.54" font-family="Helvetica,sans-Serif" font-size="14.00">✗ Check</text>
<text text-anchor="middle" x="92.63" y="-187.54" font-family="Helvetica,sans-Serif" font-size="14.00">src/test_main.py</text>
</g>
<!-- 3e1aa324&#45;24c5&#45;457e&#45;ad59&#45;71db9288c149&#45;&gt;8630f1a1&#45;6c93&#45;4286&#45;9f62&#45;85931dd553a1 -->
<g id="edge1" class="edge">
<title>3e1aa324&#45;24c5&#45;457e&#45;ad59&#45;71db9288c149&#45;&gt;8630f1a1&#45;6c93&#45;4286&#45;9f62&#45;85931dd553a1</title>
<path fill="none" stroke="black" stroke-dasharray="5,2" d="M166.83,-256.35C153.39,-246.1 137.79,-234.19 124.36,-223.95"/>
<polygon fill="black" stroke="black" points="126.4,-221.1 116.32,-217.81 122.15,-226.66 126.4,-221.1"/>
</g>
<!-- b1404f88&#45;786b&#45;4933&#45;9780&#45;b6caa36ec433 -->
<g id="node5" class="node">
<title>b1404f88&#45;786b&#45;4933&#45;9780&#45;b6caa36ec433</title>
<polygon fill="white" stroke="black" points="307.13,-217.74 176.13,-217.74 176.13,-179.74 307.13,-179.74 307.13,-217.74"/>
<text text-anchor="middle" x="241.63" y="-202.54" font-family="Helvetica,sans-Serif" font-size="14.00">▶ Check</text>
<text text-anchor="middle" x="241.63" y="-187.54" font-family="Helvetica,sans-Serif" font-size="14.00">src/test_main.py</text>
</g>
<!-- 3e1aa324&#45;24c5&#45;457e&#45;ad59&#45;71db9288c149&#45;&gt;b1404f88&#45;786b&#45;4933&#45;9780&#45;b6caa36ec433 -->
<g id="edge4" class="edge">
<title>3e1aa324&#45;24c5&#45;457e&#45;ad59&#45;71db9288c149&#45;&gt;b1404f88&#45;786b&#45;4933&#45;9780&#45;b6caa36ec433</title>
<path fill="none" stroke="black" stroke-dasharray="5,2" d="M212.24,-255.02C216.98,-246.09 222.33,-236.04 227.15,-226.98"/>
<polygon fill="black" stroke="black" points="230.32,-228.46 231.93,-217.99 224.14,-225.18 230.32,-228.46"/>
</g>
<!-- f05df1d8&#45;af7c&#45;4e7a&#45;9cfc&#45;25ade5d0fb35 -->
<g id="node6" class="node">
<title>f05df1d8&#45;af7c&#45;4e7a&#45;9cfc&#45;25ade5d0fb35</title>
<ellipse fill="yellow" stroke="black" cx="92.63" cy="-101.87" rx="92.76" ry="26.74"/>
<text text-anchor="middle" x="92.63" y="-105.67" font-family="Helvetica,sans-Serif" font-size="14.00">⋯ Modify</text>
<text text-anchor="middle" x="92.63" y="-90.67" font-family="Helvetica,sans-Serif" font-size="14.00">src/test_main.py</text>
</g>
<!-- 8630f1a1&#45;6c93&#45;4286&#45;9f62&#45;85931dd553a1&#45;&gt;f05df1d8&#45;af7c&#45;4e7a&#45;9cfc&#45;25ade5d0fb35 -->
<g id="edge2" class="edge">
<title>8630f1a1&#45;6c93&#45;4286&#45;9f62&#45;85931dd553a1&#45;&gt;f05df1d8&#45;af7c&#45;4e7a&#45;9cfc&#45;25ade5d0fb35</title>
<path fill="none" stroke="black" d="M92.63,-179.45C92.63,-168.03 92.63,-152.95 92.63,-139.18"/>
<polygon fill="black" stroke="black" points="96.13,-139 92.63,-129 89.13,-139 96.13,-139"/>
<text text-anchor="middle" x="190.13" y="-150.54" font-family="Helvetica,sans-Serif" font-size="14.00">Additional changes required</text>
</g>
<!-- 75d010a9&#45;7271&#45;4bc1&#45;95f7&#45;d85b30ac8f52 -->
<g id="node7" class="node">
<title>75d010a9&#45;7271&#45;4bc1&#45;95f7&#45;d85b30ac8f52</title>
<polygon fill="white" stroke="black" points="158.13,-38 27.13,-38 27.13,0 158.13,0 158.13,-38"/>
<text text-anchor="middle" x="92.63" y="-22.8" font-family="Helvetica,sans-Serif" font-size="14.00">▶ Check</text>
<text text-anchor="middle" x="92.63" y="-7.8" font-family="Helvetica,sans-Serif" font-size="14.00">src/test_main.py</text>
</g>
<!-- f05df1d8&#45;af7c&#45;4e7a&#45;9cfc&#45;25ade5d0fb35&#45;&gt;75d010a9&#45;7271&#45;4bc1&#45;95f7&#45;d85b30ac8f52 -->
<g id="edge3" class="edge">
<title>f05df1d8&#45;af7c&#45;4e7a&#45;9cfc&#45;25ade5d0fb35&#45;&gt;75d010a9&#45;7271&#45;4bc1&#45;95f7&#45;d85b30ac8f52</title>
<path fill="none" stroke="black" stroke-dasharray="5,2" d="M92.63,-74.84C92.63,-66.3 92.63,-56.78 92.63,-48.1"/>
<polygon fill="black" stroke="black" points="96.13,-48.05 92.63,-38.05 89.13,-48.05 96.13,-48.05"/>
</g>
</g>
</svg>
