<?xml version="1.0" encoding="UTF-8" standalone="no"?>
<!DOCTYPE svg PUBLIC "-//W3C//DTD SVG 1.1//EN"
 "http://www.w3.org/Graphics/SVG/1.1/DTD/svg11.dtd">
<!-- Generated by graphviz version 8.0.3 (0)
 -->
<!-- Pages: 1 -->
<svg width="747pt" height="215pt"
 viewBox="0.00 0.00 747.00 214.74" xmlns="http://www.w3.org/2000/svg" xmlns:xlink="http://www.w3.org/1999/xlink">
<g id="graph0" class="graph" transform="scale(1 1) rotate(0) translate(36 178.74)">
<polygon fill="white" stroke="none" points="-36,36 -36,-178.74 711,-178.74 711,36 -36,36"/>
<!-- start -->
<g id="node1" class="node">
<title>start</title>
</g>
<!-- 0324cc8d&#45;1261&#45;4e1d&#45;a1e4&#45;9518488e3bf6 -->
<g id="node3" class="node">
<title>0324cc8d&#45;1261&#45;4e1d&#45;a1e4&#45;9518488e3bf6</title>
<ellipse fill="green" stroke="black" cx="119.5" cy="-115.87" rx="63.78" ry="26.74"/>
<text text-anchor="middle" x="119.5" y="-119.67" font-family="Times,serif" font-size="14.00">✓ Create</text>
<text text-anchor="middle" x="119.5" y="-104.67" font-family="Times,serif" font-size="14.00">src/cnn.py</text>
</g>
<!-- start&#45;&gt;0324cc8d&#45;1261&#45;4e1d&#45;a1e4&#45;9518488e3bf6 -->
<g id="edge6" class="edge">
<title>start&#45;&gt;0324cc8d&#45;1261&#45;4e1d&#45;a1e4&#45;9518488e3bf6</title>
<path fill="none" stroke="black" d="M0.84,-115.87C3.58,-115.87 22.48,-115.87 44.41,-115.87"/>
<polygon fill="black" stroke="black" points="44.36,-119.37 54.36,-115.87 44.36,-112.37 44.36,-119.37"/>
<text text-anchor="middle" x="28.43" y="-122.67" font-family="Times,serif" font-size="14.00">Start</text>
</g>
<!-- end -->
<g id="node2" class="node">
<title>end</title>
</g>
<!-- e8f9d531&#45;ba09&#45;4be0&#45;b851&#45;adc0277a5e1b -->
<g id="node4" class="node">
<title>e8f9d531&#45;ba09&#45;4be0&#45;b851&#45;adc0277a5e1b</title>
<ellipse fill="white" stroke="black" cx="336.5" cy="-115.87" rx="70.92" ry="26.74"/>
<text text-anchor="middle" x="336.5" y="-119.67" font-family="Times,serif" font-size="14.00">▶ Modify</text>
<text text-anchor="middle" x="336.5" y="-104.67" font-family="Times,serif" font-size="14.00">src/main.py</text>
</g>
<!-- 0324cc8d&#45;1261&#45;4e1d&#45;a1e4&#45;9518488e3bf6&#45;&gt;e8f9d531&#45;ba09&#45;4be0&#45;b851&#45;adc0277a5e1b -->
<g id="edge2" class="edge">
<title>0324cc8d&#45;1261&#45;4e1d&#45;a1e4&#45;9518488e3bf6&#45;&gt;e8f9d531&#45;ba09&#45;4be0&#45;b851&#45;adc0277a5e1b</title>
<path fill="none" stroke="black" d="M183.73,-115.87C205.84,-115.87 230.92,-115.87 254.28,-115.87"/>
<polygon fill="black" stroke="black" points="254.22,-119.37 264.22,-115.87 254.22,-112.37 254.22,-119.37"/>
<text text-anchor="middle" x="224.46" y="-122.67" font-family="Times,serif" font-size="14.00">Continue</text>
</g>
<!-- 592d6a62&#45;d740&#45;4885&#45;857a&#45;0def11c3caf7 -->
<g id="node6" class="node">
<title>592d6a62&#45;d740&#45;4885&#45;857a&#45;0def11c3caf7</title>
<polygon fill="yellow" stroke="black" points="164.5,-38 74.5,-38 74.5,0 164.5,0 164.5,-38"/>
<text text-anchor="middle" x="119.5" y="-22.8" font-family="Times,serif" font-size="14.00">⋯ Check</text>
<text text-anchor="middle" x="119.5" y="-7.8" font-family="Times,serif" font-size="14.00">src/cnn.py</text>
</g>
<!-- 0324cc8d&#45;1261&#45;4e1d&#45;a1e4&#45;9518488e3bf6&#45;&gt;592d6a62&#45;d740&#45;4885&#45;857a&#45;0def11c3caf7 -->
<g id="edge1" class="edge">
<title>0324cc8d&#45;1261&#45;4e1d&#45;a1e4&#45;9518488e3bf6&#45;&gt;592d6a62&#45;d740&#45;4885&#45;857a&#45;0def11c3caf7</title>
<path fill="none" stroke="black" stroke-dasharray="5,2" d="M119.5,-88.7C119.5,-76.43 119.5,-61.78 119.5,-49.17"/>
<polygon fill="black" stroke="black" points="123,-49.28 119.5,-39.28 116,-49.28 123,-49.28"/>
<text text-anchor="middle" x="173" y="-59.8" font-family="Times,serif" font-size="14.00">Check changes</text>
</g>
<!-- 4eed8f98&#45;01f1&#45;47e7&#45;9368&#45;aa649de06fb2 -->
<g id="node5" class="node">
<title>4eed8f98&#45;01f1&#45;47e7&#45;9368&#45;aa649de06fb2</title>
<ellipse fill="white" stroke="black" cx="550.5" cy="-115.87" rx="60.62" ry="26.74"/>
<text text-anchor="middle" x="550.5" y="-119.67" font-family="Times,serif" font-size="14.00">▶ Modify</text>
<text text-anchor="middle" x="550.5" y="-104.67" font-family="Times,serif" font-size="14.00">src/api.py</text>
</g>
<!-- e8f9d531&#45;ba09&#45;4be0&#45;b851&#45;adc0277a5e1b&#45;&gt;4eed8f98&#45;01f1&#45;47e7&#45;9368&#45;aa649de06fb2 -->
<g id="edge4" class="edge">
<title>e8f9d531&#45;ba09&#45;4be0&#45;b851&#45;adc0277a5e1b&#45;&gt;4eed8f98&#45;01f1&#45;47e7&#45;9368&#45;aa649de06fb2</title>
<path fill="none" stroke="black" d="M407.76,-115.87C430.54,-115.87 455.76,-115.87 478.58,-115.87"/>
<polygon fill="black" stroke="black" points="478.57,-119.37 488.57,-115.87 478.57,-112.37 478.57,-119.37"/>
<text text-anchor="middle" x="448.45" y="-122.67" font-family="Times,serif" font-size="14.00">Continue</text>
</g>
<!-- be55a2c4&#45;6366&#45;487a&#45;b573&#45;8ed01324fd2c -->
<g id="node7" class="node">
<title>be55a2c4&#45;6366&#45;487a&#45;b573&#45;8ed01324fd2c</title>
<polygon fill="white" stroke="black" points="386.5,-38 286.5,-38 286.5,0 386.5,0 386.5,-38"/>
<text text-anchor="middle" x="336.5" y="-22.8" font-family="Times,serif" font-size="14.00">▶ Check</text>
<text text-anchor="middle" x="336.5" y="-7.8" font-family="Times,serif" font-size="14.00">src/main.py</text>
</g>
<!-- e8f9d531&#45;ba09&#45;4be0&#45;b851&#45;adc0277a5e1b&#45;&gt;be55a2c4&#45;6366&#45;487a&#45;b573&#45;8ed01324fd2c -->
<g id="edge3" class="edge">
<title>e8f9d531&#45;ba09&#45;4be0&#45;b851&#45;adc0277a5e1b&#45;&gt;be55a2c4&#45;6366&#45;487a&#45;b573&#45;8ed01324fd2c</title>
<path fill="none" stroke="black" stroke-dasharray="5,2" d="M336.5,-88.7C336.5,-76.43 336.5,-61.78 336.5,-49.17"/>
<polygon fill="black" stroke="black" points="340,-49.28 336.5,-39.28 333,-49.28 340,-49.28"/>
<text text-anchor="middle" x="390" y="-59.8" font-family="Times,serif" font-size="14.00">Check changes</text>
</g>
<!-- 4eed8f98&#45;01f1&#45;47e7&#45;9368&#45;aa649de06fb2&#45;&gt;end -->
<g id="edge7" class="edge">
<title>4eed8f98&#45;01f1&#45;47e7&#45;9368&#45;aa649de06fb2&#45;&gt;end</title>
<path fill="none" stroke="black" d="M611.41,-115.87C631.39,-115.87 651.53,-115.87 663.5,-115.87"/>
<polygon fill="black" stroke="black" points="663.14,-119.37 673.14,-115.87 663.14,-112.37 663.14,-119.37"/>
<text text-anchor="middle" x="642.66" y="-122.67" font-family="Times,serif" font-size="14.00">Finish</text>
</g>
<!-- 2b792c9d&#45;2337&#45;4e7d&#45;a9f0&#45;9e7ef0be3a76 -->
<g id="node8" class="node">
<title>2b792c9d&#45;2337&#45;4e7d&#45;a9f0&#45;9e7ef0be3a76</title>
<polygon fill="white" stroke="black" points="593.5,-38 507.5,-38 507.5,0 593.5,0 593.5,-38"/>
<text text-anchor="middle" x="550.5" y="-22.8" font-family="Times,serif" font-size="14.00">▶ Check</text>
<text text-anchor="middle" x="550.5" y="-7.8" font-family="Times,serif" font-size="14.00">src/api.py</text>
</g>
<!-- 4eed8f98&#45;01f1&#45;47e7&#45;9368&#45;aa649de06fb2&#45;&gt;2b792c9d&#45;2337&#45;4e7d&#45;a9f0&#45;9e7ef0be3a76 -->
<g id="edge5" class="edge">
<title>4eed8f98&#45;01f1&#45;47e7&#45;9368&#45;aa649de06fb2&#45;&gt;2b792c9d&#45;2337&#45;4e7d&#45;a9f0&#45;9e7ef0be3a76</title>
<path fill="none" stroke="black" stroke-dasharray="5,2" d="M550.5,-88.7C550.5,-76.43 550.5,-61.78 550.5,-49.17"/>
<polygon fill="black" stroke="black" points="554,-49.28 550.5,-39.28 547,-49.28 554,-49.28"/>
<text text-anchor="middle" x="604" y="-59.8" font-family="Times,serif" font-size="14.00">Check changes</text>
</g>
</g>
</svg>
