<?xml version="1.0" encoding="UTF-8" standalone="no"?>
<!DOCTYPE svg PUBLIC "-//W3C//DTD SVG 1.1//EN"
 "http://www.w3.org/Graphics/SVG/1.1/DTD/svg11.dtd">
<!-- Generated by graphviz version 8.0.3 (0)
 -->
<!-- Pages: 1 -->
<svg width="784pt" height="408pt"
 viewBox="0.00 0.00 783.50 408.48" xmlns="http://www.w3.org/2000/svg" xmlns:xlink="http://www.w3.org/1999/xlink">
<g id="graph0" class="graph" transform="scale(1 1) rotate(0) translate(36 372.48)">
<polygon fill="white" stroke="none" points="-36,36 -36,-372.48 747.5,-372.48 747.5,36 -36,36"/>
<!-- start -->
<g id="node1" class="node">
<title>start</title>
</g>
<!-- 73b1b36e&#45;a2dd&#45;4a95&#45;b732&#45;43efe938ccfc -->
<g id="node3" class="node">
<title>73b1b36e&#45;a2dd&#45;4a95&#45;b732&#45;43efe938ccfc</title>
<ellipse fill="green" stroke="black" cx="119.5" cy="-309.61" rx="63.78" ry="26.74"/>
<text text-anchor="middle" x="119.5" y="-313.41" font-family="Times,serif" font-size="14.00">✓ Create</text>
<text text-anchor="middle" x="119.5" y="-298.41" font-family="Times,serif" font-size="14.00">src/cnn.py</text>
</g>
<!-- start&#45;&gt;73b1b36e&#45;a2dd&#45;4a95&#45;b732&#45;43efe938ccfc -->
<g id="edge9" class="edge">
<title>start&#45;&gt;73b1b36e&#45;a2dd&#45;4a95&#45;b732&#45;43efe938ccfc</title>
<path fill="none" stroke="black" d="M0.84,-309.61C3.58,-309.61 22.48,-309.61 44.41,-309.61"/>
<polygon fill="black" stroke="black" points="44.36,-313.11 54.36,-309.61 44.36,-306.11 44.36,-313.11"/>
<text text-anchor="middle" x="28.43" y="-316.41" font-family="Times,serif" font-size="14.00">Start</text>
</g>
<!-- end -->
<g id="node2" class="node">
<title>end</title>
</g>
<!-- f67eea0d&#45;2ade&#45;4000&#45;926a&#45;cb5f3d0d18d6 -->
<g id="node4" class="node">
<title>f67eea0d&#45;2ade&#45;4000&#45;926a&#45;cb5f3d0d18d6</title>
<ellipse fill="green" stroke="black" cx="336.5" cy="-309.61" rx="70.92" ry="26.74"/>
<text text-anchor="middle" x="336.5" y="-313.41" font-family="Times,serif" font-size="14.00">✓ Modify</text>
<text text-anchor="middle" x="336.5" y="-298.41" font-family="Times,serif" font-size="14.00">src/main.py</text>
</g>
<!-- 73b1b36e&#45;a2dd&#45;4a95&#45;b732&#45;43efe938ccfc&#45;&gt;f67eea0d&#45;2ade&#45;4000&#45;926a&#45;cb5f3d0d18d6 -->
<g id="edge2" class="edge">
<title>73b1b36e&#45;a2dd&#45;4a95&#45;b732&#45;43efe938ccfc&#45;&gt;f67eea0d&#45;2ade&#45;4000&#45;926a&#45;cb5f3d0d18d6</title>
<path fill="none" stroke="black" d="M183.73,-309.61C205.84,-309.61 230.92,-309.61 254.28,-309.61"/>
<polygon fill="black" stroke="black" points="254.22,-313.11 264.22,-309.61 254.22,-306.11 254.22,-313.11"/>
<text text-anchor="middle" x="224.46" y="-316.41" font-family="Times,serif" font-size="14.00">Continue</text>
</g>
<!-- 442cb354&#45;758d&#45;4c65&#45;a0ac&#45;67cc1eeaf2f9 -->
<g id="node6" class="node">
<title>442cb354&#45;758d&#45;4c65&#45;a0ac&#45;67cc1eeaf2f9</title>
<polygon fill="green" stroke="black" points="164.5,-231.74 74.5,-231.74 74.5,-193.74 164.5,-193.74 164.5,-231.74"/>
<text text-anchor="middle" x="119.5" y="-216.54" font-family="Times,serif" font-size="14.00">✓ Check</text>
<text text-anchor="middle" x="119.5" y="-201.54" font-family="Times,serif" font-size="14.00">src/cnn.py</text>
</g>
<!-- 73b1b36e&#45;a2dd&#45;4a95&#45;b732&#45;43efe938ccfc&#45;&gt;442cb354&#45;758d&#45;4c65&#45;a0ac&#45;67cc1eeaf2f9 -->
<g id="edge1" class="edge">
<title>73b1b36e&#45;a2dd&#45;4a95&#45;b732&#45;43efe938ccfc&#45;&gt;442cb354&#45;758d&#45;4c65&#45;a0ac&#45;67cc1eeaf2f9</title>
<path fill="none" stroke="black" stroke-dasharray="5,2" d="M119.5,-282.44C119.5,-270.17 119.5,-255.52 119.5,-242.91"/>
<polygon fill="black" stroke="black" points="123,-243.02 119.5,-233.02 116,-243.02 123,-243.02"/>
<text text-anchor="middle" x="173" y="-253.54" font-family="Times,serif" font-size="14.00">Check changes</text>
</g>
<!-- 355e7eb2&#45;788e&#45;4d29&#45;9129&#45;a2d9f4c62924 -->
<g id="node5" class="node">
<title>355e7eb2&#45;788e&#45;4d29&#45;9129&#45;a2d9f4c62924</title>
<ellipse fill="white" stroke="black" cx="550.5" cy="-309.61" rx="60.62" ry="26.74"/>
<text text-anchor="middle" x="550.5" y="-313.41" font-family="Times,serif" font-size="14.00">▶ Modify</text>
<text text-anchor="middle" x="550.5" y="-298.41" font-family="Times,serif" font-size="14.00">src/api.py</text>
</g>
<!-- f67eea0d&#45;2ade&#45;4000&#45;926a&#45;cb5f3d0d18d6&#45;&gt;355e7eb2&#45;788e&#45;4d29&#45;9129&#45;a2d9f4c62924 -->
<g id="edge7" class="edge">
<title>f67eea0d&#45;2ade&#45;4000&#45;926a&#45;cb5f3d0d18d6&#45;&gt;355e7eb2&#45;788e&#45;4d29&#45;9129&#45;a2d9f4c62924</title>
<path fill="none" stroke="black" d="M407.76,-309.61C430.54,-309.61 455.76,-309.61 478.58,-309.61"/>
<polygon fill="black" stroke="black" points="478.57,-313.11 488.57,-309.61 478.57,-306.11 478.57,-313.11"/>
<text text-anchor="middle" x="448.45" y="-316.41" font-family="Times,serif" font-size="14.00">Continue</text>
</g>
<!-- 62bfe242&#45;e8ae&#45;40f3&#45;b4ed&#45;65f9a63e2b85 -->
<g id="node7" class="node">
<title>62bfe242&#45;e8ae&#45;40f3&#45;b4ed&#45;65f9a63e2b85</title>
<polygon fill="red" stroke="black" points="385.5,-231.74 285.5,-231.74 285.5,-193.74 385.5,-193.74 385.5,-231.74"/>
<text text-anchor="middle" x="335.5" y="-216.54" font-family="Times,serif" font-size="14.00">✗ Check</text>
<text text-anchor="middle" x="335.5" y="-201.54" font-family="Times,serif" font-size="14.00">src/main.py</text>
</g>
<!-- f67eea0d&#45;2ade&#45;4000&#45;926a&#45;cb5f3d0d18d6&#45;&gt;62bfe242&#45;e8ae&#45;40f3&#45;b4ed&#45;65f9a63e2b85 -->
<g id="edge3" class="edge">
<title>f67eea0d&#45;2ade&#45;4000&#45;926a&#45;cb5f3d0d18d6&#45;&gt;62bfe242&#45;e8ae&#45;40f3&#45;b4ed&#45;65f9a63e2b85</title>
<path fill="none" stroke="black" stroke-dasharray="5,2" d="M293.15,-288.08C284.47,-281.85 276.48,-274.12 271.5,-264.74 266.09,-254.56 270.54,-245.71 279.14,-238.37"/>
<polygon fill="black" stroke="black" points="280.92,-240.69 287.05,-232.05 276.87,-234.98 280.92,-240.69"/>
<text text-anchor="middle" x="325" y="-253.54" font-family="Times,serif" font-size="14.00">Check changes</text>
</g>
<!-- f67eea0d&#45;2ade&#45;4000&#45;926a&#45;cb5f3d0d18d6&#45;&gt;62bfe242&#45;e8ae&#45;40f3&#45;b4ed&#45;65f9a63e2b85 -->
<g id="edge6" class="edge">
<title>f67eea0d&#45;2ade&#45;4000&#45;926a&#45;cb5f3d0d18d6&#45;&gt;62bfe242&#45;e8ae&#45;40f3&#45;b4ed&#45;65f9a63e2b85</title>
<path fill="none" stroke="black" stroke-dasharray="5,2" d="M367.6,-285.22C377.41,-274.88 384.34,-262.25 378.5,-249.74 376.89,-246.28 374.76,-243.04 372.31,-240.03"/>
<polygon fill="black" stroke="black" points="375.19,-237.94 365.74,-233.16 370.15,-242.79 375.19,-237.94"/>
<text text-anchor="middle" x="435" y="-253.54" font-family="Times,serif" font-size="14.00">Check changes</text>
</g>
<!-- 19960585&#45;f035&#45;44ee&#45;8694&#45;49a2a5d84340 -->
<g id="node8" class="node">
<title>19960585&#45;f035&#45;44ee&#45;8694&#45;49a2a5d84340</title>
<polygon fill="white" stroke="black" points="658.5,-231.74 572.5,-231.74 572.5,-193.74 658.5,-193.74 658.5,-231.74"/>
<text text-anchor="middle" x="615.5" y="-216.54" font-family="Times,serif" font-size="14.00">▶ Check</text>
<text text-anchor="middle" x="615.5" y="-201.54" font-family="Times,serif" font-size="14.00">src/api.py</text>
</g>
<!-- 355e7eb2&#45;788e&#45;4d29&#45;9129&#45;a2d9f4c62924&#45;&gt;19960585&#45;f035&#45;44ee&#45;8694&#45;49a2a5d84340 -->
<g id="edge8" class="edge">
<title>355e7eb2&#45;788e&#45;4d29&#45;9129&#45;a2d9f4c62924&#45;&gt;19960585&#45;f035&#45;44ee&#45;8694&#45;49a2a5d84340</title>
<path fill="none" stroke="black" stroke-dasharray="5,2" d="M545.51,-282.72C544.73,-271.85 545.69,-259.49 551.5,-249.74 554.56,-244.61 558.65,-240.15 563.28,-236.29"/>
<polygon fill="black" stroke="black" points="565.01,-238.63 571.1,-229.97 560.94,-232.94 565.01,-238.63"/>
<text text-anchor="middle" x="605" y="-253.54" font-family="Times,serif" font-size="14.00">Check changes</text>
</g>
<!-- b295abfb&#45;a07c&#45;47ab&#45;99d3&#45;28ed5a14edcf -->
<g id="node9" class="node">
<title>b295abfb&#45;a07c&#45;47ab&#45;99d3&#45;28ed5a14edcf</title>
<ellipse fill="yellow" stroke="black" cx="335.5" cy="-115.87" rx="70.92" ry="26.74"/>
<text text-anchor="middle" x="335.5" y="-119.67" font-family="Times,serif" font-size="14.00">⋯ Modify</text>
<text text-anchor="middle" x="335.5" y="-104.67" font-family="Times,serif" font-size="14.00">src/main.py</text>
</g>
<!-- 62bfe242&#45;e8ae&#45;40f3&#45;b4ed&#45;65f9a63e2b85&#45;&gt;b295abfb&#45;a07c&#45;47ab&#45;99d3&#45;28ed5a14edcf -->
<g id="edge4" class="edge">
<title>62bfe242&#45;e8ae&#45;40f3&#45;b4ed&#45;65f9a63e2b85&#45;&gt;b295abfb&#45;a07c&#45;47ab&#45;99d3&#45;28ed5a14edcf</title>
<path fill="none" stroke="black" d="M335.5,-193.45C335.5,-182.26 335.5,-167.54 335.5,-153.99"/>
<polygon fill="black" stroke="black" points="339,-154 335.5,-144 332,-154 339,-154"/>
<text text-anchor="middle" x="419" y="-164.54" font-family="Times,serif" font-size="14.00">More changes required</text>
</g>
<!-- 19960585&#45;f035&#45;44ee&#45;8694&#45;49a2a5d84340&#45;&gt;end -->
<g id="edge10" class="edge">
<title>19960585&#45;f035&#45;44ee&#45;8694&#45;49a2a5d84340&#45;&gt;end</title>
<path fill="none" stroke="black" d="M641.7,-231.99C647.82,-237.19 653.89,-243.22 658.5,-249.74 668.5,-263.87 674.55,-283.09 677.71,-295.67"/>
<polygon fill="black" stroke="black" points="674.46,-296.16 680.05,-305.16 681.29,-294.63 674.46,-296.16"/>
<text text-anchor="middle" x="689" y="-253.54" font-family="Times,serif" font-size="14.00">Finish</text>
</g>
<!-- 3e77f904&#45;730e&#45;49f2&#45;9f9d&#45;e3032bb87497 -->
<g id="node10" class="node">
<title>3e77f904&#45;730e&#45;49f2&#45;9f9d&#45;e3032bb87497</title>
<polygon fill="white" stroke="black" points="385.5,-38 285.5,-38 285.5,0 385.5,0 385.5,-38"/>
<text text-anchor="middle" x="335.5" y="-22.8" font-family="Times,serif" font-size="14.00">▶ Check</text>
<text text-anchor="middle" x="335.5" y="-7.8" font-family="Times,serif" font-size="14.00">src/main.py</text>
</g>
<!-- b295abfb&#45;a07c&#45;47ab&#45;99d3&#45;28ed5a14edcf&#45;&gt;3e77f904&#45;730e&#45;49f2&#45;9f9d&#45;e3032bb87497 -->
<g id="edge5" class="edge">
<title>b295abfb&#45;a07c&#45;47ab&#45;99d3&#45;28ed5a14edcf&#45;&gt;3e77f904&#45;730e&#45;49f2&#45;9f9d&#45;e3032bb87497</title>
<path fill="none" stroke="black" stroke-dasharray="5,2" d="M335.5,-88.7C335.5,-76.43 335.5,-61.78 335.5,-49.17"/>
<polygon fill="black" stroke="black" points="339,-49.28 335.5,-39.28 332,-49.28 339,-49.28"/>
<text text-anchor="middle" x="389" y="-59.8" font-family="Times,serif" font-size="14.00">Check changes</text>
</g>
</g>
</svg>
