<?xml version="1.0" encoding="UTF-8" standalone="no"?>
<!DOCTYPE svg PUBLIC "-//W3C//DTD SVG 1.1//EN"
 "http://www.w3.org/Graphics/SVG/1.1/DTD/svg11.dtd">
<!-- Generated by graphviz version 8.0.3 (0)
 -->
<!-- Pages: 1 -->
<svg width="582pt" height="238pt"
 viewBox="0.00 0.00 581.50 237.74" xmlns="http://www.w3.org/2000/svg" xmlns:xlink="http://www.w3.org/1999/xlink">
<g id="graph0" class="graph" transform="scale(1 1) rotate(0) translate(36 201.74)">
<polygon fill="dimgray" stroke="none" points="-36,36 -36,-201.74 545.5,-201.74 545.5,36 -36,36"/>
<text text-anchor="middle" x="254.75" y="-150.54" font-family="Helvetica,sans-Serif" font-size="14.00">Sweep&#39;s Plan &amp; Progress</text>
<!-- start -->
<g id="node1" class="node">
<title>start</title>
</g>
<!-- 26359dc1&#45;d0f9&#45;4265&#45;8f81&#45;289e7aab0704 -->
<g id="node3" class="node">
<title>26359dc1&#45;d0f9&#45;4265&#45;8f81&#45;289e7aab0704</title>
<ellipse fill="#0ee832" stroke="black" cx="175.5" cy="-99.87" rx="69.09" ry="26.74"/>
<text text-anchor="middle" x="175.5" y="-103.67" font-family="Helvetica,sans-Serif" font-size="14.00">✓ Modify</text>
<text text-anchor="middle" x="175.5" y="-88.67" font-family="Helvetica,sans-Serif" font-size="14.00">src/main.py</text>
</g>
<!-- start&#45;&gt;26359dc1&#45;d0f9&#45;4265&#45;8f81&#45;289e7aab0704 -->
<g id="edge4" class="edge">
<title>start&#45;&gt;26359dc1&#45;d0f9&#45;4265&#45;8f81&#45;289e7aab0704</title>
<path fill="none" stroke="black" d="M54.85,-99.87C57.48,-99.87 74.76,-99.87 95.46,-99.87"/>
<polygon fill="black" stroke="black" points="95.19,-103.37 105.19,-99.87 95.19,-96.37 95.19,-103.37"/>
<text text-anchor="middle" x="80.6" y="-106.67" font-family="Helvetica,sans-Serif" font-size="14.00">Start</text>
</g>
<!-- end -->
<g id="node2" class="node">
<title>end</title>
</g>
<!-- d2e418e3&#45;a6fe&#45;4370&#45;a9a1&#45;fba42f8a675a -->
<g id="node4" class="node">
<title>d2e418e3&#45;a6fe&#45;4370&#45;a9a1&#45;fba42f8a675a</title>
<ellipse fill="#0ee832" stroke="black" cx="364.5" cy="-99.87" rx="59.29" ry="26.74"/>
<text text-anchor="middle" x="364.5" y="-103.67" font-family="Helvetica,sans-Serif" font-size="14.00">✓ Modify</text>
<text text-anchor="middle" x="364.5" y="-88.67" font-family="Helvetica,sans-Serif" font-size="14.00">src/api.py</text>
</g>
<!-- 26359dc1&#45;d0f9&#45;4265&#45;8f81&#45;289e7aab0704&#45;&gt;d2e418e3&#45;a6fe&#45;4370&#45;a9a1&#45;fba42f8a675a -->
<g id="edge2" class="edge">
<title>26359dc1&#45;d0f9&#45;4265&#45;8f81&#45;289e7aab0704&#45;&gt;d2e418e3&#45;a6fe&#45;4370&#45;a9a1&#45;fba42f8a675a</title>
<path fill="none" stroke="black" d="M244.9,-99.87C261.38,-99.87 277.86,-99.87 294.34,-99.87"/>
<polygon fill="black" stroke="black" points="294.17,-103.37 304.17,-99.87 294.17,-96.37 294.17,-103.37"/>
</g>
<!-- 1835017f&#45;cb4e&#45;43ed&#45;9261&#45;3634f2e1a120 -->
<g id="node5" class="node">
<title>1835017f&#45;cb4e&#45;43ed&#45;9261&#45;3634f2e1a120</title>
<polygon fill="#0ee832" stroke="black" points="251,-36 0,-36 0,0 251,0 251,-36"/>
<text text-anchor="middle" x="125.5" y="-14.3" font-family="Helvetica,sans-Serif" font-size="14.00">✓ Ran sandbox for `src/main.py`.</text>
</g>
<!-- 26359dc1&#45;d0f9&#45;4265&#45;8f81&#45;289e7aab0704&#45;&gt;1835017f&#45;cb4e&#45;43ed&#45;9261&#45;3634f2e1a120 -->
<g id="edge1" class="edge">
<title>26359dc1&#45;d0f9&#45;4265&#45;8f81&#45;289e7aab0704&#45;&gt;1835017f&#45;cb4e&#45;43ed&#45;9261&#45;3634f2e1a120</title>
<path fill="none" stroke="black" stroke-dasharray="5,2" d="M159.68,-73.6C153.99,-64.51 147.56,-54.24 141.83,-45.08"/>
<polygon fill="black" stroke="black" points="144.44,-43.66 136.16,-37.04 138.5,-47.37 144.44,-43.66"/>
</g>
<!-- d2e418e3&#45;a6fe&#45;4370&#45;a9a1&#45;fba42f8a675a&#45;&gt;end -->
<g id="edge5" class="edge">
<title>d2e418e3&#45;a6fe&#45;4370&#45;a9a1&#45;fba42f8a675a&#45;&gt;end</title>
<path fill="none" stroke="black" d="M424.03,-99.87C441.81,-99.87 459.47,-99.87 470.42,-99.87"/>
<polygon fill="black" stroke="black" points="470.17,-103.37 480.17,-99.87 470.17,-96.37 470.17,-103.37"/>
<text text-anchor="middle" x="452.45" y="-106.67" font-family="Helvetica,sans-Serif" font-size="14.00">Finish</text>
</g>
<!-- ee398e36&#45;f0d0&#45;4906&#45;969b&#45;d0cd3edc4283 -->
<g id="node6" class="node">
<title>ee398e36&#45;f0d0&#45;4906&#45;969b&#45;d0cd3edc4283</title>
<polygon fill="yellow" stroke="black" points="509.5,-36 269.5,-36 269.5,0 509.5,0 509.5,-36"/>
<text text-anchor="middle" x="389.5" y="-14.3" font-family="Helvetica,sans-Serif" font-size="14.00">⋯ Ran sandbox for `src/api.py`.</text>
</g>
<!-- d2e418e3&#45;a6fe&#45;4370&#45;a9a1&#45;fba42f8a675a&#45;&gt;ee398e36&#45;f0d0&#45;4906&#45;969b&#45;d0cd3edc4283 -->
<g id="edge3" class="edge">
<title>d2e418e3&#45;a6fe&#45;4370&#45;a9a1&#45;fba42f8a675a&#45;&gt;ee398e36&#45;f0d0&#45;4906&#45;969b&#45;d0cd3edc4283</title>
<path fill="none" stroke="black" stroke-dasharray="5,2" d="M372.55,-73.16C375.2,-64.69 378.15,-55.25 380.85,-46.65"/>
<polygon fill="black" stroke="black" points="384.43,-47.93 384.07,-37.34 377.75,-45.83 384.43,-47.93"/>
</g>
</g>
</svg>
