<?xml version="1.0" encoding="UTF-8" standalone="no"?>
<!DOCTYPE svg PUBLIC "-//W3C//DTD SVG 1.1//EN"
 "http://www.w3.org/Graphics/SVG/1.1/DTD/svg11.dtd">
<!-- Generated by graphviz version 8.0.3 (0)
 -->
<!-- Pages: 1 -->
<svg width="580pt" height="238pt"
 viewBox="0.00 0.00 579.50 237.74" xmlns="http://www.w3.org/2000/svg" xmlns:xlink="http://www.w3.org/1999/xlink">
<g id="graph0" class="graph" transform="scale(1 1) rotate(0) translate(36 201.74)">
<polygon fill="dimgray" stroke="none" points="-36,36 -36,-201.74 543.5,-201.74 543.5,36 -36,36"/>
<text text-anchor="middle" x="253.75" y="-150.54" font-family="Helvetica,sans-Serif" font-size="14.00">Sweep&#39;s Plan &amp; Progress</text>
<!-- start -->
<g id="node1" class="node">
<title>start</title>
</g>
<!-- 26359dc1&#45;d0f9&#45;4265&#45;8f81&#45;289e7aab0704 -->
<g id="node3" class="node">
<title>26359dc1&#45;d0f9&#45;4265&#45;8f81&#45;289e7aab0704</title>
<ellipse fill="#0ee832" stroke="black" cx="174.5" cy="-99.87" rx="69.09" ry="26.74"/>
<text text-anchor="middle" x="174.5" y="-103.67" font-family="Helvetica,sans-Serif" font-size="14.00">✓ Modify</text>
<text text-anchor="middle" x="174.5" y="-88.67" font-family="Helvetica,sans-Serif" font-size="14.00">src/main.py</text>
</g>
<!-- start&#45;&gt;26359dc1&#45;d0f9&#45;4265&#45;8f81&#45;289e7aab0704 -->
<g id="edge4" class="edge">
<title>start&#45;&gt;26359dc1&#45;d0f9&#45;4265&#45;8f81&#45;289e7aab0704</title>
<path fill="none" stroke="black" d="M53.85,-99.87C56.48,-99.87 73.76,-99.87 94.46,-99.87"/>
<polygon fill="black" stroke="black" points="94.19,-103.37 104.19,-99.87 94.19,-96.37 94.19,-103.37"/>
<text text-anchor="middle" x="79.6" y="-106.67" font-family="Helvetica,sans-Serif" font-size="14.00">Start</text>
</g>
<!-- end -->
<g id="node2" class="node">
<title>end</title>
</g>
<!-- d2e418e3&#45;a6fe&#45;4370&#45;a9a1&#45;fba42f8a675a -->
<g id="node4" class="node">
<title>d2e418e3&#45;a6fe&#45;4370&#45;a9a1&#45;fba42f8a675a</title>
<ellipse fill="#0ee832" stroke="black" cx="363.5" cy="-99.87" rx="59.29" ry="26.74"/>
<text text-anchor="middle" x="363.5" y="-103.67" font-family="Helvetica,sans-Serif" font-size="14.00">✓ Modify</text>
<text text-anchor="middle" x="363.5" y="-88.67" font-family="Helvetica,sans-Serif" font-size="14.00">src/api.py</text>
</g>
<!-- 26359dc1&#45;d0f9&#45;4265&#45;8f81&#45;289e7aab0704&#45;&gt;d2e418e3&#45;a6fe&#45;4370&#45;a9a1&#45;fba42f8a675a -->
<g id="edge2" class="edge">
<title>26359dc1&#45;d0f9&#45;4265&#45;8f81&#45;289e7aab0704&#45;&gt;d2e418e3&#45;a6fe&#45;4370&#45;a9a1&#45;fba42f8a675a</title>
<path fill="none" stroke="black" d="M243.9,-99.87C260.38,-99.87 276.86,-99.87 293.34,-99.87"/>
<polygon fill="black" stroke="black" points="293.17,-103.37 303.17,-99.87 293.17,-96.37 293.17,-103.37"/>
</g>
<!-- 1835017f&#45;cb4e&#45;43ed&#45;9261&#45;3634f2e1a120 -->
<g id="node5" class="node">
<title>1835017f&#45;cb4e&#45;43ed&#45;9261&#45;3634f2e1a120</title>
<polygon fill="#0ee832" stroke="black" points="251,-36 0,-36 0,0 251,0 251,-36"/>
<text text-anchor="middle" x="125.5" y="-14.3" font-family="Helvetica,sans-Serif" font-size="14.00">✓ Ran sandbox for `src/main.py`.</text>
</g>
<!-- 26359dc1&#45;d0f9&#45;4265&#45;8f81&#45;289e7aab0704&#45;&gt;1835017f&#45;cb4e&#45;43ed&#45;9261&#45;3634f2e1a120 -->
<g id="edge1" class="edge">
<title>26359dc1&#45;d0f9&#45;4265&#45;8f81&#45;289e7aab0704&#45;&gt;1835017f&#45;cb4e&#45;43ed&#45;9261&#45;3634f2e1a120</title>
<path fill="none" stroke="black" stroke-dasharray="5,2" d="M159,-73.6C153.48,-64.6 147.25,-54.46 141.68,-45.37"/>
<polygon fill="black" stroke="black" points="144.16,-43.73 135.95,-37.04 138.2,-47.39 144.16,-43.73"/>
</g>
<!-- d2e418e3&#45;a6fe&#45;4370&#45;a9a1&#45;fba42f8a675a&#45;&gt;end -->
<g id="edge5" class="edge">
<title>d2e418e3&#45;a6fe&#45;4370&#45;a9a1&#45;fba42f8a675a&#45;&gt;end</title>
<path fill="none" stroke="black" d="M423.03,-99.87C440.81,-99.87 458.47,-99.87 469.42,-99.87"/>
<polygon fill="black" stroke="black" points="469.17,-103.37 479.17,-99.87 469.17,-96.37 469.17,-103.37"/>
<text text-anchor="middle" x="451.45" y="-106.67" font-family="Helvetica,sans-Serif" font-size="14.00">Finish</text>
</g>
<!-- ee398e36&#45;f0d0&#45;4906&#45;969b&#45;d0cd3edc4283 -->
<g id="node6" class="node">
<title>ee398e36&#45;f0d0&#45;4906&#45;969b&#45;d0cd3edc4283</title>
<polygon fill="#0ee832" stroke="black" points="507.5,-36 269.5,-36 269.5,0 507.5,0 507.5,-36"/>
<text text-anchor="middle" x="388.5" y="-14.3" font-family="Helvetica,sans-Serif" font-size="14.00">✓ Ran sandbox for `src/api.py`.</text>
</g>
<!-- d2e418e3&#45;a6fe&#45;4370&#45;a9a1&#45;fba42f8a675a&#45;&gt;ee398e36&#45;f0d0&#45;4906&#45;969b&#45;d0cd3edc4283 -->
<g id="edge3" class="edge">
<title>d2e418e3&#45;a6fe&#45;4370&#45;a9a1&#45;fba42f8a675a&#45;&gt;ee398e36&#45;f0d0&#45;4906&#45;969b&#45;d0cd3edc4283</title>
<path fill="none" stroke="black" stroke-dasharray="5,2" d="M371.55,-73.16C374.2,-64.69 377.15,-55.25 379.85,-46.65"/>
<polygon fill="black" stroke="black" points="383.43,-47.93 383.07,-37.34 376.75,-45.83 383.43,-47.93"/>
</g>
</g>
</svg>
