<?xml version="1.0" encoding="UTF-8" standalone="no"?>
<!DOCTYPE svg PUBLIC "-//W3C//DTD SVG 1.1//EN"
 "http://www.w3.org/Graphics/SVG/1.1/DTD/svg11.dtd">
<!-- Generated by graphviz version 2.43.0 (0)
 -->
<!-- Title: %3 Pages: 1 -->
<svg width="1115pt" height="771pt"
 viewBox="0.00 0.00 1115.00 770.96" xmlns="http://www.w3.org/2000/svg" xmlns:xlink="http://www.w3.org/1999/xlink">
<g id="graph0" class="graph" transform="scale(1 1) rotate(0) translate(36 734.96)">
<title>%3</title>
<polygon fill="dimgray" stroke="transparent" points="-36,36 -36,-734.96 1079,-734.96 1079,36 -36,36"/>
<text text-anchor="middle" x="521.5" y="-683.76" font-family="Helvetica,sans-Serif" font-size="14.00">Sweep&#39;s Plan &amp; Progress</text>
<!-- start -->
<g id="node1" class="node">
<title>start</title>
</g>
<!-- 6fbeaf13&#45;5de6&#45;4c01&#45;841d&#45;7386f41bffb2 -->
<g id="node3" class="node">
<title>6fbeaf13&#45;5de6&#45;4c01&#45;841d&#45;7386f41bffb2</title>
<ellipse fill="#0ee832" stroke="black" cx="664" cy="-633.09" rx="69.09" ry="26.74"/>
<text text-anchor="middle" x="664" y="-636.89" font-family="Helvetica,sans-Serif" font-size="14.00">✓ Modify</text>
<text text-anchor="middle" x="664" y="-621.89" font-family="Helvetica,sans-Serif" font-size="14.00">src/main.py</text>
</g>
<!-- start&#45;&gt;6fbeaf13&#45;5de6&#45;4c01&#45;841d&#45;7386f41bffb2 -->
<g id="edge13" class="edge">
<title>start&#45;&gt;6fbeaf13&#45;5de6&#45;4c01&#45;841d&#45;7386f41bffb2</title>
<path fill="none" stroke="black" d="M543.77,-633.09C547.53,-633.09 564.49,-633.09 584.55,-633.09"/>
<polygon fill="black" stroke="black" points="584.61,-636.59 594.61,-633.09 584.61,-629.59 584.61,-636.59"/>
<text text-anchor="middle" x="569.1" y="-639.89" font-family="Helvetica,sans-Serif" font-size="14.00">Start</text>
</g>
<!-- end -->
<g id="node2" class="node">
<title>end</title>
</g>
<!-- 4e4adb16&#45;4b97&#45;42d9&#45;9256&#45;aac12701f9d6 -->
<g id="node4" class="node">
<title>4e4adb16&#45;4b97&#45;42d9&#45;9256&#45;aac12701f9d6</title>
<ellipse fill="white" stroke="black" cx="877" cy="-633.09" rx="59.29" ry="26.74"/>
<text text-anchor="middle" x="877" y="-636.89" font-family="Helvetica,sans-Serif" font-size="14.00">▶ Modify</text>
<text text-anchor="middle" x="877" y="-621.89" font-family="Helvetica,sans-Serif" font-size="14.00">src/api.py</text>
</g>
<!-- 6fbeaf13&#45;5de6&#45;4c01&#45;841d&#45;7386f41bffb2&#45;&gt;4e4adb16&#45;4b97&#45;42d9&#45;9256&#45;aac12701f9d6 -->
<g id="edge11" class="edge">
<title>6fbeaf13&#45;5de6&#45;4c01&#45;841d&#45;7386f41bffb2&#45;&gt;4e4adb16&#45;4b97&#45;42d9&#45;9256&#45;aac12701f9d6</title>
<path fill="none" stroke="black" d="M733.47,-633.09C758.11,-633.09 782.75,-633.09 807.39,-633.09"/>
<polygon fill="black" stroke="black" points="807.57,-636.59 817.57,-633.09 807.57,-629.59 807.57,-636.59"/>
</g>
<!-- e34f7650&#45;3928&#45;404c&#45;aa1d&#45;94ab2661733b -->
<g id="node5" class="node">
<title>e34f7650&#45;3928&#45;404c&#45;aa1d&#45;94ab2661733b</title>
<polygon fill="#ee0000" stroke="black" points="520.5,-569.22 269.5,-569.22 269.5,-533.22 520.5,-533.22 520.5,-569.22"/>
<text text-anchor="middle" x="395" y="-547.52" font-family="Helvetica,sans-Serif" font-size="14.00">✗ Ran sandbox for `src/main.py`.</text>
</g>
<!-- 6fbeaf13&#45;5de6&#45;4c01&#45;841d&#45;7386f41bffb2&#45;&gt;e34f7650&#45;3928&#45;404c&#45;aa1d&#45;94ab2661733b -->
<g id="edge1" class="edge">
<title>6fbeaf13&#45;5de6&#45;4c01&#45;841d&#45;7386f41bffb2&#45;&gt;e34f7650&#45;3928&#45;404c&#45;aa1d&#45;94ab2661733b</title>
<path fill="none" stroke="black" stroke-dasharray="5,2" d="M610.21,-616.12C567.64,-603.48 507.96,-585.76 462.24,-572.19"/>
<polygon fill="black" stroke="black" points="463,-568.76 452.42,-569.27 461.01,-575.47 463,-568.76"/>
</g>
<!-- 6012deef&#45;d083&#45;447b&#45;a931&#45;34894862448e -->
<g id="node6" class="node">
<title>6012deef&#45;d083&#45;447b&#45;a931&#45;34894862448e</title>
<polygon fill="white" stroke="black" points="789,-569.22 539,-569.22 539,-533.22 789,-533.22 789,-569.22"/>
<text text-anchor="middle" x="664" y="-547.52" font-family="Helvetica,sans-Serif" font-size="14.00">▶ Ran sandbox for `src/main.py`.</text>
</g>
<!-- 6fbeaf13&#45;5de6&#45;4c01&#45;841d&#45;7386f41bffb2&#45;&gt;6012deef&#45;d083&#45;447b&#45;a931&#45;34894862448e -->
<g id="edge10" class="edge">
<title>6fbeaf13&#45;5de6&#45;4c01&#45;841d&#45;7386f41bffb2&#45;&gt;6012deef&#45;d083&#45;447b&#45;a931&#45;34894862448e</title>
<path fill="none" stroke="black" stroke-dasharray="5,2" d="M664,-605.94C664,-597.49 664,-588.11 664,-579.58"/>
<polygon fill="black" stroke="black" points="667.5,-579.37 664,-569.37 660.5,-579.37 667.5,-579.37"/>
</g>
<!-- 4e4adb16&#45;4b97&#45;42d9&#45;9256&#45;aac12701f9d6&#45;&gt;end -->
<g id="edge14" class="edge">
<title>4e4adb16&#45;4b97&#45;42d9&#45;9256&#45;aac12701f9d6&#45;&gt;end</title>
<path fill="none" stroke="black" d="M936.53,-633.09C954.33,-633.09 972.01,-633.09 982.96,-633.09"/>
<polygon fill="black" stroke="black" points="983.27,-636.59 993.27,-633.09 983.27,-629.59 983.27,-636.59"/>
<text text-anchor="middle" x="964.95" y="-639.89" font-family="Helvetica,sans-Serif" font-size="14.00">Finish</text>
</g>
<!-- d5a6bf0a&#45;7324&#45;48e6&#45;afc3&#45;5cc1da3467dc -->
<g id="node7" class="node">
<title>d5a6bf0a&#45;7324&#45;48e6&#45;afc3&#45;5cc1da3467dc</title>
<polygon fill="white" stroke="black" points="1043,-569.22 807,-569.22 807,-533.22 1043,-533.22 1043,-569.22"/>
<text text-anchor="middle" x="925" y="-547.52" font-family="Helvetica,sans-Serif" font-size="14.00">▶ Ran sandbox for `src/api.py`.</text>
</g>
<!-- 4e4adb16&#45;4b97&#45;42d9&#45;9256&#45;aac12701f9d6&#45;&gt;d5a6bf0a&#45;7324&#45;48e6&#45;afc3&#45;5cc1da3467dc -->
<g id="edge12" class="edge">
<title>4e4adb16&#45;4b97&#45;42d9&#45;9256&#45;aac12701f9d6&#45;&gt;d5a6bf0a&#45;7324&#45;48e6&#45;afc3&#45;5cc1da3467dc</title>
<path fill="none" stroke="black" stroke-dasharray="5,2" d="M892.19,-606.82C897.71,-597.63 903.95,-587.24 909.5,-578.01"/>
<polygon fill="black" stroke="black" points="912.61,-579.63 914.76,-569.26 906.61,-576.02 912.61,-579.63"/>
</g>
<!-- 9b1347c3&#45;94cc&#45;4671&#45;839d&#45;e9c7399ca35c -->
<g id="node8" class="node">
<title>9b1347c3&#45;94cc&#45;4671&#45;839d&#45;e9c7399ca35c</title>
<ellipse fill="#0ee832" stroke="black" cx="395" cy="-455.35" rx="69.09" ry="26.74"/>
<text text-anchor="middle" x="395" y="-459.15" font-family="Helvetica,sans-Serif" font-size="14.00">✓ Modify</text>
<text text-anchor="middle" x="395" y="-444.15" font-family="Helvetica,sans-Serif" font-size="14.00">src/main.py</text>
</g>
<!-- e34f7650&#45;3928&#45;404c&#45;aa1d&#45;94ab2661733b&#45;&gt;9b1347c3&#45;94cc&#45;4671&#45;839d&#45;e9c7399ca35c -->
<g id="edge2" class="edge">
<title>e34f7650&#45;3928&#45;404c&#45;aa1d&#45;94ab2661733b&#45;&gt;9b1347c3&#45;94cc&#45;4671&#45;839d&#45;e9c7399ca35c</title>
<path fill="none" stroke="black" d="M395,-533C395,-521.7 395,-506.49 395,-492.6"/>
<polygon fill="black" stroke="black" points="398.5,-492.32 395,-482.32 391.5,-492.32 398.5,-492.32"/>
<text text-anchor="middle" x="492.5" y="-504.02" font-family="Helvetica,sans-Serif" font-size="14.00">Additional changes required</text>
</g>
<!-- df73bb63&#45;28ab&#45;42da&#45;b801&#45;587f2027fde2 -->
<g id="node9" class="node">
<title>df73bb63&#45;28ab&#45;42da&#45;b801&#45;587f2027fde2</title>
<polygon fill="#ee0000" stroke="black" points="386.5,-391.48 135.5,-391.48 135.5,-355.48 386.5,-355.48 386.5,-391.48"/>
<text text-anchor="middle" x="261" y="-369.78" font-family="Helvetica,sans-Serif" font-size="14.00">✗ Ran sandbox for `src/main.py`.</text>
</g>
<!-- 9b1347c3&#45;94cc&#45;4671&#45;839d&#45;e9c7399ca35c&#45;&gt;df73bb63&#45;28ab&#45;42da&#45;b801&#45;587f2027fde2 -->
<g id="edge3" class="edge">
<title>9b1347c3&#45;94cc&#45;4671&#45;839d&#45;e9c7399ca35c&#45;&gt;df73bb63&#45;28ab&#45;42da&#45;b801&#45;587f2027fde2</title>
<path fill="none" stroke="black" stroke-dasharray="5,2" d="M358.38,-432.53C339.87,-421.49 317.43,-408.12 298.76,-396.99"/>
<polygon fill="black" stroke="black" points="300.31,-393.84 289.93,-391.72 296.73,-399.85 300.31,-393.84"/>
</g>
<!-- 7c297597&#45;dc49&#45;4f9b&#45;8cf1&#45;9b48fb420919 -->
<g id="node10" class="node">
<title>7c297597&#45;dc49&#45;4f9b&#45;8cf1&#45;9b48fb420919</title>
<polygon fill="white" stroke="black" points="655,-391.48 405,-391.48 405,-355.48 655,-355.48 655,-391.48"/>
<text text-anchor="middle" x="530" y="-369.78" font-family="Helvetica,sans-Serif" font-size="14.00">▶ Ran sandbox for `src/main.py`.</text>
</g>
<!-- 9b1347c3&#45;94cc&#45;4671&#45;839d&#45;e9c7399ca35c&#45;&gt;7c297597&#45;dc49&#45;4f9b&#45;8cf1&#45;9b48fb420919 -->
<g id="edge9" class="edge">
<title>9b1347c3&#45;94cc&#45;4671&#45;839d&#45;e9c7399ca35c&#45;&gt;7c297597&#45;dc49&#45;4f9b&#45;8cf1&#45;9b48fb420919</title>
<path fill="none" stroke="black" stroke-dasharray="5,2" d="M431.89,-432.53C450.63,-421.44 473.35,-407.99 492.21,-396.84"/>
<polygon fill="black" stroke="black" points="494.03,-399.83 500.85,-391.72 490.46,-393.8 494.03,-399.83"/>
</g>
<!-- 214900e7&#45;1b8e&#45;4d5f&#45;979e&#45;27d1634f2718 -->
<g id="node11" class="node">
<title>214900e7&#45;1b8e&#45;4d5f&#45;979e&#45;27d1634f2718</title>
<ellipse fill="#0ee832" stroke="black" cx="261" cy="-277.61" rx="69.09" ry="26.74"/>
<text text-anchor="middle" x="261" y="-281.41" font-family="Helvetica,sans-Serif" font-size="14.00">✓ Modify</text>
<text text-anchor="middle" x="261" y="-266.41" font-family="Helvetica,sans-Serif" font-size="14.00">src/main.py</text>
</g>
<!-- df73bb63&#45;28ab&#45;42da&#45;b801&#45;587f2027fde2&#45;&gt;214900e7&#45;1b8e&#45;4d5f&#45;979e&#45;27d1634f2718 -->
<g id="edge4" class="edge">
<title>df73bb63&#45;28ab&#45;42da&#45;b801&#45;587f2027fde2&#45;&gt;214900e7&#45;1b8e&#45;4d5f&#45;979e&#45;27d1634f2718</title>
<path fill="none" stroke="black" d="M261,-355.26C261,-343.96 261,-328.75 261,-314.86"/>
<polygon fill="black" stroke="black" points="264.5,-314.58 261,-304.58 257.5,-314.58 264.5,-314.58"/>
<text text-anchor="middle" x="358.5" y="-326.28" font-family="Helvetica,sans-Serif" font-size="14.00">Additional changes required</text>
</g>
<!-- 1cf496af&#45;86ec&#45;4049&#45;ba9e&#45;b27b5833f7b4 -->
<g id="node12" class="node">
<title>1cf496af&#45;86ec&#45;4049&#45;ba9e&#45;b27b5833f7b4</title>
<polygon fill="#ee0000" stroke="black" points="252.5,-213.74 1.5,-213.74 1.5,-177.74 252.5,-177.74 252.5,-213.74"/>
<text text-anchor="middle" x="127" y="-192.04" font-family="Helvetica,sans-Serif" font-size="14.00">✗ Ran sandbox for `src/main.py`.</text>
</g>
<!-- 214900e7&#45;1b8e&#45;4d5f&#45;979e&#45;27d1634f2718&#45;&gt;1cf496af&#45;86ec&#45;4049&#45;ba9e&#45;b27b5833f7b4 -->
<g id="edge5" class="edge">
<title>214900e7&#45;1b8e&#45;4d5f&#45;979e&#45;27d1634f2718&#45;&gt;1cf496af&#45;86ec&#45;4049&#45;ba9e&#45;b27b5833f7b4</title>
<path fill="none" stroke="black" stroke-dasharray="5,2" d="M224.38,-254.79C205.87,-243.75 183.43,-230.38 164.76,-219.25"/>
<polygon fill="black" stroke="black" points="166.31,-216.1 155.93,-213.98 162.73,-222.11 166.31,-216.1"/>
</g>
<!-- 4aa1873c&#45;87e5&#45;453f&#45;a0ad&#45;7bd1d207ccc6 -->
<g id="node13" class="node">
<title>4aa1873c&#45;87e5&#45;453f&#45;a0ad&#45;7bd1d207ccc6</title>
<polygon fill="white" stroke="black" points="521,-213.74 271,-213.74 271,-177.74 521,-177.74 521,-213.74"/>
<text text-anchor="middle" x="396" y="-192.04" font-family="Helvetica,sans-Serif" font-size="14.00">▶ Ran sandbox for `src/main.py`.</text>
</g>
<!-- 214900e7&#45;1b8e&#45;4d5f&#45;979e&#45;27d1634f2718&#45;&gt;4aa1873c&#45;87e5&#45;453f&#45;a0ad&#45;7bd1d207ccc6 -->
<g id="edge8" class="edge">
<title>214900e7&#45;1b8e&#45;4d5f&#45;979e&#45;27d1634f2718&#45;&gt;4aa1873c&#45;87e5&#45;453f&#45;a0ad&#45;7bd1d207ccc6</title>
<path fill="none" stroke="black" stroke-dasharray="5,2" d="M297.89,-254.79C316.63,-243.7 339.35,-230.25 358.21,-219.1"/>
<polygon fill="black" stroke="black" points="360.03,-222.09 366.85,-213.98 356.46,-216.06 360.03,-222.09"/>
</g>
<!-- d2cce630&#45;d2a1&#45;4da3&#45;a431&#45;a5f710338b0a -->
<g id="node14" class="node">
<title>d2cce630&#45;d2a1&#45;4da3&#45;a431&#45;a5f710338b0a</title>
<ellipse fill="#0ee832" stroke="black" cx="127" cy="-99.87" rx="69.09" ry="26.74"/>
<text text-anchor="middle" x="127" y="-103.67" font-family="Helvetica,sans-Serif" font-size="14.00">✓ Modify</text>
<text text-anchor="middle" x="127" y="-88.67" font-family="Helvetica,sans-Serif" font-size="14.00">src/main.py</text>
</g>
<!-- 1cf496af&#45;86ec&#45;4049&#45;ba9e&#45;b27b5833f7b4&#45;&gt;d2cce630&#45;d2a1&#45;4da3&#45;a431&#45;a5f710338b0a -->
<g id="edge6" class="edge">
<title>1cf496af&#45;86ec&#45;4049&#45;ba9e&#45;b27b5833f7b4&#45;&gt;d2cce630&#45;d2a1&#45;4da3&#45;a431&#45;a5f710338b0a</title>
<path fill="none" stroke="black" d="M127,-177.52C127,-166.22 127,-151.01 127,-137.12"/>
<polygon fill="black" stroke="black" points="130.5,-136.84 127,-126.84 123.5,-136.84 130.5,-136.84"/>
<text text-anchor="middle" x="224.5" y="-148.54" font-family="Helvetica,sans-Serif" font-size="14.00">Additional changes required</text>
</g>
<!-- 0a95c220&#45;b968&#45;4500&#45;80d4&#45;de928f077419 -->
<g id="node15" class="node">
<title>0a95c220&#45;b968&#45;4500&#45;80d4&#45;de928f077419</title>
<polygon fill="yellow" stroke="black" points="254,-36 0,-36 0,0 254,0 254,-36"/>
<text text-anchor="middle" x="127" y="-14.3" font-family="Helvetica,sans-Serif" font-size="14.00">⋯ Ran sandbox for `src/main.py`.</text>
</g>
<!-- d2cce630&#45;d2a1&#45;4da3&#45;a431&#45;a5f710338b0a&#45;&gt;0a95c220&#45;b968&#45;4500&#45;80d4&#45;de928f077419 -->
<g id="edge7" class="edge">
<title>d2cce630&#45;d2a1&#45;4da3&#45;a431&#45;a5f710338b0a&#45;&gt;0a95c220&#45;b968&#45;4500&#45;80d4&#45;de928f077419</title>
<path fill="none" stroke="black" stroke-dasharray="5,2" d="M127,-72.72C127,-64.27 127,-54.89 127,-46.36"/>
<polygon fill="black" stroke="black" points="130.5,-46.15 127,-36.15 123.5,-46.15 130.5,-46.15"/>
</g>
</g>
</svg>
