<?xml version="1.0" encoding="UTF-8" standalone="no"?>
<!DOCTYPE svg PUBLIC "-//W3C//DTD SVG 1.1//EN"
 "http://www.w3.org/Graphics/SVG/1.1/DTD/svg11.dtd">
<!-- Generated by graphviz version 8.0.3 (0)
 -->
<!-- Pages: 1 -->
<svg width="656pt" height="419pt"
 viewBox="0.00 0.00 656.00 419.48" xmlns="http://www.w3.org/2000/svg" xmlns:xlink="http://www.w3.org/1999/xlink">
<g id="graph0" class="graph" transform="scale(1 1) rotate(0) translate(36 383.48)">
<polygon fill="white" stroke="none" points="-36,36 -36,-383.48 620,-383.48 620,36 -36,36"/>
<text text-anchor="middle" x="292" y="-332.28" font-family="Times,serif" font-size="14.00">Sweep&#39;s Plan &amp; Progress</text>
<!-- start -->
<g id="node1" class="node">
<title>start</title>
</g>
<!-- 07f88b5e&#45;1eac&#45;426f&#45;9655&#45;3dbf5cb1165b -->
<g id="node3" class="node">
<title>07f88b5e&#45;1eac&#45;426f&#45;9655&#45;3dbf5cb1165b</title>
<ellipse fill="green" stroke="black" cx="119.5" cy="-281.61" rx="63.78" ry="26.74"/>
<text text-anchor="middle" x="119.5" y="-285.41" font-family="Times,serif" font-size="14.00">✓ Create</text>
<text text-anchor="middle" x="119.5" y="-270.41" font-family="Times,serif" font-size="14.00">src/cnn.py</text>
</g>
<!-- start&#45;&gt;07f88b5e&#45;1eac&#45;426f&#45;9655&#45;3dbf5cb1165b -->
<g id="edge9" class="edge">
<title>start&#45;&gt;07f88b5e&#45;1eac&#45;426f&#45;9655&#45;3dbf5cb1165b</title>
<path fill="none" stroke="black" d="M0.84,-281.61C3.58,-281.61 22.48,-281.61 44.41,-281.61"/>
<polygon fill="black" stroke="black" points="44.36,-285.11 54.36,-281.61 44.36,-278.11 44.36,-285.11"/>
<text text-anchor="middle" x="28.43" y="-288.41" font-family="Times,serif" font-size="14.00">Start</text>
</g>
<!-- end -->
<g id="node2" class="node">
<title>end</title>
</g>
<!-- 9465a28a&#45;61c2&#45;4247&#45;958d&#45;4fc66b559dcf -->
<g id="node4" class="node">
<title>9465a28a&#45;61c2&#45;4247&#45;958d&#45;4fc66b559dcf</title>
<ellipse fill="green" stroke="black" cx="290.5" cy="-281.61" rx="70.92" ry="26.74"/>
<text text-anchor="middle" x="290.5" y="-285.41" font-family="Times,serif" font-size="14.00">✓ Modify</text>
<text text-anchor="middle" x="290.5" y="-270.41" font-family="Times,serif" font-size="14.00">src/main.py</text>
</g>
<!-- 07f88b5e&#45;1eac&#45;426f&#45;9655&#45;3dbf5cb1165b&#45;&gt;9465a28a&#45;61c2&#45;4247&#45;958d&#45;4fc66b559dcf -->
<g id="edge2" class="edge">
<title>07f88b5e&#45;1eac&#45;426f&#45;9655&#45;3dbf5cb1165b&#45;&gt;9465a28a&#45;61c2&#45;4247&#45;958d&#45;4fc66b559dcf</title>
<path fill="none" stroke="black" d="M183.62,-281.61C191.85,-281.61 200.07,-281.61 208.3,-281.61"/>
<polygon fill="black" stroke="black" points="208.11,-285.11 218.11,-281.61 208.11,-278.11 208.11,-285.11"/>
</g>
<!-- b41f68bf&#45;885f&#45;436b&#45;b2eb&#45;0ab0260489e5 -->
<g id="node6" class="node">
<title>b41f68bf&#45;885f&#45;436b&#45;b2eb&#45;0ab0260489e5</title>
<polygon fill="green" stroke="black" points="163.5,-217.74 73.5,-217.74 73.5,-179.74 163.5,-179.74 163.5,-217.74"/>
<text text-anchor="middle" x="118.5" y="-202.54" font-family="Times,serif" font-size="14.00">✓ Check</text>
<text text-anchor="middle" x="118.5" y="-187.54" font-family="Times,serif" font-size="14.00">src/cnn.py</text>
</g>
<!-- 07f88b5e&#45;1eac&#45;426f&#45;9655&#45;3dbf5cb1165b&#45;&gt;b41f68bf&#45;885f&#45;436b&#45;b2eb&#45;0ab0260489e5 -->
<g id="edge1" class="edge">
<title>07f88b5e&#45;1eac&#45;426f&#45;9655&#45;3dbf5cb1165b&#45;&gt;b41f68bf&#45;885f&#45;436b&#45;b2eb&#45;0ab0260489e5</title>
<path fill="none" stroke="black" stroke-dasharray="5,2" d="M119.18,-254.58C119.08,-246.32 118.96,-237.15 118.86,-228.7"/>
<polygon fill="black" stroke="black" points="122.35,-228.75 118.72,-218.79 115.35,-228.83 122.35,-228.75"/>
</g>
<!-- 910cb84c&#45;fee4&#45;42c3&#45;ba26&#45;0a307e6a428d -->
<g id="node5" class="node">
<title>910cb84c&#45;fee4&#45;42c3&#45;ba26&#45;0a307e6a428d</title>
<ellipse fill="white" stroke="black" cx="459.5" cy="-281.61" rx="60.62" ry="26.74"/>
<text text-anchor="middle" x="459.5" y="-285.41" font-family="Times,serif" font-size="14.00">▶ Modify</text>
<text text-anchor="middle" x="459.5" y="-270.41" font-family="Times,serif" font-size="14.00">src/api.py</text>
</g>
<!-- 9465a28a&#45;61c2&#45;4247&#45;958d&#45;4fc66b559dcf&#45;&gt;910cb84c&#45;fee4&#45;42c3&#45;ba26&#45;0a307e6a428d -->
<g id="edge7" class="edge">
<title>9465a28a&#45;61c2&#45;4247&#45;958d&#45;4fc66b559dcf&#45;&gt;910cb84c&#45;fee4&#45;42c3&#45;ba26&#45;0a307e6a428d</title>
<path fill="none" stroke="black" d="M361.8,-281.61C370.38,-281.61 378.97,-281.61 387.56,-281.61"/>
<polygon fill="black" stroke="black" points="387.44,-285.11 397.44,-281.61 387.44,-278.11 387.44,-285.11"/>
</g>
<!-- c794c0df&#45;30e3&#45;4607&#45;953b&#45;cd914c9e9539 -->
<g id="node7" class="node">
<title>c794c0df&#45;30e3&#45;4607&#45;953b&#45;cd914c9e9539</title>
<polygon fill="red" stroke="black" points="281.5,-217.74 181.5,-217.74 181.5,-179.74 281.5,-179.74 281.5,-217.74"/>
<text text-anchor="middle" x="231.5" y="-202.54" font-family="Times,serif" font-size="14.00">✗ Check</text>
<text text-anchor="middle" x="231.5" y="-187.54" font-family="Times,serif" font-size="14.00">src/main.py</text>
</g>
<!-- 9465a28a&#45;61c2&#45;4247&#45;958d&#45;4fc66b559dcf&#45;&gt;c794c0df&#45;30e3&#45;4607&#45;953b&#45;cd914c9e9539 -->
<g id="edge3" class="edge">
<title>9465a28a&#45;61c2&#45;4247&#45;958d&#45;4fc66b559dcf&#45;&gt;c794c0df&#45;30e3&#45;4607&#45;953b&#45;cd914c9e9539</title>
<path fill="none" stroke="black" stroke-dasharray="5,2" d="M272.16,-255.47C265.56,-246.42 258.09,-236.19 251.37,-226.98"/>
<polygon fill="black" stroke="black" points="253.68,-225.2 244.96,-219.19 248.03,-229.33 253.68,-225.2"/>
</g>
<!-- a2c254de&#45;4839&#45;43aa&#45;a574&#45;f90ab655817b -->
<g id="node8" class="node">
<title>a2c254de&#45;4839&#45;43aa&#45;a574&#45;f90ab655817b</title>
<polygon fill="white" stroke="black" points="399.5,-217.74 299.5,-217.74 299.5,-179.74 399.5,-179.74 399.5,-217.74"/>
<text text-anchor="middle" x="349.5" y="-202.54" font-family="Times,serif" font-size="14.00">▶ Check</text>
<text text-anchor="middle" x="349.5" y="-187.54" font-family="Times,serif" font-size="14.00">src/main.py</text>
</g>
<!-- 9465a28a&#45;61c2&#45;4247&#45;958d&#45;4fc66b559dcf&#45;&gt;a2c254de&#45;4839&#45;43aa&#45;a574&#45;f90ab655817b -->
<g id="edge6" class="edge">
<title>9465a28a&#45;61c2&#45;4247&#45;958d&#45;4fc66b559dcf&#45;&gt;a2c254de&#45;4839&#45;43aa&#45;a574&#45;f90ab655817b</title>
<path fill="none" stroke="black" stroke-dasharray="5,2" d="M308.84,-255.47C315.44,-246.42 322.91,-236.19 329.63,-226.98"/>
<polygon fill="black" stroke="black" points="332.97,-229.33 336.04,-219.19 327.32,-225.2 332.97,-229.33"/>
</g>
<!-- 910cb84c&#45;fee4&#45;42c3&#45;ba26&#45;0a307e6a428d&#45;&gt;end -->
<g id="edge10" class="edge">
<title>910cb84c&#45;fee4&#45;42c3&#45;ba26&#45;0a307e6a428d&#45;&gt;end</title>
<path fill="none" stroke="black" d="M520.41,-281.61C540.39,-281.61 560.53,-281.61 572.5,-281.61"/>
<polygon fill="black" stroke="black" points="572.14,-285.11 582.14,-281.61 572.14,-278.11 572.14,-285.11"/>
<text text-anchor="middle" x="551.66" y="-288.41" font-family="Times,serif" font-size="14.00">Finish</text>
</g>
<!-- bbb7b1c9&#45;5fb6&#45;4f67&#45;862c&#45;a01a37612357 -->
<g id="node9" class="node">
<title>bbb7b1c9&#45;5fb6&#45;4f67&#45;862c&#45;a01a37612357</title>
<polygon fill="white" stroke="black" points="503.5,-217.74 417.5,-217.74 417.5,-179.74 503.5,-179.74 503.5,-217.74"/>
<text text-anchor="middle" x="460.5" y="-202.54" font-family="Times,serif" font-size="14.00">▶ Check</text>
<text text-anchor="middle" x="460.5" y="-187.54" font-family="Times,serif" font-size="14.00">src/api.py</text>
</g>
<!-- 910cb84c&#45;fee4&#45;42c3&#45;ba26&#45;0a307e6a428d&#45;&gt;bbb7b1c9&#45;5fb6&#45;4f67&#45;862c&#45;a01a37612357 -->
<g id="edge8" class="edge">
<title>910cb84c&#45;fee4&#45;42c3&#45;ba26&#45;0a307e6a428d&#45;&gt;bbb7b1c9&#45;5fb6&#45;4f67&#45;862c&#45;a01a37612357</title>
<path fill="none" stroke="black" stroke-dasharray="5,2" d="M459.82,-254.58C459.92,-246.32 460.04,-237.15 460.14,-228.7"/>
<polygon fill="black" stroke="black" points="463.65,-228.83 460.28,-218.79 456.65,-228.75 463.65,-228.83"/>
</g>
<!-- 30101c21&#45;f334&#45;479f&#45;b9f0&#45;cf65e5ed85ba -->
<g id="node10" class="node">
<title>30101c21&#45;f334&#45;479f&#45;b9f0&#45;cf65e5ed85ba</title>
<ellipse fill="green" stroke="black" cx="231.5" cy="-101.87" rx="70.92" ry="26.74"/>
<text text-anchor="middle" x="231.5" y="-105.67" font-family="Times,serif" font-size="14.00">✓ Modify</text>
<text text-anchor="middle" x="231.5" y="-90.67" font-family="Times,serif" font-size="14.00">src/main.py</text>
</g>
<!-- c794c0df&#45;30e3&#45;4607&#45;953b&#45;cd914c9e9539&#45;&gt;30101c21&#45;f334&#45;479f&#45;b9f0&#45;cf65e5ed85ba -->
<g id="edge4" class="edge">
<title>c794c0df&#45;30e3&#45;4607&#45;953b&#45;cd914c9e9539&#45;&gt;30101c21&#45;f334&#45;479f&#45;b9f0&#45;cf65e5ed85ba</title>
<path fill="none" stroke="black" d="M231.5,-179.45C231.5,-168.26 231.5,-153.54 231.5,-139.99"/>
<polygon fill="black" stroke="black" points="235,-140 231.5,-130 228,-140 235,-140"/>
<text text-anchor="middle" x="332.5" y="-150.54" font-family="Times,serif" font-size="14.00">Additional changes required</text>
</g>
<!-- 0f223306&#45;4bff&#45;480e&#45;ae0a&#45;cd37297ba804 -->
<g id="node11" class="node">
<title>0f223306&#45;4bff&#45;480e&#45;ae0a&#45;cd37297ba804</title>
<polygon fill="yellow" stroke="black" points="281.5,-38 181.5,-38 181.5,0 281.5,0 281.5,-38"/>
<text text-anchor="middle" x="231.5" y="-22.8" font-family="Times,serif" font-size="14.00">⋯ Check</text>
<text text-anchor="middle" x="231.5" y="-7.8" font-family="Times,serif" font-size="14.00">src/main.py</text>
</g>
<!-- 30101c21&#45;f334&#45;479f&#45;b9f0&#45;cf65e5ed85ba&#45;&gt;0f223306&#45;4bff&#45;480e&#45;ae0a&#45;cd37297ba804 -->
<g id="edge5" class="edge">
<title>30101c21&#45;f334&#45;479f&#45;b9f0&#45;cf65e5ed85ba&#45;&gt;0f223306&#45;4bff&#45;480e&#45;ae0a&#45;cd37297ba804</title>
<path fill="none" stroke="black" stroke-dasharray="5,2" d="M231.5,-74.84C231.5,-66.58 231.5,-57.41 231.5,-48.96"/>
<polygon fill="black" stroke="black" points="235,-49.05 231.5,-39.05 228,-49.05 235,-49.05"/>
</g>
</g>
</svg>
