<?xml version="1.0" encoding="UTF-8" standalone="no"?>
<!DOCTYPE svg PUBLIC "-//W3C//DTD SVG 1.1//EN"
 "http://www.w3.org/Graphics/SVG/1.1/DTD/svg11.dtd">
<!-- Generated by graphviz version 2.43.0 (0)
 -->
<!-- Title: %3 Pages: 1 -->
<svg width="350pt" height="419pt"
 viewBox="0.00 0.00 349.80 419.48" xmlns="http://www.w3.org/2000/svg" xmlns:xlink="http://www.w3.org/1999/xlink">
<g id="graph0" class="graph" transform="scale(1 1) rotate(0) translate(36 383.48)">
<title>%3</title>
<polygon fill="dimgray" stroke="transparent" points="-36,36 -36,-383.48 313.8,-383.48 313.8,36 -36,36"/>
<text text-anchor="middle" x="138.9" y="-332.28" font-family="Helvetica,sans-Serif" font-size="14.00">Sweep&#39;s Plan &amp; Progress</text>
<!-- start -->
<g id="node1" class="node">
<title>start</title>
</g>
<!-- b20eaf26&#45;1756&#45;446c&#45;898f&#45;8330643e8484 -->
<g id="node3" class="node">
<title>b20eaf26&#45;1756&#45;446c&#45;898f&#45;8330643e8484</title>
<ellipse fill="#0ee832" stroke="black" cx="150.3" cy="-281.61" rx="69.09" ry="26.74"/>
<text text-anchor="middle" x="150.3" y="-285.41" font-family="Helvetica,sans-Serif" font-size="14.00">✓ Modify</text>
<text text-anchor="middle" x="150.3" y="-270.41" font-family="Helvetica,sans-Serif" font-size="14.00">src/main.py</text>
</g>
<!-- start&#45;&gt;b20eaf26&#45;1756&#45;446c&#45;898f&#45;8330643e8484 -->
<g id="edge5" class="edge">
<title>start&#45;&gt;b20eaf26&#45;1756&#45;446c&#45;898f&#45;8330643e8484</title>
<path fill="none" stroke="black" d="M30.07,-281.61C33.82,-281.61 50.79,-281.61 70.85,-281.61"/>
<polygon fill="black" stroke="black" points="70.9,-285.11 80.9,-281.61 70.9,-278.11 70.9,-285.11"/>
<text text-anchor="middle" x="55.4" y="-288.41" font-family="Helvetica,sans-Serif" font-size="14.00">Start</text>
</g>
<!-- end -->
<g id="node2" class="node">
<title>end</title>
</g>
<!-- b20eaf26&#45;1756&#45;446c&#45;898f&#45;8330643e8484&#45;&gt;end -->
<g id="edge6" class="edge">
<title>b20eaf26&#45;1756&#45;446c&#45;898f&#45;8330643e8484&#45;&gt;end</title>
<path fill="none" stroke="black" d="M219.74,-281.61C238,-281.61 255.61,-281.61 266.43,-281.61"/>
<polygon fill="black" stroke="black" points="266.58,-285.11 276.58,-281.61 266.58,-278.11 266.58,-285.11"/>
<text text-anchor="middle" x="248.19" y="-288.41" font-family="Helvetica,sans-Serif" font-size="14.00">Finish</text>
</g>
<!-- 8bf81d7e&#45;6fc5&#45;481b&#45;890e&#45;ea7b41f760f8 -->
<g id="node4" class="node">
<title>8bf81d7e&#45;6fc5&#45;481b&#45;890e&#45;ea7b41f760f8</title>
<polygon fill="#ee0000" stroke="black" points="118.3,-217.74 20.3,-217.74 20.3,-179.74 118.3,-179.74 118.3,-217.74"/>
<text text-anchor="middle" x="69.3" y="-202.54" font-family="Helvetica,sans-Serif" font-size="14.00">✗ Check</text>
<text text-anchor="middle" x="69.3" y="-187.54" font-family="Helvetica,sans-Serif" font-size="14.00">src/main.py</text>
</g>
<!-- b20eaf26&#45;1756&#45;446c&#45;898f&#45;8330643e8484&#45;&gt;8bf81d7e&#45;6fc5&#45;481b&#45;890e&#45;ea7b41f760f8 -->
<g id="edge1" class="edge">
<title>b20eaf26&#45;1756&#45;446c&#45;898f&#45;8330643e8484&#45;&gt;8bf81d7e&#45;6fc5&#45;481b&#45;890e&#45;ea7b41f760f8</title>
<path fill="none" stroke="black" stroke-dasharray="5,2" d="M125.99,-256.35C116.12,-246.48 104.7,-235.09 94.71,-225.11"/>
<polygon fill="black" stroke="black" points="96.95,-222.4 87.4,-217.81 92,-227.36 96.95,-222.4"/>
</g>
<!-- 2f4bb9a0&#45;a4f5&#45;4df4&#45;a7d2&#45;df64a8a3ca08 -->
<g id="node5" class="node">
<title>2f4bb9a0&#45;a4f5&#45;4df4&#45;a7d2&#45;df64a8a3ca08</title>
<polygon fill="yellow" stroke="black" points="234.3,-217.74 136.3,-217.74 136.3,-179.74 234.3,-179.74 234.3,-217.74"/>
<text text-anchor="middle" x="185.3" y="-202.54" font-family="Helvetica,sans-Serif" font-size="14.00">⋯ Check</text>
<text text-anchor="middle" x="185.3" y="-187.54" font-family="Helvetica,sans-Serif" font-size="14.00">src/main.py</text>
</g>
<!-- b20eaf26&#45;1756&#45;446c&#45;898f&#45;8330643e8484&#45;&gt;2f4bb9a0&#45;a4f5&#45;4df4&#45;a7d2&#45;df64a8a3ca08 -->
<g id="edge4" class="edge">
<title>b20eaf26&#45;1756&#45;446c&#45;898f&#45;8330643e8484&#45;&gt;2f4bb9a0&#45;a4f5&#45;4df4&#45;a7d2&#45;df64a8a3ca08</title>
<path fill="none" stroke="black" stroke-dasharray="5,2" d="M161.37,-255.02C165.19,-246.19 169.49,-236.25 173.38,-227.27"/>
<polygon fill="black" stroke="black" points="176.64,-228.56 177.4,-217.99 170.21,-225.78 176.64,-228.56"/>
</g>
<!-- 9403a35a&#45;686b&#45;4ca3&#45;9de1&#45;7552d4d65b83 -->
<g id="node6" class="node">
<title>9403a35a&#45;686b&#45;4ca3&#45;9de1&#45;7552d4d65b83</title>
<ellipse fill="#0ee832" stroke="black" cx="69.3" cy="-101.87" rx="69.09" ry="26.74"/>
<text text-anchor="middle" x="69.3" y="-105.67" font-family="Helvetica,sans-Serif" font-size="14.00">✓ Modify</text>
<text text-anchor="middle" x="69.3" y="-90.67" font-family="Helvetica,sans-Serif" font-size="14.00">src/main.py</text>
</g>
<!-- 8bf81d7e&#45;6fc5&#45;481b&#45;890e&#45;ea7b41f760f8&#45;&gt;9403a35a&#45;686b&#45;4ca3&#45;9de1&#45;7552d4d65b83 -->
<g id="edge2" class="edge">
<title>8bf81d7e&#45;6fc5&#45;481b&#45;890e&#45;ea7b41f760f8&#45;&gt;9403a35a&#45;686b&#45;4ca3&#45;9de1&#45;7552d4d65b83</title>
<path fill="none" stroke="black" d="M69.3,-179.45C69.3,-168.03 69.3,-152.95 69.3,-139.18"/>
<polygon fill="black" stroke="black" points="72.8,-139 69.3,-129 65.8,-139 72.8,-139"/>
<text text-anchor="middle" x="166.8" y="-150.54" font-family="Helvetica,sans-Serif" font-size="14.00">Additional changes required</text>
</g>
<!-- e0032bdb&#45;579e&#45;400f&#45;8a7a&#45;65f927ba17a4 -->
<g id="node7" class="node">
<title>e0032bdb&#45;579e&#45;400f&#45;8a7a&#45;65f927ba17a4</title>
<polygon fill="#0ee832" stroke="black" points="118.3,-38 20.3,-38 20.3,0 118.3,0 118.3,-38"/>
<text text-anchor="middle" x="69.3" y="-22.8" font-family="Helvetica,sans-Serif" font-size="14.00">✓ Check</text>
<text text-anchor="middle" x="69.3" y="-7.8" font-family="Helvetica,sans-Serif" font-size="14.00">src/main.py</text>
</g>
<!-- 9403a35a&#45;686b&#45;4ca3&#45;9de1&#45;7552d4d65b83&#45;&gt;e0032bdb&#45;579e&#45;400f&#45;8a7a&#45;65f927ba17a4 -->
<g id="edge3" class="edge">
<title>9403a35a&#45;686b&#45;4ca3&#45;9de1&#45;7552d4d65b83&#45;&gt;e0032bdb&#45;579e&#45;400f&#45;8a7a&#45;65f927ba17a4</title>
<path fill="none" stroke="black" stroke-dasharray="5,2" d="M69.3,-74.84C69.3,-66.3 69.3,-56.78 69.3,-48.1"/>
<polygon fill="black" stroke="black" points="72.8,-48.05 69.3,-38.05 65.8,-48.05 72.8,-48.05"/>
</g>
</g>
</svg>
