<?xml version="1.0" encoding="UTF-8" standalone="no"?>
<!DOCTYPE svg PUBLIC "-//W3C//DTD SVG 1.1//EN"
 "http://www.w3.org/Graphics/SVG/1.1/DTD/svg11.dtd">
<!-- Generated by graphviz version 8.0.3 (0)
 -->
<!-- Pages: 1 -->
<svg width="836pt" height="238pt"
 viewBox="0.00 0.00 835.50 237.74" xmlns="http://www.w3.org/2000/svg" xmlns:xlink="http://www.w3.org/1999/xlink">
<g id="graph0" class="graph" transform="scale(1 1) rotate(0) translate(36 201.74)">
<polygon fill="dimgray" stroke="none" points="-36,36 -36,-201.74 799.5,-201.74 799.5,36 -36,36"/>
<text text-anchor="middle" x="381.75" y="-150.54" font-family="Helvetica,sans-Serif" font-size="14.00">Sweep&#39;s Plan &amp; Progress</text>
<!-- start -->
<g id="node1" class="node">
<title>start</title>
</g>
<!-- 30a49582&#45;162b&#45;47a2&#45;b578&#45;4b19408ea077 -->
<g id="node3" class="node">
<title>30a49582&#45;162b&#45;47a2&#45;b578&#45;4b19408ea077</title>
<ellipse fill="yellow" stroke="black" cx="168.5" cy="-99.87" rx="62.87" ry="26.74"/>
<text text-anchor="middle" x="168.5" y="-103.67" font-family="Helvetica,sans-Serif" font-size="14.00">⋯ Create</text>
<text text-anchor="middle" x="168.5" y="-88.67" font-family="Helvetica,sans-Serif" font-size="14.00">src/cnn.py</text>
</g>
<!-- start&#45;&gt;30a49582&#45;162b&#45;47a2&#45;b578&#45;4b19408ea077 -->
<g id="edge6" class="edge">
<title>start&#45;&gt;30a49582&#45;162b&#45;47a2&#45;b578&#45;4b19408ea077</title>
<path fill="none" stroke="black" d="M53.83,-99.87C56.41,-99.87 73.8,-99.87 94.28,-99.87"/>
<polygon fill="black" stroke="black" points="94.22,-103.37 104.22,-99.87 94.22,-96.37 94.22,-103.37"/>
<text text-anchor="middle" x="79.78" y="-106.67" font-family="Helvetica,sans-Serif" font-size="14.00">Start</text>
</g>
<!-- end -->
<g id="node2" class="node">
<title>end</title>
</g>
<!-- b112ee2d&#45;4ab4&#45;4099&#45;8087&#45;4809ac97da57 -->
<g id="node4" class="node">
<title>b112ee2d&#45;4ab4&#45;4099&#45;8087&#45;4809ac97da57</title>
<ellipse fill="white" stroke="black" cx="384.5" cy="-99.87" rx="69.09" ry="26.74"/>
<text text-anchor="middle" x="384.5" y="-103.67" font-family="Helvetica,sans-Serif" font-size="14.00">▶ Modify</text>
<text text-anchor="middle" x="384.5" y="-88.67" font-family="Helvetica,sans-Serif" font-size="14.00">src/main.py</text>
</g>
<!-- 30a49582&#45;162b&#45;47a2&#45;b578&#45;4b19408ea077&#45;&gt;b112ee2d&#45;4ab4&#45;4099&#45;8087&#45;4809ac97da57 -->
<g id="edge2" class="edge">
<title>30a49582&#45;162b&#45;47a2&#45;b578&#45;4b19408ea077&#45;&gt;b112ee2d&#45;4ab4&#45;4099&#45;8087&#45;4809ac97da57</title>
<path fill="none" stroke="black" d="M231.78,-99.87C255.95,-99.87 280.11,-99.87 304.27,-99.87"/>
<polygon fill="black" stroke="black" points="304,-103.37 314,-99.87 304,-96.37 304,-103.37"/>
</g>
<!-- 5d7c4675&#45;bb84&#45;43d4&#45;a8f1&#45;f90f82f10f0b -->
<g id="node6" class="node">
<title>5d7c4675&#45;bb84&#45;43d4&#45;a8f1&#45;f90f82f10f0b</title>
<polygon fill="white" stroke="black" points="241,-36 0,-36 0,0 241,0 241,-36"/>
<text text-anchor="middle" x="120.5" y="-14.3" font-family="Helvetica,sans-Serif" font-size="14.00">▶ Ran sandbox for `src/cnn.py`.</text>
</g>
<!-- 30a49582&#45;162b&#45;47a2&#45;b578&#45;4b19408ea077&#45;&gt;5d7c4675&#45;bb84&#45;43d4&#45;a8f1&#45;f90f82f10f0b -->
<g id="edge1" class="edge">
<title>30a49582&#45;162b&#45;47a2&#45;b578&#45;4b19408ea077&#45;&gt;5d7c4675&#45;bb84&#45;43d4&#45;a8f1&#45;f90f82f10f0b</title>
<path fill="none" stroke="black" stroke-dasharray="5,2" d="M153.31,-73.6C147.91,-64.6 141.81,-54.46 136.35,-45.37"/>
<polygon fill="black" stroke="black" points="138.89,-43.8 130.74,-37.04 132.89,-47.41 138.89,-43.8"/>
</g>
<!-- 2d5b39d3&#45;5a51&#45;44ea&#45;9a55&#45;5bde4f1d36cc -->
<g id="node5" class="node">
<title>2d5b39d3&#45;5a51&#45;44ea&#45;9a55&#45;5bde4f1d36cc</title>
<ellipse fill="white" stroke="black" cx="597.5" cy="-99.87" rx="59.29" ry="26.74"/>
<text text-anchor="middle" x="597.5" y="-103.67" font-family="Helvetica,sans-Serif" font-size="14.00">▶ Modify</text>
<text text-anchor="middle" x="597.5" y="-88.67" font-family="Helvetica,sans-Serif" font-size="14.00">src/api.py</text>
</g>
<!-- b112ee2d&#45;4ab4&#45;4099&#45;8087&#45;4809ac97da57&#45;&gt;2d5b39d3&#45;5a51&#45;44ea&#45;9a55&#45;5bde4f1d36cc -->
<g id="edge4" class="edge">
<title>b112ee2d&#45;4ab4&#45;4099&#45;8087&#45;4809ac97da57&#45;&gt;2d5b39d3&#45;5a51&#45;44ea&#45;9a55&#45;5bde4f1d36cc</title>
<path fill="none" stroke="black" d="M453.97,-99.87C478.31,-99.87 502.65,-99.87 526.99,-99.87"/>
<polygon fill="black" stroke="black" points="526.79,-103.37 536.79,-99.87 526.79,-96.37 526.79,-103.37"/>
</g>
<!-- 9acd0971&#45;414d&#45;40e6&#45;a1fa&#45;5c63214bde25 -->
<g id="node7" class="node">
<title>9acd0971&#45;414d&#45;40e6&#45;a1fa&#45;5c63214bde25</title>
<polygon fill="white" stroke="black" points="509.5,-36 259.5,-36 259.5,0 509.5,0 509.5,-36"/>
<text text-anchor="middle" x="384.5" y="-14.3" font-family="Helvetica,sans-Serif" font-size="14.00">▶ Ran sandbox for `src/main.py`.</text>
</g>
<!-- b112ee2d&#45;4ab4&#45;4099&#45;8087&#45;4809ac97da57&#45;&gt;9acd0971&#45;414d&#45;40e6&#45;a1fa&#45;5c63214bde25 -->
<g id="edge3" class="edge">
<title>b112ee2d&#45;4ab4&#45;4099&#45;8087&#45;4809ac97da57&#45;&gt;9acd0971&#45;414d&#45;40e6&#45;a1fa&#45;5c63214bde25</title>
<path fill="none" stroke="black" stroke-dasharray="5,2" d="M384.5,-72.72C384.5,-64.46 384.5,-55.31 384.5,-46.93"/>
<polygon fill="black" stroke="black" points="388,-47.15 384.5,-37.15 381,-47.15 388,-47.15"/>
</g>
<!-- 2d5b39d3&#45;5a51&#45;44ea&#45;9a55&#45;5bde4f1d36cc&#45;&gt;end -->
<g id="edge7" class="edge">
<title>2d5b39d3&#45;5a51&#45;44ea&#45;9a55&#45;5bde4f1d36cc&#45;&gt;end</title>
<path fill="none" stroke="black" d="M657.03,-99.87C674.81,-99.87 692.47,-99.87 703.42,-99.87"/>
<polygon fill="black" stroke="black" points="703.17,-103.37 713.17,-99.87 703.17,-96.37 703.17,-103.37"/>
<text text-anchor="middle" x="685.45" y="-106.67" font-family="Helvetica,sans-Serif" font-size="14.00">Finish</text>
</g>
<!-- b8c0a2d5&#45;eea5&#45;42ac&#45;94bf&#45;496119a6c092 -->
<g id="node8" class="node">
<title>b8c0a2d5&#45;eea5&#45;42ac&#45;94bf&#45;496119a6c092</title>
<polygon fill="white" stroke="black" points="763.5,-36 527.5,-36 527.5,0 763.5,0 763.5,-36"/>
<text text-anchor="middle" x="645.5" y="-14.3" font-family="Helvetica,sans-Serif" font-size="14.00">▶ Ran sandbox for `src/api.py`.</text>
</g>
<!-- 2d5b39d3&#45;5a51&#45;44ea&#45;9a55&#45;5bde4f1d36cc&#45;&gt;b8c0a2d5&#45;eea5&#45;42ac&#45;94bf&#45;496119a6c092 -->
<g id="edge5" class="edge">
<title>2d5b39d3&#45;5a51&#45;44ea&#45;9a55&#45;5bde4f1d36cc&#45;&gt;b8c0a2d5&#45;eea5&#45;42ac&#45;94bf&#45;496119a6c092</title>
<path fill="none" stroke="black" stroke-dasharray="5,2" d="M612.69,-73.6C618.09,-64.6 624.19,-54.46 629.65,-45.37"/>
<polygon fill="black" stroke="black" points="633.11,-47.41 635.26,-37.04 627.11,-43.8 633.11,-47.41"/>
</g>
</g>
</svg>
