<?xml version="1.0" encoding="UTF-8" standalone="no"?>
<!DOCTYPE svg PUBLIC "-//W3C//DTD SVG 1.1//EN"
 "http://www.w3.org/Graphics/SVG/1.1/DTD/svg11.dtd">
<!-- Generated by graphviz version 8.0.3 (0)
 -->
<!-- Pages: 1 -->
<svg width="850pt" height="238pt"
 viewBox="0.00 0.00 849.50 237.74" xmlns="http://www.w3.org/2000/svg" xmlns:xlink="http://www.w3.org/1999/xlink">
<g id="graph0" class="graph" transform="scale(1 1) rotate(0) translate(36 201.74)">
<polygon fill="dimgray" stroke="none" points="-36,36 -36,-201.74 813.5,-201.74 813.5,36 -36,36"/>
<text text-anchor="middle" x="388.75" y="-150.54" font-family="Helvetica,sans-Serif" font-size="14.00">Sweep&#39;s Plan &amp; Progress</text>
<!-- start -->
<g id="node1" class="node">
<title>start</title>
</g>
<!-- 26585cb2&#45;c43e&#45;4576&#45;8d78&#45;578a5ed14234 -->
<g id="node3" class="node">
<title>26585cb2&#45;c43e&#45;4576&#45;8d78&#45;578a5ed14234</title>
<ellipse fill="#0ee832" stroke="black" cx="173.5" cy="-99.87" rx="69.09" ry="26.74"/>
<text text-anchor="middle" x="173.5" y="-103.67" font-family="Helvetica,sans-Serif" font-size="14.00">✓ Modify</text>
<text text-anchor="middle" x="173.5" y="-88.67" font-family="Helvetica,sans-Serif" font-size="14.00">src/main.py</text>
</g>
<!-- start&#45;&gt;26585cb2&#45;c43e&#45;4576&#45;8d78&#45;578a5ed14234 -->
<g id="edge6" class="edge">
<title>start&#45;&gt;26585cb2&#45;c43e&#45;4576&#45;8d78&#45;578a5ed14234</title>
<path fill="none" stroke="black" d="M52.85,-99.87C55.48,-99.87 72.76,-99.87 93.46,-99.87"/>
<polygon fill="black" stroke="black" points="93.19,-103.37 103.19,-99.87 93.19,-96.37 93.19,-103.37"/>
<text text-anchor="middle" x="78.6" y="-106.67" font-family="Helvetica,sans-Serif" font-size="14.00">Start</text>
</g>
<!-- end -->
<g id="node2" class="node">
<title>end</title>
</g>
<!-- 2d25dc7b&#45;cb68&#45;44b7&#45;aa54&#45;b478e9472fbc -->
<g id="node4" class="node">
<title>2d25dc7b&#45;cb68&#45;44b7&#45;aa54&#45;b478e9472fbc</title>
<ellipse fill="#ee0000" stroke="black" cx="396.5" cy="-99.87" rx="69.09" ry="26.74"/>
<text text-anchor="middle" x="396.5" y="-103.67" font-family="Helvetica,sans-Serif" font-size="14.00">✗ Modify</text>
<text text-anchor="middle" x="396.5" y="-88.67" font-family="Helvetica,sans-Serif" font-size="14.00">src/main.py</text>
</g>
<!-- 26585cb2&#45;c43e&#45;4576&#45;8d78&#45;578a5ed14234&#45;&gt;2d25dc7b&#45;cb68&#45;44b7&#45;aa54&#45;b478e9472fbc -->
<g id="edge2" class="edge">
<title>26585cb2&#45;c43e&#45;4576&#45;8d78&#45;578a5ed14234&#45;&gt;2d25dc7b&#45;cb68&#45;44b7&#45;aa54&#45;b478e9472fbc</title>
<path fill="none" stroke="black" d="M242.75,-99.87C267.25,-99.87 291.75,-99.87 316.26,-99.87"/>
<polygon fill="black" stroke="black" points="316.13,-103.37 326.13,-99.87 316.13,-96.37 316.13,-103.37"/>
</g>
<!-- 45ae481b&#45;7462&#45;4a05&#45;bcca&#45;57c480289028 -->
<g id="node6" class="node">
<title>45ae481b&#45;7462&#45;4a05&#45;bcca&#45;57c480289028</title>
<polygon fill="#0ee832" stroke="black" points="251,-36 0,-36 0,0 251,0 251,-36"/>
<text text-anchor="middle" x="125.5" y="-14.3" font-family="Helvetica,sans-Serif" font-size="14.00">✓ Ran sandbox for `src/main.py`.</text>
</g>
<!-- 26585cb2&#45;c43e&#45;4576&#45;8d78&#45;578a5ed14234&#45;&gt;45ae481b&#45;7462&#45;4a05&#45;bcca&#45;57c480289028 -->
<g id="edge1" class="edge">
<title>26585cb2&#45;c43e&#45;4576&#45;8d78&#45;578a5ed14234&#45;&gt;45ae481b&#45;7462&#45;4a05&#45;bcca&#45;57c480289028</title>
<path fill="none" stroke="black" stroke-dasharray="5,2" d="M158.31,-73.6C152.91,-64.6 146.81,-54.46 141.35,-45.37"/>
<polygon fill="black" stroke="black" points="143.89,-43.8 135.74,-37.04 137.89,-47.41 143.89,-43.8"/>
</g>
<!-- dd4675f0&#45;8c61&#45;4ca3&#45;9912&#45;d5a1b4b2c43f -->
<g id="node5" class="node">
<title>dd4675f0&#45;8c61&#45;4ca3&#45;9912&#45;d5a1b4b2c43f</title>
<ellipse fill="white" stroke="black" cx="610.5" cy="-99.87" rx="59.29" ry="26.74"/>
<text text-anchor="middle" x="610.5" y="-103.67" font-family="Helvetica,sans-Serif" font-size="14.00">▶ Modify</text>
<text text-anchor="middle" x="610.5" y="-88.67" font-family="Helvetica,sans-Serif" font-size="14.00">src/api.py</text>
</g>
<!-- 2d25dc7b&#45;cb68&#45;44b7&#45;aa54&#45;b478e9472fbc&#45;&gt;dd4675f0&#45;8c61&#45;4ca3&#45;9912&#45;d5a1b4b2c43f -->
<g id="edge4" class="edge">
<title>2d25dc7b&#45;cb68&#45;44b7&#45;aa54&#45;b478e9472fbc&#45;&gt;dd4675f0&#45;8c61&#45;4ca3&#45;9912&#45;d5a1b4b2c43f</title>
<path fill="none" stroke="black" d="M465.88,-99.87C490.57,-99.87 515.26,-99.87 539.94,-99.87"/>
<polygon fill="black" stroke="black" points="539.9,-103.37 549.9,-99.87 539.9,-96.37 539.9,-103.37"/>
</g>
<!-- 4e46626d&#45;512b&#45;460a&#45;84df&#45;221b87ef6e02 -->
<g id="node7" class="node">
<title>4e46626d&#45;512b&#45;460a&#45;84df&#45;221b87ef6e02</title>
<polygon fill="yellow" stroke="black" points="523.5,-36 269.5,-36 269.5,0 523.5,0 523.5,-36"/>
<text text-anchor="middle" x="396.5" y="-14.3" font-family="Helvetica,sans-Serif" font-size="14.00">⋯ Ran sandbox for `src/main.py`.</text>
</g>
<!-- 2d25dc7b&#45;cb68&#45;44b7&#45;aa54&#45;b478e9472fbc&#45;&gt;4e46626d&#45;512b&#45;460a&#45;84df&#45;221b87ef6e02 -->
<g id="edge3" class="edge">
<title>2d25dc7b&#45;cb68&#45;44b7&#45;aa54&#45;b478e9472fbc&#45;&gt;4e46626d&#45;512b&#45;460a&#45;84df&#45;221b87ef6e02</title>
<path fill="none" stroke="black" stroke-dasharray="5,2" d="M396.5,-72.72C396.5,-64.46 396.5,-55.31 396.5,-46.93"/>
<polygon fill="black" stroke="black" points="400,-47.15 396.5,-37.15 393,-47.15 400,-47.15"/>
</g>
<!-- dd4675f0&#45;8c61&#45;4ca3&#45;9912&#45;d5a1b4b2c43f&#45;&gt;end -->
<g id="edge7" class="edge">
<title>dd4675f0&#45;8c61&#45;4ca3&#45;9912&#45;d5a1b4b2c43f&#45;&gt;end</title>
<path fill="none" stroke="black" d="M670.03,-99.87C687.81,-99.87 705.47,-99.87 716.42,-99.87"/>
<polygon fill="black" stroke="black" points="716.17,-103.37 726.17,-99.87 716.17,-96.37 716.17,-103.37"/>
<text text-anchor="middle" x="698.45" y="-106.67" font-family="Helvetica,sans-Serif" font-size="14.00">Finish</text>
</g>
<!-- 75ba9e0e&#45;ba19&#45;4bbb&#45;b233&#45;3a098b70664c -->
<g id="node8" class="node">
<title>75ba9e0e&#45;ba19&#45;4bbb&#45;b233&#45;3a098b70664c</title>
<polygon fill="white" stroke="black" points="777.5,-36 541.5,-36 541.5,0 777.5,0 777.5,-36"/>
<text text-anchor="middle" x="659.5" y="-14.3" font-family="Helvetica,sans-Serif" font-size="14.00">▶ Ran sandbox for `src/api.py`.</text>
</g>
<!-- dd4675f0&#45;8c61&#45;4ca3&#45;9912&#45;d5a1b4b2c43f&#45;&gt;75ba9e0e&#45;ba19&#45;4bbb&#45;b233&#45;3a098b70664c -->
<g id="edge5" class="edge">
<title>dd4675f0&#45;8c61&#45;4ca3&#45;9912&#45;d5a1b4b2c43f&#45;&gt;75ba9e0e&#45;ba19&#45;4bbb&#45;b233&#45;3a098b70664c</title>
<path fill="none" stroke="black" stroke-dasharray="5,2" d="M626,-73.6C631.52,-64.6 637.75,-54.46 643.32,-45.37"/>
<polygon fill="black" stroke="black" points="646.8,-47.39 649.05,-37.04 640.84,-43.73 646.8,-47.39"/>
</g>
</g>
</svg>
