<?xml version="1.0" encoding="UTF-8" standalone="no"?>
<!DOCTYPE svg PUBLIC "-//W3C//DTD SVG 1.1//EN"
 "http://www.w3.org/Graphics/SVG/1.1/DTD/svg11.dtd">
<!-- Generated by graphviz version 8.0.3 (0)
 -->
<!-- Pages: 1 -->
<svg width="730pt" height="215pt"
 viewBox="0.00 0.00 729.50 214.74" xmlns="http://www.w3.org/2000/svg" xmlns:xlink="http://www.w3.org/1999/xlink">
<g id="graph0" class="graph" transform="scale(1 1) rotate(0) translate(36 178.74)">
<polygon fill="white" stroke="none" points="-36,36 -36,-178.74 693.5,-178.74 693.5,36 -36,36"/>
<!-- start -->
<g id="node1" class="node">
<title>start</title>
</g>
<!-- 7a9e7495&#45;862e&#45;462d&#45;8905&#45;a56984bc32f9 -->
<g id="node2" class="node">
<title>7a9e7495&#45;862e&#45;462d&#45;8905&#45;a56984bc32f9</title>
<ellipse fill="white" stroke="black" cx="119.5" cy="-115.87" rx="63.78" ry="26.74"/>
<text text-anchor="middle" x="119.5" y="-119.67" font-family="Times,serif" font-size="14.00">▶ Create</text>
<text text-anchor="middle" x="119.5" y="-104.67" font-family="Times,serif" font-size="14.00">src/cnn.py</text>
</g>
<!-- start&#45;&gt;7a9e7495&#45;862e&#45;462d&#45;8905&#45;a56984bc32f9 -->
<g id="edge6" class="edge">
<title>start&#45;&gt;7a9e7495&#45;862e&#45;462d&#45;8905&#45;a56984bc32f9</title>
<path fill="none" stroke="black" d="M0.84,-115.87C3.58,-115.87 22.48,-115.87 44.41,-115.87"/>
<polygon fill="black" stroke="black" points="44.36,-119.37 54.36,-115.87 44.36,-112.37 44.36,-119.37"/>
<text text-anchor="middle" x="28.43" y="-122.67" font-family="Times,serif" font-size="14.00">Start</text>
</g>
<!-- d6c1ba26&#45;3e14&#45;4ba9&#45;9fb1&#45;0383ca2d12f5 -->
<g id="node3" class="node">
<title>d6c1ba26&#45;3e14&#45;4ba9&#45;9fb1&#45;0383ca2d12f5</title>
<ellipse fill="white" stroke="black" cx="336.5" cy="-115.87" rx="70.92" ry="26.74"/>
<text text-anchor="middle" x="336.5" y="-119.67" font-family="Times,serif" font-size="14.00">▶ Modify</text>
<text text-anchor="middle" x="336.5" y="-104.67" font-family="Times,serif" font-size="14.00">src/main.py</text>
</g>
<!-- 7a9e7495&#45;862e&#45;462d&#45;8905&#45;a56984bc32f9&#45;&gt;d6c1ba26&#45;3e14&#45;4ba9&#45;9fb1&#45;0383ca2d12f5 -->
<g id="edge2" class="edge">
<title>7a9e7495&#45;862e&#45;462d&#45;8905&#45;a56984bc32f9&#45;&gt;d6c1ba26&#45;3e14&#45;4ba9&#45;9fb1&#45;0383ca2d12f5</title>
<path fill="none" stroke="black" d="M183.73,-115.87C205.84,-115.87 230.92,-115.87 254.28,-115.87"/>
<polygon fill="black" stroke="black" points="254.22,-119.37 264.22,-115.87 254.22,-112.37 254.22,-119.37"/>
<text text-anchor="middle" x="224.46" y="-122.67" font-family="Times,serif" font-size="14.00">Continue</text>
</g>
<!-- 45ebdc98&#45;a141&#45;4a5b&#45;a221&#45;d57b1a9d6983 -->
<g id="node6" class="node">
<title>45ebdc98&#45;a141&#45;4a5b&#45;a221&#45;d57b1a9d6983</title>
<polygon fill="white" stroke="black" points="164.5,-38 74.5,-38 74.5,0 164.5,0 164.5,-38"/>
<text text-anchor="middle" x="119.5" y="-22.8" font-family="Times,serif" font-size="14.00">▶ Check</text>
<text text-anchor="middle" x="119.5" y="-7.8" font-family="Times,serif" font-size="14.00">src/cnn.py</text>
</g>
<!-- 7a9e7495&#45;862e&#45;462d&#45;8905&#45;a56984bc32f9&#45;&gt;45ebdc98&#45;a141&#45;4a5b&#45;a221&#45;d57b1a9d6983 -->
<g id="edge1" class="edge">
<title>7a9e7495&#45;862e&#45;462d&#45;8905&#45;a56984bc32f9&#45;&gt;45ebdc98&#45;a141&#45;4a5b&#45;a221&#45;d57b1a9d6983</title>
<path fill="none" stroke="black" stroke-dasharray="5,2" d="M119.5,-88.7C119.5,-76.43 119.5,-61.78 119.5,-49.17"/>
<polygon fill="black" stroke="black" points="123,-49.28 119.5,-39.28 116,-49.28 123,-49.28"/>
<text text-anchor="middle" x="173" y="-59.8" font-family="Times,serif" font-size="14.00">Check changes</text>
</g>
<!-- ce25d42b&#45;abf9&#45;472a&#45;a152&#45;7cd87b5c7b67 -->
<g id="node4" class="node">
<title>ce25d42b&#45;abf9&#45;472a&#45;a152&#45;7cd87b5c7b67</title>
<ellipse fill="white" stroke="black" cx="550.5" cy="-115.87" rx="60.62" ry="26.74"/>
<text text-anchor="middle" x="550.5" y="-119.67" font-family="Times,serif" font-size="14.00">▶ Modify</text>
<text text-anchor="middle" x="550.5" y="-104.67" font-family="Times,serif" font-size="14.00">src/api.py</text>
</g>
<!-- d6c1ba26&#45;3e14&#45;4ba9&#45;9fb1&#45;0383ca2d12f5&#45;&gt;ce25d42b&#45;abf9&#45;472a&#45;a152&#45;7cd87b5c7b67 -->
<g id="edge4" class="edge">
<title>d6c1ba26&#45;3e14&#45;4ba9&#45;9fb1&#45;0383ca2d12f5&#45;&gt;ce25d42b&#45;abf9&#45;472a&#45;a152&#45;7cd87b5c7b67</title>
<path fill="none" stroke="black" d="M407.76,-115.87C430.54,-115.87 455.76,-115.87 478.58,-115.87"/>
<polygon fill="black" stroke="black" points="478.57,-119.37 488.57,-115.87 478.57,-112.37 478.57,-119.37"/>
<text text-anchor="middle" x="448.45" y="-122.67" font-family="Times,serif" font-size="14.00">Continue</text>
</g>
<!-- 53d6762a&#45;6365&#45;4410&#45;ac3d&#45;fe1b8567aa95 -->
<g id="node7" class="node">
<title>53d6762a&#45;6365&#45;4410&#45;ac3d&#45;fe1b8567aa95</title>
<polygon fill="white" stroke="black" points="386.5,-38 286.5,-38 286.5,0 386.5,0 386.5,-38"/>
<text text-anchor="middle" x="336.5" y="-22.8" font-family="Times,serif" font-size="14.00">▶ Check</text>
<text text-anchor="middle" x="336.5" y="-7.8" font-family="Times,serif" font-size="14.00">src/main.py</text>
</g>
<!-- d6c1ba26&#45;3e14&#45;4ba9&#45;9fb1&#45;0383ca2d12f5&#45;&gt;53d6762a&#45;6365&#45;4410&#45;ac3d&#45;fe1b8567aa95 -->
<g id="edge3" class="edge">
<title>d6c1ba26&#45;3e14&#45;4ba9&#45;9fb1&#45;0383ca2d12f5&#45;&gt;53d6762a&#45;6365&#45;4410&#45;ac3d&#45;fe1b8567aa95</title>
<path fill="none" stroke="black" stroke-dasharray="5,2" d="M336.5,-88.7C336.5,-76.43 336.5,-61.78 336.5,-49.17"/>
<polygon fill="black" stroke="black" points="340,-49.28 336.5,-39.28 333,-49.28 340,-49.28"/>
<text text-anchor="middle" x="390" y="-59.8" font-family="Times,serif" font-size="14.00">Check changes</text>
</g>
<!-- 9f07f935&#45;e7d1&#45;4485&#45;848d&#45;06ce7ab1ec58 -->
<g id="node8" class="node">
<title>9f07f935&#45;e7d1&#45;4485&#45;848d&#45;06ce7ab1ec58</title>
<polygon fill="white" stroke="black" points="593.5,-38 507.5,-38 507.5,0 593.5,0 593.5,-38"/>
<text text-anchor="middle" x="550.5" y="-22.8" font-family="Times,serif" font-size="14.00">▶ Check</text>
<text text-anchor="middle" x="550.5" y="-7.8" font-family="Times,serif" font-size="14.00">src/api.py</text>
</g>
<!-- ce25d42b&#45;abf9&#45;472a&#45;a152&#45;7cd87b5c7b67&#45;&gt;9f07f935&#45;e7d1&#45;4485&#45;848d&#45;06ce7ab1ec58 -->
<g id="edge5" class="edge">
<title>ce25d42b&#45;abf9&#45;472a&#45;a152&#45;7cd87b5c7b67&#45;&gt;9f07f935&#45;e7d1&#45;4485&#45;848d&#45;06ce7ab1ec58</title>
<path fill="none" stroke="black" stroke-dasharray="5,2" d="M550.5,-88.7C550.5,-76.43 550.5,-61.78 550.5,-49.17"/>
<polygon fill="black" stroke="black" points="554,-49.28 550.5,-39.28 547,-49.28 554,-49.28"/>
<text text-anchor="middle" x="604" y="-59.8" font-family="Times,serif" font-size="14.00">Check changes</text>
</g>
<!-- end -->
<g id="node5" class="node">
<title>end</title>
</g>
<!-- 9f07f935&#45;e7d1&#45;4485&#45;848d&#45;06ce7ab1ec58&#45;&gt;end -->
<g id="edge7" class="edge">
<title>9f07f935&#45;e7d1&#45;4485&#45;848d&#45;06ce7ab1ec58&#45;&gt;end</title>
<path fill="none" stroke="black" d="M593.92,-19C612.57,-19 632.86,-19 645.13,-19"/>
<polygon fill="black" stroke="black" points="645.12,-22.5 655.12,-19 645.12,-15.5 645.12,-22.5"/>
<text text-anchor="middle" x="624.75" y="-25.8" font-family="Times,serif" font-size="14.00">Finish</text>
</g>
</g>
</svg>
