<?xml version="1.0" encoding="UTF-8" standalone="no"?>
<!DOCTYPE svg PUBLIC "-//W3C//DTD SVG 1.1//EN"
 "http://www.w3.org/Graphics/SVG/1.1/DTD/svg11.dtd">
<!-- Generated by graphviz version 8.0.3 (0)
 -->
<!-- Pages: 1 -->
<svg width="649pt" height="165pt"
 viewBox="0.00 0.00 649.00 164.74" xmlns="http://www.w3.org/2000/svg" xmlns:xlink="http://www.w3.org/1999/xlink">
<g id="graph0" class="graph" transform="scale(1 1) rotate(0) translate(36 128.74)">
<polygon fill="dimgray" stroke="none" points="-36,36 -36,-128.74 613,-128.74 613,36 -36,36"/>
<text text-anchor="middle" x="288.5" y="-77.54" font-family="Helvetica,sans-Serif" font-size="14.00">Sweep&#39;s Plan &amp; Progress</text>
<!-- start -->
<g id="node1" class="node">
<title>start</title>
</g>
<!-- 17074dcd&#45;a148&#45;40ad&#45;b623&#45;a0298d018b0b -->
<g id="node3" class="node">
<title>17074dcd&#45;a148&#45;40ad&#45;b623&#45;a0298d018b0b</title>
<ellipse fill="yellow" stroke="black" cx="121.5" cy="-26.87" rx="69.09" ry="26.74"/>
<text text-anchor="middle" x="121.5" y="-30.67" font-family="Helvetica,sans-Serif" font-size="14.00">⋯ Modify</text>
<text text-anchor="middle" x="121.5" y="-15.67" font-family="Helvetica,sans-Serif" font-size="14.00">src/main.py</text>
</g>
<!-- start&#45;&gt;17074dcd&#45;a148&#45;40ad&#45;b623&#45;a0298d018b0b -->
<g id="edge3" class="edge">
<title>start&#45;&gt;17074dcd&#45;a148&#45;40ad&#45;b623&#45;a0298d018b0b</title>
<path fill="none" stroke="black" d="M0.85,-26.87C3.48,-26.87 20.76,-26.87 41.46,-26.87"/>
<polygon fill="black" stroke="black" points="41.19,-30.37 51.19,-26.87 41.19,-23.37 41.19,-30.37"/>
<text text-anchor="middle" x="26.6" y="-33.67" font-family="Helvetica,sans-Serif" font-size="14.00">Start</text>
</g>
<!-- end -->
<g id="node2" class="node">
<title>end</title>
</g>
<!-- fd3b65bb&#45;adfa&#45;4468&#45;b14e&#45;19b969cdda6e -->
<g id="node4" class="node">
<title>fd3b65bb&#45;adfa&#45;4468&#45;b14e&#45;19b969cdda6e</title>
<ellipse fill="white" stroke="black" cx="295.5" cy="-26.87" rx="69.09" ry="26.74"/>
<text text-anchor="middle" x="295.5" y="-30.67" font-family="Helvetica,sans-Serif" font-size="14.00">▶ Modify</text>
<text text-anchor="middle" x="295.5" y="-15.67" font-family="Helvetica,sans-Serif" font-size="14.00">src/main.py</text>
</g>
<!-- 17074dcd&#45;a148&#45;40ad&#45;b623&#45;a0298d018b0b&#45;&gt;fd3b65bb&#45;adfa&#45;4468&#45;b14e&#45;19b969cdda6e -->
<g id="edge1" class="edge">
<title>17074dcd&#45;a148&#45;40ad&#45;b623&#45;a0298d018b0b&#45;&gt;fd3b65bb&#45;adfa&#45;4468&#45;b14e&#45;19b969cdda6e</title>
<path fill="none" stroke="black" d="M190.83,-26.87C198.89,-26.87 206.94,-26.87 215,-26.87"/>
<polygon fill="black" stroke="black" points="214.99,-30.37 224.99,-26.87 214.99,-23.37 214.99,-30.37"/>
</g>
<!-- ece21d7e&#45;9403&#45;41e6&#45;af89&#45;fda00f43d9f0 -->
<g id="node5" class="node">
<title>ece21d7e&#45;9403&#45;41e6&#45;af89&#45;fda00f43d9f0</title>
<ellipse fill="white" stroke="black" cx="459.5" cy="-26.87" rx="59.29" ry="26.74"/>
<text text-anchor="middle" x="459.5" y="-30.67" font-family="Helvetica,sans-Serif" font-size="14.00">▶ Modify</text>
<text text-anchor="middle" x="459.5" y="-15.67" font-family="Helvetica,sans-Serif" font-size="14.00">src/api.py</text>
</g>
<!-- fd3b65bb&#45;adfa&#45;4468&#45;b14e&#45;19b969cdda6e&#45;&gt;ece21d7e&#45;9403&#45;41e6&#45;af89&#45;fda00f43d9f0 -->
<g id="edge2" class="edge">
<title>fd3b65bb&#45;adfa&#45;4468&#45;b14e&#45;19b969cdda6e&#45;&gt;ece21d7e&#45;9403&#45;41e6&#45;af89&#45;fda00f43d9f0</title>
<path fill="none" stroke="black" d="M365.01,-26.87C373.04,-26.87 381.08,-26.87 389.12,-26.87"/>
<polygon fill="black" stroke="black" points="389.07,-30.37 399.07,-26.87 389.07,-23.37 389.07,-30.37"/>
</g>
<!-- ece21d7e&#45;9403&#45;41e6&#45;af89&#45;fda00f43d9f0&#45;&gt;end -->
<g id="edge4" class="edge">
<title>ece21d7e&#45;9403&#45;41e6&#45;af89&#45;fda00f43d9f0&#45;&gt;end</title>
<path fill="none" stroke="black" d="M519.03,-26.87C536.81,-26.87 554.47,-26.87 565.42,-26.87"/>
<polygon fill="black" stroke="black" points="565.17,-30.37 575.17,-26.87 565.17,-23.37 565.17,-30.37"/>
<text text-anchor="middle" x="547.45" y="-33.67" font-family="Helvetica,sans-Serif" font-size="14.00">Finish</text>
</g>
</g>
</svg>
