<?xml version="1.0" encoding="UTF-8" standalone="no"?>
<!DOCTYPE svg PUBLIC "-//W3C//DTD SVG 1.1//EN"
 "http://www.w3.org/Graphics/SVG/1.1/DTD/svg11.dtd">
<!-- Generated by graphviz version 8.0.3 (0)
 -->
<!-- Pages: 1 -->
<svg width="836pt" height="238pt"
 viewBox="0.00 0.00 835.50 237.74" xmlns="http://www.w3.org/2000/svg" xmlns:xlink="http://www.w3.org/1999/xlink">
<g id="graph0" class="graph" transform="scale(1 1) rotate(0) translate(36 201.74)">
<polygon fill="dimgray" stroke="none" points="-36,36 -36,-201.74 799.5,-201.74 799.5,36 -36,36"/>
<text text-anchor="middle" x="381.75" y="-150.54" font-family="Helvetica,sans-Serif" font-size="14.00">Sweep&#39;s Plan &amp; Progress</text>
<!-- start -->
<g id="node1" class="node">
<title>start</title>
</g>
<!-- f1a21787&#45;2993&#45;47c3&#45;86bc&#45;a9a707d39706 -->
<g id="node3" class="node">
<title>f1a21787&#45;2993&#45;47c3&#45;86bc&#45;a9a707d39706</title>
<ellipse fill="yellow" stroke="black" cx="168.5" cy="-99.87" rx="62.87" ry="26.74"/>
<text text-anchor="middle" x="168.5" y="-103.67" font-family="Helvetica,sans-Serif" font-size="14.00">⋯ Create</text>
<text text-anchor="middle" x="168.5" y="-88.67" font-family="Helvetica,sans-Serif" font-size="14.00">src/cnn.py</text>
</g>
<!-- start&#45;&gt;f1a21787&#45;2993&#45;47c3&#45;86bc&#45;a9a707d39706 -->
<g id="edge6" class="edge">
<title>start&#45;&gt;f1a21787&#45;2993&#45;47c3&#45;86bc&#45;a9a707d39706</title>
<path fill="none" stroke="black" d="M53.83,-99.87C56.41,-99.87 73.8,-99.87 94.28,-99.87"/>
<polygon fill="black" stroke="black" points="94.22,-103.37 104.22,-99.87 94.22,-96.37 94.22,-103.37"/>
<text text-anchor="middle" x="79.78" y="-106.67" font-family="Helvetica,sans-Serif" font-size="14.00">Start</text>
</g>
<!-- end -->
<g id="node2" class="node">
<title>end</title>
</g>
<!-- 2cc7a03e&#45;cc87&#45;4b98&#45;92fe&#45;94044336046b -->
<g id="node4" class="node">
<title>2cc7a03e&#45;cc87&#45;4b98&#45;92fe&#45;94044336046b</title>
<ellipse fill="white" stroke="black" cx="384.5" cy="-99.87" rx="69.09" ry="26.74"/>
<text text-anchor="middle" x="384.5" y="-103.67" font-family="Helvetica,sans-Serif" font-size="14.00">▶ Modify</text>
<text text-anchor="middle" x="384.5" y="-88.67" font-family="Helvetica,sans-Serif" font-size="14.00">src/main.py</text>
</g>
<!-- f1a21787&#45;2993&#45;47c3&#45;86bc&#45;a9a707d39706&#45;&gt;2cc7a03e&#45;cc87&#45;4b98&#45;92fe&#45;94044336046b -->
<g id="edge2" class="edge">
<title>f1a21787&#45;2993&#45;47c3&#45;86bc&#45;a9a707d39706&#45;&gt;2cc7a03e&#45;cc87&#45;4b98&#45;92fe&#45;94044336046b</title>
<path fill="none" stroke="black" d="M231.78,-99.87C255.95,-99.87 280.11,-99.87 304.27,-99.87"/>
<polygon fill="black" stroke="black" points="304,-103.37 314,-99.87 304,-96.37 304,-103.37"/>
</g>
<!-- cde3de92&#45;552c&#45;4d35&#45;9dc8&#45;e481f777e447 -->
<g id="node6" class="node">
<title>cde3de92&#45;552c&#45;4d35&#45;9dc8&#45;e481f777e447</title>
<polygon fill="white" stroke="black" points="241,-36 0,-36 0,0 241,0 241,-36"/>
<text text-anchor="middle" x="120.5" y="-14.3" font-family="Helvetica,sans-Serif" font-size="14.00">▶ Ran sandbox for `src/cnn.py`.</text>
</g>
<!-- f1a21787&#45;2993&#45;47c3&#45;86bc&#45;a9a707d39706&#45;&gt;cde3de92&#45;552c&#45;4d35&#45;9dc8&#45;e481f777e447 -->
<g id="edge1" class="edge">
<title>f1a21787&#45;2993&#45;47c3&#45;86bc&#45;a9a707d39706&#45;&gt;cde3de92&#45;552c&#45;4d35&#45;9dc8&#45;e481f777e447</title>
<path fill="none" stroke="black" stroke-dasharray="5,2" d="M153.31,-73.6C147.91,-64.6 141.81,-54.46 136.35,-45.37"/>
<polygon fill="black" stroke="black" points="138.89,-43.8 130.74,-37.04 132.89,-47.41 138.89,-43.8"/>
</g>
<!-- f8511595&#45;6d78&#45;434e&#45;9c4b&#45;62f96c668844 -->
<g id="node5" class="node">
<title>f8511595&#45;6d78&#45;434e&#45;9c4b&#45;62f96c668844</title>
<ellipse fill="white" stroke="black" cx="597.5" cy="-99.87" rx="59.29" ry="26.74"/>
<text text-anchor="middle" x="597.5" y="-103.67" font-family="Helvetica,sans-Serif" font-size="14.00">▶ Modify</text>
<text text-anchor="middle" x="597.5" y="-88.67" font-family="Helvetica,sans-Serif" font-size="14.00">src/api.py</text>
</g>
<!-- 2cc7a03e&#45;cc87&#45;4b98&#45;92fe&#45;94044336046b&#45;&gt;f8511595&#45;6d78&#45;434e&#45;9c4b&#45;62f96c668844 -->
<g id="edge4" class="edge">
<title>2cc7a03e&#45;cc87&#45;4b98&#45;92fe&#45;94044336046b&#45;&gt;f8511595&#45;6d78&#45;434e&#45;9c4b&#45;62f96c668844</title>
<path fill="none" stroke="black" d="M453.97,-99.87C478.31,-99.87 502.65,-99.87 526.99,-99.87"/>
<polygon fill="black" stroke="black" points="526.79,-103.37 536.79,-99.87 526.79,-96.37 526.79,-103.37"/>
</g>
<!-- 49dd42b7&#45;1a2a&#45;4d71&#45;b2ed&#45;56bca1c2e91a -->
<g id="node7" class="node">
<title>49dd42b7&#45;1a2a&#45;4d71&#45;b2ed&#45;56bca1c2e91a</title>
<polygon fill="white" stroke="black" points="509.5,-36 259.5,-36 259.5,0 509.5,0 509.5,-36"/>
<text text-anchor="middle" x="384.5" y="-14.3" font-family="Helvetica,sans-Serif" font-size="14.00">▶ Ran sandbox for `src/main.py`.</text>
</g>
<!-- 2cc7a03e&#45;cc87&#45;4b98&#45;92fe&#45;94044336046b&#45;&gt;49dd42b7&#45;1a2a&#45;4d71&#45;b2ed&#45;56bca1c2e91a -->
<g id="edge3" class="edge">
<title>2cc7a03e&#45;cc87&#45;4b98&#45;92fe&#45;94044336046b&#45;&gt;49dd42b7&#45;1a2a&#45;4d71&#45;b2ed&#45;56bca1c2e91a</title>
<path fill="none" stroke="black" stroke-dasharray="5,2" d="M384.5,-72.72C384.5,-64.46 384.5,-55.31 384.5,-46.93"/>
<polygon fill="black" stroke="black" points="388,-47.15 384.5,-37.15 381,-47.15 388,-47.15"/>
</g>
<!-- f8511595&#45;6d78&#45;434e&#45;9c4b&#45;62f96c668844&#45;&gt;end -->
<g id="edge7" class="edge">
<title>f8511595&#45;6d78&#45;434e&#45;9c4b&#45;62f96c668844&#45;&gt;end</title>
<path fill="none" stroke="black" d="M657.03,-99.87C674.81,-99.87 692.47,-99.87 703.42,-99.87"/>
<polygon fill="black" stroke="black" points="703.17,-103.37 713.17,-99.87 703.17,-96.37 703.17,-103.37"/>
<text text-anchor="middle" x="685.45" y="-106.67" font-family="Helvetica,sans-Serif" font-size="14.00">Finish</text>
</g>
<!-- ae7362bb&#45;1f54&#45;40c7&#45;a947&#45;ae883e69fb84 -->
<g id="node8" class="node">
<title>ae7362bb&#45;1f54&#45;40c7&#45;a947&#45;ae883e69fb84</title>
<polygon fill="white" stroke="black" points="763.5,-36 527.5,-36 527.5,0 763.5,0 763.5,-36"/>
<text text-anchor="middle" x="645.5" y="-14.3" font-family="Helvetica,sans-Serif" font-size="14.00">▶ Ran sandbox for `src/api.py`.</text>
</g>
<!-- f8511595&#45;6d78&#45;434e&#45;9c4b&#45;62f96c668844&#45;&gt;ae7362bb&#45;1f54&#45;40c7&#45;a947&#45;ae883e69fb84 -->
<g id="edge5" class="edge">
<title>f8511595&#45;6d78&#45;434e&#45;9c4b&#45;62f96c668844&#45;&gt;ae7362bb&#45;1f54&#45;40c7&#45;a947&#45;ae883e69fb84</title>
<path fill="none" stroke="black" stroke-dasharray="5,2" d="M612.69,-73.6C618.09,-64.6 624.19,-54.46 629.65,-45.37"/>
<polygon fill="black" stroke="black" points="633.11,-47.41 635.26,-37.04 627.11,-43.8 633.11,-47.41"/>
</g>
</g>
</svg>
