<?xml version="1.0" encoding="UTF-8" standalone="no"?>
<!DOCTYPE svg PUBLIC "-//W3C//DTD SVG 1.1//EN"
 "http://www.w3.org/Graphics/SVG/1.1/DTD/svg11.dtd">
<!-- Generated by graphviz version 8.0.3 (0)
 -->
<!-- Pages: 1 -->
<svg width="656pt" height="599pt"
 viewBox="0.00 0.00 656.00 599.22" xmlns="http://www.w3.org/2000/svg" xmlns:xlink="http://www.w3.org/1999/xlink">
<g id="graph0" class="graph" transform="scale(1 1) rotate(0) translate(36 563.22)">
<polygon fill="white" stroke="none" points="-36,36 -36,-563.22 620,-563.22 620,36 -36,36"/>
<text text-anchor="middle" x="292" y="-512.02" font-family="Times,serif" font-size="14.00">Sweep&#39;s Plan &amp; Progress</text>
<!-- start -->
<g id="node1" class="node">
<title>start</title>
</g>
<!-- 07f88b5e&#45;1eac&#45;426f&#45;9655&#45;3dbf5cb1165b -->
<g id="node3" class="node">
<title>07f88b5e&#45;1eac&#45;426f&#45;9655&#45;3dbf5cb1165b</title>
<ellipse fill="green" stroke="black" cx="119.5" cy="-461.35" rx="63.78" ry="26.74"/>
<text text-anchor="middle" x="119.5" y="-465.15" font-family="Times,serif" font-size="14.00">✓ Create</text>
<text text-anchor="middle" x="119.5" y="-450.15" font-family="Times,serif" font-size="14.00">src/cnn.py</text>
</g>
<!-- start&#45;&gt;07f88b5e&#45;1eac&#45;426f&#45;9655&#45;3dbf5cb1165b -->
<g id="edge12" class="edge">
<title>start&#45;&gt;07f88b5e&#45;1eac&#45;426f&#45;9655&#45;3dbf5cb1165b</title>
<path fill="none" stroke="black" d="M0.84,-461.35C3.58,-461.35 22.48,-461.35 44.41,-461.35"/>
<polygon fill="black" stroke="black" points="44.36,-464.85 54.36,-461.35 44.36,-457.85 44.36,-464.85"/>
<text text-anchor="middle" x="28.43" y="-468.15" font-family="Times,serif" font-size="14.00">Start</text>
</g>
<!-- end -->
<g id="node2" class="node">
<title>end</title>
</g>
<!-- 9465a28a&#45;61c2&#45;4247&#45;958d&#45;4fc66b559dcf -->
<g id="node4" class="node">
<title>9465a28a&#45;61c2&#45;4247&#45;958d&#45;4fc66b559dcf</title>
<ellipse fill="green" stroke="black" cx="290.5" cy="-461.35" rx="70.92" ry="26.74"/>
<text text-anchor="middle" x="290.5" y="-465.15" font-family="Times,serif" font-size="14.00">✓ Modify</text>
<text text-anchor="middle" x="290.5" y="-450.15" font-family="Times,serif" font-size="14.00">src/main.py</text>
</g>
<!-- 07f88b5e&#45;1eac&#45;426f&#45;9655&#45;3dbf5cb1165b&#45;&gt;9465a28a&#45;61c2&#45;4247&#45;958d&#45;4fc66b559dcf -->
<g id="edge2" class="edge">
<title>07f88b5e&#45;1eac&#45;426f&#45;9655&#45;3dbf5cb1165b&#45;&gt;9465a28a&#45;61c2&#45;4247&#45;958d&#45;4fc66b559dcf</title>
<path fill="none" stroke="black" d="M183.62,-461.35C191.85,-461.35 200.07,-461.35 208.3,-461.35"/>
<polygon fill="black" stroke="black" points="208.11,-464.85 218.11,-461.35 208.11,-457.85 208.11,-464.85"/>
</g>
<!-- b41f68bf&#45;885f&#45;436b&#45;b2eb&#45;0ab0260489e5 -->
<g id="node6" class="node">
<title>b41f68bf&#45;885f&#45;436b&#45;b2eb&#45;0ab0260489e5</title>
<polygon fill="green" stroke="black" points="163.5,-397.48 73.5,-397.48 73.5,-359.48 163.5,-359.48 163.5,-397.48"/>
<text text-anchor="middle" x="118.5" y="-382.28" font-family="Times,serif" font-size="14.00">✓ Check</text>
<text text-anchor="middle" x="118.5" y="-367.28" font-family="Times,serif" font-size="14.00">src/cnn.py</text>
</g>
<!-- 07f88b5e&#45;1eac&#45;426f&#45;9655&#45;3dbf5cb1165b&#45;&gt;b41f68bf&#45;885f&#45;436b&#45;b2eb&#45;0ab0260489e5 -->
<g id="edge1" class="edge">
<title>07f88b5e&#45;1eac&#45;426f&#45;9655&#45;3dbf5cb1165b&#45;&gt;b41f68bf&#45;885f&#45;436b&#45;b2eb&#45;0ab0260489e5</title>
<path fill="none" stroke="black" stroke-dasharray="5,2" d="M119.18,-434.32C119.08,-426.06 118.96,-416.89 118.86,-408.44"/>
<polygon fill="black" stroke="black" points="122.35,-408.49 118.72,-398.53 115.35,-408.57 122.35,-408.49"/>
</g>
<!-- 910cb84c&#45;fee4&#45;42c3&#45;ba26&#45;0a307e6a428d -->
<g id="node5" class="node">
<title>910cb84c&#45;fee4&#45;42c3&#45;ba26&#45;0a307e6a428d</title>
<ellipse fill="white" stroke="black" cx="459.5" cy="-461.35" rx="60.62" ry="26.74"/>
<text text-anchor="middle" x="459.5" y="-465.15" font-family="Times,serif" font-size="14.00">▶ Modify</text>
<text text-anchor="middle" x="459.5" y="-450.15" font-family="Times,serif" font-size="14.00">src/api.py</text>
</g>
<!-- 9465a28a&#45;61c2&#45;4247&#45;958d&#45;4fc66b559dcf&#45;&gt;910cb84c&#45;fee4&#45;42c3&#45;ba26&#45;0a307e6a428d -->
<g id="edge10" class="edge">
<title>9465a28a&#45;61c2&#45;4247&#45;958d&#45;4fc66b559dcf&#45;&gt;910cb84c&#45;fee4&#45;42c3&#45;ba26&#45;0a307e6a428d</title>
<path fill="none" stroke="black" d="M361.8,-461.35C370.38,-461.35 378.97,-461.35 387.56,-461.35"/>
<polygon fill="black" stroke="black" points="387.44,-464.85 397.44,-461.35 387.44,-457.85 387.44,-464.85"/>
</g>
<!-- c794c0df&#45;30e3&#45;4607&#45;953b&#45;cd914c9e9539 -->
<g id="node7" class="node">
<title>c794c0df&#45;30e3&#45;4607&#45;953b&#45;cd914c9e9539</title>
<polygon fill="red" stroke="black" points="281.5,-397.48 181.5,-397.48 181.5,-359.48 281.5,-359.48 281.5,-397.48"/>
<text text-anchor="middle" x="231.5" y="-382.28" font-family="Times,serif" font-size="14.00">✗ Check</text>
<text text-anchor="middle" x="231.5" y="-367.28" font-family="Times,serif" font-size="14.00">src/main.py</text>
</g>
<!-- 9465a28a&#45;61c2&#45;4247&#45;958d&#45;4fc66b559dcf&#45;&gt;c794c0df&#45;30e3&#45;4607&#45;953b&#45;cd914c9e9539 -->
<g id="edge3" class="edge">
<title>9465a28a&#45;61c2&#45;4247&#45;958d&#45;4fc66b559dcf&#45;&gt;c794c0df&#45;30e3&#45;4607&#45;953b&#45;cd914c9e9539</title>
<path fill="none" stroke="black" stroke-dasharray="5,2" d="M272.16,-435.21C265.56,-426.16 258.09,-415.93 251.37,-406.72"/>
<polygon fill="black" stroke="black" points="253.68,-404.94 244.96,-398.93 248.03,-409.07 253.68,-404.94"/>
</g>
<!-- a2c254de&#45;4839&#45;43aa&#45;a574&#45;f90ab655817b -->
<g id="node8" class="node">
<title>a2c254de&#45;4839&#45;43aa&#45;a574&#45;f90ab655817b</title>
<polygon fill="white" stroke="black" points="399.5,-397.48 299.5,-397.48 299.5,-359.48 399.5,-359.48 399.5,-397.48"/>
<text text-anchor="middle" x="349.5" y="-382.28" font-family="Times,serif" font-size="14.00">▶ Check</text>
<text text-anchor="middle" x="349.5" y="-367.28" font-family="Times,serif" font-size="14.00">src/main.py</text>
</g>
<!-- 9465a28a&#45;61c2&#45;4247&#45;958d&#45;4fc66b559dcf&#45;&gt;a2c254de&#45;4839&#45;43aa&#45;a574&#45;f90ab655817b -->
<g id="edge9" class="edge">
<title>9465a28a&#45;61c2&#45;4247&#45;958d&#45;4fc66b559dcf&#45;&gt;a2c254de&#45;4839&#45;43aa&#45;a574&#45;f90ab655817b</title>
<path fill="none" stroke="black" stroke-dasharray="5,2" d="M308.84,-435.21C315.44,-426.16 322.91,-415.93 329.63,-406.72"/>
<polygon fill="black" stroke="black" points="332.97,-409.07 336.04,-398.93 327.32,-404.94 332.97,-409.07"/>
</g>
<!-- 910cb84c&#45;fee4&#45;42c3&#45;ba26&#45;0a307e6a428d&#45;&gt;end -->
<g id="edge13" class="edge">
<title>910cb84c&#45;fee4&#45;42c3&#45;ba26&#45;0a307e6a428d&#45;&gt;end</title>
<path fill="none" stroke="black" d="M520.41,-461.35C540.39,-461.35 560.53,-461.35 572.5,-461.35"/>
<polygon fill="black" stroke="black" points="572.14,-464.85 582.14,-461.35 572.14,-457.85 572.14,-464.85"/>
<text text-anchor="middle" x="551.66" y="-468.15" font-family="Times,serif" font-size="14.00">Finish</text>
</g>
<!-- bbb7b1c9&#45;5fb6&#45;4f67&#45;862c&#45;a01a37612357 -->
<g id="node9" class="node">
<title>bbb7b1c9&#45;5fb6&#45;4f67&#45;862c&#45;a01a37612357</title>
<polygon fill="white" stroke="black" points="503.5,-397.48 417.5,-397.48 417.5,-359.48 503.5,-359.48 503.5,-397.48"/>
<text text-anchor="middle" x="460.5" y="-382.28" font-family="Times,serif" font-size="14.00">▶ Check</text>
<text text-anchor="middle" x="460.5" y="-367.28" font-family="Times,serif" font-size="14.00">src/api.py</text>
</g>
<!-- 910cb84c&#45;fee4&#45;42c3&#45;ba26&#45;0a307e6a428d&#45;&gt;bbb7b1c9&#45;5fb6&#45;4f67&#45;862c&#45;a01a37612357 -->
<g id="edge11" class="edge">
<title>910cb84c&#45;fee4&#45;42c3&#45;ba26&#45;0a307e6a428d&#45;&gt;bbb7b1c9&#45;5fb6&#45;4f67&#45;862c&#45;a01a37612357</title>
<path fill="none" stroke="black" stroke-dasharray="5,2" d="M459.82,-434.32C459.92,-426.06 460.04,-416.89 460.14,-408.44"/>
<polygon fill="black" stroke="black" points="463.65,-408.57 460.28,-398.53 456.65,-408.49 463.65,-408.57"/>
</g>
<!-- 30101c21&#45;f334&#45;479f&#45;b9f0&#45;cf65e5ed85ba -->
<g id="node10" class="node">
<title>30101c21&#45;f334&#45;479f&#45;b9f0&#45;cf65e5ed85ba</title>
<ellipse fill="green" stroke="black" cx="231.5" cy="-281.61" rx="70.92" ry="26.74"/>
<text text-anchor="middle" x="231.5" y="-285.41" font-family="Times,serif" font-size="14.00">✓ Modify</text>
<text text-anchor="middle" x="231.5" y="-270.41" font-family="Times,serif" font-size="14.00">src/main.py</text>
</g>
<!-- c794c0df&#45;30e3&#45;4607&#45;953b&#45;cd914c9e9539&#45;&gt;30101c21&#45;f334&#45;479f&#45;b9f0&#45;cf65e5ed85ba -->
<g id="edge4" class="edge">
<title>c794c0df&#45;30e3&#45;4607&#45;953b&#45;cd914c9e9539&#45;&gt;30101c21&#45;f334&#45;479f&#45;b9f0&#45;cf65e5ed85ba</title>
<path fill="none" stroke="black" d="M231.5,-359.19C231.5,-348 231.5,-333.28 231.5,-319.73"/>
<polygon fill="black" stroke="black" points="235,-319.74 231.5,-309.74 228,-319.74 235,-319.74"/>
<text text-anchor="middle" x="332.5" y="-330.28" font-family="Times,serif" font-size="14.00">Additional changes required</text>
</g>
<!-- 0f223306&#45;4bff&#45;480e&#45;ae0a&#45;cd37297ba804 -->
<g id="node11" class="node">
<title>0f223306&#45;4bff&#45;480e&#45;ae0a&#45;cd37297ba804</title>
<polygon fill="red" stroke="black" points="222.5,-217.74 122.5,-217.74 122.5,-179.74 222.5,-179.74 222.5,-217.74"/>
<text text-anchor="middle" x="172.5" y="-202.54" font-family="Times,serif" font-size="14.00">✗ Check</text>
<text text-anchor="middle" x="172.5" y="-187.54" font-family="Times,serif" font-size="14.00">src/main.py</text>
</g>
<!-- 30101c21&#45;f334&#45;479f&#45;b9f0&#45;cf65e5ed85ba&#45;&gt;0f223306&#45;4bff&#45;480e&#45;ae0a&#45;cd37297ba804 -->
<g id="edge5" class="edge">
<title>30101c21&#45;f334&#45;479f&#45;b9f0&#45;cf65e5ed85ba&#45;&gt;0f223306&#45;4bff&#45;480e&#45;ae0a&#45;cd37297ba804</title>
<path fill="none" stroke="black" stroke-dasharray="5,2" d="M213.16,-255.47C206.56,-246.42 199.09,-236.19 192.37,-226.98"/>
<polygon fill="black" stroke="black" points="194.68,-225.2 185.96,-219.19 189.03,-229.33 194.68,-225.2"/>
</g>
<!-- a30d13d1&#45;3f27&#45;4933&#45;a02c&#45;ce8d9b59bc77 -->
<g id="node12" class="node">
<title>a30d13d1&#45;3f27&#45;4933&#45;a02c&#45;ce8d9b59bc77</title>
<polygon fill="yellow" stroke="black" points="340.5,-217.74 240.5,-217.74 240.5,-179.74 340.5,-179.74 340.5,-217.74"/>
<text text-anchor="middle" x="290.5" y="-202.54" font-family="Times,serif" font-size="14.00">⋯ Check</text>
<text text-anchor="middle" x="290.5" y="-187.54" font-family="Times,serif" font-size="14.00">src/main.py</text>
</g>
<!-- 30101c21&#45;f334&#45;479f&#45;b9f0&#45;cf65e5ed85ba&#45;&gt;a30d13d1&#45;3f27&#45;4933&#45;a02c&#45;ce8d9b59bc77 -->
<g id="edge8" class="edge">
<title>30101c21&#45;f334&#45;479f&#45;b9f0&#45;cf65e5ed85ba&#45;&gt;a30d13d1&#45;3f27&#45;4933&#45;a02c&#45;ce8d9b59bc77</title>
<path fill="none" stroke="black" stroke-dasharray="5,2" d="M249.84,-255.47C256.44,-246.42 263.91,-236.19 270.63,-226.98"/>
<polygon fill="black" stroke="black" points="273.97,-229.33 277.04,-219.19 268.32,-225.2 273.97,-229.33"/>
</g>
<!-- 2d06ce25&#45;24c4&#45;49c0&#45;a73d&#45;871d2304ddef -->
<g id="node13" class="node">
<title>2d06ce25&#45;24c4&#45;49c0&#45;a73d&#45;871d2304ddef</title>
<ellipse fill="green" stroke="black" cx="172.5" cy="-101.87" rx="70.92" ry="26.74"/>
<text text-anchor="middle" x="172.5" y="-105.67" font-family="Times,serif" font-size="14.00">✓ Modify</text>
<text text-anchor="middle" x="172.5" y="-90.67" font-family="Times,serif" font-size="14.00">src/main.py</text>
</g>
<!-- 0f223306&#45;4bff&#45;480e&#45;ae0a&#45;cd37297ba804&#45;&gt;2d06ce25&#45;24c4&#45;49c0&#45;a73d&#45;871d2304ddef -->
<g id="edge6" class="edge">
<title>0f223306&#45;4bff&#45;480e&#45;ae0a&#45;cd37297ba804&#45;&gt;2d06ce25&#45;24c4&#45;49c0&#45;a73d&#45;871d2304ddef</title>
<path fill="none" stroke="black" d="M172.5,-179.45C172.5,-168.26 172.5,-153.54 172.5,-139.99"/>
<polygon fill="black" stroke="black" points="176,-140 172.5,-130 169,-140 176,-140"/>
<text text-anchor="middle" x="273.5" y="-150.54" font-family="Times,serif" font-size="14.00">Additional changes required</text>
</g>
<!-- 1a4c0a5f&#45;e3fd&#45;49dd&#45;944d&#45;9d4a5873124f -->
<g id="node14" class="node">
<title>1a4c0a5f&#45;e3fd&#45;49dd&#45;944d&#45;9d4a5873124f</title>
<polygon fill="green" stroke="black" points="222.5,-38 122.5,-38 122.5,0 222.5,0 222.5,-38"/>
<text text-anchor="middle" x="172.5" y="-22.8" font-family="Times,serif" font-size="14.00">✓ Check</text>
<text text-anchor="middle" x="172.5" y="-7.8" font-family="Times,serif" font-size="14.00">src/main.py</text>
</g>
<!-- 2d06ce25&#45;24c4&#45;49c0&#45;a73d&#45;871d2304ddef&#45;&gt;1a4c0a5f&#45;e3fd&#45;49dd&#45;944d&#45;9d4a5873124f -->
<g id="edge7" class="edge">
<title>2d06ce25&#45;24c4&#45;49c0&#45;a73d&#45;871d2304ddef&#45;&gt;1a4c0a5f&#45;e3fd&#45;49dd&#45;944d&#45;9d4a5873124f</title>
<path fill="none" stroke="black" stroke-dasharray="5,2" d="M172.5,-74.84C172.5,-66.58 172.5,-57.41 172.5,-48.96"/>
<polygon fill="black" stroke="black" points="176,-49.05 172.5,-39.05 169,-49.05 176,-49.05"/>
</g>
</g>
</svg>
