<?xml version="1.0" encoding="UTF-8" standalone="no"?>
<!DOCTYPE svg PUBLIC "-//W3C//DTD SVG 1.1//EN"
 "http://www.w3.org/Graphics/SVG/1.1/DTD/svg11.dtd">
<!-- Generated by graphviz version 8.0.3 (0)
 -->
<!-- Pages: 1 -->
<svg width="674pt" height="215pt"
 viewBox="0.00 0.00 673.64 214.74" xmlns="http://www.w3.org/2000/svg" xmlns:xlink="http://www.w3.org/1999/xlink">
<g id="graph0" class="graph" transform="scale(1 1) rotate(0) translate(36 178.74)">
<polygon fill="white" stroke="none" points="-36,36 -36,-178.74 637.64,-178.74 637.64,36 -36,36"/>
<!-- 171ae733&#45;443d&#45;46ac&#45;b0ef&#45;465923c85415 -->
<g id="node1" class="node">
<title>171ae733&#45;443d&#45;46ac&#45;b0ef&#45;465923c85415</title>
<ellipse fill="none" stroke="black" cx="63.64" cy="-115.87" rx="63.78" ry="26.74"/>
<text text-anchor="middle" x="63.64" y="-119.67" font-family="Times,serif" font-size="14.00">Create</text>
<text text-anchor="middle" x="63.64" y="-104.67" font-family="Times,serif" font-size="14.00">src/cnn.py</text>
</g>
<!-- cc0824a2&#45;3125&#45;4d1d&#45;9938&#45;99fe2a6ea5e5 -->
<g id="node2" class="node">
<title>cc0824a2&#45;3125&#45;4d1d&#45;9938&#45;99fe2a6ea5e5</title>
<ellipse fill="none" stroke="black" cx="280.64" cy="-115.87" rx="70.92" ry="26.74"/>
<text text-anchor="middle" x="280.64" y="-119.67" font-family="Times,serif" font-size="14.00">Modify</text>
<text text-anchor="middle" x="280.64" y="-104.67" font-family="Times,serif" font-size="14.00">src/main.py</text>
</g>
<!-- 171ae733&#45;443d&#45;46ac&#45;b0ef&#45;465923c85415&#45;&gt;cc0824a2&#45;3125&#45;4d1d&#45;9938&#45;99fe2a6ea5e5 -->
<g id="edge2" class="edge">
<title>171ae733&#45;443d&#45;46ac&#45;b0ef&#45;465923c85415&#45;&gt;cc0824a2&#45;3125&#45;4d1d&#45;9938&#45;99fe2a6ea5e5</title>
<path fill="none" stroke="black" stroke-dasharray="5,2" d="M127.87,-115.87C149.98,-115.87 175.06,-115.87 198.42,-115.87"/>
<polygon fill="black" stroke="black" points="198.36,-119.37 208.36,-115.87 198.36,-112.37 198.36,-119.37"/>
<text text-anchor="middle" x="168.6" y="-122.67" font-family="Times,serif" font-size="14.00">Continue</text>
</g>
<!-- 63161c03&#45;d315&#45;4ef6&#45;9019&#45;1dab3c778514 -->
<g id="node4" class="node">
<title>63161c03&#45;d315&#45;4ef6&#45;9019&#45;1dab3c778514</title>
<polygon fill="none" stroke="black" points="112.64,-38 14.64,-38 14.64,0 112.64,0 112.64,-38"/>
<text text-anchor="middle" x="63.64" y="-22.8" font-family="Times,serif" font-size="14.00">Check</text>
<text text-anchor="middle" x="63.64" y="-7.8" font-family="Times,serif" font-size="14.00">src/cnn.py?</text>
</g>
<!-- 171ae733&#45;443d&#45;46ac&#45;b0ef&#45;465923c85415&#45;&gt;63161c03&#45;d315&#45;4ef6&#45;9019&#45;1dab3c778514 -->
<g id="edge1" class="edge">
<title>171ae733&#45;443d&#45;46ac&#45;b0ef&#45;465923c85415&#45;&gt;63161c03&#45;d315&#45;4ef6&#45;9019&#45;1dab3c778514</title>
<path fill="none" stroke="black" stroke-dasharray="5,2" d="M63.64,-88.7C63.64,-76.43 63.64,-61.78 63.64,-49.17"/>
<polygon fill="black" stroke="black" points="67.14,-49.28 63.64,-39.28 60.14,-49.28 67.14,-49.28"/>
<text text-anchor="middle" x="117.14" y="-59.8" font-family="Times,serif" font-size="14.00">Check changes</text>
</g>
<!-- 574858da&#45;a51b&#45;4151&#45;82bc&#45;221a9524d595 -->
<g id="node3" class="node">
<title>574858da&#45;a51b&#45;4151&#45;82bc&#45;221a9524d595</title>
<ellipse fill="none" stroke="black" cx="494.64" cy="-115.87" rx="60.62" ry="26.74"/>
<text text-anchor="middle" x="494.64" y="-119.67" font-family="Times,serif" font-size="14.00">Modify</text>
<text text-anchor="middle" x="494.64" y="-104.67" font-family="Times,serif" font-size="14.00">src/api.py</text>
</g>
<!-- cc0824a2&#45;3125&#45;4d1d&#45;9938&#45;99fe2a6ea5e5&#45;&gt;574858da&#45;a51b&#45;4151&#45;82bc&#45;221a9524d595 -->
<g id="edge4" class="edge">
<title>cc0824a2&#45;3125&#45;4d1d&#45;9938&#45;99fe2a6ea5e5&#45;&gt;574858da&#45;a51b&#45;4151&#45;82bc&#45;221a9524d595</title>
<path fill="none" stroke="black" stroke-dasharray="5,2" d="M351.9,-115.87C374.68,-115.87 399.9,-115.87 422.72,-115.87"/>
<polygon fill="black" stroke="black" points="422.71,-119.37 432.71,-115.87 422.71,-112.37 422.71,-119.37"/>
<text text-anchor="middle" x="392.59" y="-122.67" font-family="Times,serif" font-size="14.00">Continue</text>
</g>
<!-- 1192c6bf&#45;65ae&#45;47d0&#45;9af1&#45;c45fc46bfd17 -->
<g id="node5" class="node">
<title>1192c6bf&#45;65ae&#45;47d0&#45;9af1&#45;c45fc46bfd17</title>
<polygon fill="none" stroke="black" points="334.14,-38 227.14,-38 227.14,0 334.14,0 334.14,-38"/>
<text text-anchor="middle" x="280.64" y="-22.8" font-family="Times,serif" font-size="14.00">Check</text>
<text text-anchor="middle" x="280.64" y="-7.8" font-family="Times,serif" font-size="14.00">src/main.py?</text>
</g>
<!-- cc0824a2&#45;3125&#45;4d1d&#45;9938&#45;99fe2a6ea5e5&#45;&gt;1192c6bf&#45;65ae&#45;47d0&#45;9af1&#45;c45fc46bfd17 -->
<g id="edge3" class="edge">
<title>cc0824a2&#45;3125&#45;4d1d&#45;9938&#45;99fe2a6ea5e5&#45;&gt;1192c6bf&#45;65ae&#45;47d0&#45;9af1&#45;c45fc46bfd17</title>
<path fill="none" stroke="black" stroke-dasharray="5,2" d="M280.64,-88.7C280.64,-76.43 280.64,-61.78 280.64,-49.17"/>
<polygon fill="black" stroke="black" points="284.14,-49.28 280.64,-39.28 277.14,-49.28 284.14,-49.28"/>
<text text-anchor="middle" x="334.14" y="-59.8" font-family="Times,serif" font-size="14.00">Check changes</text>
</g>
<!-- c858d3aa&#45;30a7&#45;4a3e&#45;8a58&#45;df64422e06cc -->
<g id="node6" class="node">
<title>c858d3aa&#45;30a7&#45;4a3e&#45;8a58&#45;df64422e06cc</title>
<polygon fill="none" stroke="black" points="541.64,-38 447.64,-38 447.64,0 541.64,0 541.64,-38"/>
<text text-anchor="middle" x="494.64" y="-22.8" font-family="Times,serif" font-size="14.00">Check</text>
<text text-anchor="middle" x="494.64" y="-7.8" font-family="Times,serif" font-size="14.00">src/api.py?</text>
</g>
<!-- 574858da&#45;a51b&#45;4151&#45;82bc&#45;221a9524d595&#45;&gt;c858d3aa&#45;30a7&#45;4a3e&#45;8a58&#45;df64422e06cc -->
<g id="edge5" class="edge">
<title>574858da&#45;a51b&#45;4151&#45;82bc&#45;221a9524d595&#45;&gt;c858d3aa&#45;30a7&#45;4a3e&#45;8a58&#45;df64422e06cc</title>
<path fill="none" stroke="black" stroke-dasharray="5,2" d="M494.64,-88.7C494.64,-76.43 494.64,-61.78 494.64,-49.17"/>
<polygon fill="black" stroke="black" points="498.14,-49.28 494.64,-39.28 491.14,-49.28 498.14,-49.28"/>
<text text-anchor="middle" x="548.14" y="-59.8" font-family="Times,serif" font-size="14.00">Check changes</text>
</g>
</g>
</svg>
