<?xml version="1.0" encoding="UTF-8" standalone="no"?>
<!DOCTYPE svg PUBLIC "-//W3C//DTD SVG 1.1//EN"
 "http://www.w3.org/Graphics/SVG/1.1/DTD/svg11.dtd">
<!-- Generated by graphviz version 8.0.3 (0)
 -->
<!-- Pages: 1 -->
<svg width="674pt" height="215pt"
 viewBox="0.00 0.00 673.64 214.74" xmlns="http://www.w3.org/2000/svg" xmlns:xlink="http://www.w3.org/1999/xlink">
<g id="graph0" class="graph" transform="scale(1 1) rotate(0) translate(36 178.74)">
<polygon fill="white" stroke="none" points="-36,36 -36,-178.74 637.64,-178.74 637.64,36 -36,36"/>
<!-- 8121f728&#45;ddda&#45;4437&#45;b057&#45;2cbcd25275bc -->
<g id="node1" class="node">
<title>8121f728&#45;ddda&#45;4437&#45;b057&#45;2cbcd25275bc</title>
<ellipse fill="none" stroke="black" cx="63.64" cy="-115.87" rx="63.78" ry="26.74"/>
<text text-anchor="middle" x="63.64" y="-119.67" font-family="Times,serif" font-size="14.00">Create</text>
<text text-anchor="middle" x="63.64" y="-104.67" font-family="Times,serif" font-size="14.00">src/cnn.py</text>
</g>
<!-- 876f3d07&#45;1cea&#45;4dc2&#45;896c&#45;6c4e3232cf9d -->
<g id="node2" class="node">
<title>876f3d07&#45;1cea&#45;4dc2&#45;896c&#45;6c4e3232cf9d</title>
<ellipse fill="none" stroke="black" cx="280.64" cy="-115.87" rx="70.92" ry="26.74"/>
<text text-anchor="middle" x="280.64" y="-119.67" font-family="Times,serif" font-size="14.00">Modify</text>
<text text-anchor="middle" x="280.64" y="-104.67" font-family="Times,serif" font-size="14.00">src/main.py</text>
</g>
<!-- 8121f728&#45;ddda&#45;4437&#45;b057&#45;2cbcd25275bc&#45;&gt;876f3d07&#45;1cea&#45;4dc2&#45;896c&#45;6c4e3232cf9d -->
<g id="edge2" class="edge">
<title>8121f728&#45;ddda&#45;4437&#45;b057&#45;2cbcd25275bc&#45;&gt;876f3d07&#45;1cea&#45;4dc2&#45;896c&#45;6c4e3232cf9d</title>
<path fill="none" stroke="black" stroke-dasharray="5,2" d="M127.87,-115.87C149.98,-115.87 175.06,-115.87 198.42,-115.87"/>
<polygon fill="black" stroke="black" points="198.36,-119.37 208.36,-115.87 198.36,-112.37 198.36,-119.37"/>
<text text-anchor="middle" x="168.6" y="-122.67" font-family="Times,serif" font-size="14.00">Continue</text>
</g>
<!-- 8a05d547&#45;d83f&#45;45fb&#45;af2d&#45;8c5af9cccdfe -->
<g id="node4" class="node">
<title>8a05d547&#45;d83f&#45;45fb&#45;af2d&#45;8c5af9cccdfe</title>
<polygon fill="none" stroke="black" points="112.64,-38 14.64,-38 14.64,0 112.64,0 112.64,-38"/>
<text text-anchor="middle" x="63.64" y="-22.8" font-family="Times,serif" font-size="14.00">Check</text>
<text text-anchor="middle" x="63.64" y="-7.8" font-family="Times,serif" font-size="14.00">src/cnn.py?</text>
</g>
<!-- 8121f728&#45;ddda&#45;4437&#45;b057&#45;2cbcd25275bc&#45;&gt;8a05d547&#45;d83f&#45;45fb&#45;af2d&#45;8c5af9cccdfe -->
<g id="edge1" class="edge">
<title>8121f728&#45;ddda&#45;4437&#45;b057&#45;2cbcd25275bc&#45;&gt;8a05d547&#45;d83f&#45;45fb&#45;af2d&#45;8c5af9cccdfe</title>
<path fill="none" stroke="black" stroke-dasharray="5,2" d="M63.64,-88.7C63.64,-76.43 63.64,-61.78 63.64,-49.17"/>
<polygon fill="black" stroke="black" points="67.14,-49.28 63.64,-39.28 60.14,-49.28 67.14,-49.28"/>
<text text-anchor="middle" x="117.14" y="-59.8" font-family="Times,serif" font-size="14.00">Check changes</text>
</g>
<!-- 1eefeef1&#45;692b&#45;4539&#45;a387&#45;ec34b2ee6735 -->
<g id="node3" class="node">
<title>1eefeef1&#45;692b&#45;4539&#45;a387&#45;ec34b2ee6735</title>
<ellipse fill="none" stroke="black" cx="494.64" cy="-115.87" rx="60.62" ry="26.74"/>
<text text-anchor="middle" x="494.64" y="-119.67" font-family="Times,serif" font-size="14.00">Modify</text>
<text text-anchor="middle" x="494.64" y="-104.67" font-family="Times,serif" font-size="14.00">src/api.py</text>
</g>
<!-- 876f3d07&#45;1cea&#45;4dc2&#45;896c&#45;6c4e3232cf9d&#45;&gt;1eefeef1&#45;692b&#45;4539&#45;a387&#45;ec34b2ee6735 -->
<g id="edge4" class="edge">
<title>876f3d07&#45;1cea&#45;4dc2&#45;896c&#45;6c4e3232cf9d&#45;&gt;1eefeef1&#45;692b&#45;4539&#45;a387&#45;ec34b2ee6735</title>
<path fill="none" stroke="black" stroke-dasharray="5,2" d="M351.9,-115.87C374.68,-115.87 399.9,-115.87 422.72,-115.87"/>
<polygon fill="black" stroke="black" points="422.71,-119.37 432.71,-115.87 422.71,-112.37 422.71,-119.37"/>
<text text-anchor="middle" x="392.59" y="-122.67" font-family="Times,serif" font-size="14.00">Continue</text>
</g>
<!-- a6658244&#45;fff7&#45;4826&#45;8699&#45;b76d84dfc0fe -->
<g id="node5" class="node">
<title>a6658244&#45;fff7&#45;4826&#45;8699&#45;b76d84dfc0fe</title>
<polygon fill="none" stroke="black" points="334.14,-38 227.14,-38 227.14,0 334.14,0 334.14,-38"/>
<text text-anchor="middle" x="280.64" y="-22.8" font-family="Times,serif" font-size="14.00">Check</text>
<text text-anchor="middle" x="280.64" y="-7.8" font-family="Times,serif" font-size="14.00">src/main.py?</text>
</g>
<!-- 876f3d07&#45;1cea&#45;4dc2&#45;896c&#45;6c4e3232cf9d&#45;&gt;a6658244&#45;fff7&#45;4826&#45;8699&#45;b76d84dfc0fe -->
<g id="edge3" class="edge">
<title>876f3d07&#45;1cea&#45;4dc2&#45;896c&#45;6c4e3232cf9d&#45;&gt;a6658244&#45;fff7&#45;4826&#45;8699&#45;b76d84dfc0fe</title>
<path fill="none" stroke="black" stroke-dasharray="5,2" d="M280.64,-88.7C280.64,-76.43 280.64,-61.78 280.64,-49.17"/>
<polygon fill="black" stroke="black" points="284.14,-49.28 280.64,-39.28 277.14,-49.28 284.14,-49.28"/>
<text text-anchor="middle" x="334.14" y="-59.8" font-family="Times,serif" font-size="14.00">Check changes</text>
</g>
<!-- e143bd7d&#45;092f&#45;490c&#45;8147&#45;e4f2c492b920 -->
<g id="node6" class="node">
<title>e143bd7d&#45;092f&#45;490c&#45;8147&#45;e4f2c492b920</title>
<polygon fill="none" stroke="black" points="541.64,-38 447.64,-38 447.64,0 541.64,0 541.64,-38"/>
<text text-anchor="middle" x="494.64" y="-22.8" font-family="Times,serif" font-size="14.00">Check</text>
<text text-anchor="middle" x="494.64" y="-7.8" font-family="Times,serif" font-size="14.00">src/api.py?</text>
</g>
<!-- 1eefeef1&#45;692b&#45;4539&#45;a387&#45;ec34b2ee6735&#45;&gt;e143bd7d&#45;092f&#45;490c&#45;8147&#45;e4f2c492b920 -->
<g id="edge5" class="edge">
<title>1eefeef1&#45;692b&#45;4539&#45;a387&#45;ec34b2ee6735&#45;&gt;e143bd7d&#45;092f&#45;490c&#45;8147&#45;e4f2c492b920</title>
<path fill="none" stroke="black" stroke-dasharray="5,2" d="M494.64,-88.7C494.64,-76.43 494.64,-61.78 494.64,-49.17"/>
<polygon fill="black" stroke="black" points="498.14,-49.28 494.64,-39.28 491.14,-49.28 498.14,-49.28"/>
<text text-anchor="middle" x="548.14" y="-59.8" font-family="Times,serif" font-size="14.00">Check changes</text>
</g>
</g>
</svg>
