<?xml version="1.0" encoding="UTF-8" standalone="no"?>
<!DOCTYPE svg PUBLIC "-//W3C//DTD SVG 1.1//EN"
 "http://www.w3.org/Graphics/SVG/1.1/DTD/svg11.dtd">
<!-- Generated by graphviz version 8.0.3 (0)
 -->
<!-- Pages: 1 -->
<svg width="730pt" height="215pt"
 viewBox="0.00 0.00 729.50 214.74" xmlns="http://www.w3.org/2000/svg" xmlns:xlink="http://www.w3.org/1999/xlink">
<g id="graph0" class="graph" transform="scale(1 1) rotate(0) translate(36 178.74)">
<polygon fill="white" stroke="none" points="-36,36 -36,-178.74 693.5,-178.74 693.5,36 -36,36"/>
<!-- start -->
<g id="node1" class="node">
<title>start</title>
</g>
<!-- 5a058fa7&#45;8fdd&#45;49f8&#45;839e&#45;9e9f73a05a10 -->
<g id="node2" class="node">
<title>5a058fa7&#45;8fdd&#45;49f8&#45;839e&#45;9e9f73a05a10</title>
<ellipse fill="green" stroke="black" cx="119.5" cy="-115.87" rx="63.78" ry="26.74"/>
<text text-anchor="middle" x="119.5" y="-119.67" font-family="Times,serif" font-size="14.00">✓ Create</text>
<text text-anchor="middle" x="119.5" y="-104.67" font-family="Times,serif" font-size="14.00">src/cnn.py</text>
</g>
<!-- start&#45;&gt;5a058fa7&#45;8fdd&#45;49f8&#45;839e&#45;9e9f73a05a10 -->
<g id="edge6" class="edge">
<title>start&#45;&gt;5a058fa7&#45;8fdd&#45;49f8&#45;839e&#45;9e9f73a05a10</title>
<path fill="none" stroke="black" d="M0.84,-115.87C3.58,-115.87 22.48,-115.87 44.41,-115.87"/>
<polygon fill="black" stroke="black" points="44.36,-119.37 54.36,-115.87 44.36,-112.37 44.36,-119.37"/>
<text text-anchor="middle" x="28.43" y="-122.67" font-family="Times,serif" font-size="14.00">Start</text>
</g>
<!-- 41fc3b9c&#45;add4&#45;4a52&#45;9f62&#45;1b3714c674c6 -->
<g id="node3" class="node">
<title>41fc3b9c&#45;add4&#45;4a52&#45;9f62&#45;1b3714c674c6</title>
<ellipse fill="white" stroke="black" cx="336.5" cy="-115.87" rx="70.92" ry="26.74"/>
<text text-anchor="middle" x="336.5" y="-119.67" font-family="Times,serif" font-size="14.00">▶ Modify</text>
<text text-anchor="middle" x="336.5" y="-104.67" font-family="Times,serif" font-size="14.00">src/main.py</text>
</g>
<!-- 5a058fa7&#45;8fdd&#45;49f8&#45;839e&#45;9e9f73a05a10&#45;&gt;41fc3b9c&#45;add4&#45;4a52&#45;9f62&#45;1b3714c674c6 -->
<g id="edge2" class="edge">
<title>5a058fa7&#45;8fdd&#45;49f8&#45;839e&#45;9e9f73a05a10&#45;&gt;41fc3b9c&#45;add4&#45;4a52&#45;9f62&#45;1b3714c674c6</title>
<path fill="none" stroke="black" stroke-dasharray="5,2" d="M183.73,-115.87C205.84,-115.87 230.92,-115.87 254.28,-115.87"/>
<polygon fill="black" stroke="black" points="254.22,-119.37 264.22,-115.87 254.22,-112.37 254.22,-119.37"/>
<text text-anchor="middle" x="224.46" y="-122.67" font-family="Times,serif" font-size="14.00">Continue</text>
</g>
<!-- 1ef78286&#45;5800&#45;4d00&#45;8ac8&#45;e1c84425c949 -->
<g id="node6" class="node">
<title>1ef78286&#45;5800&#45;4d00&#45;8ac8&#45;e1c84425c949</title>
<polygon fill="yellow" stroke="black" points="164.5,-38 74.5,-38 74.5,0 164.5,0 164.5,-38"/>
<text text-anchor="middle" x="119.5" y="-22.8" font-family="Times,serif" font-size="14.00">↻ Check</text>
<text text-anchor="middle" x="119.5" y="-7.8" font-family="Times,serif" font-size="14.00">src/cnn.py</text>
</g>
<!-- 5a058fa7&#45;8fdd&#45;49f8&#45;839e&#45;9e9f73a05a10&#45;&gt;1ef78286&#45;5800&#45;4d00&#45;8ac8&#45;e1c84425c949 -->
<g id="edge1" class="edge">
<title>5a058fa7&#45;8fdd&#45;49f8&#45;839e&#45;9e9f73a05a10&#45;&gt;1ef78286&#45;5800&#45;4d00&#45;8ac8&#45;e1c84425c949</title>
<path fill="none" stroke="black" stroke-dasharray="5,2" d="M119.5,-88.7C119.5,-76.43 119.5,-61.78 119.5,-49.17"/>
<polygon fill="black" stroke="black" points="123,-49.28 119.5,-39.28 116,-49.28 123,-49.28"/>
<text text-anchor="middle" x="173" y="-59.8" font-family="Times,serif" font-size="14.00">Check changes</text>
</g>
<!-- 6eca969b&#45;51d1&#45;4273&#45;95cc&#45;d7bc79babb7a -->
<g id="node4" class="node">
<title>6eca969b&#45;51d1&#45;4273&#45;95cc&#45;d7bc79babb7a</title>
<ellipse fill="white" stroke="black" cx="550.5" cy="-115.87" rx="60.62" ry="26.74"/>
<text text-anchor="middle" x="550.5" y="-119.67" font-family="Times,serif" font-size="14.00">▶ Modify</text>
<text text-anchor="middle" x="550.5" y="-104.67" font-family="Times,serif" font-size="14.00">src/api.py</text>
</g>
<!-- 41fc3b9c&#45;add4&#45;4a52&#45;9f62&#45;1b3714c674c6&#45;&gt;6eca969b&#45;51d1&#45;4273&#45;95cc&#45;d7bc79babb7a -->
<g id="edge4" class="edge">
<title>41fc3b9c&#45;add4&#45;4a52&#45;9f62&#45;1b3714c674c6&#45;&gt;6eca969b&#45;51d1&#45;4273&#45;95cc&#45;d7bc79babb7a</title>
<path fill="none" stroke="black" stroke-dasharray="5,2" d="M407.76,-115.87C430.54,-115.87 455.76,-115.87 478.58,-115.87"/>
<polygon fill="black" stroke="black" points="478.57,-119.37 488.57,-115.87 478.57,-112.37 478.57,-119.37"/>
<text text-anchor="middle" x="448.45" y="-122.67" font-family="Times,serif" font-size="14.00">Continue</text>
</g>
<!-- 56275be6&#45;cfd2&#45;4ad0&#45;b84a&#45;ccbfcb350311 -->
<g id="node7" class="node">
<title>56275be6&#45;cfd2&#45;4ad0&#45;b84a&#45;ccbfcb350311</title>
<polygon fill="white" stroke="black" points="386.5,-38 286.5,-38 286.5,0 386.5,0 386.5,-38"/>
<text text-anchor="middle" x="336.5" y="-22.8" font-family="Times,serif" font-size="14.00">▶ Check</text>
<text text-anchor="middle" x="336.5" y="-7.8" font-family="Times,serif" font-size="14.00">src/main.py</text>
</g>
<!-- 41fc3b9c&#45;add4&#45;4a52&#45;9f62&#45;1b3714c674c6&#45;&gt;56275be6&#45;cfd2&#45;4ad0&#45;b84a&#45;ccbfcb350311 -->
<g id="edge3" class="edge">
<title>41fc3b9c&#45;add4&#45;4a52&#45;9f62&#45;1b3714c674c6&#45;&gt;56275be6&#45;cfd2&#45;4ad0&#45;b84a&#45;ccbfcb350311</title>
<path fill="none" stroke="black" stroke-dasharray="5,2" d="M336.5,-88.7C336.5,-76.43 336.5,-61.78 336.5,-49.17"/>
<polygon fill="black" stroke="black" points="340,-49.28 336.5,-39.28 333,-49.28 340,-49.28"/>
<text text-anchor="middle" x="390" y="-59.8" font-family="Times,serif" font-size="14.00">Check changes</text>
</g>
<!-- b1a1d8b5&#45;c192&#45;42de&#45;ad5d&#45;3a5380c503ae -->
<g id="node8" class="node">
<title>b1a1d8b5&#45;c192&#45;42de&#45;ad5d&#45;3a5380c503ae</title>
<polygon fill="white" stroke="black" points="593.5,-38 507.5,-38 507.5,0 593.5,0 593.5,-38"/>
<text text-anchor="middle" x="550.5" y="-22.8" font-family="Times,serif" font-size="14.00">▶ Check</text>
<text text-anchor="middle" x="550.5" y="-7.8" font-family="Times,serif" font-size="14.00">src/api.py</text>
</g>
<!-- 6eca969b&#45;51d1&#45;4273&#45;95cc&#45;d7bc79babb7a&#45;&gt;b1a1d8b5&#45;c192&#45;42de&#45;ad5d&#45;3a5380c503ae -->
<g id="edge5" class="edge">
<title>6eca969b&#45;51d1&#45;4273&#45;95cc&#45;d7bc79babb7a&#45;&gt;b1a1d8b5&#45;c192&#45;42de&#45;ad5d&#45;3a5380c503ae</title>
<path fill="none" stroke="black" stroke-dasharray="5,2" d="M550.5,-88.7C550.5,-76.43 550.5,-61.78 550.5,-49.17"/>
<polygon fill="black" stroke="black" points="554,-49.28 550.5,-39.28 547,-49.28 554,-49.28"/>
<text text-anchor="middle" x="604" y="-59.8" font-family="Times,serif" font-size="14.00">Check changes</text>
</g>
<!-- end -->
<g id="node5" class="node">
<title>end</title>
</g>
<!-- b1a1d8b5&#45;c192&#45;42de&#45;ad5d&#45;3a5380c503ae&#45;&gt;end -->
<g id="edge7" class="edge">
<title>b1a1d8b5&#45;c192&#45;42de&#45;ad5d&#45;3a5380c503ae&#45;&gt;end</title>
<path fill="none" stroke="black" d="M593.92,-19C607.07,-19 620.39,-19 629.41,-19"/>
<polygon fill="black" stroke="black" points="629.23,-22.5 639.23,-19 629.23,-15.5 629.23,-22.5"/>
<text text-anchor="middle" x="616.75" y="-25.8" font-family="Times,serif" font-size="14.00">End</text>
</g>
</g>
</svg>
