<?xml version="1.0" encoding="UTF-8" standalone="no"?>
<!DOCTYPE svg PUBLIC "-//W3C//DTD SVG 1.1//EN"
 "http://www.w3.org/Graphics/SVG/1.1/DTD/svg11.dtd">
<!-- Generated by graphviz version 8.0.3 (0)
 -->
<!-- Pages: 1 -->
<svg width="768pt" height="215pt"
 viewBox="0.00 0.00 767.50 214.74" xmlns="http://www.w3.org/2000/svg" xmlns:xlink="http://www.w3.org/1999/xlink">
<g id="graph0" class="graph" transform="scale(1 1) rotate(0) translate(36 178.74)">
<polygon fill="white" stroke="none" points="-36,36 -36,-178.74 731.5,-178.74 731.5,36 -36,36"/>
<!-- start -->
<g id="node1" class="node">
<title>start</title>
</g>
<!-- 1aff1150&#45;2996&#45;41b5&#45;9b16&#45;a3a249ec388c -->
<g id="node3" class="node">
<title>1aff1150&#45;2996&#45;41b5&#45;9b16&#45;a3a249ec388c</title>
<ellipse fill="green" stroke="black" cx="119.5" cy="-115.87" rx="63.78" ry="26.74"/>
<text text-anchor="middle" x="119.5" y="-119.67" font-family="Times,serif" font-size="14.00">✓ Create</text>
<text text-anchor="middle" x="119.5" y="-104.67" font-family="Times,serif" font-size="14.00">src/cnn.py</text>
</g>
<!-- start&#45;&gt;1aff1150&#45;2996&#45;41b5&#45;9b16&#45;a3a249ec388c -->
<g id="edge6" class="edge">
<title>start&#45;&gt;1aff1150&#45;2996&#45;41b5&#45;9b16&#45;a3a249ec388c</title>
<path fill="none" stroke="black" d="M0.84,-115.87C3.58,-115.87 22.48,-115.87 44.41,-115.87"/>
<polygon fill="black" stroke="black" points="44.36,-119.37 54.36,-115.87 44.36,-112.37 44.36,-119.37"/>
<text text-anchor="middle" x="28.43" y="-122.67" font-family="Times,serif" font-size="14.00">Start</text>
</g>
<!-- end -->
<g id="node2" class="node">
<title>end</title>
</g>
<!-- 2d513612&#45;5bd6&#45;4bb0&#45;a1cd&#45;929c88dd2651 -->
<g id="node4" class="node">
<title>2d513612&#45;5bd6&#45;4bb0&#45;a1cd&#45;929c88dd2651</title>
<ellipse fill="green" stroke="black" cx="336.5" cy="-115.87" rx="70.92" ry="26.74"/>
<text text-anchor="middle" x="336.5" y="-119.67" font-family="Times,serif" font-size="14.00">✓ Modify</text>
<text text-anchor="middle" x="336.5" y="-104.67" font-family="Times,serif" font-size="14.00">src/main.py</text>
</g>
<!-- 1aff1150&#45;2996&#45;41b5&#45;9b16&#45;a3a249ec388c&#45;&gt;2d513612&#45;5bd6&#45;4bb0&#45;a1cd&#45;929c88dd2651 -->
<g id="edge2" class="edge">
<title>1aff1150&#45;2996&#45;41b5&#45;9b16&#45;a3a249ec388c&#45;&gt;2d513612&#45;5bd6&#45;4bb0&#45;a1cd&#45;929c88dd2651</title>
<path fill="none" stroke="black" stroke-dasharray="5,2" d="M183.73,-115.87C205.84,-115.87 230.92,-115.87 254.28,-115.87"/>
<polygon fill="black" stroke="black" points="254.22,-119.37 264.22,-115.87 254.22,-112.37 254.22,-119.37"/>
<text text-anchor="middle" x="224.46" y="-122.67" font-family="Times,serif" font-size="14.00">Continue</text>
</g>
<!-- 20be7538&#45;d254&#45;4d34&#45;8b57&#45;d719109ecee3 -->
<g id="node6" class="node">
<title>20be7538&#45;d254&#45;4d34&#45;8b57&#45;d719109ecee3</title>
<polygon fill="green" stroke="black" points="168.5,-38 70.5,-38 70.5,0 168.5,0 168.5,-38"/>
<text text-anchor="middle" x="119.5" y="-22.8" font-family="Times,serif" font-size="14.00">✓ Check</text>
<text text-anchor="middle" x="119.5" y="-7.8" font-family="Times,serif" font-size="14.00">src/cnn.py?</text>
</g>
<!-- 1aff1150&#45;2996&#45;41b5&#45;9b16&#45;a3a249ec388c&#45;&gt;20be7538&#45;d254&#45;4d34&#45;8b57&#45;d719109ecee3 -->
<g id="edge1" class="edge">
<title>1aff1150&#45;2996&#45;41b5&#45;9b16&#45;a3a249ec388c&#45;&gt;20be7538&#45;d254&#45;4d34&#45;8b57&#45;d719109ecee3</title>
<path fill="none" stroke="black" stroke-dasharray="5,2" d="M119.5,-88.7C119.5,-76.43 119.5,-61.78 119.5,-49.17"/>
<polygon fill="black" stroke="black" points="123,-49.28 119.5,-39.28 116,-49.28 123,-49.28"/>
<text text-anchor="middle" x="173" y="-59.8" font-family="Times,serif" font-size="14.00">Check changes</text>
</g>
<!-- c09388cc&#45;49f2&#45;47c9&#45;8c74&#45;5e7c7baabd7e -->
<g id="node5" class="node">
<title>c09388cc&#45;49f2&#45;47c9&#45;8c74&#45;5e7c7baabd7e</title>
<ellipse fill="white" stroke="black" cx="550.5" cy="-115.87" rx="60.62" ry="26.74"/>
<text text-anchor="middle" x="550.5" y="-119.67" font-family="Times,serif" font-size="14.00">▶ Modify</text>
<text text-anchor="middle" x="550.5" y="-104.67" font-family="Times,serif" font-size="14.00">src/api.py</text>
</g>
<!-- 2d513612&#45;5bd6&#45;4bb0&#45;a1cd&#45;929c88dd2651&#45;&gt;c09388cc&#45;49f2&#45;47c9&#45;8c74&#45;5e7c7baabd7e -->
<g id="edge4" class="edge">
<title>2d513612&#45;5bd6&#45;4bb0&#45;a1cd&#45;929c88dd2651&#45;&gt;c09388cc&#45;49f2&#45;47c9&#45;8c74&#45;5e7c7baabd7e</title>
<path fill="none" stroke="black" stroke-dasharray="5,2" d="M407.76,-115.87C430.54,-115.87 455.76,-115.87 478.58,-115.87"/>
<polygon fill="black" stroke="black" points="478.57,-119.37 488.57,-115.87 478.57,-112.37 478.57,-119.37"/>
<text text-anchor="middle" x="448.45" y="-122.67" font-family="Times,serif" font-size="14.00">Continue</text>
</g>
<!-- 07a83c65&#45;7804&#45;487c&#45;afd8&#45;954cc7d3d05e -->
<g id="node7" class="node">
<title>07a83c65&#45;7804&#45;487c&#45;afd8&#45;954cc7d3d05e</title>
<polygon fill="yellow" stroke="black" points="390,-38 283,-38 283,0 390,0 390,-38"/>
<text text-anchor="middle" x="336.5" y="-22.8" font-family="Times,serif" font-size="14.00">↻ Check</text>
<text text-anchor="middle" x="336.5" y="-7.8" font-family="Times,serif" font-size="14.00">src/main.py?</text>
</g>
<!-- 2d513612&#45;5bd6&#45;4bb0&#45;a1cd&#45;929c88dd2651&#45;&gt;07a83c65&#45;7804&#45;487c&#45;afd8&#45;954cc7d3d05e -->
<g id="edge3" class="edge">
<title>2d513612&#45;5bd6&#45;4bb0&#45;a1cd&#45;929c88dd2651&#45;&gt;07a83c65&#45;7804&#45;487c&#45;afd8&#45;954cc7d3d05e</title>
<path fill="none" stroke="black" stroke-dasharray="5,2" d="M336.5,-88.7C336.5,-76.43 336.5,-61.78 336.5,-49.17"/>
<polygon fill="black" stroke="black" points="340,-49.28 336.5,-39.28 333,-49.28 340,-49.28"/>
<text text-anchor="middle" x="390" y="-59.8" font-family="Times,serif" font-size="14.00">Check changes</text>
</g>
<!-- 22288a1b&#45;bd04&#45;4688&#45;af07&#45;a5154255d7ed -->
<g id="node8" class="node">
<title>22288a1b&#45;bd04&#45;4688&#45;af07&#45;a5154255d7ed</title>
<polygon fill="white" stroke="black" points="662.5,-38 568.5,-38 568.5,0 662.5,0 662.5,-38"/>
<text text-anchor="middle" x="615.5" y="-22.8" font-family="Times,serif" font-size="14.00">▶ Check</text>
<text text-anchor="middle" x="615.5" y="-7.8" font-family="Times,serif" font-size="14.00">src/api.py?</text>
</g>
<!-- c09388cc&#45;49f2&#45;47c9&#45;8c74&#45;5e7c7baabd7e&#45;&gt;22288a1b&#45;bd04&#45;4688&#45;af07&#45;a5154255d7ed -->
<g id="edge5" class="edge">
<title>c09388cc&#45;49f2&#45;47c9&#45;8c74&#45;5e7c7baabd7e&#45;&gt;22288a1b&#45;bd04&#45;4688&#45;af07&#45;a5154255d7ed</title>
<path fill="none" stroke="black" stroke-dasharray="5,2" d="M545.51,-88.98C544.73,-78.11 545.69,-65.75 551.5,-56 553.89,-52 556.9,-48.4 560.31,-45.18"/>
<polygon fill="black" stroke="black" points="562.25,-47.31 567.87,-38.33 557.87,-41.84 562.25,-47.31"/>
<text text-anchor="middle" x="605" y="-59.8" font-family="Times,serif" font-size="14.00">Check changes</text>
</g>
<!-- 22288a1b&#45;bd04&#45;4688&#45;af07&#45;a5154255d7ed&#45;&gt;end -->
<g id="edge7" class="edge">
<title>22288a1b&#45;bd04&#45;4688&#45;af07&#45;a5154255d7ed&#45;&gt;end</title>
<path fill="none" stroke="black" d="M641.7,-38.25C647.82,-43.45 653.89,-49.48 658.5,-56 668.5,-70.13 674.55,-89.35 677.71,-101.93"/>
<polygon fill="black" stroke="black" points="674.46,-102.42 680.05,-111.42 681.29,-100.89 674.46,-102.42"/>
<text text-anchor="middle" x="681" y="-59.8" font-family="Times,serif" font-size="14.00">End</text>
</g>
</g>
</svg>
