<?xml version="1.0" encoding="UTF-8" standalone="no"?>
<!DOCTYPE svg PUBLIC "-//W3C//DTD SVG 1.1//EN"
 "http://www.w3.org/Graphics/SVG/1.1/DTD/svg11.dtd">
<!-- Generated by graphviz version 2.43.0 (0)
 -->
<!-- Title: %3 Pages: 1 -->
<svg width="499pt" height="419pt"
 viewBox="0.00 0.00 498.80 419.48" xmlns="http://www.w3.org/2000/svg" xmlns:xlink="http://www.w3.org/1999/xlink">
<g id="graph0" class="graph" transform="scale(1 1) rotate(0) translate(36 383.48)">
<title>%3</title>
<polygon fill="dimgray" stroke="transparent" points="-36,36 -36,-383.48 462.8,-383.48 462.8,36 -36,36"/>
<text text-anchor="middle" x="213.4" y="-332.28" font-family="Helvetica,sans-Serif" font-size="14.00">Sweep&#39;s Plan &amp; Progress</text>
<!-- start -->
<g id="node1" class="node">
<title>start</title>
</g>
<!-- db7650cd&#45;0fd1&#45;4d4f&#45;9e3b&#45;9a8913dd1a88 -->
<g id="node3" class="node">
<title>db7650cd&#45;0fd1&#45;4d4f&#45;9e3b&#45;9a8913dd1a88</title>
<ellipse fill="#0ee832" stroke="black" cx="145.3" cy="-281.61" rx="69.09" ry="26.74"/>
<text text-anchor="middle" x="145.3" y="-285.41" font-family="Helvetica,sans-Serif" font-size="14.00">✓ Modify</text>
<text text-anchor="middle" x="145.3" y="-270.41" font-family="Helvetica,sans-Serif" font-size="14.00">src/main.py</text>
</g>
<!-- start&#45;&gt;db7650cd&#45;0fd1&#45;4d4f&#45;9e3b&#45;9a8913dd1a88 -->
<g id="edge7" class="edge">
<title>start&#45;&gt;db7650cd&#45;0fd1&#45;4d4f&#45;9e3b&#45;9a8913dd1a88</title>
<path fill="none" stroke="black" d="M25.07,-281.61C28.82,-281.61 45.79,-281.61 65.85,-281.61"/>
<polygon fill="black" stroke="black" points="65.9,-285.11 75.9,-281.61 65.9,-278.11 65.9,-285.11"/>
<text text-anchor="middle" x="50.4" y="-288.41" font-family="Helvetica,sans-Serif" font-size="14.00">Start</text>
</g>
<!-- end -->
<g id="node2" class="node">
<title>end</title>
</g>
<!-- 500ef977&#45;0779&#45;4a56&#45;ab33&#45;0aa3418acc71 -->
<g id="node4" class="node">
<title>500ef977&#45;0779&#45;4a56&#45;ab33&#45;0aa3418acc71</title>
<ellipse fill="#0ee832" stroke="black" cx="309.3" cy="-281.61" rx="59.29" ry="26.74"/>
<text text-anchor="middle" x="309.3" y="-285.41" font-family="Helvetica,sans-Serif" font-size="14.00">✓ Modify</text>
<text text-anchor="middle" x="309.3" y="-270.41" font-family="Helvetica,sans-Serif" font-size="14.00">src/api.py</text>
</g>
<!-- db7650cd&#45;0fd1&#45;4d4f&#45;9e3b&#45;9a8913dd1a88&#45;&gt;500ef977&#45;0779&#45;4a56&#45;ab33&#45;0aa3418acc71 -->
<g id="edge5" class="edge">
<title>db7650cd&#45;0fd1&#45;4d4f&#45;9e3b&#45;9a8913dd1a88&#45;&gt;500ef977&#45;0779&#45;4a56&#45;ab33&#45;0aa3418acc71</title>
<path fill="none" stroke="black" d="M214.8,-281.61C223.11,-281.61 231.42,-281.61 239.73,-281.61"/>
<polygon fill="black" stroke="black" points="239.87,-285.11 249.87,-281.61 239.87,-278.11 239.87,-285.11"/>
</g>
<!-- 7cf26340&#45;096e&#45;4442&#45;9ae3&#45;547fb9e8499b -->
<g id="node5" class="node">
<title>7cf26340&#45;096e&#45;4442&#45;9ae3&#45;547fb9e8499b</title>
<polygon fill="#ee0000" stroke="black" points="118.3,-217.74 20.3,-217.74 20.3,-179.74 118.3,-179.74 118.3,-217.74"/>
<text text-anchor="middle" x="69.3" y="-202.54" font-family="Helvetica,sans-Serif" font-size="14.00">✗ Check</text>
<text text-anchor="middle" x="69.3" y="-187.54" font-family="Helvetica,sans-Serif" font-size="14.00">src/main.py</text>
</g>
<!-- db7650cd&#45;0fd1&#45;4d4f&#45;9e3b&#45;9a8913dd1a88&#45;&gt;7cf26340&#45;096e&#45;4442&#45;9ae3&#45;547fb9e8499b -->
<g id="edge1" class="edge">
<title>db7650cd&#45;0fd1&#45;4d4f&#45;9e3b&#45;9a8913dd1a88&#45;&gt;7cf26340&#45;096e&#45;4442&#45;9ae3&#45;547fb9e8499b</title>
<path fill="none" stroke="black" stroke-dasharray="5,2" d="M122.08,-255.91C112.99,-246.23 102.56,-235.13 93.38,-225.37"/>
<polygon fill="black" stroke="black" points="95.74,-222.77 86.34,-217.88 90.64,-227.56 95.74,-222.77"/>
</g>
<!-- 4c4671e9&#45;9c5e&#45;409d&#45;b0e5&#45;170a342396fe -->
<g id="node6" class="node">
<title>4c4671e9&#45;9c5e&#45;409d&#45;b0e5&#45;170a342396fe</title>
<polygon fill="#0ee832" stroke="black" points="234.3,-217.74 136.3,-217.74 136.3,-179.74 234.3,-179.74 234.3,-217.74"/>
<text text-anchor="middle" x="185.3" y="-202.54" font-family="Helvetica,sans-Serif" font-size="14.00">✓ Check</text>
<text text-anchor="middle" x="185.3" y="-187.54" font-family="Helvetica,sans-Serif" font-size="14.00">src/main.py</text>
</g>
<!-- db7650cd&#45;0fd1&#45;4d4f&#45;9e3b&#45;9a8913dd1a88&#45;&gt;4c4671e9&#45;9c5e&#45;409d&#45;b0e5&#45;170a342396fe -->
<g id="edge4" class="edge">
<title>db7650cd&#45;0fd1&#45;4d4f&#45;9e3b&#45;9a8913dd1a88&#45;&gt;4c4671e9&#45;9c5e&#45;409d&#45;b0e5&#45;170a342396fe</title>
<path fill="none" stroke="black" stroke-dasharray="5,2" d="M157.95,-255.02C162.37,-246.09 167.34,-236.04 171.82,-226.98"/>
<polygon fill="black" stroke="black" points="174.97,-228.51 176.27,-217.99 168.7,-225.4 174.97,-228.51"/>
</g>
<!-- 500ef977&#45;0779&#45;4a56&#45;ab33&#45;0aa3418acc71&#45;&gt;end -->
<g id="edge8" class="edge">
<title>500ef977&#45;0779&#45;4a56&#45;ab33&#45;0aa3418acc71&#45;&gt;end</title>
<path fill="none" stroke="black" d="M368.82,-281.61C386.63,-281.61 404.3,-281.61 415.26,-281.61"/>
<polygon fill="black" stroke="black" points="415.57,-285.11 425.57,-281.61 415.57,-278.11 415.57,-285.11"/>
<text text-anchor="middle" x="397.24" y="-288.41" font-family="Helvetica,sans-Serif" font-size="14.00">Finish</text>
</g>
<!-- 94a50291&#45;2640&#45;4d22&#45;a639&#45;daee76b68af3 -->
<g id="node7" class="node">
<title>94a50291&#45;2640&#45;4d22&#45;a639&#45;daee76b68af3</title>
<polygon fill="yellow" stroke="black" points="351.3,-217.74 267.3,-217.74 267.3,-179.74 351.3,-179.74 351.3,-217.74"/>
<text text-anchor="middle" x="309.3" y="-202.54" font-family="Helvetica,sans-Serif" font-size="14.00">⋯ Check</text>
<text text-anchor="middle" x="309.3" y="-187.54" font-family="Helvetica,sans-Serif" font-size="14.00">src/api.py</text>
</g>
<!-- 500ef977&#45;0779&#45;4a56&#45;ab33&#45;0aa3418acc71&#45;&gt;94a50291&#45;2640&#45;4d22&#45;a639&#45;daee76b68af3 -->
<g id="edge6" class="edge">
<title>500ef977&#45;0779&#45;4a56&#45;ab33&#45;0aa3418acc71&#45;&gt;94a50291&#45;2640&#45;4d22&#45;a639&#45;daee76b68af3</title>
<path fill="none" stroke="black" stroke-dasharray="5,2" d="M309.3,-254.58C309.3,-246.04 309.3,-236.52 309.3,-227.84"/>
<polygon fill="black" stroke="black" points="312.8,-227.79 309.3,-217.79 305.8,-227.79 312.8,-227.79"/>
</g>
<!-- 9f786f73&#45;7cdc&#45;4a5a&#45;a924&#45;6fd4e2b6c327 -->
<g id="node8" class="node">
<title>9f786f73&#45;7cdc&#45;4a5a&#45;a924&#45;6fd4e2b6c327</title>
<ellipse fill="#0ee832" stroke="black" cx="69.3" cy="-101.87" rx="69.09" ry="26.74"/>
<text text-anchor="middle" x="69.3" y="-105.67" font-family="Helvetica,sans-Serif" font-size="14.00">✓ Modify</text>
<text text-anchor="middle" x="69.3" y="-90.67" font-family="Helvetica,sans-Serif" font-size="14.00">src/main.py</text>
</g>
<!-- 7cf26340&#45;096e&#45;4442&#45;9ae3&#45;547fb9e8499b&#45;&gt;9f786f73&#45;7cdc&#45;4a5a&#45;a924&#45;6fd4e2b6c327 -->
<g id="edge2" class="edge">
<title>7cf26340&#45;096e&#45;4442&#45;9ae3&#45;547fb9e8499b&#45;&gt;9f786f73&#45;7cdc&#45;4a5a&#45;a924&#45;6fd4e2b6c327</title>
<path fill="none" stroke="black" d="M69.3,-179.45C69.3,-168.03 69.3,-152.95 69.3,-139.18"/>
<polygon fill="black" stroke="black" points="72.8,-139 69.3,-129 65.8,-139 72.8,-139"/>
<text text-anchor="middle" x="166.8" y="-150.54" font-family="Helvetica,sans-Serif" font-size="14.00">Additional changes required</text>
</g>
<!-- b866336b&#45;a657&#45;4e81&#45;b763&#45;368822d35cef -->
<g id="node9" class="node">
<title>b866336b&#45;a657&#45;4e81&#45;b763&#45;368822d35cef</title>
<polygon fill="#0ee832" stroke="black" points="118.3,-38 20.3,-38 20.3,0 118.3,0 118.3,-38"/>
<text text-anchor="middle" x="69.3" y="-22.8" font-family="Helvetica,sans-Serif" font-size="14.00">✓ Check</text>
<text text-anchor="middle" x="69.3" y="-7.8" font-family="Helvetica,sans-Serif" font-size="14.00">src/main.py</text>
</g>
<!-- 9f786f73&#45;7cdc&#45;4a5a&#45;a924&#45;6fd4e2b6c327&#45;&gt;b866336b&#45;a657&#45;4e81&#45;b763&#45;368822d35cef -->
<g id="edge3" class="edge">
<title>9f786f73&#45;7cdc&#45;4a5a&#45;a924&#45;6fd4e2b6c327&#45;&gt;b866336b&#45;a657&#45;4e81&#45;b763&#45;368822d35cef</title>
<path fill="none" stroke="black" stroke-dasharray="5,2" d="M69.3,-74.84C69.3,-66.3 69.3,-56.78 69.3,-48.1"/>
<polygon fill="black" stroke="black" points="72.8,-48.05 69.3,-38.05 65.8,-48.05 72.8,-48.05"/>
</g>
</g>
</svg>
