<?xml version="1.0" encoding="UTF-8" standalone="no"?>
<!DOCTYPE svg PUBLIC "-//W3C//DTD SVG 1.1//EN"
 "http://www.w3.org/Graphics/SVG/1.1/DTD/svg11.dtd">
<!-- Generated by graphviz version 2.43.0 (0)
 -->
<!-- Title: %3 Pages: 1 -->
<svg width="579pt" height="419pt"
 viewBox="0.00 0.00 579.13 419.48" xmlns="http://www.w3.org/2000/svg" xmlns:xlink="http://www.w3.org/1999/xlink">
<g id="graph0" class="graph" transform="scale(1 1) rotate(0) translate(36 383.48)">
<title>%3</title>
<polygon fill="dimgray" stroke="transparent" points="-36,36 -36,-383.48 543.13,-383.48 543.13,36 -36,36"/>
<text text-anchor="middle" x="253.57" y="-332.28" font-family="Helvetica,sans-Serif" font-size="14.00">Sweep&#39;s Plan &amp; Progress</text>
<!-- start -->
<g id="node1" class="node">
<title>start</title>
</g>
<!-- 3e1aa324&#45;24c5&#45;457e&#45;ad59&#45;71db9288c149 -->
<g id="node3" class="node">
<title>3e1aa324&#45;24c5&#45;457e&#45;ad59&#45;71db9288c149</title>
<ellipse fill="#0ee832" stroke="black" cx="292.63" cy="-281.61" rx="92.76" ry="26.74"/>
<text text-anchor="middle" x="292.63" y="-285.41" font-family="Helvetica,sans-Serif" font-size="14.00">✓ Create</text>
<text text-anchor="middle" x="292.63" y="-270.41" font-family="Helvetica,sans-Serif" font-size="14.00">src/test_main.py</text>
</g>
<!-- start&#45;&gt;3e1aa324&#45;24c5&#45;457e&#45;ad59&#45;71db9288c149 -->
<g id="edge8" class="edge">
<title>start&#45;&gt;3e1aa324&#45;24c5&#45;457e&#45;ad59&#45;71db9288c149</title>
<path fill="none" stroke="black" d="M148.28,-281.61C151.72,-281.61 168.5,-281.61 189.48,-281.61"/>
<polygon fill="black" stroke="black" points="189.73,-285.11 199.73,-281.61 189.73,-278.11 189.73,-285.11"/>
<text text-anchor="middle" x="174.07" y="-288.41" font-family="Helvetica,sans-Serif" font-size="14.00">Start</text>
</g>
<!-- end -->
<g id="node2" class="node">
<title>end</title>
</g>
<!-- 3e1aa324&#45;24c5&#45;457e&#45;ad59&#45;71db9288c149&#45;&gt;end -->
<g id="edge9" class="edge">
<title>3e1aa324&#45;24c5&#45;457e&#45;ad59&#45;71db9288c149&#45;&gt;end</title>
<path fill="none" stroke="black" d="M385.68,-281.61C404.6,-281.61 421.97,-281.61 432.65,-281.61"/>
<polygon fill="black" stroke="black" points="432.94,-285.11 442.94,-281.61 432.94,-278.11 432.94,-285.11"/>
<text text-anchor="middle" x="414.2" y="-288.41" font-family="Helvetica,sans-Serif" font-size="14.00">Finish</text>
</g>
<!-- 8630f1a1&#45;6c93&#45;4286&#45;9f62&#45;85931dd553a1 -->
<g id="node4" class="node">
<title>8630f1a1&#45;6c93&#45;4286&#45;9f62&#45;85931dd553a1</title>
<polygon fill="#ee0000" stroke="black" points="192.13,-217.74 61.13,-217.74 61.13,-179.74 192.13,-179.74 192.13,-217.74"/>
<text text-anchor="middle" x="126.63" y="-202.54" font-family="Helvetica,sans-Serif" font-size="14.00">✗ Check</text>
<text text-anchor="middle" x="126.63" y="-187.54" font-family="Helvetica,sans-Serif" font-size="14.00">src/test_main.py</text>
</g>
<!-- 3e1aa324&#45;24c5&#45;457e&#45;ad59&#45;71db9288c149&#45;&gt;8630f1a1&#45;6c93&#45;4286&#45;9f62&#45;85931dd553a1 -->
<g id="edge1" class="edge">
<title>3e1aa324&#45;24c5&#45;457e&#45;ad59&#45;71db9288c149&#45;&gt;8630f1a1&#45;6c93&#45;4286&#45;9f62&#45;85931dd553a1</title>
<path fill="none" stroke="black" stroke-dasharray="5,2" d="M246.39,-258.08C223.46,-246.91 195.83,-233.45 172.89,-222.28"/>
<polygon fill="black" stroke="black" points="174.23,-219.03 163.7,-217.8 171.16,-225.33 174.23,-219.03"/>
</g>
<!-- b1404f88&#45;786b&#45;4933&#45;9780&#45;b6caa36ec433 -->
<g id="node5" class="node">
<title>b1404f88&#45;786b&#45;4933&#45;9780&#45;b6caa36ec433</title>
<polygon fill="#ee0000" stroke="black" points="358.13,-217.74 227.13,-217.74 227.13,-179.74 358.13,-179.74 358.13,-217.74"/>
<text text-anchor="middle" x="292.63" y="-202.54" font-family="Helvetica,sans-Serif" font-size="14.00">✗ Check</text>
<text text-anchor="middle" x="292.63" y="-187.54" font-family="Helvetica,sans-Serif" font-size="14.00">src/test_main.py</text>
</g>
<!-- 3e1aa324&#45;24c5&#45;457e&#45;ad59&#45;71db9288c149&#45;&gt;b1404f88&#45;786b&#45;4933&#45;9780&#45;b6caa36ec433 -->
<g id="edge4" class="edge">
<title>3e1aa324&#45;24c5&#45;457e&#45;ad59&#45;71db9288c149&#45;&gt;b1404f88&#45;786b&#45;4933&#45;9780&#45;b6caa36ec433</title>
<path fill="none" stroke="black" stroke-dasharray="5,2" d="M292.63,-254.58C292.63,-246.04 292.63,-236.52 292.63,-227.84"/>
<polygon fill="black" stroke="black" points="296.13,-227.79 292.63,-217.79 289.13,-227.79 296.13,-227.79"/>
</g>
<!-- cfe9e19e&#45;788d&#45;40b2&#45;85b2&#45;9d594bc56b01 -->
<g id="node6" class="node">
<title>cfe9e19e&#45;788d&#45;40b2&#45;85b2&#45;9d594bc56b01</title>
<polygon fill="white" stroke="black" points="507.13,-217.74 376.13,-217.74 376.13,-179.74 507.13,-179.74 507.13,-217.74"/>
<text text-anchor="middle" x="441.63" y="-202.54" font-family="Helvetica,sans-Serif" font-size="14.00">▶ Check</text>
<text text-anchor="middle" x="441.63" y="-187.54" font-family="Helvetica,sans-Serif" font-size="14.00">src/test_main.py</text>
</g>
<!-- 3e1aa324&#45;24c5&#45;457e&#45;ad59&#45;71db9288c149&#45;&gt;cfe9e19e&#45;788d&#45;40b2&#45;85b2&#45;9d594bc56b01 -->
<g id="edge7" class="edge">
<title>3e1aa324&#45;24c5&#45;457e&#45;ad59&#45;71db9288c149&#45;&gt;cfe9e19e&#45;788d&#45;40b2&#45;85b2&#45;9d594bc56b01</title>
<path fill="none" stroke="black" stroke-dasharray="5,2" d="M334.93,-257.65C355.07,-246.72 379.11,-233.67 399.26,-222.74"/>
<polygon fill="black" stroke="black" points="401.1,-225.72 408.22,-217.87 397.76,-219.57 401.1,-225.72"/>
</g>
<!-- f05df1d8&#45;af7c&#45;4e7a&#45;9cfc&#45;25ade5d0fb35 -->
<g id="node7" class="node">
<title>f05df1d8&#45;af7c&#45;4e7a&#45;9cfc&#45;25ade5d0fb35</title>
<ellipse fill="#0ee832" stroke="black" cx="92.63" cy="-101.87" rx="92.76" ry="26.74"/>
<text text-anchor="middle" x="92.63" y="-105.67" font-family="Helvetica,sans-Serif" font-size="14.00">✓ Modify</text>
<text text-anchor="middle" x="92.63" y="-90.67" font-family="Helvetica,sans-Serif" font-size="14.00">src/test_main.py</text>
</g>
<!-- 8630f1a1&#45;6c93&#45;4286&#45;9f62&#45;85931dd553a1&#45;&gt;f05df1d8&#45;af7c&#45;4e7a&#45;9cfc&#45;25ade5d0fb35 -->
<g id="edge2" class="edge">
<title>8630f1a1&#45;6c93&#45;4286&#45;9f62&#45;85931dd553a1&#45;&gt;f05df1d8&#45;af7c&#45;4e7a&#45;9cfc&#45;25ade5d0fb35</title>
<path fill="none" stroke="black" d="M110.99,-179.72C107.01,-174.26 103.15,-168.04 100.63,-161.74 97.76,-154.55 95.88,-146.51 94.66,-138.74"/>
<polygon fill="black" stroke="black" points="98.13,-138.26 93.42,-128.78 91.18,-139.13 98.13,-138.26"/>
<text text-anchor="middle" x="198.13" y="-150.54" font-family="Helvetica,sans-Serif" font-size="14.00">Additional changes required</text>
</g>
<!-- 84d92349&#45;2187&#45;4fd9&#45;8fb6&#45;2ca61035cfa9 -->
<g id="node8" class="node">
<title>84d92349&#45;2187&#45;4fd9&#45;8fb6&#45;2ca61035cfa9</title>
<ellipse fill="#0ee832" stroke="black" cx="310.63" cy="-101.87" rx="92.76" ry="26.74"/>
<text text-anchor="middle" x="310.63" y="-105.67" font-family="Helvetica,sans-Serif" font-size="14.00">✓ Modify</text>
<text text-anchor="middle" x="310.63" y="-90.67" font-family="Helvetica,sans-Serif" font-size="14.00">src/test_main.py</text>
</g>
<!-- b1404f88&#45;786b&#45;4933&#45;9780&#45;b6caa36ec433&#45;&gt;84d92349&#45;2187&#45;4fd9&#45;8fb6&#45;2ca61035cfa9 -->
<g id="edge5" class="edge">
<title>b1404f88&#45;786b&#45;4933&#45;9780&#45;b6caa36ec433&#45;&gt;84d92349&#45;2187&#45;4fd9&#45;8fb6&#45;2ca61035cfa9</title>
<path fill="none" stroke="black" d="M296.1,-179.45C298.27,-168.03 301.13,-152.95 303.74,-139.18"/>
<polygon fill="black" stroke="black" points="307.25,-139.47 305.67,-129 300.37,-138.17 307.25,-139.47"/>
<text text-anchor="middle" x="400.13" y="-150.54" font-family="Helvetica,sans-Serif" font-size="14.00">Additional changes required</text>
</g>
<!-- 75d010a9&#45;7271&#45;4bc1&#45;95f7&#45;d85b30ac8f52 -->
<g id="node9" class="node">
<title>75d010a9&#45;7271&#45;4bc1&#45;95f7&#45;d85b30ac8f52</title>
<polygon fill="yellow" stroke="black" points="158.13,-38 27.13,-38 27.13,0 158.13,0 158.13,-38"/>
<text text-anchor="middle" x="92.63" y="-22.8" font-family="Helvetica,sans-Serif" font-size="14.00">⋯ Check</text>
<text text-anchor="middle" x="92.63" y="-7.8" font-family="Helvetica,sans-Serif" font-size="14.00">src/test_main.py</text>
</g>
<!-- f05df1d8&#45;af7c&#45;4e7a&#45;9cfc&#45;25ade5d0fb35&#45;&gt;75d010a9&#45;7271&#45;4bc1&#45;95f7&#45;d85b30ac8f52 -->
<g id="edge3" class="edge">
<title>f05df1d8&#45;af7c&#45;4e7a&#45;9cfc&#45;25ade5d0fb35&#45;&gt;75d010a9&#45;7271&#45;4bc1&#45;95f7&#45;d85b30ac8f52</title>
<path fill="none" stroke="black" stroke-dasharray="5,2" d="M92.63,-74.84C92.63,-66.3 92.63,-56.78 92.63,-48.1"/>
<polygon fill="black" stroke="black" points="96.13,-48.05 92.63,-38.05 89.13,-48.05 96.13,-48.05"/>
</g>
<!-- 8ea75ef7&#45;7898&#45;402c&#45;8c9e&#45;1cc779051213 -->
<g id="node10" class="node">
<title>8ea75ef7&#45;7898&#45;402c&#45;8c9e&#45;1cc779051213</title>
<polygon fill="yellow" stroke="black" points="376.13,-38 245.13,-38 245.13,0 376.13,0 376.13,-38"/>
<text text-anchor="middle" x="310.63" y="-22.8" font-family="Helvetica,sans-Serif" font-size="14.00">⋯ Check</text>
<text text-anchor="middle" x="310.63" y="-7.8" font-family="Helvetica,sans-Serif" font-size="14.00">src/test_main.py</text>
</g>
<!-- 84d92349&#45;2187&#45;4fd9&#45;8fb6&#45;2ca61035cfa9&#45;&gt;8ea75ef7&#45;7898&#45;402c&#45;8c9e&#45;1cc779051213 -->
<g id="edge6" class="edge">
<title>84d92349&#45;2187&#45;4fd9&#45;8fb6&#45;2ca61035cfa9&#45;&gt;8ea75ef7&#45;7898&#45;402c&#45;8c9e&#45;1cc779051213</title>
<path fill="none" stroke="black" stroke-dasharray="5,2" d="M310.63,-74.84C310.63,-66.3 310.63,-56.78 310.63,-48.1"/>
<polygon fill="black" stroke="black" points="314.13,-48.05 310.63,-38.05 307.13,-48.05 314.13,-48.05"/>
</g>
</g>
</svg>
