<?xml version="1.0" encoding="UTF-8" standalone="no"?>
<!DOCTYPE svg PUBLIC "-//W3C//DTD SVG 1.1//EN"
 "http://www.w3.org/Graphics/SVG/1.1/DTD/svg11.dtd">
<!-- Generated by graphviz version 2.43.0 (0)
 -->
<!-- Title: %3 Pages: 1 -->
<svg width="846pt" height="415pt"
 viewBox="0.00 0.00 845.50 415.48" xmlns="http://www.w3.org/2000/svg" xmlns:xlink="http://www.w3.org/1999/xlink">
<g id="graph0" class="graph" transform="scale(1 1) rotate(0) translate(36 379.48)">
<title>%3</title>
<polygon fill="dimgray" stroke="transparent" points="-36,36 -36,-379.48 809.5,-379.48 809.5,36 -36,36"/>
<text text-anchor="middle" x="386.75" y="-328.28" font-family="Helvetica,sans-Serif" font-size="14.00">Sweep&#39;s Plan &amp; Progress</text>
<!-- start -->
<g id="node1" class="node">
<title>start</title>
</g>
<!-- 6fbeaf13&#45;5de6&#45;4c01&#45;841d&#45;7386f41bffb2 -->
<g id="node3" class="node">
<title>6fbeaf13&#45;5de6&#45;4c01&#45;841d&#45;7386f41bffb2</title>
<ellipse fill="#0ee832" stroke="black" cx="394.5" cy="-277.61" rx="69.09" ry="26.74"/>
<text text-anchor="middle" x="394.5" y="-281.41" font-family="Helvetica,sans-Serif" font-size="14.00">✓ Modify</text>
<text text-anchor="middle" x="394.5" y="-266.41" font-family="Helvetica,sans-Serif" font-size="14.00">src/main.py</text>
</g>
<!-- start&#45;&gt;6fbeaf13&#45;5de6&#45;4c01&#45;841d&#45;7386f41bffb2 -->
<g id="edge7" class="edge">
<title>start&#45;&gt;6fbeaf13&#45;5de6&#45;4c01&#45;841d&#45;7386f41bffb2</title>
<path fill="none" stroke="black" d="M274.27,-277.61C278.03,-277.61 294.99,-277.61 315.05,-277.61"/>
<polygon fill="black" stroke="black" points="315.11,-281.11 325.11,-277.61 315.11,-274.11 315.11,-281.11"/>
<text text-anchor="middle" x="299.6" y="-284.41" font-family="Helvetica,sans-Serif" font-size="14.00">Start</text>
</g>
<!-- end -->
<g id="node2" class="node">
<title>end</title>
</g>
<!-- 4e4adb16&#45;4b97&#45;42d9&#45;9256&#45;aac12701f9d6 -->
<g id="node4" class="node">
<title>4e4adb16&#45;4b97&#45;42d9&#45;9256&#45;aac12701f9d6</title>
<ellipse fill="white" stroke="black" cx="607.5" cy="-277.61" rx="59.29" ry="26.74"/>
<text text-anchor="middle" x="607.5" y="-281.41" font-family="Helvetica,sans-Serif" font-size="14.00">▶ Modify</text>
<text text-anchor="middle" x="607.5" y="-266.41" font-family="Helvetica,sans-Serif" font-size="14.00">src/api.py</text>
</g>
<!-- 6fbeaf13&#45;5de6&#45;4c01&#45;841d&#45;7386f41bffb2&#45;&gt;4e4adb16&#45;4b97&#45;42d9&#45;9256&#45;aac12701f9d6 -->
<g id="edge5" class="edge">
<title>6fbeaf13&#45;5de6&#45;4c01&#45;841d&#45;7386f41bffb2&#45;&gt;4e4adb16&#45;4b97&#45;42d9&#45;9256&#45;aac12701f9d6</title>
<path fill="none" stroke="black" d="M463.97,-277.61C488.61,-277.61 513.25,-277.61 537.89,-277.61"/>
<polygon fill="black" stroke="black" points="538.07,-281.11 548.07,-277.61 538.07,-274.11 538.07,-281.11"/>
</g>
<!-- e34f7650&#45;3928&#45;404c&#45;aa1d&#45;94ab2661733b -->
<g id="node5" class="node">
<title>e34f7650&#45;3928&#45;404c&#45;aa1d&#45;94ab2661733b</title>
<polygon fill="#ee0000" stroke="black" points="251,-213.74 0,-213.74 0,-177.74 251,-177.74 251,-213.74"/>
<text text-anchor="middle" x="125.5" y="-192.04" font-family="Helvetica,sans-Serif" font-size="14.00">✗ Ran sandbox for `src/main.py`.</text>
</g>
<!-- 6fbeaf13&#45;5de6&#45;4c01&#45;841d&#45;7386f41bffb2&#45;&gt;e34f7650&#45;3928&#45;404c&#45;aa1d&#45;94ab2661733b -->
<g id="edge1" class="edge">
<title>6fbeaf13&#45;5de6&#45;4c01&#45;841d&#45;7386f41bffb2&#45;&gt;e34f7650&#45;3928&#45;404c&#45;aa1d&#45;94ab2661733b</title>
<path fill="none" stroke="black" stroke-dasharray="5,2" d="M340.71,-260.64C298.14,-248 238.46,-230.28 192.74,-216.71"/>
<polygon fill="black" stroke="black" points="193.5,-213.28 182.92,-213.79 191.51,-219.99 193.5,-213.28"/>
</g>
<!-- 6012deef&#45;d083&#45;447b&#45;a931&#45;34894862448e -->
<g id="node6" class="node">
<title>6012deef&#45;d083&#45;447b&#45;a931&#45;34894862448e</title>
<polygon fill="white" stroke="black" points="519.5,-213.74 269.5,-213.74 269.5,-177.74 519.5,-177.74 519.5,-213.74"/>
<text text-anchor="middle" x="394.5" y="-192.04" font-family="Helvetica,sans-Serif" font-size="14.00">▶ Ran sandbox for `src/main.py`.</text>
</g>
<!-- 6fbeaf13&#45;5de6&#45;4c01&#45;841d&#45;7386f41bffb2&#45;&gt;6012deef&#45;d083&#45;447b&#45;a931&#45;34894862448e -->
<g id="edge4" class="edge">
<title>6fbeaf13&#45;5de6&#45;4c01&#45;841d&#45;7386f41bffb2&#45;&gt;6012deef&#45;d083&#45;447b&#45;a931&#45;34894862448e</title>
<path fill="none" stroke="black" stroke-dasharray="5,2" d="M394.5,-250.46C394.5,-242.01 394.5,-232.63 394.5,-224.1"/>
<polygon fill="black" stroke="black" points="398,-223.89 394.5,-213.89 391,-223.89 398,-223.89"/>
</g>
<!-- 4e4adb16&#45;4b97&#45;42d9&#45;9256&#45;aac12701f9d6&#45;&gt;end -->
<g id="edge8" class="edge">
<title>4e4adb16&#45;4b97&#45;42d9&#45;9256&#45;aac12701f9d6&#45;&gt;end</title>
<path fill="none" stroke="black" d="M667.03,-277.61C684.83,-277.61 702.51,-277.61 713.46,-277.61"/>
<polygon fill="black" stroke="black" points="713.77,-281.11 723.77,-277.61 713.77,-274.11 713.77,-281.11"/>
<text text-anchor="middle" x="695.45" y="-284.41" font-family="Helvetica,sans-Serif" font-size="14.00">Finish</text>
</g>
<!-- d5a6bf0a&#45;7324&#45;48e6&#45;afc3&#45;5cc1da3467dc -->
<g id="node7" class="node">
<title>d5a6bf0a&#45;7324&#45;48e6&#45;afc3&#45;5cc1da3467dc</title>
<polygon fill="white" stroke="black" points="773.5,-213.74 537.5,-213.74 537.5,-177.74 773.5,-177.74 773.5,-213.74"/>
<text text-anchor="middle" x="655.5" y="-192.04" font-family="Helvetica,sans-Serif" font-size="14.00">▶ Ran sandbox for `src/api.py`.</text>
</g>
<!-- 4e4adb16&#45;4b97&#45;42d9&#45;9256&#45;aac12701f9d6&#45;&gt;d5a6bf0a&#45;7324&#45;48e6&#45;afc3&#45;5cc1da3467dc -->
<g id="edge6" class="edge">
<title>4e4adb16&#45;4b97&#45;42d9&#45;9256&#45;aac12701f9d6&#45;&gt;d5a6bf0a&#45;7324&#45;48e6&#45;afc3&#45;5cc1da3467dc</title>
<path fill="none" stroke="black" stroke-dasharray="5,2" d="M622.69,-251.34C628.21,-242.15 634.45,-231.76 640,-222.53"/>
<polygon fill="black" stroke="black" points="643.11,-224.15 645.26,-213.78 637.11,-220.54 643.11,-224.15"/>
</g>
<!-- 9b1347c3&#45;94cc&#45;4671&#45;839d&#45;e9c7399ca35c -->
<g id="node8" class="node">
<title>9b1347c3&#45;94cc&#45;4671&#45;839d&#45;e9c7399ca35c</title>
<ellipse fill="yellow" stroke="black" cx="125.5" cy="-99.87" rx="69.09" ry="26.74"/>
<text text-anchor="middle" x="125.5" y="-103.67" font-family="Helvetica,sans-Serif" font-size="14.00">⋯ Modify</text>
<text text-anchor="middle" x="125.5" y="-88.67" font-family="Helvetica,sans-Serif" font-size="14.00">src/main.py</text>
</g>
<!-- e34f7650&#45;3928&#45;404c&#45;aa1d&#45;94ab2661733b&#45;&gt;9b1347c3&#45;94cc&#45;4671&#45;839d&#45;e9c7399ca35c -->
<g id="edge2" class="edge">
<title>e34f7650&#45;3928&#45;404c&#45;aa1d&#45;94ab2661733b&#45;&gt;9b1347c3&#45;94cc&#45;4671&#45;839d&#45;e9c7399ca35c</title>
<path fill="none" stroke="black" d="M125.5,-177.52C125.5,-166.22 125.5,-151.01 125.5,-137.12"/>
<polygon fill="black" stroke="black" points="129,-136.84 125.5,-126.84 122,-136.84 129,-136.84"/>
<text text-anchor="middle" x="223" y="-148.54" font-family="Helvetica,sans-Serif" font-size="14.00">Additional changes required</text>
</g>
<!-- df73bb63&#45;28ab&#45;42da&#45;b801&#45;587f2027fde2 -->
<g id="node9" class="node">
<title>df73bb63&#45;28ab&#45;42da&#45;b801&#45;587f2027fde2</title>
<polygon fill="white" stroke="black" points="250.5,-36 0.5,-36 0.5,0 250.5,0 250.5,-36"/>
<text text-anchor="middle" x="125.5" y="-14.3" font-family="Helvetica,sans-Serif" font-size="14.00">▶ Ran sandbox for `src/main.py`.</text>
</g>
<!-- 9b1347c3&#45;94cc&#45;4671&#45;839d&#45;e9c7399ca35c&#45;&gt;df73bb63&#45;28ab&#45;42da&#45;b801&#45;587f2027fde2 -->
<g id="edge3" class="edge">
<title>9b1347c3&#45;94cc&#45;4671&#45;839d&#45;e9c7399ca35c&#45;&gt;df73bb63&#45;28ab&#45;42da&#45;b801&#45;587f2027fde2</title>
<path fill="none" stroke="black" stroke-dasharray="5,2" d="M125.5,-72.72C125.5,-64.27 125.5,-54.89 125.5,-46.36"/>
<polygon fill="black" stroke="black" points="129,-46.15 125.5,-36.15 122,-46.15 129,-46.15"/>
</g>
</g>
</svg>
