<?xml version="1.0" encoding="UTF-8" standalone="no"?>
<!DOCTYPE svg PUBLIC "-//W3C//DTD SVG 1.1//EN"
 "http://www.w3.org/Graphics/SVG/1.1/DTD/svg11.dtd">
<!-- Generated by graphviz version 2.43.0 (0)
 -->
<!-- Title: %3 Pages: 1 -->
<svg width="847pt" height="415pt"
 viewBox="0.00 0.00 847.00 415.48" xmlns="http://www.w3.org/2000/svg" xmlns:xlink="http://www.w3.org/1999/xlink">
<g id="graph0" class="graph" transform="scale(1 1) rotate(0) translate(36 379.48)">
<title>%3</title>
<polygon fill="dimgray" stroke="transparent" points="-36,36 -36,-379.48 811,-379.48 811,36 -36,36"/>
<text text-anchor="middle" x="387.5" y="-328.28" font-family="Helvetica,sans-Serif" font-size="14.00">Sweep&#39;s Plan &amp; Progress</text>
<!-- start -->
<g id="node1" class="node">
<title>start</title>
</g>
<!-- 6fbeaf13&#45;5de6&#45;4c01&#45;841d&#45;7386f41bffb2 -->
<g id="node3" class="node">
<title>6fbeaf13&#45;5de6&#45;4c01&#45;841d&#45;7386f41bffb2</title>
<ellipse fill="#0ee832" stroke="black" cx="396" cy="-277.61" rx="69.09" ry="26.74"/>
<text text-anchor="middle" x="396" y="-281.41" font-family="Helvetica,sans-Serif" font-size="14.00">✓ Modify</text>
<text text-anchor="middle" x="396" y="-266.41" font-family="Helvetica,sans-Serif" font-size="14.00">src/main.py</text>
</g>
<!-- start&#45;&gt;6fbeaf13&#45;5de6&#45;4c01&#45;841d&#45;7386f41bffb2 -->
<g id="edge7" class="edge">
<title>start&#45;&gt;6fbeaf13&#45;5de6&#45;4c01&#45;841d&#45;7386f41bffb2</title>
<path fill="none" stroke="black" d="M275.77,-277.61C279.53,-277.61 296.49,-277.61 316.55,-277.61"/>
<polygon fill="black" stroke="black" points="316.61,-281.11 326.61,-277.61 316.61,-274.11 316.61,-281.11"/>
<text text-anchor="middle" x="301.1" y="-284.41" font-family="Helvetica,sans-Serif" font-size="14.00">Start</text>
</g>
<!-- end -->
<g id="node2" class="node">
<title>end</title>
</g>
<!-- 4e4adb16&#45;4b97&#45;42d9&#45;9256&#45;aac12701f9d6 -->
<g id="node4" class="node">
<title>4e4adb16&#45;4b97&#45;42d9&#45;9256&#45;aac12701f9d6</title>
<ellipse fill="white" stroke="black" cx="609" cy="-277.61" rx="59.29" ry="26.74"/>
<text text-anchor="middle" x="609" y="-281.41" font-family="Helvetica,sans-Serif" font-size="14.00">▶ Modify</text>
<text text-anchor="middle" x="609" y="-266.41" font-family="Helvetica,sans-Serif" font-size="14.00">src/api.py</text>
</g>
<!-- 6fbeaf13&#45;5de6&#45;4c01&#45;841d&#45;7386f41bffb2&#45;&gt;4e4adb16&#45;4b97&#45;42d9&#45;9256&#45;aac12701f9d6 -->
<g id="edge5" class="edge">
<title>6fbeaf13&#45;5de6&#45;4c01&#45;841d&#45;7386f41bffb2&#45;&gt;4e4adb16&#45;4b97&#45;42d9&#45;9256&#45;aac12701f9d6</title>
<path fill="none" stroke="black" d="M465.47,-277.61C490.11,-277.61 514.75,-277.61 539.39,-277.61"/>
<polygon fill="black" stroke="black" points="539.57,-281.11 549.57,-277.61 539.57,-274.11 539.57,-281.11"/>
</g>
<!-- e34f7650&#45;3928&#45;404c&#45;aa1d&#45;94ab2661733b -->
<g id="node5" class="node">
<title>e34f7650&#45;3928&#45;404c&#45;aa1d&#45;94ab2661733b</title>
<polygon fill="#ee0000" stroke="black" points="252.5,-213.74 1.5,-213.74 1.5,-177.74 252.5,-177.74 252.5,-213.74"/>
<text text-anchor="middle" x="127" y="-192.04" font-family="Helvetica,sans-Serif" font-size="14.00">✗ Ran sandbox for `src/main.py`.</text>
</g>
<!-- 6fbeaf13&#45;5de6&#45;4c01&#45;841d&#45;7386f41bffb2&#45;&gt;e34f7650&#45;3928&#45;404c&#45;aa1d&#45;94ab2661733b -->
<g id="edge1" class="edge">
<title>6fbeaf13&#45;5de6&#45;4c01&#45;841d&#45;7386f41bffb2&#45;&gt;e34f7650&#45;3928&#45;404c&#45;aa1d&#45;94ab2661733b</title>
<path fill="none" stroke="black" stroke-dasharray="5,2" d="M342.21,-260.64C299.64,-248 239.96,-230.28 194.24,-216.71"/>
<polygon fill="black" stroke="black" points="195,-213.28 184.42,-213.79 193.01,-219.99 195,-213.28"/>
</g>
<!-- 6012deef&#45;d083&#45;447b&#45;a931&#45;34894862448e -->
<g id="node6" class="node">
<title>6012deef&#45;d083&#45;447b&#45;a931&#45;34894862448e</title>
<polygon fill="white" stroke="black" points="521,-213.74 271,-213.74 271,-177.74 521,-177.74 521,-213.74"/>
<text text-anchor="middle" x="396" y="-192.04" font-family="Helvetica,sans-Serif" font-size="14.00">▶ Ran sandbox for `src/main.py`.</text>
</g>
<!-- 6fbeaf13&#45;5de6&#45;4c01&#45;841d&#45;7386f41bffb2&#45;&gt;6012deef&#45;d083&#45;447b&#45;a931&#45;34894862448e -->
<g id="edge4" class="edge">
<title>6fbeaf13&#45;5de6&#45;4c01&#45;841d&#45;7386f41bffb2&#45;&gt;6012deef&#45;d083&#45;447b&#45;a931&#45;34894862448e</title>
<path fill="none" stroke="black" stroke-dasharray="5,2" d="M396,-250.46C396,-242.01 396,-232.63 396,-224.1"/>
<polygon fill="black" stroke="black" points="399.5,-223.89 396,-213.89 392.5,-223.89 399.5,-223.89"/>
</g>
<!-- 4e4adb16&#45;4b97&#45;42d9&#45;9256&#45;aac12701f9d6&#45;&gt;end -->
<g id="edge8" class="edge">
<title>4e4adb16&#45;4b97&#45;42d9&#45;9256&#45;aac12701f9d6&#45;&gt;end</title>
<path fill="none" stroke="black" d="M668.53,-277.61C686.33,-277.61 704.01,-277.61 714.96,-277.61"/>
<polygon fill="black" stroke="black" points="715.27,-281.11 725.27,-277.61 715.27,-274.11 715.27,-281.11"/>
<text text-anchor="middle" x="696.95" y="-284.41" font-family="Helvetica,sans-Serif" font-size="14.00">Finish</text>
</g>
<!-- d5a6bf0a&#45;7324&#45;48e6&#45;afc3&#45;5cc1da3467dc -->
<g id="node7" class="node">
<title>d5a6bf0a&#45;7324&#45;48e6&#45;afc3&#45;5cc1da3467dc</title>
<polygon fill="white" stroke="black" points="775,-213.74 539,-213.74 539,-177.74 775,-177.74 775,-213.74"/>
<text text-anchor="middle" x="657" y="-192.04" font-family="Helvetica,sans-Serif" font-size="14.00">▶ Ran sandbox for `src/api.py`.</text>
</g>
<!-- 4e4adb16&#45;4b97&#45;42d9&#45;9256&#45;aac12701f9d6&#45;&gt;d5a6bf0a&#45;7324&#45;48e6&#45;afc3&#45;5cc1da3467dc -->
<g id="edge6" class="edge">
<title>4e4adb16&#45;4b97&#45;42d9&#45;9256&#45;aac12701f9d6&#45;&gt;d5a6bf0a&#45;7324&#45;48e6&#45;afc3&#45;5cc1da3467dc</title>
<path fill="none" stroke="black" stroke-dasharray="5,2" d="M624.19,-251.34C629.71,-242.15 635.95,-231.76 641.5,-222.53"/>
<polygon fill="black" stroke="black" points="644.61,-224.15 646.76,-213.78 638.61,-220.54 644.61,-224.15"/>
</g>
<!-- 9b1347c3&#45;94cc&#45;4671&#45;839d&#45;e9c7399ca35c -->
<g id="node8" class="node">
<title>9b1347c3&#45;94cc&#45;4671&#45;839d&#45;e9c7399ca35c</title>
<ellipse fill="#0ee832" stroke="black" cx="127" cy="-99.87" rx="69.09" ry="26.74"/>
<text text-anchor="middle" x="127" y="-103.67" font-family="Helvetica,sans-Serif" font-size="14.00">✓ Modify</text>
<text text-anchor="middle" x="127" y="-88.67" font-family="Helvetica,sans-Serif" font-size="14.00">src/main.py</text>
</g>
<!-- e34f7650&#45;3928&#45;404c&#45;aa1d&#45;94ab2661733b&#45;&gt;9b1347c3&#45;94cc&#45;4671&#45;839d&#45;e9c7399ca35c -->
<g id="edge2" class="edge">
<title>e34f7650&#45;3928&#45;404c&#45;aa1d&#45;94ab2661733b&#45;&gt;9b1347c3&#45;94cc&#45;4671&#45;839d&#45;e9c7399ca35c</title>
<path fill="none" stroke="black" d="M127,-177.52C127,-166.22 127,-151.01 127,-137.12"/>
<polygon fill="black" stroke="black" points="130.5,-136.84 127,-126.84 123.5,-136.84 130.5,-136.84"/>
<text text-anchor="middle" x="224.5" y="-148.54" font-family="Helvetica,sans-Serif" font-size="14.00">Additional changes required</text>
</g>
<!-- df73bb63&#45;28ab&#45;42da&#45;b801&#45;587f2027fde2 -->
<g id="node9" class="node">
<title>df73bb63&#45;28ab&#45;42da&#45;b801&#45;587f2027fde2</title>
<polygon fill="yellow" stroke="black" points="254,-36 0,-36 0,0 254,0 254,-36"/>
<text text-anchor="middle" x="127" y="-14.3" font-family="Helvetica,sans-Serif" font-size="14.00">⋯ Ran sandbox for `src/main.py`.</text>
</g>
<!-- 9b1347c3&#45;94cc&#45;4671&#45;839d&#45;e9c7399ca35c&#45;&gt;df73bb63&#45;28ab&#45;42da&#45;b801&#45;587f2027fde2 -->
<g id="edge3" class="edge">
<title>9b1347c3&#45;94cc&#45;4671&#45;839d&#45;e9c7399ca35c&#45;&gt;df73bb63&#45;28ab&#45;42da&#45;b801&#45;587f2027fde2</title>
<path fill="none" stroke="black" stroke-dasharray="5,2" d="M127,-72.72C127,-64.27 127,-54.89 127,-46.36"/>
<polygon fill="black" stroke="black" points="130.5,-46.15 127,-36.15 123.5,-46.15 130.5,-46.15"/>
</g>
</g>
</svg>
