<?xml version="1.0" encoding="UTF-8" standalone="no"?>
<!DOCTYPE svg PUBLIC "-//W3C//DTD SVG 1.1//EN"
 "http://www.w3.org/Graphics/SVG/1.1/DTD/svg11.dtd">
<!-- Generated by graphviz version 8.0.3 (0)
 -->
<!-- Pages: 1 -->
<svg width="653pt" height="240pt"
 viewBox="0.00 0.00 653.00 239.74" xmlns="http://www.w3.org/2000/svg" xmlns:xlink="http://www.w3.org/1999/xlink">
<g id="graph0" class="graph" transform="scale(1 1) rotate(0) translate(36 203.74)">
<polygon fill="white" stroke="none" points="-36,36 -36,-203.74 617,-203.74 617,36 -36,36"/>
<text text-anchor="middle" x="290.5" y="-152.54" font-family="Times,serif" font-size="14.00">Sweep&#39;s Plan &amp; Progress</text>
<!-- start -->
<g id="node1" class="node">
<title>start</title>
</g>
<!-- 785fe370&#45;dee5&#45;41fc&#45;b54d&#45;e6791cdaab7c -->
<g id="node3" class="node">
<title>785fe370&#45;dee5&#45;41fc&#45;b54d&#45;e6791cdaab7c</title>
<ellipse fill="green" stroke="black" cx="119.5" cy="-101.87" rx="63.78" ry="26.74"/>
<text text-anchor="middle" x="119.5" y="-105.67" font-family="Times,serif" font-size="14.00">✓ Create</text>
<text text-anchor="middle" x="119.5" y="-90.67" font-family="Times,serif" font-size="14.00">src/cnn.py</text>
</g>
<!-- start&#45;&gt;785fe370&#45;dee5&#45;41fc&#45;b54d&#45;e6791cdaab7c -->
<g id="edge6" class="edge">
<title>start&#45;&gt;785fe370&#45;dee5&#45;41fc&#45;b54d&#45;e6791cdaab7c</title>
<path fill="none" stroke="black" d="M0.84,-101.87C3.58,-101.87 22.48,-101.87 44.41,-101.87"/>
<polygon fill="black" stroke="black" points="44.36,-105.37 54.36,-101.87 44.36,-98.37 44.36,-105.37"/>
<text text-anchor="middle" x="28.43" y="-108.67" font-family="Times,serif" font-size="14.00">Start</text>
</g>
<!-- end -->
<g id="node2" class="node">
<title>end</title>
</g>
<!-- de5bca10&#45;80dd&#45;43c4&#45;82ff&#45;7944a99f03a4 -->
<g id="node4" class="node">
<title>de5bca10&#45;80dd&#45;43c4&#45;82ff&#45;7944a99f03a4</title>
<ellipse fill="yellow" stroke="black" cx="289.5" cy="-101.87" rx="70.92" ry="26.74"/>
<text text-anchor="middle" x="289.5" y="-105.67" font-family="Times,serif" font-size="14.00">⋯ Modify</text>
<text text-anchor="middle" x="289.5" y="-90.67" font-family="Times,serif" font-size="14.00">src/main.py</text>
</g>
<!-- 785fe370&#45;dee5&#45;41fc&#45;b54d&#45;e6791cdaab7c&#45;&gt;de5bca10&#45;80dd&#45;43c4&#45;82ff&#45;7944a99f03a4 -->
<g id="edge2" class="edge">
<title>785fe370&#45;dee5&#45;41fc&#45;b54d&#45;e6791cdaab7c&#45;&gt;de5bca10&#45;80dd&#45;43c4&#45;82ff&#45;7944a99f03a4</title>
<path fill="none" stroke="black" d="M183.58,-101.87C191.55,-101.87 199.51,-101.87 207.48,-101.87"/>
<polygon fill="black" stroke="black" points="207.34,-105.37 217.34,-101.87 207.34,-98.37 207.34,-105.37"/>
</g>
<!-- 45d30ce8&#45;b3e6&#45;49dd&#45;ab6f&#45;09b61fb1e81b -->
<g id="node6" class="node">
<title>45d30ce8&#45;b3e6&#45;49dd&#45;ab6f&#45;09b61fb1e81b</title>
<polygon fill="green" stroke="black" points="164.5,-38 74.5,-38 74.5,0 164.5,0 164.5,-38"/>
<text text-anchor="middle" x="119.5" y="-22.8" font-family="Times,serif" font-size="14.00">✓ Check</text>
<text text-anchor="middle" x="119.5" y="-7.8" font-family="Times,serif" font-size="14.00">src/cnn.py</text>
</g>
<!-- 785fe370&#45;dee5&#45;41fc&#45;b54d&#45;e6791cdaab7c&#45;&gt;45d30ce8&#45;b3e6&#45;49dd&#45;ab6f&#45;09b61fb1e81b -->
<g id="edge1" class="edge">
<title>785fe370&#45;dee5&#45;41fc&#45;b54d&#45;e6791cdaab7c&#45;&gt;45d30ce8&#45;b3e6&#45;49dd&#45;ab6f&#45;09b61fb1e81b</title>
<path fill="none" stroke="black" stroke-dasharray="5,2" d="M119.5,-74.84C119.5,-66.58 119.5,-57.41 119.5,-48.96"/>
<polygon fill="black" stroke="black" points="123,-49.05 119.5,-39.05 116,-49.05 123,-49.05"/>
</g>
<!-- d8ba81f6&#45;35ba&#45;4135&#45;a349&#45;9cb0508e11ff -->
<g id="node5" class="node">
<title>d8ba81f6&#45;35ba&#45;4135&#45;a349&#45;9cb0508e11ff</title>
<ellipse fill="white" stroke="black" cx="456.5" cy="-101.87" rx="60.62" ry="26.74"/>
<text text-anchor="middle" x="456.5" y="-105.67" font-family="Times,serif" font-size="14.00">▶ Modify</text>
<text text-anchor="middle" x="456.5" y="-90.67" font-family="Times,serif" font-size="14.00">src/api.py</text>
</g>
<!-- de5bca10&#45;80dd&#45;43c4&#45;82ff&#45;7944a99f03a4&#45;&gt;d8ba81f6&#45;35ba&#45;4135&#45;a349&#45;9cb0508e11ff -->
<g id="edge4" class="edge">
<title>de5bca10&#45;80dd&#45;43c4&#45;82ff&#45;7944a99f03a4&#45;&gt;d8ba81f6&#45;35ba&#45;4135&#45;a349&#45;9cb0508e11ff</title>
<path fill="none" stroke="black" d="M360.61,-101.87C368.59,-101.87 376.57,-101.87 384.56,-101.87"/>
<polygon fill="black" stroke="black" points="384.44,-105.37 394.44,-101.87 384.44,-98.37 384.44,-105.37"/>
</g>
<!-- 61db986b&#45;7704&#45;4a02&#45;911e&#45;adae03db6bcf -->
<g id="node7" class="node">
<title>61db986b&#45;7704&#45;4a02&#45;911e&#45;adae03db6bcf</title>
<polygon fill="white" stroke="black" points="339.5,-38 239.5,-38 239.5,0 339.5,0 339.5,-38"/>
<text text-anchor="middle" x="289.5" y="-22.8" font-family="Times,serif" font-size="14.00">▶ Check</text>
<text text-anchor="middle" x="289.5" y="-7.8" font-family="Times,serif" font-size="14.00">src/main.py</text>
</g>
<!-- de5bca10&#45;80dd&#45;43c4&#45;82ff&#45;7944a99f03a4&#45;&gt;61db986b&#45;7704&#45;4a02&#45;911e&#45;adae03db6bcf -->
<g id="edge3" class="edge">
<title>de5bca10&#45;80dd&#45;43c4&#45;82ff&#45;7944a99f03a4&#45;&gt;61db986b&#45;7704&#45;4a02&#45;911e&#45;adae03db6bcf</title>
<path fill="none" stroke="black" stroke-dasharray="5,2" d="M289.5,-74.84C289.5,-66.58 289.5,-57.41 289.5,-48.96"/>
<polygon fill="black" stroke="black" points="293,-49.05 289.5,-39.05 286,-49.05 293,-49.05"/>
</g>
<!-- d8ba81f6&#45;35ba&#45;4135&#45;a349&#45;9cb0508e11ff&#45;&gt;end -->
<g id="edge7" class="edge">
<title>d8ba81f6&#45;35ba&#45;4135&#45;a349&#45;9cb0508e11ff&#45;&gt;end</title>
<path fill="none" stroke="black" d="M517.41,-101.87C537.39,-101.87 557.53,-101.87 569.5,-101.87"/>
<polygon fill="black" stroke="black" points="569.14,-105.37 579.14,-101.87 569.14,-98.37 569.14,-105.37"/>
<text text-anchor="middle" x="548.66" y="-108.67" font-family="Times,serif" font-size="14.00">Finish</text>
</g>
<!-- 4d26e838&#45;0cd9&#45;47c2&#45;856d&#45;cbc4a2f881e6 -->
<g id="node8" class="node">
<title>4d26e838&#45;0cd9&#45;47c2&#45;856d&#45;cbc4a2f881e6</title>
<polygon fill="white" stroke="black" points="499.5,-38 413.5,-38 413.5,0 499.5,0 499.5,-38"/>
<text text-anchor="middle" x="456.5" y="-22.8" font-family="Times,serif" font-size="14.00">▶ Check</text>
<text text-anchor="middle" x="456.5" y="-7.8" font-family="Times,serif" font-size="14.00">src/api.py</text>
</g>
<!-- d8ba81f6&#45;35ba&#45;4135&#45;a349&#45;9cb0508e11ff&#45;&gt;4d26e838&#45;0cd9&#45;47c2&#45;856d&#45;cbc4a2f881e6 -->
<g id="edge5" class="edge">
<title>d8ba81f6&#45;35ba&#45;4135&#45;a349&#45;9cb0508e11ff&#45;&gt;4d26e838&#45;0cd9&#45;47c2&#45;856d&#45;cbc4a2f881e6</title>
<path fill="none" stroke="black" stroke-dasharray="5,2" d="M456.5,-74.84C456.5,-66.58 456.5,-57.41 456.5,-48.96"/>
<polygon fill="black" stroke="black" points="460,-49.05 456.5,-39.05 453,-49.05 460,-49.05"/>
</g>
</g>
</svg>
