<?xml version="1.0" encoding="UTF-8" standalone="no"?>
<!DOCTYPE svg PUBLIC "-//W3C//DTD SVG 1.1//EN"
 "http://www.w3.org/Graphics/SVG/1.1/DTD/svg11.dtd">
<!-- Generated by graphviz version 2.43.0 (0)
 -->
<!-- Title: %3 Pages: 1 -->
<svg width="369pt" height="240pt"
 viewBox="0.00 0.00 369.00 239.74" xmlns="http://www.w3.org/2000/svg" xmlns:xlink="http://www.w3.org/1999/xlink">
<g id="graph0" class="graph" transform="scale(1 1) rotate(0) translate(36 203.74)">
<title>%3</title>
<polygon fill="dimgray" stroke="transparent" points="-36,36 -36,-203.74 333,-203.74 333,36 -36,36"/>
<text text-anchor="middle" x="148.5" y="-152.54" font-family="Helvetica,sans-Serif" font-size="14.00">Sweep&#39;s Plan &amp; Progress</text>
<!-- start -->
<g id="node1" class="node">
<title>start</title>
</g>
<!-- 3e1aa324&#45;24c5&#45;457e&#45;ad59&#45;71db9288c149 -->
<g id="node3" class="node">
<title>3e1aa324&#45;24c5&#45;457e&#45;ad59&#45;71db9288c149</title>
<ellipse fill="#0ee832" stroke="black" cx="145.5" cy="-101.87" rx="92.76" ry="26.74"/>
<text text-anchor="middle" x="145.5" y="-105.67" font-family="Helvetica,sans-Serif" font-size="14.00">✓ Create</text>
<text text-anchor="middle" x="145.5" y="-90.67" font-family="Helvetica,sans-Serif" font-size="14.00">src/test_main.py</text>
</g>
<!-- start&#45;&gt;3e1aa324&#45;24c5&#45;457e&#45;ad59&#45;71db9288c149 -->
<g id="edge2" class="edge">
<title>start&#45;&gt;3e1aa324&#45;24c5&#45;457e&#45;ad59&#45;71db9288c149</title>
<path fill="none" stroke="black" d="M1.15,-101.87C4.59,-101.87 21.37,-101.87 42.35,-101.87"/>
<polygon fill="black" stroke="black" points="42.6,-105.37 52.6,-101.87 42.6,-98.37 42.6,-105.37"/>
<text text-anchor="middle" x="26.93" y="-108.67" font-family="Helvetica,sans-Serif" font-size="14.00">Start</text>
</g>
<!-- end -->
<g id="node2" class="node">
<title>end</title>
</g>
<!-- 3e1aa324&#45;24c5&#45;457e&#45;ad59&#45;71db9288c149&#45;&gt;end -->
<g id="edge3" class="edge">
<title>3e1aa324&#45;24c5&#45;457e&#45;ad59&#45;71db9288c149&#45;&gt;end</title>
<path fill="none" stroke="black" d="M238.55,-101.87C257.47,-101.87 274.84,-101.87 285.52,-101.87"/>
<polygon fill="black" stroke="black" points="285.81,-105.37 295.81,-101.87 285.81,-98.37 285.81,-105.37"/>
<text text-anchor="middle" x="267.07" y="-108.67" font-family="Helvetica,sans-Serif" font-size="14.00">Finish</text>
</g>
<!-- 8630f1a1&#45;6c93&#45;4286&#45;9f62&#45;85931dd553a1 -->
<g id="node4" class="node">
<title>8630f1a1&#45;6c93&#45;4286&#45;9f62&#45;85931dd553a1</title>
<polygon fill="yellow" stroke="black" points="211,-38 80,-38 80,0 211,0 211,-38"/>
<text text-anchor="middle" x="145.5" y="-22.8" font-family="Helvetica,sans-Serif" font-size="14.00">⋯ Check</text>
<text text-anchor="middle" x="145.5" y="-7.8" font-family="Helvetica,sans-Serif" font-size="14.00">src/test_main.py</text>
</g>
<!-- 3e1aa324&#45;24c5&#45;457e&#45;ad59&#45;71db9288c149&#45;&gt;8630f1a1&#45;6c93&#45;4286&#45;9f62&#45;85931dd553a1 -->
<g id="edge1" class="edge">
<title>3e1aa324&#45;24c5&#45;457e&#45;ad59&#45;71db9288c149&#45;&gt;8630f1a1&#45;6c93&#45;4286&#45;9f62&#45;85931dd553a1</title>
<path fill="none" stroke="black" stroke-dasharray="5,2" d="M145.5,-74.84C145.5,-66.3 145.5,-56.78 145.5,-48.1"/>
<polygon fill="black" stroke="black" points="149,-48.05 145.5,-38.05 142,-48.05 149,-48.05"/>
</g>
</g>
</svg>
