<?xml version="1.0" encoding="UTF-8" standalone="no"?>
<!DOCTYPE svg PUBLIC "-//W3C//DTD SVG 1.1//EN"
 "http://www.w3.org/Graphics/SVG/1.1/DTD/svg11.dtd">
<!-- Generated by graphviz version 8.0.3 (0)
 -->
<!-- Pages: 1 -->
<svg width="840pt" height="238pt"
 viewBox="0.00 0.00 839.50 237.74" xmlns="http://www.w3.org/2000/svg" xmlns:xlink="http://www.w3.org/1999/xlink">
<g id="graph0" class="graph" transform="scale(1 1) rotate(0) translate(36 201.74)">
<polygon fill="dimgray" stroke="none" points="-36,36 -36,-201.74 803.5,-201.74 803.5,36 -36,36"/>
<text text-anchor="middle" x="383.75" y="-150.54" font-family="Helvetica,sans-Serif" font-size="14.00">Sweep&#39;s Plan &amp; Progress</text>
<!-- start -->
<g id="node1" class="node">
<title>start</title>
</g>
<!-- 695d0d8b&#45;f664&#45;4dd8&#45;b231&#45;f731d35a385d -->
<g id="node3" class="node">
<title>695d0d8b&#45;f664&#45;4dd8&#45;b231&#45;f731d35a385d</title>
<ellipse fill="#0ee832" stroke="black" cx="171.5" cy="-99.87" rx="62.87" ry="26.74"/>
<text text-anchor="middle" x="171.5" y="-103.67" font-family="Helvetica,sans-Serif" font-size="14.00">✓ Create</text>
<text text-anchor="middle" x="171.5" y="-88.67" font-family="Helvetica,sans-Serif" font-size="14.00">src/cnn.py</text>
</g>
<!-- start&#45;&gt;695d0d8b&#45;f664&#45;4dd8&#45;b231&#45;f731d35a385d -->
<g id="edge6" class="edge">
<title>start&#45;&gt;695d0d8b&#45;f664&#45;4dd8&#45;b231&#45;f731d35a385d</title>
<path fill="none" stroke="black" d="M56.83,-99.87C59.41,-99.87 76.8,-99.87 97.28,-99.87"/>
<polygon fill="black" stroke="black" points="97.22,-103.37 107.22,-99.87 97.22,-96.37 97.22,-103.37"/>
<text text-anchor="middle" x="82.78" y="-106.67" font-family="Helvetica,sans-Serif" font-size="14.00">Start</text>
</g>
<!-- end -->
<g id="node2" class="node">
<title>end</title>
</g>
<!-- 5207f195&#45;3555&#45;46bc&#45;b831&#45;279c144e3466 -->
<g id="node4" class="node">
<title>5207f195&#45;3555&#45;46bc&#45;b831&#45;279c144e3466</title>
<ellipse fill="white" stroke="black" cx="388.5" cy="-99.87" rx="69.09" ry="26.74"/>
<text text-anchor="middle" x="388.5" y="-103.67" font-family="Helvetica,sans-Serif" font-size="14.00">▶ Modify</text>
<text text-anchor="middle" x="388.5" y="-88.67" font-family="Helvetica,sans-Serif" font-size="14.00">src/main.py</text>
</g>
<!-- 695d0d8b&#45;f664&#45;4dd8&#45;b231&#45;f731d35a385d&#45;&gt;5207f195&#45;3555&#45;46bc&#45;b831&#45;279c144e3466 -->
<g id="edge2" class="edge">
<title>695d0d8b&#45;f664&#45;4dd8&#45;b231&#45;f731d35a385d&#45;&gt;5207f195&#45;3555&#45;46bc&#45;b831&#45;279c144e3466</title>
<path fill="none" stroke="black" d="M234.65,-99.87C259.17,-99.87 283.69,-99.87 308.2,-99.87"/>
<polygon fill="black" stroke="black" points="308.09,-103.37 318.09,-99.87 308.09,-96.37 308.09,-103.37"/>
</g>
<!-- a2385577&#45;a505&#45;40a7&#45;9efb&#45;0e895efcdd14 -->
<g id="node6" class="node">
<title>a2385577&#45;a505&#45;40a7&#45;9efb&#45;0e895efcdd14</title>
<polygon fill="yellow" stroke="black" points="245,-36 0,-36 0,0 245,0 245,-36"/>
<text text-anchor="middle" x="122.5" y="-14.3" font-family="Helvetica,sans-Serif" font-size="14.00">⋯ Ran sandbox for `src/cnn.py`.</text>
</g>
<!-- 695d0d8b&#45;f664&#45;4dd8&#45;b231&#45;f731d35a385d&#45;&gt;a2385577&#45;a505&#45;40a7&#45;9efb&#45;0e895efcdd14 -->
<g id="edge1" class="edge">
<title>695d0d8b&#45;f664&#45;4dd8&#45;b231&#45;f731d35a385d&#45;&gt;a2385577&#45;a505&#45;40a7&#45;9efb&#45;0e895efcdd14</title>
<path fill="none" stroke="black" stroke-dasharray="5,2" d="M156,-73.6C150.48,-64.6 144.25,-54.46 138.68,-45.37"/>
<polygon fill="black" stroke="black" points="141.16,-43.73 132.95,-37.04 135.2,-47.39 141.16,-43.73"/>
</g>
<!-- 2a6ae864&#45;d39f&#45;47df&#45;bba9&#45;fce7226273e9 -->
<g id="node5" class="node">
<title>2a6ae864&#45;d39f&#45;47df&#45;bba9&#45;fce7226273e9</title>
<ellipse fill="white" stroke="black" cx="601.5" cy="-99.87" rx="59.29" ry="26.74"/>
<text text-anchor="middle" x="601.5" y="-103.67" font-family="Helvetica,sans-Serif" font-size="14.00">▶ Modify</text>
<text text-anchor="middle" x="601.5" y="-88.67" font-family="Helvetica,sans-Serif" font-size="14.00">src/api.py</text>
</g>
<!-- 5207f195&#45;3555&#45;46bc&#45;b831&#45;279c144e3466&#45;&gt;2a6ae864&#45;d39f&#45;47df&#45;bba9&#45;fce7226273e9 -->
<g id="edge4" class="edge">
<title>5207f195&#45;3555&#45;46bc&#45;b831&#45;279c144e3466&#45;&gt;2a6ae864&#45;d39f&#45;47df&#45;bba9&#45;fce7226273e9</title>
<path fill="none" stroke="black" d="M457.97,-99.87C482.31,-99.87 506.65,-99.87 530.99,-99.87"/>
<polygon fill="black" stroke="black" points="530.79,-103.37 540.79,-99.87 530.79,-96.37 530.79,-103.37"/>
</g>
<!-- b83cf3ee&#45;fc08&#45;42ab&#45;b86d&#45;e8192f99a8ca -->
<g id="node7" class="node">
<title>b83cf3ee&#45;fc08&#45;42ab&#45;b86d&#45;e8192f99a8ca</title>
<polygon fill="white" stroke="black" points="513.5,-36 263.5,-36 263.5,0 513.5,0 513.5,-36"/>
<text text-anchor="middle" x="388.5" y="-14.3" font-family="Helvetica,sans-Serif" font-size="14.00">▶ Ran sandbox for `src/main.py`.</text>
</g>
<!-- 5207f195&#45;3555&#45;46bc&#45;b831&#45;279c144e3466&#45;&gt;b83cf3ee&#45;fc08&#45;42ab&#45;b86d&#45;e8192f99a8ca -->
<g id="edge3" class="edge">
<title>5207f195&#45;3555&#45;46bc&#45;b831&#45;279c144e3466&#45;&gt;b83cf3ee&#45;fc08&#45;42ab&#45;b86d&#45;e8192f99a8ca</title>
<path fill="none" stroke="black" stroke-dasharray="5,2" d="M388.5,-72.72C388.5,-64.46 388.5,-55.31 388.5,-46.93"/>
<polygon fill="black" stroke="black" points="392,-47.15 388.5,-37.15 385,-47.15 392,-47.15"/>
</g>
<!-- 2a6ae864&#45;d39f&#45;47df&#45;bba9&#45;fce7226273e9&#45;&gt;end -->
<g id="edge7" class="edge">
<title>2a6ae864&#45;d39f&#45;47df&#45;bba9&#45;fce7226273e9&#45;&gt;end</title>
<path fill="none" stroke="black" d="M661.03,-99.87C678.81,-99.87 696.47,-99.87 707.42,-99.87"/>
<polygon fill="black" stroke="black" points="707.17,-103.37 717.17,-99.87 707.17,-96.37 707.17,-103.37"/>
<text text-anchor="middle" x="689.45" y="-106.67" font-family="Helvetica,sans-Serif" font-size="14.00">Finish</text>
</g>
<!-- 609bdbab&#45;5719&#45;49a0&#45;9a8a&#45;527f18db893e -->
<g id="node8" class="node">
<title>609bdbab&#45;5719&#45;49a0&#45;9a8a&#45;527f18db893e</title>
<polygon fill="white" stroke="black" points="767.5,-36 531.5,-36 531.5,0 767.5,0 767.5,-36"/>
<text text-anchor="middle" x="649.5" y="-14.3" font-family="Helvetica,sans-Serif" font-size="14.00">▶ Ran sandbox for `src/api.py`.</text>
</g>
<!-- 2a6ae864&#45;d39f&#45;47df&#45;bba9&#45;fce7226273e9&#45;&gt;609bdbab&#45;5719&#45;49a0&#45;9a8a&#45;527f18db893e -->
<g id="edge5" class="edge">
<title>2a6ae864&#45;d39f&#45;47df&#45;bba9&#45;fce7226273e9&#45;&gt;609bdbab&#45;5719&#45;49a0&#45;9a8a&#45;527f18db893e</title>
<path fill="none" stroke="black" stroke-dasharray="5,2" d="M616.69,-73.6C622.09,-64.6 628.19,-54.46 633.65,-45.37"/>
<polygon fill="black" stroke="black" points="637.11,-47.41 639.26,-37.04 631.11,-43.8 637.11,-47.41"/>
</g>
</g>
</svg>
