<?xml version="1.0" encoding="UTF-8" standalone="no"?>
<!DOCTYPE svg PUBLIC "-//W3C//DTD SVG 1.1//EN"
 "http://www.w3.org/Graphics/SVG/1.1/DTD/svg11.dtd">
<!-- Generated by graphviz version 8.0.3 (0)
 -->
<!-- Pages: 1 -->
<svg width="784pt" height="215pt"
 viewBox="0.00 0.00 783.50 214.74" xmlns="http://www.w3.org/2000/svg" xmlns:xlink="http://www.w3.org/1999/xlink">
<g id="graph0" class="graph" transform="scale(1 1) rotate(0) translate(36 178.74)">
<polygon fill="white" stroke="none" points="-36,36 -36,-178.74 747.5,-178.74 747.5,36 -36,36"/>
<!-- start -->
<g id="node1" class="node">
<title>start</title>
</g>
<!-- 73b1b36e&#45;a2dd&#45;4a95&#45;b732&#45;43efe938ccfc -->
<g id="node3" class="node">
<title>73b1b36e&#45;a2dd&#45;4a95&#45;b732&#45;43efe938ccfc</title>
<ellipse fill="green" stroke="black" cx="119.5" cy="-115.87" rx="63.78" ry="26.74"/>
<text text-anchor="middle" x="119.5" y="-119.67" font-family="Times,serif" font-size="14.00">✓ Create</text>
<text text-anchor="middle" x="119.5" y="-104.67" font-family="Times,serif" font-size="14.00">src/cnn.py</text>
</g>
<!-- start&#45;&gt;73b1b36e&#45;a2dd&#45;4a95&#45;b732&#45;43efe938ccfc -->
<g id="edge6" class="edge">
<title>start&#45;&gt;73b1b36e&#45;a2dd&#45;4a95&#45;b732&#45;43efe938ccfc</title>
<path fill="none" stroke="black" d="M0.84,-115.87C3.58,-115.87 22.48,-115.87 44.41,-115.87"/>
<polygon fill="black" stroke="black" points="44.36,-119.37 54.36,-115.87 44.36,-112.37 44.36,-119.37"/>
<text text-anchor="middle" x="28.43" y="-122.67" font-family="Times,serif" font-size="14.00">Start</text>
</g>
<!-- end -->
<g id="node2" class="node">
<title>end</title>
</g>
<!-- f67eea0d&#45;2ade&#45;4000&#45;926a&#45;cb5f3d0d18d6 -->
<g id="node4" class="node">
<title>f67eea0d&#45;2ade&#45;4000&#45;926a&#45;cb5f3d0d18d6</title>
<ellipse fill="green" stroke="black" cx="336.5" cy="-115.87" rx="70.92" ry="26.74"/>
<text text-anchor="middle" x="336.5" y="-119.67" font-family="Times,serif" font-size="14.00">✓ Modify</text>
<text text-anchor="middle" x="336.5" y="-104.67" font-family="Times,serif" font-size="14.00">src/main.py</text>
</g>
<!-- 73b1b36e&#45;a2dd&#45;4a95&#45;b732&#45;43efe938ccfc&#45;&gt;f67eea0d&#45;2ade&#45;4000&#45;926a&#45;cb5f3d0d18d6 -->
<g id="edge2" class="edge">
<title>73b1b36e&#45;a2dd&#45;4a95&#45;b732&#45;43efe938ccfc&#45;&gt;f67eea0d&#45;2ade&#45;4000&#45;926a&#45;cb5f3d0d18d6</title>
<path fill="none" stroke="black" d="M183.73,-115.87C205.84,-115.87 230.92,-115.87 254.28,-115.87"/>
<polygon fill="black" stroke="black" points="254.22,-119.37 264.22,-115.87 254.22,-112.37 254.22,-119.37"/>
<text text-anchor="middle" x="224.46" y="-122.67" font-family="Times,serif" font-size="14.00">Continue</text>
</g>
<!-- 442cb354&#45;758d&#45;4c65&#45;a0ac&#45;67cc1eeaf2f9 -->
<g id="node6" class="node">
<title>442cb354&#45;758d&#45;4c65&#45;a0ac&#45;67cc1eeaf2f9</title>
<polygon fill="green" stroke="black" points="164.5,-38 74.5,-38 74.5,0 164.5,0 164.5,-38"/>
<text text-anchor="middle" x="119.5" y="-22.8" font-family="Times,serif" font-size="14.00">✓ Check</text>
<text text-anchor="middle" x="119.5" y="-7.8" font-family="Times,serif" font-size="14.00">src/cnn.py</text>
</g>
<!-- 73b1b36e&#45;a2dd&#45;4a95&#45;b732&#45;43efe938ccfc&#45;&gt;442cb354&#45;758d&#45;4c65&#45;a0ac&#45;67cc1eeaf2f9 -->
<g id="edge1" class="edge">
<title>73b1b36e&#45;a2dd&#45;4a95&#45;b732&#45;43efe938ccfc&#45;&gt;442cb354&#45;758d&#45;4c65&#45;a0ac&#45;67cc1eeaf2f9</title>
<path fill="none" stroke="black" stroke-dasharray="5,2" d="M119.5,-88.7C119.5,-76.43 119.5,-61.78 119.5,-49.17"/>
<polygon fill="black" stroke="black" points="123,-49.28 119.5,-39.28 116,-49.28 123,-49.28"/>
<text text-anchor="middle" x="173" y="-59.8" font-family="Times,serif" font-size="14.00">Check changes</text>
</g>
<!-- 355e7eb2&#45;788e&#45;4d29&#45;9129&#45;a2d9f4c62924 -->
<g id="node5" class="node">
<title>355e7eb2&#45;788e&#45;4d29&#45;9129&#45;a2d9f4c62924</title>
<ellipse fill="white" stroke="black" cx="550.5" cy="-115.87" rx="60.62" ry="26.74"/>
<text text-anchor="middle" x="550.5" y="-119.67" font-family="Times,serif" font-size="14.00">▶ Modify</text>
<text text-anchor="middle" x="550.5" y="-104.67" font-family="Times,serif" font-size="14.00">src/api.py</text>
</g>
<!-- f67eea0d&#45;2ade&#45;4000&#45;926a&#45;cb5f3d0d18d6&#45;&gt;355e7eb2&#45;788e&#45;4d29&#45;9129&#45;a2d9f4c62924 -->
<g id="edge4" class="edge">
<title>f67eea0d&#45;2ade&#45;4000&#45;926a&#45;cb5f3d0d18d6&#45;&gt;355e7eb2&#45;788e&#45;4d29&#45;9129&#45;a2d9f4c62924</title>
<path fill="none" stroke="black" d="M407.76,-115.87C430.54,-115.87 455.76,-115.87 478.58,-115.87"/>
<polygon fill="black" stroke="black" points="478.57,-119.37 488.57,-115.87 478.57,-112.37 478.57,-119.37"/>
<text text-anchor="middle" x="448.45" y="-122.67" font-family="Times,serif" font-size="14.00">Continue</text>
</g>
<!-- 62bfe242&#45;e8ae&#45;40f3&#45;b4ed&#45;65f9a63e2b85 -->
<g id="node7" class="node">
<title>62bfe242&#45;e8ae&#45;40f3&#45;b4ed&#45;65f9a63e2b85</title>
<polygon fill="yellow" stroke="black" points="386.5,-38 286.5,-38 286.5,0 386.5,0 386.5,-38"/>
<text text-anchor="middle" x="336.5" y="-22.8" font-family="Times,serif" font-size="14.00">⋯ Check</text>
<text text-anchor="middle" x="336.5" y="-7.8" font-family="Times,serif" font-size="14.00">src/main.py</text>
</g>
<!-- f67eea0d&#45;2ade&#45;4000&#45;926a&#45;cb5f3d0d18d6&#45;&gt;62bfe242&#45;e8ae&#45;40f3&#45;b4ed&#45;65f9a63e2b85 -->
<g id="edge3" class="edge">
<title>f67eea0d&#45;2ade&#45;4000&#45;926a&#45;cb5f3d0d18d6&#45;&gt;62bfe242&#45;e8ae&#45;40f3&#45;b4ed&#45;65f9a63e2b85</title>
<path fill="none" stroke="black" stroke-dasharray="5,2" d="M336.5,-88.7C336.5,-76.43 336.5,-61.78 336.5,-49.17"/>
<polygon fill="black" stroke="black" points="340,-49.28 336.5,-39.28 333,-49.28 340,-49.28"/>
<text text-anchor="middle" x="390" y="-59.8" font-family="Times,serif" font-size="14.00">Check changes</text>
</g>
<!-- 19960585&#45;f035&#45;44ee&#45;8694&#45;49a2a5d84340 -->
<g id="node8" class="node">
<title>19960585&#45;f035&#45;44ee&#45;8694&#45;49a2a5d84340</title>
<polygon fill="white" stroke="black" points="658.5,-38 572.5,-38 572.5,0 658.5,0 658.5,-38"/>
<text text-anchor="middle" x="615.5" y="-22.8" font-family="Times,serif" font-size="14.00">▶ Check</text>
<text text-anchor="middle" x="615.5" y="-7.8" font-family="Times,serif" font-size="14.00">src/api.py</text>
</g>
<!-- 355e7eb2&#45;788e&#45;4d29&#45;9129&#45;a2d9f4c62924&#45;&gt;19960585&#45;f035&#45;44ee&#45;8694&#45;49a2a5d84340 -->
<g id="edge5" class="edge">
<title>355e7eb2&#45;788e&#45;4d29&#45;9129&#45;a2d9f4c62924&#45;&gt;19960585&#45;f035&#45;44ee&#45;8694&#45;49a2a5d84340</title>
<path fill="none" stroke="black" stroke-dasharray="5,2" d="M545.51,-88.98C544.73,-78.11 545.69,-65.75 551.5,-56 554.56,-50.87 558.65,-46.41 563.28,-42.55"/>
<polygon fill="black" stroke="black" points="565.01,-44.89 571.1,-36.23 560.94,-39.2 565.01,-44.89"/>
<text text-anchor="middle" x="605" y="-59.8" font-family="Times,serif" font-size="14.00">Check changes</text>
</g>
<!-- 19960585&#45;f035&#45;44ee&#45;8694&#45;49a2a5d84340&#45;&gt;end -->
<g id="edge7" class="edge">
<title>19960585&#45;f035&#45;44ee&#45;8694&#45;49a2a5d84340&#45;&gt;end</title>
<path fill="none" stroke="black" d="M641.7,-38.25C647.82,-43.45 653.89,-49.48 658.5,-56 668.5,-70.13 674.55,-89.35 677.71,-101.93"/>
<polygon fill="black" stroke="black" points="674.46,-102.42 680.05,-111.42 681.29,-100.89 674.46,-102.42"/>
<text text-anchor="middle" x="689" y="-59.8" font-family="Times,serif" font-size="14.00">Finish</text>
</g>
</g>
</svg>
