<?xml version="1.0" encoding="UTF-8" standalone="no"?>
<!DOCTYPE svg PUBLIC "-//W3C//DTD SVG 1.1//EN"
 "http://www.w3.org/Graphics/SVG/1.1/DTD/svg11.dtd">
<!-- Generated by graphviz version 2.43.0 (0)
 -->
<!-- Title: %3 Pages: 1 -->
<svg width="579pt" height="779pt"
 viewBox="0.00 0.00 579.13 778.96" xmlns="http://www.w3.org/2000/svg" xmlns:xlink="http://www.w3.org/1999/xlink">
<g id="graph0" class="graph" transform="scale(1 1) rotate(0) translate(36 742.96)">
<title>%3</title>
<polygon fill="dimgray" stroke="transparent" points="-36,36 -36,-742.96 543.13,-742.96 543.13,36 -36,36"/>
<text text-anchor="middle" x="253.57" y="-691.76" font-family="Helvetica,sans-Serif" font-size="14.00">Sweep&#39;s Plan &amp; Progress</text>
<!-- start -->
<g id="node1" class="node">
<title>start</title>
</g>
<!-- 3e1aa324&#45;24c5&#45;457e&#45;ad59&#45;71db9288c149 -->
<g id="node3" class="node">
<title>3e1aa324&#45;24c5&#45;457e&#45;ad59&#45;71db9288c149</title>
<ellipse fill="#0ee832" stroke="black" cx="292.63" cy="-641.09" rx="92.76" ry="26.74"/>
<text text-anchor="middle" x="292.63" y="-644.89" font-family="Helvetica,sans-Serif" font-size="14.00">✓ Create</text>
<text text-anchor="middle" x="292.63" y="-629.89" font-family="Helvetica,sans-Serif" font-size="14.00">src/test_main.py</text>
</g>
<!-- start&#45;&gt;3e1aa324&#45;24c5&#45;457e&#45;ad59&#45;71db9288c149 -->
<g id="edge14" class="edge">
<title>start&#45;&gt;3e1aa324&#45;24c5&#45;457e&#45;ad59&#45;71db9288c149</title>
<path fill="none" stroke="black" d="M148.28,-641.09C151.72,-641.09 168.5,-641.09 189.48,-641.09"/>
<polygon fill="black" stroke="black" points="189.73,-644.59 199.73,-641.09 189.73,-637.59 189.73,-644.59"/>
<text text-anchor="middle" x="174.07" y="-647.89" font-family="Helvetica,sans-Serif" font-size="14.00">Start</text>
</g>
<!-- end -->
<g id="node2" class="node">
<title>end</title>
</g>
<!-- 3e1aa324&#45;24c5&#45;457e&#45;ad59&#45;71db9288c149&#45;&gt;end -->
<g id="edge15" class="edge">
<title>3e1aa324&#45;24c5&#45;457e&#45;ad59&#45;71db9288c149&#45;&gt;end</title>
<path fill="none" stroke="black" d="M385.68,-641.09C404.6,-641.09 421.97,-641.09 432.65,-641.09"/>
<polygon fill="black" stroke="black" points="432.94,-644.59 442.94,-641.09 432.94,-637.59 432.94,-644.59"/>
<text text-anchor="middle" x="414.2" y="-647.89" font-family="Helvetica,sans-Serif" font-size="14.00">Finish</text>
</g>
<!-- 8630f1a1&#45;6c93&#45;4286&#45;9f62&#45;85931dd553a1 -->
<g id="node4" class="node">
<title>8630f1a1&#45;6c93&#45;4286&#45;9f62&#45;85931dd553a1</title>
<polygon fill="#ee0000" stroke="black" points="192.13,-577.22 61.13,-577.22 61.13,-539.22 192.13,-539.22 192.13,-577.22"/>
<text text-anchor="middle" x="126.63" y="-562.02" font-family="Helvetica,sans-Serif" font-size="14.00">✗ Check</text>
<text text-anchor="middle" x="126.63" y="-547.02" font-family="Helvetica,sans-Serif" font-size="14.00">src/test_main.py</text>
</g>
<!-- 3e1aa324&#45;24c5&#45;457e&#45;ad59&#45;71db9288c149&#45;&gt;8630f1a1&#45;6c93&#45;4286&#45;9f62&#45;85931dd553a1 -->
<g id="edge1" class="edge">
<title>3e1aa324&#45;24c5&#45;457e&#45;ad59&#45;71db9288c149&#45;&gt;8630f1a1&#45;6c93&#45;4286&#45;9f62&#45;85931dd553a1</title>
<path fill="none" stroke="black" stroke-dasharray="5,2" d="M246.39,-617.56C223.46,-606.39 195.83,-592.93 172.89,-581.76"/>
<polygon fill="black" stroke="black" points="174.23,-578.51 163.7,-577.28 171.16,-584.81 174.23,-578.51"/>
</g>
<!-- b1404f88&#45;786b&#45;4933&#45;9780&#45;b6caa36ec433 -->
<g id="node5" class="node">
<title>b1404f88&#45;786b&#45;4933&#45;9780&#45;b6caa36ec433</title>
<polygon fill="#ee0000" stroke="black" points="358.13,-577.22 227.13,-577.22 227.13,-539.22 358.13,-539.22 358.13,-577.22"/>
<text text-anchor="middle" x="292.63" y="-562.02" font-family="Helvetica,sans-Serif" font-size="14.00">✗ Check</text>
<text text-anchor="middle" x="292.63" y="-547.02" font-family="Helvetica,sans-Serif" font-size="14.00">src/test_main.py</text>
</g>
<!-- 3e1aa324&#45;24c5&#45;457e&#45;ad59&#45;71db9288c149&#45;&gt;b1404f88&#45;786b&#45;4933&#45;9780&#45;b6caa36ec433 -->
<g id="edge4" class="edge">
<title>3e1aa324&#45;24c5&#45;457e&#45;ad59&#45;71db9288c149&#45;&gt;b1404f88&#45;786b&#45;4933&#45;9780&#45;b6caa36ec433</title>
<path fill="none" stroke="black" stroke-dasharray="5,2" d="M292.63,-614.06C292.63,-605.52 292.63,-596 292.63,-587.32"/>
<polygon fill="black" stroke="black" points="296.13,-587.27 292.63,-577.27 289.13,-587.27 296.13,-587.27"/>
</g>
<!-- cfe9e19e&#45;788d&#45;40b2&#45;85b2&#45;9d594bc56b01 -->
<g id="node6" class="node">
<title>cfe9e19e&#45;788d&#45;40b2&#45;85b2&#45;9d594bc56b01</title>
<polygon fill="white" stroke="black" points="507.13,-577.22 376.13,-577.22 376.13,-539.22 507.13,-539.22 507.13,-577.22"/>
<text text-anchor="middle" x="441.63" y="-562.02" font-family="Helvetica,sans-Serif" font-size="14.00">▶ Check</text>
<text text-anchor="middle" x="441.63" y="-547.02" font-family="Helvetica,sans-Serif" font-size="14.00">src/test_main.py</text>
</g>
<!-- 3e1aa324&#45;24c5&#45;457e&#45;ad59&#45;71db9288c149&#45;&gt;cfe9e19e&#45;788d&#45;40b2&#45;85b2&#45;9d594bc56b01 -->
<g id="edge13" class="edge">
<title>3e1aa324&#45;24c5&#45;457e&#45;ad59&#45;71db9288c149&#45;&gt;cfe9e19e&#45;788d&#45;40b2&#45;85b2&#45;9d594bc56b01</title>
<path fill="none" stroke="black" stroke-dasharray="5,2" d="M334.93,-617.13C355.07,-606.2 379.11,-593.15 399.26,-582.22"/>
<polygon fill="black" stroke="black" points="401.1,-585.2 408.22,-577.35 397.76,-579.05 401.1,-585.2"/>
</g>
<!-- f05df1d8&#45;af7c&#45;4e7a&#45;9cfc&#45;25ade5d0fb35 -->
<g id="node7" class="node">
<title>f05df1d8&#45;af7c&#45;4e7a&#45;9cfc&#45;25ade5d0fb35</title>
<ellipse fill="#0ee832" stroke="black" cx="92.63" cy="-461.35" rx="92.76" ry="26.74"/>
<text text-anchor="middle" x="92.63" y="-465.15" font-family="Helvetica,sans-Serif" font-size="14.00">✓ Modify</text>
<text text-anchor="middle" x="92.63" y="-450.15" font-family="Helvetica,sans-Serif" font-size="14.00">src/test_main.py</text>
</g>
<!-- 8630f1a1&#45;6c93&#45;4286&#45;9f62&#45;85931dd553a1&#45;&gt;f05df1d8&#45;af7c&#45;4e7a&#45;9cfc&#45;25ade5d0fb35 -->
<g id="edge2" class="edge">
<title>8630f1a1&#45;6c93&#45;4286&#45;9f62&#45;85931dd553a1&#45;&gt;f05df1d8&#45;af7c&#45;4e7a&#45;9cfc&#45;25ade5d0fb35</title>
<path fill="none" stroke="black" d="M110.99,-539.2C107.01,-533.74 103.15,-527.52 100.63,-521.22 97.76,-514.03 95.88,-505.99 94.66,-498.22"/>
<polygon fill="black" stroke="black" points="98.13,-497.74 93.42,-488.26 91.18,-498.61 98.13,-497.74"/>
<text text-anchor="middle" x="198.13" y="-510.02" font-family="Helvetica,sans-Serif" font-size="14.00">Additional changes required</text>
</g>
<!-- 84d92349&#45;2187&#45;4fd9&#45;8fb6&#45;2ca61035cfa9 -->
<g id="node8" class="node">
<title>84d92349&#45;2187&#45;4fd9&#45;8fb6&#45;2ca61035cfa9</title>
<ellipse fill="#0ee832" stroke="black" cx="310.63" cy="-461.35" rx="92.76" ry="26.74"/>
<text text-anchor="middle" x="310.63" y="-465.15" font-family="Helvetica,sans-Serif" font-size="14.00">✓ Modify</text>
<text text-anchor="middle" x="310.63" y="-450.15" font-family="Helvetica,sans-Serif" font-size="14.00">src/test_main.py</text>
</g>
<!-- b1404f88&#45;786b&#45;4933&#45;9780&#45;b6caa36ec433&#45;&gt;84d92349&#45;2187&#45;4fd9&#45;8fb6&#45;2ca61035cfa9 -->
<g id="edge5" class="edge">
<title>b1404f88&#45;786b&#45;4933&#45;9780&#45;b6caa36ec433&#45;&gt;84d92349&#45;2187&#45;4fd9&#45;8fb6&#45;2ca61035cfa9</title>
<path fill="none" stroke="black" d="M296.1,-538.93C298.27,-527.52 301.13,-512.43 303.74,-498.66"/>
<polygon fill="black" stroke="black" points="307.25,-498.96 305.67,-488.48 300.37,-497.65 307.25,-498.96"/>
<text text-anchor="middle" x="400.13" y="-510.02" font-family="Helvetica,sans-Serif" font-size="14.00">Additional changes required</text>
</g>
<!-- 75d010a9&#45;7271&#45;4bc1&#45;95f7&#45;d85b30ac8f52 -->
<g id="node9" class="node">
<title>75d010a9&#45;7271&#45;4bc1&#45;95f7&#45;d85b30ac8f52</title>
<polygon fill="yellow" stroke="black" points="158.13,-397.48 27.13,-397.48 27.13,-359.48 158.13,-359.48 158.13,-397.48"/>
<text text-anchor="middle" x="92.63" y="-382.28" font-family="Helvetica,sans-Serif" font-size="14.00">⋯ Check</text>
<text text-anchor="middle" x="92.63" y="-367.28" font-family="Helvetica,sans-Serif" font-size="14.00">src/test_main.py</text>
</g>
<!-- f05df1d8&#45;af7c&#45;4e7a&#45;9cfc&#45;25ade5d0fb35&#45;&gt;75d010a9&#45;7271&#45;4bc1&#45;95f7&#45;d85b30ac8f52 -->
<g id="edge3" class="edge">
<title>f05df1d8&#45;af7c&#45;4e7a&#45;9cfc&#45;25ade5d0fb35&#45;&gt;75d010a9&#45;7271&#45;4bc1&#45;95f7&#45;d85b30ac8f52</title>
<path fill="none" stroke="black" stroke-dasharray="5,2" d="M92.63,-434.32C92.63,-425.78 92.63,-416.26 92.63,-407.58"/>
<polygon fill="black" stroke="black" points="96.13,-407.53 92.63,-397.53 89.13,-407.53 96.13,-407.53"/>
</g>
<!-- 8ea75ef7&#45;7898&#45;402c&#45;8c9e&#45;1cc779051213 -->
<g id="node10" class="node">
<title>8ea75ef7&#45;7898&#45;402c&#45;8c9e&#45;1cc779051213</title>
<polygon fill="#ee0000" stroke="black" points="341.13,-397.48 210.13,-397.48 210.13,-359.48 341.13,-359.48 341.13,-397.48"/>
<text text-anchor="middle" x="275.63" y="-382.28" font-family="Helvetica,sans-Serif" font-size="14.00">✗ Check</text>
<text text-anchor="middle" x="275.63" y="-367.28" font-family="Helvetica,sans-Serif" font-size="14.00">src/test_main.py</text>
</g>
<!-- 84d92349&#45;2187&#45;4fd9&#45;8fb6&#45;2ca61035cfa9&#45;&gt;8ea75ef7&#45;7898&#45;402c&#45;8c9e&#45;1cc779051213 -->
<g id="edge6" class="edge">
<title>84d92349&#45;2187&#45;4fd9&#45;8fb6&#45;2ca61035cfa9&#45;&gt;8ea75ef7&#45;7898&#45;402c&#45;8c9e&#45;1cc779051213</title>
<path fill="none" stroke="black" stroke-dasharray="5,2" d="M299.36,-434.32C295.55,-425.5 291.28,-415.63 287.42,-406.73"/>
<polygon fill="black" stroke="black" points="290.63,-405.32 283.44,-397.53 284.2,-408.1 290.63,-405.32"/>
</g>
<!-- 5f084205&#45;9d68&#45;4f81&#45;96c1&#45;b9c4208dc909 -->
<g id="node11" class="node">
<title>5f084205&#45;9d68&#45;4f81&#45;96c1&#45;b9c4208dc909</title>
<polygon fill="white" stroke="black" points="490.13,-397.48 359.13,-397.48 359.13,-359.48 490.13,-359.48 490.13,-397.48"/>
<text text-anchor="middle" x="424.63" y="-382.28" font-family="Helvetica,sans-Serif" font-size="14.00">▶ Check</text>
<text text-anchor="middle" x="424.63" y="-367.28" font-family="Helvetica,sans-Serif" font-size="14.00">src/test_main.py</text>
</g>
<!-- 84d92349&#45;2187&#45;4fd9&#45;8fb6&#45;2ca61035cfa9&#45;&gt;5f084205&#45;9d68&#45;4f81&#45;96c1&#45;b9c4208dc909 -->
<g id="edge12" class="edge">
<title>84d92349&#45;2187&#45;4fd9&#45;8fb6&#45;2ca61035cfa9&#45;&gt;5f084205&#45;9d68&#45;4f81&#45;96c1&#45;b9c4208dc909</title>
<path fill="none" stroke="black" stroke-dasharray="5,2" d="M344.53,-436.31C359.12,-425.95 376.15,-413.87 390.74,-403.52"/>
<polygon fill="black" stroke="black" points="392.88,-406.29 399.01,-397.65 388.83,-400.58 392.88,-406.29"/>
</g>
<!-- 1676f287&#45;a3bd&#45;4c7e&#45;b762&#45;ca0d154169f8 -->
<g id="node12" class="node">
<title>1676f287&#45;a3bd&#45;4c7e&#45;b762&#45;ca0d154169f8</title>
<ellipse fill="#0ee832" stroke="black" cx="275.63" cy="-281.61" rx="92.76" ry="26.74"/>
<text text-anchor="middle" x="275.63" y="-285.41" font-family="Helvetica,sans-Serif" font-size="14.00">✓ Modify</text>
<text text-anchor="middle" x="275.63" y="-270.41" font-family="Helvetica,sans-Serif" font-size="14.00">src/test_main.py</text>
</g>
<!-- 8ea75ef7&#45;7898&#45;402c&#45;8c9e&#45;1cc779051213&#45;&gt;1676f287&#45;a3bd&#45;4c7e&#45;b762&#45;ca0d154169f8 -->
<g id="edge7" class="edge">
<title>8ea75ef7&#45;7898&#45;402c&#45;8c9e&#45;1cc779051213&#45;&gt;1676f287&#45;a3bd&#45;4c7e&#45;b762&#45;ca0d154169f8</title>
<path fill="none" stroke="black" d="M275.63,-359.19C275.63,-347.78 275.63,-332.69 275.63,-318.92"/>
<polygon fill="black" stroke="black" points="279.13,-318.74 275.63,-308.74 272.13,-318.74 279.13,-318.74"/>
<text text-anchor="middle" x="373.13" y="-330.28" font-family="Helvetica,sans-Serif" font-size="14.00">Additional changes required</text>
</g>
<!-- 0c2eb4b7&#45;5203&#45;42fe&#45;8cc0&#45;a264ff947d76 -->
<g id="node13" class="node">
<title>0c2eb4b7&#45;5203&#45;42fe&#45;8cc0&#45;a264ff947d76</title>
<polygon fill="#ee0000" stroke="black" points="267.13,-217.74 136.13,-217.74 136.13,-179.74 267.13,-179.74 267.13,-217.74"/>
<text text-anchor="middle" x="201.63" y="-202.54" font-family="Helvetica,sans-Serif" font-size="14.00">✗ Check</text>
<text text-anchor="middle" x="201.63" y="-187.54" font-family="Helvetica,sans-Serif" font-size="14.00">src/test_main.py</text>
</g>
<!-- 1676f287&#45;a3bd&#45;4c7e&#45;b762&#45;ca0d154169f8&#45;&gt;0c2eb4b7&#45;5203&#45;42fe&#45;8cc0&#45;a264ff947d76 -->
<g id="edge8" class="edge">
<title>1676f287&#45;a3bd&#45;4c7e&#45;b762&#45;ca0d154169f8&#45;&gt;0c2eb4b7&#45;5203&#45;42fe&#45;8cc0&#45;a264ff947d76</title>
<path fill="none" stroke="black" stroke-dasharray="5,2" d="M252.62,-255.47C243.85,-245.88 233.85,-234.95 225.04,-225.32"/>
<polygon fill="black" stroke="black" points="227.61,-222.95 218.28,-217.93 222.45,-227.67 227.61,-222.95"/>
</g>
<!-- 4ecd077c&#45;7233&#45;46a0&#45;9238&#45;5c50d76a0fe3 -->
<g id="node14" class="node">
<title>4ecd077c&#45;7233&#45;46a0&#45;9238&#45;5c50d76a0fe3</title>
<polygon fill="white" stroke="black" points="416.13,-217.74 285.13,-217.74 285.13,-179.74 416.13,-179.74 416.13,-217.74"/>
<text text-anchor="middle" x="350.63" y="-202.54" font-family="Helvetica,sans-Serif" font-size="14.00">▶ Check</text>
<text text-anchor="middle" x="350.63" y="-187.54" font-family="Helvetica,sans-Serif" font-size="14.00">src/test_main.py</text>
</g>
<!-- 1676f287&#45;a3bd&#45;4c7e&#45;b762&#45;ca0d154169f8&#45;&gt;4ecd077c&#45;7233&#45;46a0&#45;9238&#45;5c50d76a0fe3 -->
<g id="edge11" class="edge">
<title>1676f287&#45;a3bd&#45;4c7e&#45;b762&#45;ca0d154169f8&#45;&gt;4ecd077c&#45;7233&#45;46a0&#45;9238&#45;5c50d76a0fe3</title>
<path fill="none" stroke="black" stroke-dasharray="5,2" d="M298.95,-255.47C307.84,-245.88 317.98,-234.95 326.9,-225.32"/>
<polygon fill="black" stroke="black" points="329.52,-227.65 333.76,-217.93 324.39,-222.89 329.52,-227.65"/>
</g>
<!-- 2d0dadfa&#45;87b7&#45;41fb&#45;94e2&#45;2ebbc709cd39 -->
<g id="node15" class="node">
<title>2d0dadfa&#45;87b7&#45;41fb&#45;94e2&#45;2ebbc709cd39</title>
<ellipse fill="#0ee832" stroke="black" cx="201.63" cy="-101.87" rx="92.76" ry="26.74"/>
<text text-anchor="middle" x="201.63" y="-105.67" font-family="Helvetica,sans-Serif" font-size="14.00">✓ Modify</text>
<text text-anchor="middle" x="201.63" y="-90.67" font-family="Helvetica,sans-Serif" font-size="14.00">src/test_main.py</text>
</g>
<!-- 0c2eb4b7&#45;5203&#45;42fe&#45;8cc0&#45;a264ff947d76&#45;&gt;2d0dadfa&#45;87b7&#45;41fb&#45;94e2&#45;2ebbc709cd39 -->
<g id="edge9" class="edge">
<title>0c2eb4b7&#45;5203&#45;42fe&#45;8cc0&#45;a264ff947d76&#45;&gt;2d0dadfa&#45;87b7&#45;41fb&#45;94e2&#45;2ebbc709cd39</title>
<path fill="none" stroke="black" d="M201.63,-179.45C201.63,-168.03 201.63,-152.95 201.63,-139.18"/>
<polygon fill="black" stroke="black" points="205.13,-139 201.63,-129 198.13,-139 205.13,-139"/>
<text text-anchor="middle" x="299.13" y="-150.54" font-family="Helvetica,sans-Serif" font-size="14.00">Additional changes required</text>
</g>
<!-- 50c6615e&#45;2753&#45;4489&#45;8b5e&#45;0d7eca910ad2 -->
<g id="node16" class="node">
<title>50c6615e&#45;2753&#45;4489&#45;8b5e&#45;0d7eca910ad2</title>
<polygon fill="yellow" stroke="black" points="267.13,-38 136.13,-38 136.13,0 267.13,0 267.13,-38"/>
<text text-anchor="middle" x="201.63" y="-22.8" font-family="Helvetica,sans-Serif" font-size="14.00">⋯ Check</text>
<text text-anchor="middle" x="201.63" y="-7.8" font-family="Helvetica,sans-Serif" font-size="14.00">src/test_main.py</text>
</g>
<!-- 2d0dadfa&#45;87b7&#45;41fb&#45;94e2&#45;2ebbc709cd39&#45;&gt;50c6615e&#45;2753&#45;4489&#45;8b5e&#45;0d7eca910ad2 -->
<g id="edge10" class="edge">
<title>2d0dadfa&#45;87b7&#45;41fb&#45;94e2&#45;2ebbc709cd39&#45;&gt;50c6615e&#45;2753&#45;4489&#45;8b5e&#45;0d7eca910ad2</title>
<path fill="none" stroke="black" stroke-dasharray="5,2" d="M201.63,-74.84C201.63,-66.3 201.63,-56.78 201.63,-48.1"/>
<polygon fill="black" stroke="black" points="205.13,-48.05 201.63,-38.05 198.13,-48.05 205.13,-48.05"/>
</g>
</g>
</svg>
