<?xml version="1.0" encoding="UTF-8" standalone="no"?>
<!DOCTYPE svg PUBLIC "-//W3C//DTD SVG 1.1//EN"
 "http://www.w3.org/Graphics/SVG/1.1/DTD/svg11.dtd">
<!-- Generated by graphviz version 2.43.0 (0)
 -->
<!-- Title: %3 Pages: 1 -->
<svg width="902pt" height="1138pt"
 viewBox="0.00 0.00 902.37 1138.44" xmlns="http://www.w3.org/2000/svg" xmlns:xlink="http://www.w3.org/1999/xlink">
<g id="graph0" class="graph" transform="scale(1 1) rotate(0) translate(36 1102.44)">
<title>%3</title>
<polygon fill="dimgray" stroke="transparent" points="-36,36 -36,-1102.44 866.37,-1102.44 866.37,36 -36,36"/>
<text text-anchor="middle" x="415.18" y="-1051.24" font-family="Helvetica,sans-Serif" font-size="14.00">Sweep&#39;s Plan &amp; Progress</text>
<!-- start -->
<g id="node1" class="node">
<title>start</title>
</g>
<!-- f2f09872&#45;f2bb&#45;4e79&#45;8bd3&#45;d0fc57ddbb57 -->
<g id="node3" class="node">
<title>f2f09872&#45;f2bb&#45;4e79&#45;8bd3&#45;d0fc57ddbb57</title>
<ellipse fill="#0ee832" stroke="black" cx="678.87" cy="-1000.57" rx="92.76" ry="26.74"/>
<text text-anchor="middle" x="678.87" y="-1004.37" font-family="Helvetica,sans-Serif" font-size="14.00">✓ Create</text>
<text text-anchor="middle" x="678.87" y="-989.37" font-family="Helvetica,sans-Serif" font-size="14.00">src/test_main.py</text>
</g>
<!-- start&#45;&gt;f2f09872&#45;f2bb&#45;4e79&#45;8bd3&#45;d0fc57ddbb57 -->
<g id="edge20" class="edge">
<title>start&#45;&gt;f2f09872&#45;f2bb&#45;4e79&#45;8bd3&#45;d0fc57ddbb57</title>
<path fill="none" stroke="black" d="M534.51,-1000.57C537.95,-1000.57 554.73,-1000.57 575.71,-1000.57"/>
<polygon fill="black" stroke="black" points="575.96,-1004.07 585.96,-1000.57 575.96,-997.07 575.96,-1004.07"/>
<text text-anchor="middle" x="560.3" y="-1007.37" font-family="Helvetica,sans-Serif" font-size="14.00">Start</text>
</g>
<!-- end -->
<g id="node2" class="node">
<title>end</title>
</g>
<!-- f2f09872&#45;f2bb&#45;4e79&#45;8bd3&#45;d0fc57ddbb57&#45;&gt;end -->
<g id="edge21" class="edge">
<title>f2f09872&#45;f2bb&#45;4e79&#45;8bd3&#45;d0fc57ddbb57&#45;&gt;end</title>
<path fill="none" stroke="black" d="M771.92,-1000.57C790.84,-1000.57 808.2,-1000.57 818.89,-1000.57"/>
<polygon fill="black" stroke="black" points="819.18,-1004.07 829.18,-1000.57 819.18,-997.07 819.18,-1004.07"/>
<text text-anchor="middle" x="800.43" y="-1007.37" font-family="Helvetica,sans-Serif" font-size="14.00">Finish</text>
</g>
<!-- d9f311ca&#45;7c33&#45;45a7&#45;8a78&#45;91cbd6a7a301 -->
<g id="node4" class="node">
<title>d9f311ca&#45;7c33&#45;45a7&#45;8a78&#45;91cbd6a7a301</title>
<polygon fill="#ee0000" stroke="black" points="639.37,-936.7 508.37,-936.7 508.37,-898.7 639.37,-898.7 639.37,-936.7"/>
<text text-anchor="middle" x="573.87" y="-921.5" font-family="Helvetica,sans-Serif" font-size="14.00">✗ Check</text>
<text text-anchor="middle" x="573.87" y="-906.5" font-family="Helvetica,sans-Serif" font-size="14.00">src/test_main.py</text>
</g>
<!-- f2f09872&#45;f2bb&#45;4e79&#45;8bd3&#45;d0fc57ddbb57&#45;&gt;d9f311ca&#45;7c33&#45;45a7&#45;8a78&#45;91cbd6a7a301 -->
<g id="edge1" class="edge">
<title>f2f09872&#45;f2bb&#45;4e79&#45;8bd3&#45;d0fc57ddbb57&#45;&gt;d9f311ca&#45;7c33&#45;45a7&#45;8a78&#45;91cbd6a7a301</title>
<path fill="none" stroke="black" stroke-dasharray="5,2" d="M647.08,-975.09C634,-965.02 618.89,-953.38 605.81,-943.3"/>
<polygon fill="black" stroke="black" points="607.6,-940.26 597.54,-936.93 603.33,-945.81 607.6,-940.26"/>
</g>
<!-- 62a056e9&#45;9bf5&#45;4fc6&#45;bcc4&#45;3b7ec0767373 -->
<g id="node5" class="node">
<title>62a056e9&#45;9bf5&#45;4fc6&#45;bcc4&#45;3b7ec0767373</title>
<polygon fill="white" stroke="black" points="788.37,-936.7 657.37,-936.7 657.37,-898.7 788.37,-898.7 788.37,-936.7"/>
<text text-anchor="middle" x="722.87" y="-921.5" font-family="Helvetica,sans-Serif" font-size="14.00">▶ Check</text>
<text text-anchor="middle" x="722.87" y="-906.5" font-family="Helvetica,sans-Serif" font-size="14.00">src/test_main.py</text>
</g>
<!-- f2f09872&#45;f2bb&#45;4e79&#45;8bd3&#45;d0fc57ddbb57&#45;&gt;62a056e9&#45;9bf5&#45;4fc6&#45;bcc4&#45;3b7ec0767373 -->
<g id="edge19" class="edge">
<title>f2f09872&#45;f2bb&#45;4e79&#45;8bd3&#45;d0fc57ddbb57&#45;&gt;62a056e9&#45;9bf5&#45;4fc6&#45;bcc4&#45;3b7ec0767373</title>
<path fill="none" stroke="black" stroke-dasharray="5,2" d="M692.79,-973.98C697.65,-965.05 703.11,-955 708.04,-945.94"/>
<polygon fill="black" stroke="black" points="711.23,-947.41 712.94,-936.95 705.08,-944.06 711.23,-947.41"/>
</g>
<!-- ff9ade6d&#45;2fd5&#45;4999&#45;9492&#45;f04a7ff1a701 -->
<g id="node6" class="node">
<title>ff9ade6d&#45;2fd5&#45;4999&#45;9492&#45;f04a7ff1a701</title>
<ellipse fill="#0ee832" stroke="black" cx="573.87" cy="-820.83" rx="92.76" ry="26.74"/>
<text text-anchor="middle" x="573.87" y="-824.63" font-family="Helvetica,sans-Serif" font-size="14.00">✓ Modify</text>
<text text-anchor="middle" x="573.87" y="-809.63" font-family="Helvetica,sans-Serif" font-size="14.00">src/test_main.py</text>
</g>
<!-- d9f311ca&#45;7c33&#45;45a7&#45;8a78&#45;91cbd6a7a301&#45;&gt;ff9ade6d&#45;2fd5&#45;4999&#45;9492&#45;f04a7ff1a701 -->
<g id="edge2" class="edge">
<title>d9f311ca&#45;7c33&#45;45a7&#45;8a78&#45;91cbd6a7a301&#45;&gt;ff9ade6d&#45;2fd5&#45;4999&#45;9492&#45;f04a7ff1a701</title>
<path fill="none" stroke="black" d="M573.87,-898.41C573.87,-887 573.87,-871.91 573.87,-858.14"/>
<polygon fill="black" stroke="black" points="577.37,-857.96 573.87,-847.96 570.37,-857.96 577.37,-857.96"/>
<text text-anchor="middle" x="671.37" y="-869.5" font-family="Helvetica,sans-Serif" font-size="14.00">Additional changes required</text>
</g>
<!-- e570c5d3&#45;d785&#45;4141&#45;a8cd&#45;e88d3857eeaa -->
<g id="node7" class="node">
<title>e570c5d3&#45;d785&#45;4141&#45;a8cd&#45;e88d3857eeaa</title>
<polygon fill="#ee0000" stroke="black" points="565.37,-756.96 434.37,-756.96 434.37,-718.96 565.37,-718.96 565.37,-756.96"/>
<text text-anchor="middle" x="499.87" y="-741.76" font-family="Helvetica,sans-Serif" font-size="14.00">✗ Check</text>
<text text-anchor="middle" x="499.87" y="-726.76" font-family="Helvetica,sans-Serif" font-size="14.00">src/test_main.py</text>
</g>
<!-- ff9ade6d&#45;2fd5&#45;4999&#45;9492&#45;f04a7ff1a701&#45;&gt;e570c5d3&#45;d785&#45;4141&#45;a8cd&#45;e88d3857eeaa -->
<g id="edge3" class="edge">
<title>ff9ade6d&#45;2fd5&#45;4999&#45;9492&#45;f04a7ff1a701&#45;&gt;e570c5d3&#45;d785&#45;4141&#45;a8cd&#45;e88d3857eeaa</title>
<path fill="none" stroke="black" stroke-dasharray="5,2" d="M550.86,-794.69C542.09,-785.1 532.08,-774.17 523.28,-764.54"/>
<polygon fill="black" stroke="black" points="525.85,-762.17 516.51,-757.15 520.68,-766.9 525.85,-762.17"/>
</g>
<!-- 5d004117&#45;162b&#45;4046&#45;9dae&#45;987d306c7326 -->
<g id="node8" class="node">
<title>5d004117&#45;162b&#45;4046&#45;9dae&#45;987d306c7326</title>
<polygon fill="white" stroke="black" points="714.37,-756.96 583.37,-756.96 583.37,-718.96 714.37,-718.96 714.37,-756.96"/>
<text text-anchor="middle" x="648.87" y="-741.76" font-family="Helvetica,sans-Serif" font-size="14.00">▶ Check</text>
<text text-anchor="middle" x="648.87" y="-726.76" font-family="Helvetica,sans-Serif" font-size="14.00">src/test_main.py</text>
</g>
<!-- ff9ade6d&#45;2fd5&#45;4999&#45;9492&#45;f04a7ff1a701&#45;&gt;5d004117&#45;162b&#45;4046&#45;9dae&#45;987d306c7326 -->
<g id="edge18" class="edge">
<title>ff9ade6d&#45;2fd5&#45;4999&#45;9492&#45;f04a7ff1a701&#45;&gt;5d004117&#45;162b&#45;4046&#45;9dae&#45;987d306c7326</title>
<path fill="none" stroke="black" stroke-dasharray="5,2" d="M597.18,-794.69C606.07,-785.1 616.21,-774.17 625.14,-764.54"/>
<polygon fill="black" stroke="black" points="627.76,-766.87 631.99,-757.15 622.62,-762.11 627.76,-766.87"/>
</g>
<!-- 9d34840a&#45;268b&#45;4fb6&#45;a882&#45;860c8223dcfc -->
<g id="node9" class="node">
<title>9d34840a&#45;268b&#45;4fb6&#45;a882&#45;860c8223dcfc</title>
<ellipse fill="#0ee832" stroke="black" cx="499.87" cy="-641.09" rx="92.76" ry="26.74"/>
<text text-anchor="middle" x="499.87" y="-644.89" font-family="Helvetica,sans-Serif" font-size="14.00">✓ Modify</text>
<text text-anchor="middle" x="499.87" y="-629.89" font-family="Helvetica,sans-Serif" font-size="14.00">src/test_main.py</text>
</g>
<!-- e570c5d3&#45;d785&#45;4141&#45;a8cd&#45;e88d3857eeaa&#45;&gt;9d34840a&#45;268b&#45;4fb6&#45;a882&#45;860c8223dcfc -->
<g id="edge4" class="edge">
<title>e570c5d3&#45;d785&#45;4141&#45;a8cd&#45;e88d3857eeaa&#45;&gt;9d34840a&#45;268b&#45;4fb6&#45;a882&#45;860c8223dcfc</title>
<path fill="none" stroke="black" d="M499.87,-718.67C499.87,-707.26 499.87,-692.17 499.87,-678.4"/>
<polygon fill="black" stroke="black" points="503.37,-678.22 499.87,-668.22 496.37,-678.22 503.37,-678.22"/>
<text text-anchor="middle" x="597.37" y="-689.76" font-family="Helvetica,sans-Serif" font-size="14.00">Additional changes required</text>
</g>
<!-- c8e2cedf&#45;e783&#45;41a9&#45;9e68&#45;ec44541f1a00 -->
<g id="node10" class="node">
<title>c8e2cedf&#45;e783&#45;41a9&#45;9e68&#45;ec44541f1a00</title>
<polygon fill="#ee0000" stroke="black" points="491.37,-577.22 360.37,-577.22 360.37,-539.22 491.37,-539.22 491.37,-577.22"/>
<text text-anchor="middle" x="425.87" y="-562.02" font-family="Helvetica,sans-Serif" font-size="14.00">✗ Check</text>
<text text-anchor="middle" x="425.87" y="-547.02" font-family="Helvetica,sans-Serif" font-size="14.00">src/test_main.py</text>
</g>
<!-- 9d34840a&#45;268b&#45;4fb6&#45;a882&#45;860c8223dcfc&#45;&gt;c8e2cedf&#45;e783&#45;41a9&#45;9e68&#45;ec44541f1a00 -->
<g id="edge5" class="edge">
<title>9d34840a&#45;268b&#45;4fb6&#45;a882&#45;860c8223dcfc&#45;&gt;c8e2cedf&#45;e783&#45;41a9&#45;9e68&#45;ec44541f1a00</title>
<path fill="none" stroke="black" stroke-dasharray="5,2" d="M476.86,-614.95C468.09,-605.36 458.08,-594.43 449.28,-584.8"/>
<polygon fill="black" stroke="black" points="451.85,-582.43 442.51,-577.41 446.68,-587.16 451.85,-582.43"/>
</g>
<!-- 2d557205&#45;b1d4&#45;4d89&#45;9a93&#45;7a20cdbf7052 -->
<g id="node11" class="node">
<title>2d557205&#45;b1d4&#45;4d89&#45;9a93&#45;7a20cdbf7052</title>
<polygon fill="white" stroke="black" points="640.37,-577.22 509.37,-577.22 509.37,-539.22 640.37,-539.22 640.37,-577.22"/>
<text text-anchor="middle" x="574.87" y="-562.02" font-family="Helvetica,sans-Serif" font-size="14.00">▶ Check</text>
<text text-anchor="middle" x="574.87" y="-547.02" font-family="Helvetica,sans-Serif" font-size="14.00">src/test_main.py</text>
</g>
<!-- 9d34840a&#45;268b&#45;4fb6&#45;a882&#45;860c8223dcfc&#45;&gt;2d557205&#45;b1d4&#45;4d89&#45;9a93&#45;7a20cdbf7052 -->
<g id="edge17" class="edge">
<title>9d34840a&#45;268b&#45;4fb6&#45;a882&#45;860c8223dcfc&#45;&gt;2d557205&#45;b1d4&#45;4d89&#45;9a93&#45;7a20cdbf7052</title>
<path fill="none" stroke="black" stroke-dasharray="5,2" d="M523.18,-614.95C532.07,-605.36 542.21,-594.43 551.14,-584.8"/>
<polygon fill="black" stroke="black" points="553.76,-587.13 557.99,-577.41 548.62,-582.37 553.76,-587.13"/>
</g>
<!-- 674207b5&#45;af8a&#45;4f6b&#45;b4e9&#45;dddd7a7aa08f -->
<g id="node12" class="node">
<title>674207b5&#45;af8a&#45;4f6b&#45;b4e9&#45;dddd7a7aa08f</title>
<ellipse fill="#0ee832" stroke="black" cx="425.87" cy="-461.35" rx="92.76" ry="26.74"/>
<text text-anchor="middle" x="425.87" y="-465.15" font-family="Helvetica,sans-Serif" font-size="14.00">✓ Modify</text>
<text text-anchor="middle" x="425.87" y="-450.15" font-family="Helvetica,sans-Serif" font-size="14.00">src/test_main.py</text>
</g>
<!-- c8e2cedf&#45;e783&#45;41a9&#45;9e68&#45;ec44541f1a00&#45;&gt;674207b5&#45;af8a&#45;4f6b&#45;b4e9&#45;dddd7a7aa08f -->
<g id="edge6" class="edge">
<title>c8e2cedf&#45;e783&#45;41a9&#45;9e68&#45;ec44541f1a00&#45;&gt;674207b5&#45;af8a&#45;4f6b&#45;b4e9&#45;dddd7a7aa08f</title>
<path fill="none" stroke="black" d="M425.87,-538.93C425.87,-527.52 425.87,-512.43 425.87,-498.66"/>
<polygon fill="black" stroke="black" points="429.37,-498.48 425.87,-488.48 422.37,-498.48 429.37,-498.48"/>
<text text-anchor="middle" x="523.37" y="-510.02" font-family="Helvetica,sans-Serif" font-size="14.00">Additional changes required</text>
</g>
<!-- da2a7ede&#45;615f&#45;4b74&#45;8b39&#45;bc47fa4578c9 -->
<g id="node13" class="node">
<title>da2a7ede&#45;615f&#45;4b74&#45;8b39&#45;bc47fa4578c9</title>
<polygon fill="#ee0000" stroke="black" points="417.37,-397.48 286.37,-397.48 286.37,-359.48 417.37,-359.48 417.37,-397.48"/>
<text text-anchor="middle" x="351.87" y="-382.28" font-family="Helvetica,sans-Serif" font-size="14.00">✗ Check</text>
<text text-anchor="middle" x="351.87" y="-367.28" font-family="Helvetica,sans-Serif" font-size="14.00">src/test_main.py</text>
</g>
<!-- 674207b5&#45;af8a&#45;4f6b&#45;b4e9&#45;dddd7a7aa08f&#45;&gt;da2a7ede&#45;615f&#45;4b74&#45;8b39&#45;bc47fa4578c9 -->
<g id="edge7" class="edge">
<title>674207b5&#45;af8a&#45;4f6b&#45;b4e9&#45;dddd7a7aa08f&#45;&gt;da2a7ede&#45;615f&#45;4b74&#45;8b39&#45;bc47fa4578c9</title>
<path fill="none" stroke="black" stroke-dasharray="5,2" d="M402.86,-435.21C394.09,-425.62 384.08,-414.69 375.28,-405.06"/>
<polygon fill="black" stroke="black" points="377.85,-402.69 368.51,-397.67 372.68,-407.42 377.85,-402.69"/>
</g>
<!-- d4e5bdea&#45;b72f&#45;41dd&#45;a780&#45;420a4cac594a -->
<g id="node14" class="node">
<title>d4e5bdea&#45;b72f&#45;41dd&#45;a780&#45;420a4cac594a</title>
<polygon fill="white" stroke="black" points="566.37,-397.48 435.37,-397.48 435.37,-359.48 566.37,-359.48 566.37,-397.48"/>
<text text-anchor="middle" x="500.87" y="-382.28" font-family="Helvetica,sans-Serif" font-size="14.00">▶ Check</text>
<text text-anchor="middle" x="500.87" y="-367.28" font-family="Helvetica,sans-Serif" font-size="14.00">src/test_main.py</text>
</g>
<!-- 674207b5&#45;af8a&#45;4f6b&#45;b4e9&#45;dddd7a7aa08f&#45;&gt;d4e5bdea&#45;b72f&#45;41dd&#45;a780&#45;420a4cac594a -->
<g id="edge16" class="edge">
<title>674207b5&#45;af8a&#45;4f6b&#45;b4e9&#45;dddd7a7aa08f&#45;&gt;d4e5bdea&#45;b72f&#45;41dd&#45;a780&#45;420a4cac594a</title>
<path fill="none" stroke="black" stroke-dasharray="5,2" d="M449.18,-435.21C458.07,-425.62 468.21,-414.69 477.14,-405.06"/>
<polygon fill="black" stroke="black" points="479.76,-407.39 483.99,-397.67 474.62,-402.63 479.76,-407.39"/>
</g>
<!-- 06a4bccc&#45;4988&#45;4130&#45;8901&#45;5363b9e02819 -->
<g id="node15" class="node">
<title>06a4bccc&#45;4988&#45;4130&#45;8901&#45;5363b9e02819</title>
<ellipse fill="#0ee832" stroke="black" cx="351.87" cy="-281.61" rx="92.76" ry="26.74"/>
<text text-anchor="middle" x="351.87" y="-285.41" font-family="Helvetica,sans-Serif" font-size="14.00">✓ Modify</text>
<text text-anchor="middle" x="351.87" y="-270.41" font-family="Helvetica,sans-Serif" font-size="14.00">src/test_main.py</text>
</g>
<!-- da2a7ede&#45;615f&#45;4b74&#45;8b39&#45;bc47fa4578c9&#45;&gt;06a4bccc&#45;4988&#45;4130&#45;8901&#45;5363b9e02819 -->
<g id="edge8" class="edge">
<title>da2a7ede&#45;615f&#45;4b74&#45;8b39&#45;bc47fa4578c9&#45;&gt;06a4bccc&#45;4988&#45;4130&#45;8901&#45;5363b9e02819</title>
<path fill="none" stroke="black" d="M351.87,-359.19C351.87,-347.78 351.87,-332.69 351.87,-318.92"/>
<polygon fill="black" stroke="black" points="355.37,-318.74 351.87,-308.74 348.37,-318.74 355.37,-318.74"/>
<text text-anchor="middle" x="449.37" y="-330.28" font-family="Helvetica,sans-Serif" font-size="14.00">Additional changes required</text>
</g>
<!-- a2600408&#45;4f9d&#45;4ee8&#45;b3b8&#45;89f8d5c840d9 -->
<g id="node16" class="node">
<title>a2600408&#45;4f9d&#45;4ee8&#45;b3b8&#45;89f8d5c840d9</title>
<polygon fill="#ee0000" stroke="black" points="251.37,-217.74 120.37,-217.74 120.37,-179.74 251.37,-179.74 251.37,-217.74"/>
<text text-anchor="middle" x="185.87" y="-202.54" font-family="Helvetica,sans-Serif" font-size="14.00">✗ Check</text>
<text text-anchor="middle" x="185.87" y="-187.54" font-family="Helvetica,sans-Serif" font-size="14.00">src/test_main.py</text>
</g>
<!-- 06a4bccc&#45;4988&#45;4130&#45;8901&#45;5363b9e02819&#45;&gt;a2600408&#45;4f9d&#45;4ee8&#45;b3b8&#45;89f8d5c840d9 -->
<g id="edge9" class="edge">
<title>06a4bccc&#45;4988&#45;4130&#45;8901&#45;5363b9e02819&#45;&gt;a2600408&#45;4f9d&#45;4ee8&#45;b3b8&#45;89f8d5c840d9</title>
<path fill="none" stroke="black" stroke-dasharray="5,2" d="M305.62,-258.08C282.69,-246.91 255.06,-233.45 232.13,-222.28"/>
<polygon fill="black" stroke="black" points="233.46,-219.03 222.94,-217.8 230.39,-225.33 233.46,-219.03"/>
</g>
<!-- fa37674c&#45;018e&#45;4b9c&#45;8d36&#45;295d04496643 -->
<g id="node17" class="node">
<title>fa37674c&#45;018e&#45;4b9c&#45;8d36&#45;295d04496643</title>
<polygon fill="#ee0000" stroke="black" points="417.37,-217.74 286.37,-217.74 286.37,-179.74 417.37,-179.74 417.37,-217.74"/>
<text text-anchor="middle" x="351.87" y="-202.54" font-family="Helvetica,sans-Serif" font-size="14.00">✗ Check</text>
<text text-anchor="middle" x="351.87" y="-187.54" font-family="Helvetica,sans-Serif" font-size="14.00">src/test_main.py</text>
</g>
<!-- 06a4bccc&#45;4988&#45;4130&#45;8901&#45;5363b9e02819&#45;&gt;fa37674c&#45;018e&#45;4b9c&#45;8d36&#45;295d04496643 -->
<g id="edge12" class="edge">
<title>06a4bccc&#45;4988&#45;4130&#45;8901&#45;5363b9e02819&#45;&gt;fa37674c&#45;018e&#45;4b9c&#45;8d36&#45;295d04496643</title>
<path fill="none" stroke="black" stroke-dasharray="5,2" d="M351.87,-254.58C351.87,-246.04 351.87,-236.52 351.87,-227.84"/>
<polygon fill="black" stroke="black" points="355.37,-227.79 351.87,-217.79 348.37,-227.79 355.37,-227.79"/>
</g>
<!-- 045bd84d&#45;760e&#45;4efd&#45;9a77&#45;81c1293e0501 -->
<g id="node18" class="node">
<title>045bd84d&#45;760e&#45;4efd&#45;9a77&#45;81c1293e0501</title>
<polygon fill="white" stroke="black" points="566.37,-217.74 435.37,-217.74 435.37,-179.74 566.37,-179.74 566.37,-217.74"/>
<text text-anchor="middle" x="500.87" y="-202.54" font-family="Helvetica,sans-Serif" font-size="14.00">▶ Check</text>
<text text-anchor="middle" x="500.87" y="-187.54" font-family="Helvetica,sans-Serif" font-size="14.00">src/test_main.py</text>
</g>
<!-- 06a4bccc&#45;4988&#45;4130&#45;8901&#45;5363b9e02819&#45;&gt;045bd84d&#45;760e&#45;4efd&#45;9a77&#45;81c1293e0501 -->
<g id="edge15" class="edge">
<title>06a4bccc&#45;4988&#45;4130&#45;8901&#45;5363b9e02819&#45;&gt;045bd84d&#45;760e&#45;4efd&#45;9a77&#45;81c1293e0501</title>
<path fill="none" stroke="black" stroke-dasharray="5,2" d="M394.16,-257.65C414.31,-246.72 438.34,-233.67 458.5,-222.74"/>
<polygon fill="black" stroke="black" points="460.34,-225.72 467.46,-217.87 457,-219.57 460.34,-225.72"/>
</g>
<!-- d8b87ede&#45;5759&#45;4b26&#45;ae08&#45;28a3ad859218 -->
<g id="node19" class="node">
<title>d8b87ede&#45;5759&#45;4b26&#45;ae08&#45;28a3ad859218</title>
<ellipse fill="#ee0000" stroke="black" cx="125.87" cy="-101.87" rx="125.73" ry="26.74"/>
<text text-anchor="middle" x="125.87" y="-105.67" font-family="Helvetica,sans-Serif" font-size="14.00">✗ Modify</text>
<text text-anchor="middle" x="125.87" y="-90.67" font-family="Helvetica,sans-Serif" font-size="14.00">CI/CD configuration file</text>
</g>
<!-- a2600408&#45;4f9d&#45;4ee8&#45;b3b8&#45;89f8d5c840d9&#45;&gt;d8b87ede&#45;5759&#45;4b26&#45;ae08&#45;28a3ad859218 -->
<g id="edge10" class="edge">
<title>a2600408&#45;4f9d&#45;4ee8&#45;b3b8&#45;89f8d5c840d9&#45;&gt;d8b87ede&#45;5759&#45;4b26&#45;ae08&#45;28a3ad859218</title>
<path fill="none" stroke="black" d="M174.3,-179.45C166.74,-167.5 156.63,-151.52 147.61,-137.25"/>
<polygon fill="black" stroke="black" points="150.46,-135.22 142.16,-128.64 144.55,-138.96 150.46,-135.22"/>
<text text-anchor="middle" x="261.37" y="-150.54" font-family="Helvetica,sans-Serif" font-size="14.00">Additional changes required</text>
</g>
<!-- b3f6d8b8&#45;5313&#45;4d3f&#45;9d98&#45;1fa870ec75ce -->
<g id="node20" class="node">
<title>b3f6d8b8&#45;5313&#45;4d3f&#45;9d98&#45;1fa870ec75ce</title>
<ellipse fill="#ee0000" stroke="black" cx="395.87" cy="-101.87" rx="125.73" ry="26.74"/>
<text text-anchor="middle" x="395.87" y="-105.67" font-family="Helvetica,sans-Serif" font-size="14.00">✗ Modify</text>
<text text-anchor="middle" x="395.87" y="-90.67" font-family="Helvetica,sans-Serif" font-size="14.00">CI/CD configuration file</text>
</g>
<!-- fa37674c&#45;018e&#45;4b9c&#45;8d36&#45;295d04496643&#45;&gt;b3f6d8b8&#45;5313&#45;4d3f&#45;9d98&#45;1fa870ec75ce -->
<g id="edge13" class="edge">
<title>fa37674c&#45;018e&#45;4b9c&#45;8d36&#45;295d04496643&#45;&gt;b3f6d8b8&#45;5313&#45;4d3f&#45;9d98&#45;1fa870ec75ce</title>
<path fill="none" stroke="black" d="M360.35,-179.45C365.79,-167.72 373.02,-152.12 379.54,-138.06"/>
<polygon fill="black" stroke="black" points="382.88,-139.18 383.91,-128.64 376.53,-136.24 382.88,-139.18"/>
<text text-anchor="middle" x="473.37" y="-150.54" font-family="Helvetica,sans-Serif" font-size="14.00">Additional changes required</text>
</g>
<!-- bf06b48a&#45;e78c&#45;4750&#45;bbdb&#45;28185a0c4458 -->
<g id="node21" class="node">
<title>bf06b48a&#45;e78c&#45;4750&#45;bbdb&#45;28185a0c4458</title>
<polygon fill="yellow" stroke="black" points="214.87,-38 36.87,-38 36.87,0 214.87,0 214.87,-38"/>
<text text-anchor="middle" x="125.87" y="-22.8" font-family="Helvetica,sans-Serif" font-size="14.00">⋯ Check</text>
<text text-anchor="middle" x="125.87" y="-7.8" font-family="Helvetica,sans-Serif" font-size="14.00">CI/CD configuration file</text>
</g>
<!-- d8b87ede&#45;5759&#45;4b26&#45;ae08&#45;28a3ad859218&#45;&gt;bf06b48a&#45;e78c&#45;4750&#45;bbdb&#45;28185a0c4458 -->
<g id="edge11" class="edge">
<title>d8b87ede&#45;5759&#45;4b26&#45;ae08&#45;28a3ad859218&#45;&gt;bf06b48a&#45;e78c&#45;4750&#45;bbdb&#45;28185a0c4458</title>
<path fill="none" stroke="black" stroke-dasharray="5,2" d="M125.87,-74.84C125.87,-66.3 125.87,-56.78 125.87,-48.1"/>
<polygon fill="black" stroke="black" points="129.37,-48.05 125.87,-38.05 122.37,-48.05 129.37,-48.05"/>
</g>
<!-- 064c3537&#45;25cf&#45;4653&#45;8656&#45;23d8d3bd1af8 -->
<g id="node22" class="node">
<title>064c3537&#45;25cf&#45;4653&#45;8656&#45;23d8d3bd1af8</title>
<polygon fill="yellow" stroke="black" points="484.87,-38 306.87,-38 306.87,0 484.87,0 484.87,-38"/>
<text text-anchor="middle" x="395.87" y="-22.8" font-family="Helvetica,sans-Serif" font-size="14.00">⋯ Check</text>
<text text-anchor="middle" x="395.87" y="-7.8" font-family="Helvetica,sans-Serif" font-size="14.00">CI/CD configuration file</text>
</g>
<!-- b3f6d8b8&#45;5313&#45;4d3f&#45;9d98&#45;1fa870ec75ce&#45;&gt;064c3537&#45;25cf&#45;4653&#45;8656&#45;23d8d3bd1af8 -->
<g id="edge14" class="edge">
<title>b3f6d8b8&#45;5313&#45;4d3f&#45;9d98&#45;1fa870ec75ce&#45;&gt;064c3537&#45;25cf&#45;4653&#45;8656&#45;23d8d3bd1af8</title>
<path fill="none" stroke="black" stroke-dasharray="5,2" d="M395.87,-74.84C395.87,-66.3 395.87,-56.78 395.87,-48.1"/>
<polygon fill="black" stroke="black" points="399.37,-48.05 395.87,-38.05 392.37,-48.05 399.37,-48.05"/>
</g>
</g>
</svg>
