<?xml version="1.0" encoding="UTF-8" standalone="no"?>
<!DOCTYPE svg PUBLIC "-//W3C//DTD SVG 1.1//EN"
 "http://www.w3.org/Graphics/SVG/1.1/DTD/svg11.dtd">
<!-- Generated by graphviz version 8.0.3 (0)
 -->
<!-- Pages: 1 -->
<svg width="784pt" height="602pt"
 viewBox="0.00 0.00 783.50 602.22" xmlns="http://www.w3.org/2000/svg" xmlns:xlink="http://www.w3.org/1999/xlink">
<g id="graph0" class="graph" transform="scale(1 1) rotate(0) translate(36 566.22)">
<polygon fill="white" stroke="none" points="-36,36 -36,-566.22 747.5,-566.22 747.5,36 -36,36"/>
<!-- start -->
<g id="node1" class="node">
<title>start</title>
</g>
<!-- 73b1b36e&#45;a2dd&#45;4a95&#45;b732&#45;43efe938ccfc -->
<g id="node3" class="node">
<title>73b1b36e&#45;a2dd&#45;4a95&#45;b732&#45;43efe938ccfc</title>
<ellipse fill="green" stroke="black" cx="119.5" cy="-503.35" rx="63.78" ry="26.74"/>
<text text-anchor="middle" x="119.5" y="-507.15" font-family="Times,serif" font-size="14.00">✓ Create</text>
<text text-anchor="middle" x="119.5" y="-492.15" font-family="Times,serif" font-size="14.00">src/cnn.py</text>
</g>
<!-- start&#45;&gt;73b1b36e&#45;a2dd&#45;4a95&#45;b732&#45;43efe938ccfc -->
<g id="edge12" class="edge">
<title>start&#45;&gt;73b1b36e&#45;a2dd&#45;4a95&#45;b732&#45;43efe938ccfc</title>
<path fill="none" stroke="black" d="M0.84,-503.35C3.58,-503.35 22.48,-503.35 44.41,-503.35"/>
<polygon fill="black" stroke="black" points="44.36,-506.85 54.36,-503.35 44.36,-499.85 44.36,-506.85"/>
<text text-anchor="middle" x="28.43" y="-510.15" font-family="Times,serif" font-size="14.00">Start</text>
</g>
<!-- end -->
<g id="node2" class="node">
<title>end</title>
</g>
<!-- f67eea0d&#45;2ade&#45;4000&#45;926a&#45;cb5f3d0d18d6 -->
<g id="node4" class="node">
<title>f67eea0d&#45;2ade&#45;4000&#45;926a&#45;cb5f3d0d18d6</title>
<ellipse fill="green" stroke="black" cx="336.5" cy="-503.35" rx="70.92" ry="26.74"/>
<text text-anchor="middle" x="336.5" y="-507.15" font-family="Times,serif" font-size="14.00">✓ Modify</text>
<text text-anchor="middle" x="336.5" y="-492.15" font-family="Times,serif" font-size="14.00">src/main.py</text>
</g>
<!-- 73b1b36e&#45;a2dd&#45;4a95&#45;b732&#45;43efe938ccfc&#45;&gt;f67eea0d&#45;2ade&#45;4000&#45;926a&#45;cb5f3d0d18d6 -->
<g id="edge2" class="edge">
<title>73b1b36e&#45;a2dd&#45;4a95&#45;b732&#45;43efe938ccfc&#45;&gt;f67eea0d&#45;2ade&#45;4000&#45;926a&#45;cb5f3d0d18d6</title>
<path fill="none" stroke="black" d="M183.73,-503.35C205.84,-503.35 230.92,-503.35 254.28,-503.35"/>
<polygon fill="black" stroke="black" points="254.22,-506.85 264.22,-503.35 254.22,-499.85 254.22,-506.85"/>
<text text-anchor="middle" x="224.46" y="-510.15" font-family="Times,serif" font-size="14.00">Continue</text>
</g>
<!-- 442cb354&#45;758d&#45;4c65&#45;a0ac&#45;67cc1eeaf2f9 -->
<g id="node6" class="node">
<title>442cb354&#45;758d&#45;4c65&#45;a0ac&#45;67cc1eeaf2f9</title>
<polygon fill="green" stroke="black" points="164.5,-425.48 74.5,-425.48 74.5,-387.48 164.5,-387.48 164.5,-425.48"/>
<text text-anchor="middle" x="119.5" y="-410.28" font-family="Times,serif" font-size="14.00">✓ Check</text>
<text text-anchor="middle" x="119.5" y="-395.28" font-family="Times,serif" font-size="14.00">src/cnn.py</text>
</g>
<!-- 73b1b36e&#45;a2dd&#45;4a95&#45;b732&#45;43efe938ccfc&#45;&gt;442cb354&#45;758d&#45;4c65&#45;a0ac&#45;67cc1eeaf2f9 -->
<g id="edge1" class="edge">
<title>73b1b36e&#45;a2dd&#45;4a95&#45;b732&#45;43efe938ccfc&#45;&gt;442cb354&#45;758d&#45;4c65&#45;a0ac&#45;67cc1eeaf2f9</title>
<path fill="none" stroke="black" stroke-dasharray="5,2" d="M119.5,-476.18C119.5,-463.91 119.5,-449.26 119.5,-436.65"/>
<polygon fill="black" stroke="black" points="123,-436.76 119.5,-426.76 116,-436.76 123,-436.76"/>
<text text-anchor="middle" x="173" y="-447.28" font-family="Times,serif" font-size="14.00">Check changes</text>
</g>
<!-- 355e7eb2&#45;788e&#45;4d29&#45;9129&#45;a2d9f4c62924 -->
<g id="node5" class="node">
<title>355e7eb2&#45;788e&#45;4d29&#45;9129&#45;a2d9f4c62924</title>
<ellipse fill="white" stroke="black" cx="550.5" cy="-503.35" rx="60.62" ry="26.74"/>
<text text-anchor="middle" x="550.5" y="-507.15" font-family="Times,serif" font-size="14.00">▶ Modify</text>
<text text-anchor="middle" x="550.5" y="-492.15" font-family="Times,serif" font-size="14.00">src/api.py</text>
</g>
<!-- f67eea0d&#45;2ade&#45;4000&#45;926a&#45;cb5f3d0d18d6&#45;&gt;355e7eb2&#45;788e&#45;4d29&#45;9129&#45;a2d9f4c62924 -->
<g id="edge10" class="edge">
<title>f67eea0d&#45;2ade&#45;4000&#45;926a&#45;cb5f3d0d18d6&#45;&gt;355e7eb2&#45;788e&#45;4d29&#45;9129&#45;a2d9f4c62924</title>
<path fill="none" stroke="black" d="M407.76,-503.35C430.54,-503.35 455.76,-503.35 478.58,-503.35"/>
<polygon fill="black" stroke="black" points="478.57,-506.85 488.57,-503.35 478.57,-499.85 478.57,-506.85"/>
<text text-anchor="middle" x="448.45" y="-510.15" font-family="Times,serif" font-size="14.00">Continue</text>
</g>
<!-- 62bfe242&#45;e8ae&#45;40f3&#45;b4ed&#45;65f9a63e2b85 -->
<g id="node7" class="node">
<title>62bfe242&#45;e8ae&#45;40f3&#45;b4ed&#45;65f9a63e2b85</title>
<polygon fill="red" stroke="black" points="385.5,-425.48 285.5,-425.48 285.5,-387.48 385.5,-387.48 385.5,-425.48"/>
<text text-anchor="middle" x="335.5" y="-410.28" font-family="Times,serif" font-size="14.00">✗ Check</text>
<text text-anchor="middle" x="335.5" y="-395.28" font-family="Times,serif" font-size="14.00">src/main.py</text>
</g>
<!-- f67eea0d&#45;2ade&#45;4000&#45;926a&#45;cb5f3d0d18d6&#45;&gt;62bfe242&#45;e8ae&#45;40f3&#45;b4ed&#45;65f9a63e2b85 -->
<g id="edge3" class="edge">
<title>f67eea0d&#45;2ade&#45;4000&#45;926a&#45;cb5f3d0d18d6&#45;&gt;62bfe242&#45;e8ae&#45;40f3&#45;b4ed&#45;65f9a63e2b85</title>
<path fill="none" stroke="black" stroke-dasharray="5,2" d="M293.15,-481.82C284.47,-475.59 276.48,-467.86 271.5,-458.48 266.09,-448.3 270.54,-439.45 279.14,-432.11"/>
<polygon fill="black" stroke="black" points="280.92,-434.43 287.05,-425.79 276.87,-428.72 280.92,-434.43"/>
<text text-anchor="middle" x="325" y="-447.28" font-family="Times,serif" font-size="14.00">Check changes</text>
</g>
<!-- f67eea0d&#45;2ade&#45;4000&#45;926a&#45;cb5f3d0d18d6&#45;&gt;62bfe242&#45;e8ae&#45;40f3&#45;b4ed&#45;65f9a63e2b85 -->
<g id="edge9" class="edge">
<title>f67eea0d&#45;2ade&#45;4000&#45;926a&#45;cb5f3d0d18d6&#45;&gt;62bfe242&#45;e8ae&#45;40f3&#45;b4ed&#45;65f9a63e2b85</title>
<path fill="none" stroke="black" stroke-dasharray="5,2" d="M367.6,-478.96C377.41,-468.62 384.34,-455.99 378.5,-443.48 376.89,-440.02 374.76,-436.78 372.31,-433.77"/>
<polygon fill="black" stroke="black" points="375.19,-431.68 365.74,-426.9 370.15,-436.53 375.19,-431.68"/>
<text text-anchor="middle" x="435" y="-447.28" font-family="Times,serif" font-size="14.00">Check changes</text>
</g>
<!-- 19960585&#45;f035&#45;44ee&#45;8694&#45;49a2a5d84340 -->
<g id="node8" class="node">
<title>19960585&#45;f035&#45;44ee&#45;8694&#45;49a2a5d84340</title>
<polygon fill="white" stroke="black" points="658.5,-425.48 572.5,-425.48 572.5,-387.48 658.5,-387.48 658.5,-425.48"/>
<text text-anchor="middle" x="615.5" y="-410.28" font-family="Times,serif" font-size="14.00">▶ Check</text>
<text text-anchor="middle" x="615.5" y="-395.28" font-family="Times,serif" font-size="14.00">src/api.py</text>
</g>
<!-- 355e7eb2&#45;788e&#45;4d29&#45;9129&#45;a2d9f4c62924&#45;&gt;19960585&#45;f035&#45;44ee&#45;8694&#45;49a2a5d84340 -->
<g id="edge11" class="edge">
<title>355e7eb2&#45;788e&#45;4d29&#45;9129&#45;a2d9f4c62924&#45;&gt;19960585&#45;f035&#45;44ee&#45;8694&#45;49a2a5d84340</title>
<path fill="none" stroke="black" stroke-dasharray="5,2" d="M545.51,-476.47C544.73,-465.59 545.69,-453.23 551.5,-443.48 554.56,-438.35 558.65,-433.89 563.28,-430.03"/>
<polygon fill="black" stroke="black" points="565.01,-432.37 571.1,-423.71 560.94,-426.68 565.01,-432.37"/>
<text text-anchor="middle" x="605" y="-447.28" font-family="Times,serif" font-size="14.00">Check changes</text>
</g>
<!-- b295abfb&#45;a07c&#45;47ab&#45;99d3&#45;28ed5a14edcf -->
<g id="node9" class="node">
<title>b295abfb&#45;a07c&#45;47ab&#45;99d3&#45;28ed5a14edcf</title>
<ellipse fill="green" stroke="black" cx="335.5" cy="-309.61" rx="70.92" ry="26.74"/>
<text text-anchor="middle" x="335.5" y="-313.41" font-family="Times,serif" font-size="14.00">✓ Modify</text>
<text text-anchor="middle" x="335.5" y="-298.41" font-family="Times,serif" font-size="14.00">src/main.py</text>
</g>
<!-- 62bfe242&#45;e8ae&#45;40f3&#45;b4ed&#45;65f9a63e2b85&#45;&gt;b295abfb&#45;a07c&#45;47ab&#45;99d3&#45;28ed5a14edcf -->
<g id="edge4" class="edge">
<title>62bfe242&#45;e8ae&#45;40f3&#45;b4ed&#45;65f9a63e2b85&#45;&gt;b295abfb&#45;a07c&#45;47ab&#45;99d3&#45;28ed5a14edcf</title>
<path fill="none" stroke="black" d="M335.5,-387.19C335.5,-376 335.5,-361.28 335.5,-347.73"/>
<polygon fill="black" stroke="black" points="339,-347.74 335.5,-337.74 332,-347.74 339,-347.74"/>
<text text-anchor="middle" x="419" y="-358.28" font-family="Times,serif" font-size="14.00">More changes required</text>
</g>
<!-- 19960585&#45;f035&#45;44ee&#45;8694&#45;49a2a5d84340&#45;&gt;end -->
<g id="edge13" class="edge">
<title>19960585&#45;f035&#45;44ee&#45;8694&#45;49a2a5d84340&#45;&gt;end</title>
<path fill="none" stroke="black" d="M641.7,-425.73C647.82,-430.93 653.89,-436.96 658.5,-443.48 668.5,-457.61 674.55,-476.83 677.71,-489.41"/>
<polygon fill="black" stroke="black" points="674.46,-489.9 680.05,-498.9 681.29,-488.37 674.46,-489.9"/>
<text text-anchor="middle" x="689" y="-447.28" font-family="Times,serif" font-size="14.00">Finish</text>
</g>
<!-- 3e77f904&#45;730e&#45;49f2&#45;9f9d&#45;e3032bb87497 -->
<g id="node10" class="node">
<title>3e77f904&#45;730e&#45;49f2&#45;9f9d&#45;e3032bb87497</title>
<polygon fill="red" stroke="black" points="385.5,-231.74 285.5,-231.74 285.5,-193.74 385.5,-193.74 385.5,-231.74"/>
<text text-anchor="middle" x="335.5" y="-216.54" font-family="Times,serif" font-size="14.00">✗ Check</text>
<text text-anchor="middle" x="335.5" y="-201.54" font-family="Times,serif" font-size="14.00">src/main.py</text>
</g>
<!-- b295abfb&#45;a07c&#45;47ab&#45;99d3&#45;28ed5a14edcf&#45;&gt;3e77f904&#45;730e&#45;49f2&#45;9f9d&#45;e3032bb87497 -->
<g id="edge5" class="edge">
<title>b295abfb&#45;a07c&#45;47ab&#45;99d3&#45;28ed5a14edcf&#45;&gt;3e77f904&#45;730e&#45;49f2&#45;9f9d&#45;e3032bb87497</title>
<path fill="none" stroke="black" stroke-dasharray="5,2" d="M291.08,-288.61C274.97,-278.36 262.66,-264.86 271.5,-249.74 273.82,-245.78 276.75,-242.22 280.07,-239.03"/>
<polygon fill="black" stroke="black" points="281.89,-241.25 287.45,-232.23 277.48,-235.81 281.89,-241.25"/>
<text text-anchor="middle" x="325" y="-253.54" font-family="Times,serif" font-size="14.00">Check changes</text>
</g>
<!-- b295abfb&#45;a07c&#45;47ab&#45;99d3&#45;28ed5a14edcf&#45;&gt;3e77f904&#45;730e&#45;49f2&#45;9f9d&#45;e3032bb87497 -->
<g id="edge8" class="edge">
<title>b295abfb&#45;a07c&#45;47ab&#45;99d3&#45;28ed5a14edcf&#45;&gt;3e77f904&#45;730e&#45;49f2&#45;9f9d&#45;e3032bb87497</title>
<path fill="none" stroke="black" stroke-dasharray="5,2" d="M364.84,-285.17C370.4,-279.16 375.44,-272.24 378.5,-264.74 382.17,-255.76 378.83,-247.2 372.69,-239.75"/>
<polygon fill="black" stroke="black" points="375.65,-237.75 366.12,-233.12 370.68,-242.69 375.65,-237.75"/>
<text text-anchor="middle" x="434" y="-253.54" font-family="Times,serif" font-size="14.00">Check changes</text>
</g>
<!-- 555994de&#45;d99f&#45;4742&#45;b286&#45;203824841867 -->
<g id="node11" class="node">
<title>555994de&#45;d99f&#45;4742&#45;b286&#45;203824841867</title>
<ellipse fill="yellow" stroke="black" cx="335.5" cy="-115.87" rx="70.92" ry="26.74"/>
<text text-anchor="middle" x="335.5" y="-119.67" font-family="Times,serif" font-size="14.00">⋯ Modify</text>
<text text-anchor="middle" x="335.5" y="-104.67" font-family="Times,serif" font-size="14.00">src/main.py</text>
</g>
<!-- 3e77f904&#45;730e&#45;49f2&#45;9f9d&#45;e3032bb87497&#45;&gt;555994de&#45;d99f&#45;4742&#45;b286&#45;203824841867 -->
<g id="edge6" class="edge">
<title>3e77f904&#45;730e&#45;49f2&#45;9f9d&#45;e3032bb87497&#45;&gt;555994de&#45;d99f&#45;4742&#45;b286&#45;203824841867</title>
<path fill="none" stroke="black" d="M335.5,-193.45C335.5,-182.26 335.5,-167.54 335.5,-153.99"/>
<polygon fill="black" stroke="black" points="339,-154 335.5,-144 332,-154 339,-154"/>
<text text-anchor="middle" x="419" y="-164.54" font-family="Times,serif" font-size="14.00">More changes required</text>
</g>
<!-- 996366a7&#45;e02b&#45;45cb&#45;8a75&#45;210a1ccc0912 -->
<g id="node12" class="node">
<title>996366a7&#45;e02b&#45;45cb&#45;8a75&#45;210a1ccc0912</title>
<polygon fill="white" stroke="black" points="385.5,-38 285.5,-38 285.5,0 385.5,0 385.5,-38"/>
<text text-anchor="middle" x="335.5" y="-22.8" font-family="Times,serif" font-size="14.00">▶ Check</text>
<text text-anchor="middle" x="335.5" y="-7.8" font-family="Times,serif" font-size="14.00">src/main.py</text>
</g>
<!-- 555994de&#45;d99f&#45;4742&#45;b286&#45;203824841867&#45;&gt;996366a7&#45;e02b&#45;45cb&#45;8a75&#45;210a1ccc0912 -->
<g id="edge7" class="edge">
<title>555994de&#45;d99f&#45;4742&#45;b286&#45;203824841867&#45;&gt;996366a7&#45;e02b&#45;45cb&#45;8a75&#45;210a1ccc0912</title>
<path fill="none" stroke="black" stroke-dasharray="5,2" d="M335.5,-88.7C335.5,-76.43 335.5,-61.78 335.5,-49.17"/>
<polygon fill="black" stroke="black" points="339,-49.28 335.5,-39.28 332,-49.28 339,-49.28"/>
<text text-anchor="middle" x="389" y="-59.8" font-family="Times,serif" font-size="14.00">Check changes</text>
</g>
</g>
</svg>
