<?xml version="1.0" encoding="UTF-8" standalone="no"?>
<!DOCTYPE svg PUBLIC "-//W3C//DTD SVG 1.1//EN"
 "http://www.w3.org/Graphics/SVG/1.1/DTD/svg11.dtd">
<!-- Generated by graphviz version 2.43.0 (0)
 -->
<!-- Title: %3 Pages: 1 -->
<svg width="588pt" height="419pt"
 viewBox="0.00 0.00 588.30 419.48" xmlns="http://www.w3.org/2000/svg" xmlns:xlink="http://www.w3.org/1999/xlink">
<g id="graph0" class="graph" transform="scale(1 1) rotate(0) translate(36 383.48)">
<title>%3</title>
<polygon fill="dimgray" stroke="transparent" points="-36,36 -36,-383.48 552.3,-383.48 552.3,36 -36,36"/>
<text text-anchor="middle" x="258.15" y="-332.28" font-family="Helvetica,sans-Serif" font-size="14.00">Sweep&#39;s Plan &amp; Progress</text>
<!-- start -->
<g id="node1" class="node">
<title>start</title>
</g>
<!-- db7650cd&#45;0fd1&#45;4d4f&#45;9e3b&#45;9a8913dd1a88 -->
<g id="node3" class="node">
<title>db7650cd&#45;0fd1&#45;4d4f&#45;9e3b&#45;9a8913dd1a88</title>
<ellipse fill="#0ee832" stroke="black" cx="171.3" cy="-281.61" rx="69.09" ry="26.74"/>
<text text-anchor="middle" x="171.3" y="-285.41" font-family="Helvetica,sans-Serif" font-size="14.00">✓ Modify</text>
<text text-anchor="middle" x="171.3" y="-270.41" font-family="Helvetica,sans-Serif" font-size="14.00">src/main.py</text>
</g>
<!-- start&#45;&gt;db7650cd&#45;0fd1&#45;4d4f&#45;9e3b&#45;9a8913dd1a88 -->
<g id="edge10" class="edge">
<title>start&#45;&gt;db7650cd&#45;0fd1&#45;4d4f&#45;9e3b&#45;9a8913dd1a88</title>
<path fill="none" stroke="black" d="M51.07,-281.61C54.82,-281.61 71.79,-281.61 91.85,-281.61"/>
<polygon fill="black" stroke="black" points="91.9,-285.11 101.9,-281.61 91.9,-278.11 91.9,-285.11"/>
<text text-anchor="middle" x="76.4" y="-288.41" font-family="Helvetica,sans-Serif" font-size="14.00">Start</text>
</g>
<!-- end -->
<g id="node2" class="node">
<title>end</title>
</g>
<!-- 500ef977&#45;0779&#45;4a56&#45;ab33&#45;0aa3418acc71 -->
<g id="node4" class="node">
<title>500ef977&#45;0779&#45;4a56&#45;ab33&#45;0aa3418acc71</title>
<ellipse fill="#0ee832" stroke="black" cx="335.3" cy="-281.61" rx="59.29" ry="26.74"/>
<text text-anchor="middle" x="335.3" y="-285.41" font-family="Helvetica,sans-Serif" font-size="14.00">✓ Modify</text>
<text text-anchor="middle" x="335.3" y="-270.41" font-family="Helvetica,sans-Serif" font-size="14.00">src/api.py</text>
</g>
<!-- db7650cd&#45;0fd1&#45;4d4f&#45;9e3b&#45;9a8913dd1a88&#45;&gt;500ef977&#45;0779&#45;4a56&#45;ab33&#45;0aa3418acc71 -->
<g id="edge5" class="edge">
<title>db7650cd&#45;0fd1&#45;4d4f&#45;9e3b&#45;9a8913dd1a88&#45;&gt;500ef977&#45;0779&#45;4a56&#45;ab33&#45;0aa3418acc71</title>
<path fill="none" stroke="black" d="M240.8,-281.61C249.11,-281.61 257.42,-281.61 265.73,-281.61"/>
<polygon fill="black" stroke="black" points="265.87,-285.11 275.87,-281.61 265.87,-278.11 265.87,-285.11"/>
</g>
<!-- 7cf26340&#45;096e&#45;4442&#45;9ae3&#45;547fb9e8499b -->
<g id="node5" class="node">
<title>7cf26340&#45;096e&#45;4442&#45;9ae3&#45;547fb9e8499b</title>
<polygon fill="#ee0000" stroke="black" points="118.3,-217.74 20.3,-217.74 20.3,-179.74 118.3,-179.74 118.3,-217.74"/>
<text text-anchor="middle" x="69.3" y="-202.54" font-family="Helvetica,sans-Serif" font-size="14.00">✗ Check</text>
<text text-anchor="middle" x="69.3" y="-187.54" font-family="Helvetica,sans-Serif" font-size="14.00">src/main.py</text>
</g>
<!-- db7650cd&#45;0fd1&#45;4d4f&#45;9e3b&#45;9a8913dd1a88&#45;&gt;7cf26340&#45;096e&#45;4442&#45;9ae3&#45;547fb9e8499b -->
<g id="edge1" class="edge">
<title>db7650cd&#45;0fd1&#45;4d4f&#45;9e3b&#45;9a8913dd1a88&#45;&gt;7cf26340&#45;096e&#45;4442&#45;9ae3&#45;547fb9e8499b</title>
<path fill="none" stroke="black" stroke-dasharray="5,2" d="M141.79,-257.22C128.74,-246.87 113.38,-234.69 100.16,-224.21"/>
<polygon fill="black" stroke="black" points="102.27,-221.41 92.25,-217.94 97.92,-226.9 102.27,-221.41"/>
</g>
<!-- 4c4671e9&#45;9c5e&#45;409d&#45;b0e5&#45;170a342396fe -->
<g id="node6" class="node">
<title>4c4671e9&#45;9c5e&#45;409d&#45;b0e5&#45;170a342396fe</title>
<polygon fill="#0ee832" stroke="black" points="234.3,-217.74 136.3,-217.74 136.3,-179.74 234.3,-179.74 234.3,-217.74"/>
<text text-anchor="middle" x="185.3" y="-202.54" font-family="Helvetica,sans-Serif" font-size="14.00">✓ Check</text>
<text text-anchor="middle" x="185.3" y="-187.54" font-family="Helvetica,sans-Serif" font-size="14.00">src/main.py</text>
</g>
<!-- db7650cd&#45;0fd1&#45;4d4f&#45;9e3b&#45;9a8913dd1a88&#45;&gt;4c4671e9&#45;9c5e&#45;409d&#45;b0e5&#45;170a342396fe -->
<g id="edge4" class="edge">
<title>db7650cd&#45;0fd1&#45;4d4f&#45;9e3b&#45;9a8913dd1a88&#45;&gt;4c4671e9&#45;9c5e&#45;409d&#45;b0e5&#45;170a342396fe</title>
<path fill="none" stroke="black" stroke-dasharray="5,2" d="M175.8,-254.58C177.28,-246.04 178.93,-236.52 180.43,-227.84"/>
<polygon fill="black" stroke="black" points="183.91,-228.24 182.17,-217.79 177.02,-227.05 183.91,-228.24"/>
</g>
<!-- 500ef977&#45;0779&#45;4a56&#45;ab33&#45;0aa3418acc71&#45;&gt;end -->
<g id="edge11" class="edge">
<title>500ef977&#45;0779&#45;4a56&#45;ab33&#45;0aa3418acc71&#45;&gt;end</title>
<path fill="none" stroke="black" d="M394.82,-281.61C412.63,-281.61 430.3,-281.61 441.26,-281.61"/>
<polygon fill="black" stroke="black" points="441.57,-285.11 451.57,-281.61 441.57,-278.11 441.57,-285.11"/>
<text text-anchor="middle" x="423.24" y="-288.41" font-family="Helvetica,sans-Serif" font-size="14.00">Finish</text>
</g>
<!-- 94a50291&#45;2640&#45;4d22&#45;a639&#45;daee76b68af3 -->
<g id="node7" class="node">
<title>94a50291&#45;2640&#45;4d22&#45;a639&#45;daee76b68af3</title>
<polygon fill="#ee0000" stroke="black" points="363.3,-217.74 279.3,-217.74 279.3,-179.74 363.3,-179.74 363.3,-217.74"/>
<text text-anchor="middle" x="321.3" y="-202.54" font-family="Helvetica,sans-Serif" font-size="14.00">✗ Check</text>
<text text-anchor="middle" x="321.3" y="-187.54" font-family="Helvetica,sans-Serif" font-size="14.00">src/api.py</text>
</g>
<!-- 500ef977&#45;0779&#45;4a56&#45;ab33&#45;0aa3418acc71&#45;&gt;94a50291&#45;2640&#45;4d22&#45;a639&#45;daee76b68af3 -->
<g id="edge6" class="edge">
<title>500ef977&#45;0779&#45;4a56&#45;ab33&#45;0aa3418acc71&#45;&gt;94a50291&#45;2640&#45;4d22&#45;a639&#45;daee76b68af3</title>
<path fill="none" stroke="black" stroke-dasharray="5,2" d="M330.79,-254.58C329.31,-246.04 327.66,-236.52 326.16,-227.84"/>
<polygon fill="black" stroke="black" points="329.58,-227.05 324.42,-217.79 322.68,-228.24 329.58,-227.05"/>
</g>
<!-- f132ab38&#45;4e03&#45;4041&#45;a0b4&#45;e76431bb4ad7 -->
<g id="node8" class="node">
<title>f132ab38&#45;4e03&#45;4041&#45;a0b4&#45;e76431bb4ad7</title>
<polygon fill="#0ee832" stroke="black" points="465.3,-217.74 381.3,-217.74 381.3,-179.74 465.3,-179.74 465.3,-217.74"/>
<text text-anchor="middle" x="423.3" y="-202.54" font-family="Helvetica,sans-Serif" font-size="14.00">✓ Check</text>
<text text-anchor="middle" x="423.3" y="-187.54" font-family="Helvetica,sans-Serif" font-size="14.00">src/api.py</text>
</g>
<!-- 500ef977&#45;0779&#45;4a56&#45;ab33&#45;0aa3418acc71&#45;&gt;f132ab38&#45;4e03&#45;4041&#45;a0b4&#45;e76431bb4ad7 -->
<g id="edge9" class="edge">
<title>500ef977&#45;0779&#45;4a56&#45;ab33&#45;0aa3418acc71&#45;&gt;f132ab38&#45;4e03&#45;4041&#45;a0b4&#45;e76431bb4ad7</title>
<path fill="none" stroke="black" stroke-dasharray="5,2" d="M360.75,-257.22C371.8,-247.06 384.77,-235.15 396.02,-224.81"/>
<polygon fill="black" stroke="black" points="398.49,-227.29 403.49,-217.94 393.76,-222.13 398.49,-227.29"/>
</g>
<!-- 9f786f73&#45;7cdc&#45;4a5a&#45;a924&#45;6fd4e2b6c327 -->
<g id="node9" class="node">
<title>9f786f73&#45;7cdc&#45;4a5a&#45;a924&#45;6fd4e2b6c327</title>
<ellipse fill="#0ee832" stroke="black" cx="69.3" cy="-101.87" rx="69.09" ry="26.74"/>
<text text-anchor="middle" x="69.3" y="-105.67" font-family="Helvetica,sans-Serif" font-size="14.00">✓ Modify</text>
<text text-anchor="middle" x="69.3" y="-90.67" font-family="Helvetica,sans-Serif" font-size="14.00">src/main.py</text>
</g>
<!-- 7cf26340&#45;096e&#45;4442&#45;9ae3&#45;547fb9e8499b&#45;&gt;9f786f73&#45;7cdc&#45;4a5a&#45;a924&#45;6fd4e2b6c327 -->
<g id="edge2" class="edge">
<title>7cf26340&#45;096e&#45;4442&#45;9ae3&#45;547fb9e8499b&#45;&gt;9f786f73&#45;7cdc&#45;4a5a&#45;a924&#45;6fd4e2b6c327</title>
<path fill="none" stroke="black" d="M69.3,-179.45C69.3,-168.03 69.3,-152.95 69.3,-139.18"/>
<polygon fill="black" stroke="black" points="72.8,-139 69.3,-129 65.8,-139 72.8,-139"/>
<text text-anchor="middle" x="166.8" y="-150.54" font-family="Helvetica,sans-Serif" font-size="14.00">Additional changes required</text>
</g>
<!-- 1dc0a563&#45;85e6&#45;45d1&#45;b285&#45;50bcf4373004 -->
<g id="node10" class="node">
<title>1dc0a563&#45;85e6&#45;45d1&#45;b285&#45;50bcf4373004</title>
<ellipse fill="#0ee832" stroke="black" cx="321.3" cy="-101.87" rx="59.29" ry="26.74"/>
<text text-anchor="middle" x="321.3" y="-105.67" font-family="Helvetica,sans-Serif" font-size="14.00">✓ Modify</text>
<text text-anchor="middle" x="321.3" y="-90.67" font-family="Helvetica,sans-Serif" font-size="14.00">src/api.py</text>
</g>
<!-- 94a50291&#45;2640&#45;4d22&#45;a639&#45;daee76b68af3&#45;&gt;1dc0a563&#45;85e6&#45;45d1&#45;b285&#45;50bcf4373004 -->
<g id="edge7" class="edge">
<title>94a50291&#45;2640&#45;4d22&#45;a639&#45;daee76b68af3&#45;&gt;1dc0a563&#45;85e6&#45;45d1&#45;b285&#45;50bcf4373004</title>
<path fill="none" stroke="black" d="M321.3,-179.45C321.3,-168.03 321.3,-152.95 321.3,-139.18"/>
<polygon fill="black" stroke="black" points="324.8,-139 321.3,-129 317.8,-139 324.8,-139"/>
<text text-anchor="middle" x="418.8" y="-150.54" font-family="Helvetica,sans-Serif" font-size="14.00">Additional changes required</text>
</g>
<!-- b866336b&#45;a657&#45;4e81&#45;b763&#45;368822d35cef -->
<g id="node11" class="node">
<title>b866336b&#45;a657&#45;4e81&#45;b763&#45;368822d35cef</title>
<polygon fill="#0ee832" stroke="black" points="118.3,-38 20.3,-38 20.3,0 118.3,0 118.3,-38"/>
<text text-anchor="middle" x="69.3" y="-22.8" font-family="Helvetica,sans-Serif" font-size="14.00">✓ Check</text>
<text text-anchor="middle" x="69.3" y="-7.8" font-family="Helvetica,sans-Serif" font-size="14.00">src/main.py</text>
</g>
<!-- 9f786f73&#45;7cdc&#45;4a5a&#45;a924&#45;6fd4e2b6c327&#45;&gt;b866336b&#45;a657&#45;4e81&#45;b763&#45;368822d35cef -->
<g id="edge3" class="edge">
<title>9f786f73&#45;7cdc&#45;4a5a&#45;a924&#45;6fd4e2b6c327&#45;&gt;b866336b&#45;a657&#45;4e81&#45;b763&#45;368822d35cef</title>
<path fill="none" stroke="black" stroke-dasharray="5,2" d="M69.3,-74.84C69.3,-66.3 69.3,-56.78 69.3,-48.1"/>
<polygon fill="black" stroke="black" points="72.8,-48.05 69.3,-38.05 65.8,-48.05 72.8,-48.05"/>
</g>
<!-- ab5ca668&#45;8536&#45;43a3&#45;a3b3&#45;471c0189a7ad -->
<g id="node12" class="node">
<title>ab5ca668&#45;8536&#45;43a3&#45;a3b3&#45;471c0189a7ad</title>
<polygon fill="#0ee832" stroke="black" points="363.3,-38 279.3,-38 279.3,0 363.3,0 363.3,-38"/>
<text text-anchor="middle" x="321.3" y="-22.8" font-family="Helvetica,sans-Serif" font-size="14.00">✓ Check</text>
<text text-anchor="middle" x="321.3" y="-7.8" font-family="Helvetica,sans-Serif" font-size="14.00">src/api.py</text>
</g>
<!-- 1dc0a563&#45;85e6&#45;45d1&#45;b285&#45;50bcf4373004&#45;&gt;ab5ca668&#45;8536&#45;43a3&#45;a3b3&#45;471c0189a7ad -->
<g id="edge8" class="edge">
<title>1dc0a563&#45;85e6&#45;45d1&#45;b285&#45;50bcf4373004&#45;&gt;ab5ca668&#45;8536&#45;43a3&#45;a3b3&#45;471c0189a7ad</title>
<path fill="none" stroke="black" stroke-dasharray="5,2" d="M321.3,-74.84C321.3,-66.3 321.3,-56.78 321.3,-48.1"/>
<polygon fill="black" stroke="black" points="324.8,-48.05 321.3,-38.05 317.8,-48.05 324.8,-48.05"/>
</g>
</g>
</svg>
