<?xml version="1.0" encoding="UTF-8" standalone="no"?>
<!DOCTYPE svg PUBLIC "-//W3C//DTD SVG 1.1//EN"
 "http://www.w3.org/Graphics/SVG/1.1/DTD/svg11.dtd">
<!-- Generated by graphviz version 8.0.3 (0)
 -->
<!-- Pages: 1 -->
<svg width="838pt" height="238pt"
 viewBox="0.00 0.00 838.00 237.74" xmlns="http://www.w3.org/2000/svg" xmlns:xlink="http://www.w3.org/1999/xlink">
<g id="graph0" class="graph" transform="scale(1 1) rotate(0) translate(36 201.74)">
<polygon fill="dimgray" stroke="none" points="-36,36 -36,-201.74 802,-201.74 802,36 -36,36"/>
<text text-anchor="middle" x="383" y="-150.54" font-family="Helvetica,sans-Serif" font-size="14.00">Sweep&#39;s Plan &amp; Progress</text>
<!-- start -->
<g id="node1" class="node">
<title>start</title>
</g>
<!-- 30a49582&#45;162b&#45;47a2&#45;b578&#45;4b19408ea077 -->
<g id="node3" class="node">
<title>30a49582&#45;162b&#45;47a2&#45;b578&#45;4b19408ea077</title>
<ellipse fill="#0ee832" stroke="black" cx="169" cy="-99.87" rx="62.87" ry="26.74"/>
<text text-anchor="middle" x="169" y="-103.67" font-family="Helvetica,sans-Serif" font-size="14.00">✓ Create</text>
<text text-anchor="middle" x="169" y="-88.67" font-family="Helvetica,sans-Serif" font-size="14.00">src/cnn.py</text>
</g>
<!-- start&#45;&gt;30a49582&#45;162b&#45;47a2&#45;b578&#45;4b19408ea077 -->
<g id="edge6" class="edge">
<title>start&#45;&gt;30a49582&#45;162b&#45;47a2&#45;b578&#45;4b19408ea077</title>
<path fill="none" stroke="black" d="M54.33,-99.87C56.91,-99.87 74.3,-99.87 94.78,-99.87"/>
<polygon fill="black" stroke="black" points="94.72,-103.37 104.72,-99.87 94.72,-96.37 94.72,-103.37"/>
<text text-anchor="middle" x="80.28" y="-106.67" font-family="Helvetica,sans-Serif" font-size="14.00">Start</text>
</g>
<!-- end -->
<g id="node2" class="node">
<title>end</title>
</g>
<!-- b112ee2d&#45;4ab4&#45;4099&#45;8087&#45;4809ac97da57 -->
<g id="node4" class="node">
<title>b112ee2d&#45;4ab4&#45;4099&#45;8087&#45;4809ac97da57</title>
<ellipse fill="#0ee832" stroke="black" cx="386" cy="-99.87" rx="69.09" ry="26.74"/>
<text text-anchor="middle" x="386" y="-103.67" font-family="Helvetica,sans-Serif" font-size="14.00">✓ Modify</text>
<text text-anchor="middle" x="386" y="-88.67" font-family="Helvetica,sans-Serif" font-size="14.00">src/main.py</text>
</g>
<!-- 30a49582&#45;162b&#45;47a2&#45;b578&#45;4b19408ea077&#45;&gt;b112ee2d&#45;4ab4&#45;4099&#45;8087&#45;4809ac97da57 -->
<g id="edge2" class="edge">
<title>30a49582&#45;162b&#45;47a2&#45;b578&#45;4b19408ea077&#45;&gt;b112ee2d&#45;4ab4&#45;4099&#45;8087&#45;4809ac97da57</title>
<path fill="none" stroke="black" d="M232.15,-99.87C256.67,-99.87 281.19,-99.87 305.7,-99.87"/>
<polygon fill="black" stroke="black" points="305.59,-103.37 315.59,-99.87 305.59,-96.37 305.59,-103.37"/>
</g>
<!-- 5d7c4675&#45;bb84&#45;43d4&#45;a8f1&#45;f90f82f10f0b -->
<g id="node6" class="node">
<title>5d7c4675&#45;bb84&#45;43d4&#45;a8f1&#45;f90f82f10f0b</title>
<polygon fill="#0ee832" stroke="black" points="242,-36 0,-36 0,0 242,0 242,-36"/>
<text text-anchor="middle" x="121" y="-14.3" font-family="Helvetica,sans-Serif" font-size="14.00">✓ Ran sandbox for `src/cnn.py`.</text>
</g>
<!-- 30a49582&#45;162b&#45;47a2&#45;b578&#45;4b19408ea077&#45;&gt;5d7c4675&#45;bb84&#45;43d4&#45;a8f1&#45;f90f82f10f0b -->
<g id="edge1" class="edge">
<title>30a49582&#45;162b&#45;47a2&#45;b578&#45;4b19408ea077&#45;&gt;5d7c4675&#45;bb84&#45;43d4&#45;a8f1&#45;f90f82f10f0b</title>
<path fill="none" stroke="black" stroke-dasharray="5,2" d="M153.81,-73.6C148.41,-64.6 142.31,-54.46 136.85,-45.37"/>
<polygon fill="black" stroke="black" points="139.39,-43.8 131.24,-37.04 133.39,-47.41 139.39,-43.8"/>
</g>
<!-- 2d5b39d3&#45;5a51&#45;44ea&#45;9a55&#45;5bde4f1d36cc -->
<g id="node5" class="node">
<title>2d5b39d3&#45;5a51&#45;44ea&#45;9a55&#45;5bde4f1d36cc</title>
<ellipse fill="yellow" stroke="black" cx="599" cy="-99.87" rx="59.29" ry="26.74"/>
<text text-anchor="middle" x="599" y="-103.67" font-family="Helvetica,sans-Serif" font-size="14.00">⋯ Modify</text>
<text text-anchor="middle" x="599" y="-88.67" font-family="Helvetica,sans-Serif" font-size="14.00">src/api.py</text>
</g>
<!-- b112ee2d&#45;4ab4&#45;4099&#45;8087&#45;4809ac97da57&#45;&gt;2d5b39d3&#45;5a51&#45;44ea&#45;9a55&#45;5bde4f1d36cc -->
<g id="edge4" class="edge">
<title>b112ee2d&#45;4ab4&#45;4099&#45;8087&#45;4809ac97da57&#45;&gt;2d5b39d3&#45;5a51&#45;44ea&#45;9a55&#45;5bde4f1d36cc</title>
<path fill="none" stroke="black" d="M455.47,-99.87C479.81,-99.87 504.15,-99.87 528.49,-99.87"/>
<polygon fill="black" stroke="black" points="528.29,-103.37 538.29,-99.87 528.29,-96.37 528.29,-103.37"/>
</g>
<!-- 9acd0971&#45;414d&#45;40e6&#45;a1fa&#45;5c63214bde25 -->
<g id="node7" class="node">
<title>9acd0971&#45;414d&#45;40e6&#45;a1fa&#45;5c63214bde25</title>
<polygon fill="#0ee832" stroke="black" points="511.5,-36 260.5,-36 260.5,0 511.5,0 511.5,-36"/>
<text text-anchor="middle" x="386" y="-14.3" font-family="Helvetica,sans-Serif" font-size="14.00">✓ Ran sandbox for `src/main.py`.</text>
</g>
<!-- b112ee2d&#45;4ab4&#45;4099&#45;8087&#45;4809ac97da57&#45;&gt;9acd0971&#45;414d&#45;40e6&#45;a1fa&#45;5c63214bde25 -->
<g id="edge3" class="edge">
<title>b112ee2d&#45;4ab4&#45;4099&#45;8087&#45;4809ac97da57&#45;&gt;9acd0971&#45;414d&#45;40e6&#45;a1fa&#45;5c63214bde25</title>
<path fill="none" stroke="black" stroke-dasharray="5,2" d="M386,-72.72C386,-64.46 386,-55.31 386,-46.93"/>
<polygon fill="black" stroke="black" points="389.5,-47.15 386,-37.15 382.5,-47.15 389.5,-47.15"/>
</g>
<!-- 2d5b39d3&#45;5a51&#45;44ea&#45;9a55&#45;5bde4f1d36cc&#45;&gt;end -->
<g id="edge7" class="edge">
<title>2d5b39d3&#45;5a51&#45;44ea&#45;9a55&#45;5bde4f1d36cc&#45;&gt;end</title>
<path fill="none" stroke="black" d="M658.53,-99.87C676.31,-99.87 693.97,-99.87 704.92,-99.87"/>
<polygon fill="black" stroke="black" points="704.67,-103.37 714.67,-99.87 704.67,-96.37 704.67,-103.37"/>
<text text-anchor="middle" x="686.95" y="-106.67" font-family="Helvetica,sans-Serif" font-size="14.00">Finish</text>
</g>
<!-- b8c0a2d5&#45;eea5&#45;42ac&#45;94bf&#45;496119a6c092 -->
<g id="node8" class="node">
<title>b8c0a2d5&#45;eea5&#45;42ac&#45;94bf&#45;496119a6c092</title>
<polygon fill="white" stroke="black" points="766,-36 530,-36 530,0 766,0 766,-36"/>
<text text-anchor="middle" x="648" y="-14.3" font-family="Helvetica,sans-Serif" font-size="14.00">▶ Ran sandbox for `src/api.py`.</text>
</g>
<!-- 2d5b39d3&#45;5a51&#45;44ea&#45;9a55&#45;5bde4f1d36cc&#45;&gt;b8c0a2d5&#45;eea5&#45;42ac&#45;94bf&#45;496119a6c092 -->
<g id="edge5" class="edge">
<title>2d5b39d3&#45;5a51&#45;44ea&#45;9a55&#45;5bde4f1d36cc&#45;&gt;b8c0a2d5&#45;eea5&#45;42ac&#45;94bf&#45;496119a6c092</title>
<path fill="none" stroke="black" stroke-dasharray="5,2" d="M614.5,-73.6C620.02,-64.6 626.25,-54.46 631.82,-45.37"/>
<polygon fill="black" stroke="black" points="635.3,-47.39 637.55,-37.04 629.34,-43.73 635.3,-47.39"/>
</g>
</g>
</svg>
