<?xml version="1.0" encoding="UTF-8" standalone="no"?>
<!DOCTYPE svg PUBLIC "-//W3C//DTD SVG 1.1//EN"
 "http://www.w3.org/Graphics/SVG/1.1/DTD/svg11.dtd">
<!-- Generated by graphviz version 8.0.3 (0)
 -->
<!-- Pages: 1 -->
<svg width="848pt" height="238pt"
 viewBox="0.00 0.00 848.00 237.74" xmlns="http://www.w3.org/2000/svg" xmlns:xlink="http://www.w3.org/1999/xlink">
<g id="graph0" class="graph" transform="scale(1 1) rotate(0) translate(36 201.74)">
<polygon fill="dimgray" stroke="none" points="-36,36 -36,-201.74 812,-201.74 812,36 -36,36"/>
<text text-anchor="middle" x="388" y="-150.54" font-family="Helvetica,sans-Serif" font-size="14.00">Sweep&#39;s Plan &amp; Progress</text>
<!-- start -->
<g id="node1" class="node">
<title>start</title>
</g>
<!-- 26585cb2&#45;c43e&#45;4576&#45;8d78&#45;578a5ed14234 -->
<g id="node3" class="node">
<title>26585cb2&#45;c43e&#45;4576&#45;8d78&#45;578a5ed14234</title>
<ellipse fill="#0ee832" stroke="black" cx="175" cy="-99.87" rx="69.09" ry="26.74"/>
<text text-anchor="middle" x="175" y="-103.67" font-family="Helvetica,sans-Serif" font-size="14.00">✓ Modify</text>
<text text-anchor="middle" x="175" y="-88.67" font-family="Helvetica,sans-Serif" font-size="14.00">src/main.py</text>
</g>
<!-- start&#45;&gt;26585cb2&#45;c43e&#45;4576&#45;8d78&#45;578a5ed14234 -->
<g id="edge6" class="edge">
<title>start&#45;&gt;26585cb2&#45;c43e&#45;4576&#45;8d78&#45;578a5ed14234</title>
<path fill="none" stroke="black" d="M54.35,-99.87C56.98,-99.87 74.26,-99.87 94.96,-99.87"/>
<polygon fill="black" stroke="black" points="94.69,-103.37 104.69,-99.87 94.69,-96.37 94.69,-103.37"/>
<text text-anchor="middle" x="80.1" y="-106.67" font-family="Helvetica,sans-Serif" font-size="14.00">Start</text>
</g>
<!-- end -->
<g id="node2" class="node">
<title>end</title>
</g>
<!-- 2d25dc7b&#45;cb68&#45;44b7&#45;aa54&#45;b478e9472fbc -->
<g id="node4" class="node">
<title>2d25dc7b&#45;cb68&#45;44b7&#45;aa54&#45;b478e9472fbc</title>
<ellipse fill="white" stroke="black" cx="397" cy="-99.87" rx="69.09" ry="26.74"/>
<text text-anchor="middle" x="397" y="-103.67" font-family="Helvetica,sans-Serif" font-size="14.00">▶ Modify</text>
<text text-anchor="middle" x="397" y="-88.67" font-family="Helvetica,sans-Serif" font-size="14.00">src/main.py</text>
</g>
<!-- 26585cb2&#45;c43e&#45;4576&#45;8d78&#45;578a5ed14234&#45;&gt;2d25dc7b&#45;cb68&#45;44b7&#45;aa54&#45;b478e9472fbc -->
<g id="edge2" class="edge">
<title>26585cb2&#45;c43e&#45;4576&#45;8d78&#45;578a5ed14234&#45;&gt;2d25dc7b&#45;cb68&#45;44b7&#45;aa54&#45;b478e9472fbc</title>
<path fill="none" stroke="black" d="M244.38,-99.87C268.52,-99.87 292.67,-99.87 316.82,-99.87"/>
<polygon fill="black" stroke="black" points="316.54,-103.37 326.54,-99.87 316.54,-96.37 316.54,-103.37"/>
</g>
<!-- 45ae481b&#45;7462&#45;4a05&#45;bcca&#45;57c480289028 -->
<g id="node6" class="node">
<title>45ae481b&#45;7462&#45;4a05&#45;bcca&#45;57c480289028</title>
<polygon fill="yellow" stroke="black" points="254,-36 0,-36 0,0 254,0 254,-36"/>
<text text-anchor="middle" x="127" y="-14.3" font-family="Helvetica,sans-Serif" font-size="14.00">⋯ Ran sandbox for `src/main.py`.</text>
</g>
<!-- 26585cb2&#45;c43e&#45;4576&#45;8d78&#45;578a5ed14234&#45;&gt;45ae481b&#45;7462&#45;4a05&#45;bcca&#45;57c480289028 -->
<g id="edge1" class="edge">
<title>26585cb2&#45;c43e&#45;4576&#45;8d78&#45;578a5ed14234&#45;&gt;45ae481b&#45;7462&#45;4a05&#45;bcca&#45;57c480289028</title>
<path fill="none" stroke="black" stroke-dasharray="5,2" d="M159.81,-73.6C154.41,-64.6 148.31,-54.46 142.85,-45.37"/>
<polygon fill="black" stroke="black" points="145.39,-43.8 137.24,-37.04 139.39,-47.41 145.39,-43.8"/>
</g>
<!-- dd4675f0&#45;8c61&#45;4ca3&#45;9912&#45;d5a1b4b2c43f -->
<g id="node5" class="node">
<title>dd4675f0&#45;8c61&#45;4ca3&#45;9912&#45;d5a1b4b2c43f</title>
<ellipse fill="white" stroke="black" cx="610" cy="-99.87" rx="59.29" ry="26.74"/>
<text text-anchor="middle" x="610" y="-103.67" font-family="Helvetica,sans-Serif" font-size="14.00">▶ Modify</text>
<text text-anchor="middle" x="610" y="-88.67" font-family="Helvetica,sans-Serif" font-size="14.00">src/api.py</text>
</g>
<!-- 2d25dc7b&#45;cb68&#45;44b7&#45;aa54&#45;b478e9472fbc&#45;&gt;dd4675f0&#45;8c61&#45;4ca3&#45;9912&#45;d5a1b4b2c43f -->
<g id="edge4" class="edge">
<title>2d25dc7b&#45;cb68&#45;44b7&#45;aa54&#45;b478e9472fbc&#45;&gt;dd4675f0&#45;8c61&#45;4ca3&#45;9912&#45;d5a1b4b2c43f</title>
<path fill="none" stroke="black" d="M466.47,-99.87C490.81,-99.87 515.15,-99.87 539.49,-99.87"/>
<polygon fill="black" stroke="black" points="539.29,-103.37 549.29,-99.87 539.29,-96.37 539.29,-103.37"/>
</g>
<!-- 4e46626d&#45;512b&#45;460a&#45;84df&#45;221b87ef6e02 -->
<g id="node7" class="node">
<title>4e46626d&#45;512b&#45;460a&#45;84df&#45;221b87ef6e02</title>
<polygon fill="white" stroke="black" points="522,-36 272,-36 272,0 522,0 522,-36"/>
<text text-anchor="middle" x="397" y="-14.3" font-family="Helvetica,sans-Serif" font-size="14.00">▶ Ran sandbox for `src/main.py`.</text>
</g>
<!-- 2d25dc7b&#45;cb68&#45;44b7&#45;aa54&#45;b478e9472fbc&#45;&gt;4e46626d&#45;512b&#45;460a&#45;84df&#45;221b87ef6e02 -->
<g id="edge3" class="edge">
<title>2d25dc7b&#45;cb68&#45;44b7&#45;aa54&#45;b478e9472fbc&#45;&gt;4e46626d&#45;512b&#45;460a&#45;84df&#45;221b87ef6e02</title>
<path fill="none" stroke="black" stroke-dasharray="5,2" d="M397,-72.72C397,-64.46 397,-55.31 397,-46.93"/>
<polygon fill="black" stroke="black" points="400.5,-47.15 397,-37.15 393.5,-47.15 400.5,-47.15"/>
</g>
<!-- dd4675f0&#45;8c61&#45;4ca3&#45;9912&#45;d5a1b4b2c43f&#45;&gt;end -->
<g id="edge7" class="edge">
<title>dd4675f0&#45;8c61&#45;4ca3&#45;9912&#45;d5a1b4b2c43f&#45;&gt;end</title>
<path fill="none" stroke="black" d="M669.53,-99.87C687.31,-99.87 704.97,-99.87 715.92,-99.87"/>
<polygon fill="black" stroke="black" points="715.67,-103.37 725.67,-99.87 715.67,-96.37 715.67,-103.37"/>
<text text-anchor="middle" x="697.95" y="-106.67" font-family="Helvetica,sans-Serif" font-size="14.00">Finish</text>
</g>
<!-- 75ba9e0e&#45;ba19&#45;4bbb&#45;b233&#45;3a098b70664c -->
<g id="node8" class="node">
<title>75ba9e0e&#45;ba19&#45;4bbb&#45;b233&#45;3a098b70664c</title>
<polygon fill="white" stroke="black" points="776,-36 540,-36 540,0 776,0 776,-36"/>
<text text-anchor="middle" x="658" y="-14.3" font-family="Helvetica,sans-Serif" font-size="14.00">▶ Ran sandbox for `src/api.py`.</text>
</g>
<!-- dd4675f0&#45;8c61&#45;4ca3&#45;9912&#45;d5a1b4b2c43f&#45;&gt;75ba9e0e&#45;ba19&#45;4bbb&#45;b233&#45;3a098b70664c -->
<g id="edge5" class="edge">
<title>dd4675f0&#45;8c61&#45;4ca3&#45;9912&#45;d5a1b4b2c43f&#45;&gt;75ba9e0e&#45;ba19&#45;4bbb&#45;b233&#45;3a098b70664c</title>
<path fill="none" stroke="black" stroke-dasharray="5,2" d="M625.19,-73.6C630.59,-64.6 636.69,-54.46 642.15,-45.37"/>
<polygon fill="black" stroke="black" points="645.61,-47.41 647.76,-37.04 639.61,-43.8 645.61,-47.41"/>
</g>
</g>
</svg>
