<?xml version="1.0" encoding="UTF-8" standalone="no"?>
<!DOCTYPE svg PUBLIC "-//W3C//DTD SVG 1.1//EN"
 "http://www.w3.org/Graphics/SVG/1.1/DTD/svg11.dtd">
<!-- Generated by graphviz version 8.0.3 (0)
 -->
<!-- Pages: 1 -->
<svg width="944pt" height="215pt"
 viewBox="0.00 0.00 943.50 214.74" xmlns="http://www.w3.org/2000/svg" xmlns:xlink="http://www.w3.org/1999/xlink">
<g id="graph0" class="graph" transform="scale(1 1) rotate(0) translate(36 178.74)">
<polygon fill="white" stroke="none" points="-36,36 -36,-178.74 907.5,-178.74 907.5,36 -36,36"/>
<!-- start -->
<g id="node1" class="node">
<title>start</title>
</g>
<!-- 82421782&#45;92be&#45;462a&#45;aa4c&#45;430d7cd101e4 -->
<g id="node2" class="node">
<title>82421782&#45;92be&#45;462a&#45;aa4c&#45;430d7cd101e4</title>
<ellipse fill="green" stroke="black" cx="119.5" cy="-115.87" rx="63.78" ry="26.74"/>
<text text-anchor="middle" x="119.5" y="-119.67" font-family="Times,serif" font-size="14.00">✓ Create</text>
<text text-anchor="middle" x="119.5" y="-104.67" font-family="Times,serif" font-size="14.00">src/cnn.py</text>
</g>
<!-- start&#45;&gt;82421782&#45;92be&#45;462a&#45;aa4c&#45;430d7cd101e4 -->
<g id="edge9" class="edge">
<title>start&#45;&gt;82421782&#45;92be&#45;462a&#45;aa4c&#45;430d7cd101e4</title>
<path fill="none" stroke="black" d="M0.84,-115.87C3.58,-115.87 22.48,-115.87 44.41,-115.87"/>
<polygon fill="black" stroke="black" points="44.36,-119.37 54.36,-115.87 44.36,-112.37 44.36,-119.37"/>
<text text-anchor="middle" x="28.43" y="-122.67" font-family="Times,serif" font-size="14.00">Start</text>
</g>
<!-- 9a511ebc&#45;9cbc&#45;4567&#45;b24c&#45;ba499c255afc -->
<g id="node3" class="node">
<title>9a511ebc&#45;9cbc&#45;4567&#45;b24c&#45;ba499c255afc</title>
<ellipse fill="green" stroke="black" cx="336.5" cy="-115.87" rx="70.92" ry="26.74"/>
<text text-anchor="middle" x="336.5" y="-119.67" font-family="Times,serif" font-size="14.00">✓ Modify</text>
<text text-anchor="middle" x="336.5" y="-104.67" font-family="Times,serif" font-size="14.00">src/main.py</text>
</g>
<!-- 82421782&#45;92be&#45;462a&#45;aa4c&#45;430d7cd101e4&#45;&gt;9a511ebc&#45;9cbc&#45;4567&#45;b24c&#45;ba499c255afc -->
<g id="edge2" class="edge">
<title>82421782&#45;92be&#45;462a&#45;aa4c&#45;430d7cd101e4&#45;&gt;9a511ebc&#45;9cbc&#45;4567&#45;b24c&#45;ba499c255afc</title>
<path fill="none" stroke="black" d="M183.73,-115.87C205.84,-115.87 230.92,-115.87 254.28,-115.87"/>
<polygon fill="black" stroke="black" points="254.22,-119.37 264.22,-115.87 254.22,-112.37 254.22,-119.37"/>
<text text-anchor="middle" x="224.46" y="-122.67" font-family="Times,serif" font-size="14.00">Continue</text>
</g>
<!-- 70e7fcf2&#45;f6f4&#45;4e85&#45;bc75&#45;f6a8b424afa6 -->
<g id="node7" class="node">
<title>70e7fcf2&#45;f6f4&#45;4e85&#45;bc75&#45;f6a8b424afa6</title>
<polygon fill="green" stroke="black" points="164.5,-38 74.5,-38 74.5,0 164.5,0 164.5,-38"/>
<text text-anchor="middle" x="119.5" y="-22.8" font-family="Times,serif" font-size="14.00">✓ Check</text>
<text text-anchor="middle" x="119.5" y="-7.8" font-family="Times,serif" font-size="14.00">src/cnn.py</text>
</g>
<!-- 82421782&#45;92be&#45;462a&#45;aa4c&#45;430d7cd101e4&#45;&gt;70e7fcf2&#45;f6f4&#45;4e85&#45;bc75&#45;f6a8b424afa6 -->
<g id="edge1" class="edge">
<title>82421782&#45;92be&#45;462a&#45;aa4c&#45;430d7cd101e4&#45;&gt;70e7fcf2&#45;f6f4&#45;4e85&#45;bc75&#45;f6a8b424afa6</title>
<path fill="none" stroke="black" stroke-dasharray="5,2" d="M119.5,-88.7C119.5,-76.43 119.5,-61.78 119.5,-49.17"/>
<polygon fill="black" stroke="black" points="123,-49.28 119.5,-39.28 116,-49.28 123,-49.28"/>
<text text-anchor="middle" x="173" y="-59.8" font-family="Times,serif" font-size="14.00">Check changes</text>
</g>
<!-- 5c3183dd&#45;5f17&#45;4ce8&#45;ab8c&#45;3921e440d26c -->
<g id="node4" class="node">
<title>5c3183dd&#45;5f17&#45;4ce8&#45;ab8c&#45;3921e440d26c</title>
<ellipse fill="green" stroke="black" cx="550.5" cy="-115.87" rx="60.62" ry="26.74"/>
<text text-anchor="middle" x="550.5" y="-119.67" font-family="Times,serif" font-size="14.00">✓ Modify</text>
<text text-anchor="middle" x="550.5" y="-104.67" font-family="Times,serif" font-size="14.00">src/api.py</text>
</g>
<!-- 9a511ebc&#45;9cbc&#45;4567&#45;b24c&#45;ba499c255afc&#45;&gt;5c3183dd&#45;5f17&#45;4ce8&#45;ab8c&#45;3921e440d26c -->
<g id="edge4" class="edge">
<title>9a511ebc&#45;9cbc&#45;4567&#45;b24c&#45;ba499c255afc&#45;&gt;5c3183dd&#45;5f17&#45;4ce8&#45;ab8c&#45;3921e440d26c</title>
<path fill="none" stroke="black" d="M407.76,-115.87C430.54,-115.87 455.76,-115.87 478.58,-115.87"/>
<polygon fill="black" stroke="black" points="478.57,-119.37 488.57,-115.87 478.57,-112.37 478.57,-119.37"/>
<text text-anchor="middle" x="448.45" y="-122.67" font-family="Times,serif" font-size="14.00">Continue</text>
</g>
<!-- 75acc656&#45;dff5&#45;494d&#45;91b9&#45;64a9bee4810e -->
<g id="node8" class="node">
<title>75acc656&#45;dff5&#45;494d&#45;91b9&#45;64a9bee4810e</title>
<polygon fill="red" stroke="black" points="372.5,-38 272.5,-38 272.5,0 372.5,0 372.5,-38"/>
<text text-anchor="middle" x="322.5" y="-22.8" font-family="Times,serif" font-size="14.00">✗ Check</text>
<text text-anchor="middle" x="322.5" y="-7.8" font-family="Times,serif" font-size="14.00">src/main.py</text>
</g>
<!-- 9a511ebc&#45;9cbc&#45;4567&#45;b24c&#45;ba499c255afc&#45;&gt;75acc656&#45;dff5&#45;494d&#45;91b9&#45;64a9bee4810e -->
<g id="edge3" class="edge">
<title>9a511ebc&#45;9cbc&#45;4567&#45;b24c&#45;ba499c255afc&#45;&gt;75acc656&#45;dff5&#45;494d&#45;91b9&#45;64a9bee4810e</title>
<path fill="none" stroke="black" stroke-dasharray="5,2" d="M293.15,-94.34C284.47,-88.11 276.48,-80.38 271.5,-71 266.42,-61.43 270.59,-52.51 278.35,-44.88"/>
<polygon fill="black" stroke="black" points="279.86,-47.35 285.32,-38.27 275.39,-41.96 279.86,-47.35"/>
<text text-anchor="middle" x="325" y="-59.8" font-family="Times,serif" font-size="14.00">Check changes</text>
</g>
<!-- 9a511ebc&#45;9cbc&#45;4567&#45;b24c&#45;ba499c255afc&#45;&gt;75acc656&#45;dff5&#45;494d&#45;91b9&#45;64a9bee4810e -->
<g id="edge8" class="edge">
<title>9a511ebc&#45;9cbc&#45;4567&#45;b24c&#45;ba499c255afc&#45;&gt;75acc656&#45;dff5&#45;494d&#45;91b9&#45;64a9bee4810e</title>
<path fill="none" stroke="black" stroke-dasharray="5,2" d="M367.81,-91.66C378.04,-81.15 385.24,-68.34 378.5,-56 376.41,-52.17 373.72,-48.69 370.65,-45.54"/>
<polygon fill="black" stroke="black" points="373.22,-42.26 363.37,-38.36 368.64,-47.55 373.22,-42.26"/>
<text text-anchor="middle" x="435" y="-59.8" font-family="Times,serif" font-size="14.00">Check changes</text>
</g>
<!-- ead207b3&#45;02db&#45;4def&#45;bf75&#45;69fd2e1b9b9e -->
<g id="node5" class="node">
<title>ead207b3&#45;02db&#45;4def&#45;bf75&#45;69fd2e1b9b9e</title>
<ellipse fill="green" stroke="black" cx="764.5" cy="-115.87" rx="70.92" ry="26.74"/>
<text text-anchor="middle" x="764.5" y="-119.67" font-family="Times,serif" font-size="14.00">✓ Modify</text>
<text text-anchor="middle" x="764.5" y="-104.67" font-family="Times,serif" font-size="14.00">src/main.py</text>
</g>
<!-- 5c3183dd&#45;5f17&#45;4ce8&#45;ab8c&#45;3921e440d26c&#45;&gt;ead207b3&#45;02db&#45;4def&#45;bf75&#45;69fd2e1b9b9e -->
<g id="edge6" class="edge">
<title>5c3183dd&#45;5f17&#45;4ce8&#45;ab8c&#45;3921e440d26c&#45;&gt;ead207b3&#45;02db&#45;4def&#45;bf75&#45;69fd2e1b9b9e</title>
<path fill="none" stroke="black" d="M611.54,-115.87C633.61,-115.87 658.9,-115.87 682.47,-115.87"/>
<polygon fill="black" stroke="black" points="682.17,-119.37 692.17,-115.87 682.17,-112.37 682.17,-119.37"/>
<text text-anchor="middle" x="652.55" y="-122.67" font-family="Times,serif" font-size="14.00">Continue</text>
</g>
<!-- fc361580&#45;458a&#45;4c9e&#45;b53a&#45;3dcaba1a97b5 -->
<g id="node9" class="node">
<title>fc361580&#45;458a&#45;4c9e&#45;b53a&#45;3dcaba1a97b5</title>
<polygon fill="green" stroke="black" points="593.5,-38 507.5,-38 507.5,0 593.5,0 593.5,-38"/>
<text text-anchor="middle" x="550.5" y="-22.8" font-family="Times,serif" font-size="14.00">✓ Check</text>
<text text-anchor="middle" x="550.5" y="-7.8" font-family="Times,serif" font-size="14.00">src/api.py</text>
</g>
<!-- 5c3183dd&#45;5f17&#45;4ce8&#45;ab8c&#45;3921e440d26c&#45;&gt;fc361580&#45;458a&#45;4c9e&#45;b53a&#45;3dcaba1a97b5 -->
<g id="edge5" class="edge">
<title>5c3183dd&#45;5f17&#45;4ce8&#45;ab8c&#45;3921e440d26c&#45;&gt;fc361580&#45;458a&#45;4c9e&#45;b53a&#45;3dcaba1a97b5</title>
<path fill="none" stroke="black" stroke-dasharray="5,2" d="M550.5,-88.7C550.5,-76.43 550.5,-61.78 550.5,-49.17"/>
<polygon fill="black" stroke="black" points="554,-49.28 550.5,-39.28 547,-49.28 554,-49.28"/>
<text text-anchor="middle" x="604" y="-59.8" font-family="Times,serif" font-size="14.00">Check changes</text>
</g>
<!-- f51efde5&#45;9886&#45;45e9&#45;b969&#45;2968b1c067ab -->
<g id="node10" class="node">
<title>f51efde5&#45;9886&#45;45e9&#45;b969&#45;2968b1c067ab</title>
<polygon fill="yellow" stroke="black" points="814.5,-38 714.5,-38 714.5,0 814.5,0 814.5,-38"/>
<text text-anchor="middle" x="764.5" y="-22.8" font-family="Times,serif" font-size="14.00">⋯ Check</text>
<text text-anchor="middle" x="764.5" y="-7.8" font-family="Times,serif" font-size="14.00">src/main.py</text>
</g>
<!-- ead207b3&#45;02db&#45;4def&#45;bf75&#45;69fd2e1b9b9e&#45;&gt;f51efde5&#45;9886&#45;45e9&#45;b969&#45;2968b1c067ab -->
<g id="edge7" class="edge">
<title>ead207b3&#45;02db&#45;4def&#45;bf75&#45;69fd2e1b9b9e&#45;&gt;f51efde5&#45;9886&#45;45e9&#45;b969&#45;2968b1c067ab</title>
<path fill="none" stroke="black" stroke-dasharray="5,2" d="M764.5,-88.7C764.5,-76.43 764.5,-61.78 764.5,-49.17"/>
<polygon fill="black" stroke="black" points="768,-49.28 764.5,-39.28 761,-49.28 768,-49.28"/>
<text text-anchor="middle" x="818" y="-59.8" font-family="Times,serif" font-size="14.00">Check changes</text>
</g>
<!-- end -->
<g id="node6" class="node">
<title>end</title>
</g>
<!-- 75acc656&#45;dff5&#45;494d&#45;91b9&#45;64a9bee4810e&#45;&gt;end -->
<g id="edge10" class="edge">
<title>75acc656&#45;dff5&#45;494d&#45;91b9&#45;64a9bee4810e&#45;&gt;end</title>
<path fill="none" stroke="black" d="M372.72,-19C391.95,-19 412.17,-19 424.3,-19"/>
<polygon fill="black" stroke="black" points="424.13,-22.5 434.13,-19 424.13,-15.5 424.13,-22.5"/>
<text text-anchor="middle" x="403.75" y="-25.8" font-family="Times,serif" font-size="14.00">Finish</text>
</g>
</g>
</svg>
