<?xml version="1.0" encoding="UTF-8" standalone="no"?>
<!DOCTYPE svg PUBLIC "-//W3C//DTD SVG 1.1//EN"
 "http://www.w3.org/Graphics/SVG/1.1/DTD/svg11.dtd">
<!-- Generated by graphviz version 2.43.0 (0)
 -->
<!-- Title: %3 Pages: 1 -->
<svg width="483pt" height="240pt"
 viewBox="0.00 0.00 483.00 239.74" xmlns="http://www.w3.org/2000/svg" xmlns:xlink="http://www.w3.org/1999/xlink">
<g id="graph0" class="graph" transform="scale(1 1) rotate(0) translate(36 203.74)">
<title>%3</title>
<polygon fill="dimgray" stroke="transparent" points="-36,36 -36,-203.74 447,-203.74 447,36 -36,36"/>
<text text-anchor="middle" x="205.5" y="-152.54" font-family="Helvetica,sans-Serif" font-size="14.00">Sweep&#39;s Plan &amp; Progress</text>
<!-- start -->
<g id="node1" class="node">
<title>start</title>
</g>
<!-- 3db55676&#45;e5d4&#45;40d4&#45;86da&#45;16776ebade79 -->
<g id="node3" class="node">
<title>3db55676&#45;e5d4&#45;40d4&#45;86da&#45;16776ebade79</title>
<ellipse fill="#0ee832" stroke="black" cx="115.5" cy="-101.87" rx="62.87" ry="26.74"/>
<text text-anchor="middle" x="115.5" y="-105.67" font-family="Helvetica,sans-Serif" font-size="14.00">✓ Create</text>
<text text-anchor="middle" x="115.5" y="-90.67" font-family="Helvetica,sans-Serif" font-size="14.00">src/cnn.py</text>
</g>
<!-- start&#45;&gt;3db55676&#45;e5d4&#45;40d4&#45;86da&#45;16776ebade79 -->
<g id="edge4" class="edge">
<title>start&#45;&gt;3db55676&#45;e5d4&#45;40d4&#45;86da&#45;16776ebade79</title>
<path fill="none" stroke="black" d="M1.23,-101.87C4.95,-101.87 22.29,-101.87 42.38,-101.87"/>
<polygon fill="black" stroke="black" points="42.42,-105.37 52.42,-101.87 42.42,-98.37 42.42,-105.37"/>
<text text-anchor="middle" x="26.78" y="-108.67" font-family="Helvetica,sans-Serif" font-size="14.00">Start</text>
</g>
<!-- end -->
<g id="node2" class="node">
<title>end</title>
</g>
<!-- e1378954&#45;1bb2&#45;463d&#45;9e87&#45;38759daabe32 -->
<g id="node4" class="node">
<title>e1378954&#45;1bb2&#45;463d&#45;9e87&#45;38759daabe32</title>
<ellipse fill="white" stroke="black" cx="283.5" cy="-101.87" rx="69.09" ry="26.74"/>
<text text-anchor="middle" x="283.5" y="-105.67" font-family="Helvetica,sans-Serif" font-size="14.00">▶ Modify</text>
<text text-anchor="middle" x="283.5" y="-90.67" font-family="Helvetica,sans-Serif" font-size="14.00">src/main.py</text>
</g>
<!-- 3db55676&#45;e5d4&#45;40d4&#45;86da&#45;16776ebade79&#45;&gt;e1378954&#45;1bb2&#45;463d&#45;9e87&#45;38759daabe32 -->
<g id="edge2" class="edge">
<title>3db55676&#45;e5d4&#45;40d4&#45;86da&#45;16776ebade79&#45;&gt;e1378954&#45;1bb2&#45;463d&#45;9e87&#45;38759daabe32</title>
<path fill="none" stroke="black" d="M178.5,-101.87C187.05,-101.87 195.6,-101.87 204.15,-101.87"/>
<polygon fill="black" stroke="black" points="204.18,-105.37 214.18,-101.87 204.18,-98.37 204.18,-105.37"/>
</g>
<!-- b1762498&#45;7040&#45;41b1&#45;be83&#45;1a85ca9732da -->
<g id="node5" class="node">
<title>b1762498&#45;7040&#45;41b1&#45;be83&#45;1a85ca9732da</title>
<polygon fill="yellow" stroke="black" points="160,-38 71,-38 71,0 160,0 160,-38"/>
<text text-anchor="middle" x="115.5" y="-22.8" font-family="Helvetica,sans-Serif" font-size="14.00">⋯ Check</text>
<text text-anchor="middle" x="115.5" y="-7.8" font-family="Helvetica,sans-Serif" font-size="14.00">src/cnn.py</text>
</g>
<!-- 3db55676&#45;e5d4&#45;40d4&#45;86da&#45;16776ebade79&#45;&gt;b1762498&#45;7040&#45;41b1&#45;be83&#45;1a85ca9732da -->
<g id="edge1" class="edge">
<title>3db55676&#45;e5d4&#45;40d4&#45;86da&#45;16776ebade79&#45;&gt;b1762498&#45;7040&#45;41b1&#45;be83&#45;1a85ca9732da</title>
<path fill="none" stroke="black" stroke-dasharray="5,2" d="M115.5,-74.84C115.5,-66.3 115.5,-56.78 115.5,-48.1"/>
<polygon fill="black" stroke="black" points="119,-48.05 115.5,-38.05 112,-48.05 119,-48.05"/>
</g>
<!-- e1378954&#45;1bb2&#45;463d&#45;9e87&#45;38759daabe32&#45;&gt;end -->
<g id="edge5" class="edge">
<title>e1378954&#45;1bb2&#45;463d&#45;9e87&#45;38759daabe32&#45;&gt;end</title>
<path fill="none" stroke="black" d="M352.95,-101.87C371.21,-101.87 388.81,-101.87 399.64,-101.87"/>
<polygon fill="black" stroke="black" points="399.79,-105.37 409.79,-101.87 399.79,-98.37 399.79,-105.37"/>
<text text-anchor="middle" x="381.4" y="-108.67" font-family="Helvetica,sans-Serif" font-size="14.00">Finish</text>
</g>
<!-- a4754a26&#45;6c7f&#45;4ccf&#45;beb6&#45;e34c1e17cc8b -->
<g id="node6" class="node">
<title>a4754a26&#45;6c7f&#45;4ccf&#45;beb6&#45;e34c1e17cc8b</title>
<polygon fill="white" stroke="black" points="332.5,-38 234.5,-38 234.5,0 332.5,0 332.5,-38"/>
<text text-anchor="middle" x="283.5" y="-22.8" font-family="Helvetica,sans-Serif" font-size="14.00">▶ Check</text>
<text text-anchor="middle" x="283.5" y="-7.8" font-family="Helvetica,sans-Serif" font-size="14.00">src/main.py</text>
</g>
<!-- e1378954&#45;1bb2&#45;463d&#45;9e87&#45;38759daabe32&#45;&gt;a4754a26&#45;6c7f&#45;4ccf&#45;beb6&#45;e34c1e17cc8b -->
<g id="edge3" class="edge">
<title>e1378954&#45;1bb2&#45;463d&#45;9e87&#45;38759daabe32&#45;&gt;a4754a26&#45;6c7f&#45;4ccf&#45;beb6&#45;e34c1e17cc8b</title>
<path fill="none" stroke="black" stroke-dasharray="5,2" d="M283.5,-74.84C283.5,-66.3 283.5,-56.78 283.5,-48.1"/>
<polygon fill="black" stroke="black" points="287,-48.05 283.5,-38.05 280,-48.05 287,-48.05"/>
</g>
</g>
</svg>
