<?xml version="1.0" encoding="UTF-8" standalone="no"?>
<!DOCTYPE svg PUBLIC "-//W3C//DTD SVG 1.1//EN"
 "http://www.w3.org/Graphics/SVG/1.1/DTD/svg11.dtd">
<!-- Generated by graphviz version 8.0.3 (0)
 -->
<!-- Pages: 1 -->
<svg width="656pt" height="419pt"
 viewBox="0.00 0.00 656.00 419.48" xmlns="http://www.w3.org/2000/svg" xmlns:xlink="http://www.w3.org/1999/xlink">
<g id="graph0" class="graph" transform="scale(1 1) rotate(0) translate(36 383.48)">
<polygon fill="white" stroke="none" points="-36,36 -36,-383.48 620,-383.48 620,36 -36,36"/>
<text text-anchor="middle" x="292" y="-332.28" font-family="Times,serif" font-size="14.00">Sweep&#39;s Plan &amp; Progress</text>
<!-- start -->
<g id="node1" class="node">
<title>start</title>
</g>
<!-- 857fa90a&#45;21cf&#45;457a&#45;88a2&#45;380112b53d36 -->
<g id="node3" class="node">
<title>857fa90a&#45;21cf&#45;457a&#45;88a2&#45;380112b53d36</title>
<ellipse fill="green" stroke="black" cx="119.5" cy="-281.61" rx="63.78" ry="26.74"/>
<text text-anchor="middle" x="119.5" y="-285.41" font-family="Times,serif" font-size="14.00">✓ Create</text>
<text text-anchor="middle" x="119.5" y="-270.41" font-family="Times,serif" font-size="14.00">src/cnn.py</text>
</g>
<!-- start&#45;&gt;857fa90a&#45;21cf&#45;457a&#45;88a2&#45;380112b53d36 -->
<g id="edge9" class="edge">
<title>start&#45;&gt;857fa90a&#45;21cf&#45;457a&#45;88a2&#45;380112b53d36</title>
<path fill="none" stroke="black" d="M0.84,-281.61C3.58,-281.61 22.48,-281.61 44.41,-281.61"/>
<polygon fill="black" stroke="black" points="44.36,-285.11 54.36,-281.61 44.36,-278.11 44.36,-285.11"/>
<text text-anchor="middle" x="28.43" y="-288.41" font-family="Times,serif" font-size="14.00">Start</text>
</g>
<!-- end -->
<g id="node2" class="node">
<title>end</title>
</g>
<!-- c0924dd9&#45;f311&#45;4e9f&#45;aa7c&#45;55a1eddcefa0 -->
<g id="node4" class="node">
<title>c0924dd9&#45;f311&#45;4e9f&#45;aa7c&#45;55a1eddcefa0</title>
<ellipse fill="green" stroke="black" cx="290.5" cy="-281.61" rx="70.92" ry="26.74"/>
<text text-anchor="middle" x="290.5" y="-285.41" font-family="Times,serif" font-size="14.00">✓ Modify</text>
<text text-anchor="middle" x="290.5" y="-270.41" font-family="Times,serif" font-size="14.00">src/main.py</text>
</g>
<!-- 857fa90a&#45;21cf&#45;457a&#45;88a2&#45;380112b53d36&#45;&gt;c0924dd9&#45;f311&#45;4e9f&#45;aa7c&#45;55a1eddcefa0 -->
<g id="edge2" class="edge">
<title>857fa90a&#45;21cf&#45;457a&#45;88a2&#45;380112b53d36&#45;&gt;c0924dd9&#45;f311&#45;4e9f&#45;aa7c&#45;55a1eddcefa0</title>
<path fill="none" stroke="black" d="M183.62,-281.61C191.85,-281.61 200.07,-281.61 208.3,-281.61"/>
<polygon fill="black" stroke="black" points="208.11,-285.11 218.11,-281.61 208.11,-278.11 208.11,-285.11"/>
</g>
<!-- 7ff09831&#45;6583&#45;407c&#45;b657&#45;f59122cff3df -->
<g id="node6" class="node">
<title>7ff09831&#45;6583&#45;407c&#45;b657&#45;f59122cff3df</title>
<polygon fill="green" stroke="black" points="163.5,-217.74 73.5,-217.74 73.5,-179.74 163.5,-179.74 163.5,-217.74"/>
<text text-anchor="middle" x="118.5" y="-202.54" font-family="Times,serif" font-size="14.00">✓ Check</text>
<text text-anchor="middle" x="118.5" y="-187.54" font-family="Times,serif" font-size="14.00">src/cnn.py</text>
</g>
<!-- 857fa90a&#45;21cf&#45;457a&#45;88a2&#45;380112b53d36&#45;&gt;7ff09831&#45;6583&#45;407c&#45;b657&#45;f59122cff3df -->
<g id="edge1" class="edge">
<title>857fa90a&#45;21cf&#45;457a&#45;88a2&#45;380112b53d36&#45;&gt;7ff09831&#45;6583&#45;407c&#45;b657&#45;f59122cff3df</title>
<path fill="none" stroke="black" stroke-dasharray="5,2" d="M119.18,-254.58C119.08,-246.32 118.96,-237.15 118.86,-228.7"/>
<polygon fill="black" stroke="black" points="122.35,-228.75 118.72,-218.79 115.35,-228.83 122.35,-228.75"/>
</g>
<!-- c2035a68&#45;b1a1&#45;4c1a&#45;8652&#45;fe8cb7eaf310 -->
<g id="node5" class="node">
<title>c2035a68&#45;b1a1&#45;4c1a&#45;8652&#45;fe8cb7eaf310</title>
<ellipse fill="white" stroke="black" cx="459.5" cy="-281.61" rx="60.62" ry="26.74"/>
<text text-anchor="middle" x="459.5" y="-285.41" font-family="Times,serif" font-size="14.00">▶ Modify</text>
<text text-anchor="middle" x="459.5" y="-270.41" font-family="Times,serif" font-size="14.00">src/api.py</text>
</g>
<!-- c0924dd9&#45;f311&#45;4e9f&#45;aa7c&#45;55a1eddcefa0&#45;&gt;c2035a68&#45;b1a1&#45;4c1a&#45;8652&#45;fe8cb7eaf310 -->
<g id="edge7" class="edge">
<title>c0924dd9&#45;f311&#45;4e9f&#45;aa7c&#45;55a1eddcefa0&#45;&gt;c2035a68&#45;b1a1&#45;4c1a&#45;8652&#45;fe8cb7eaf310</title>
<path fill="none" stroke="black" d="M361.8,-281.61C370.38,-281.61 378.97,-281.61 387.56,-281.61"/>
<polygon fill="black" stroke="black" points="387.44,-285.11 397.44,-281.61 387.44,-278.11 387.44,-285.11"/>
</g>
<!-- 7be945d2&#45;2469&#45;4d66&#45;a4b5&#45;9fca66b75f73 -->
<g id="node7" class="node">
<title>7be945d2&#45;2469&#45;4d66&#45;a4b5&#45;9fca66b75f73</title>
<polygon fill="red" stroke="black" points="281.5,-217.74 181.5,-217.74 181.5,-179.74 281.5,-179.74 281.5,-217.74"/>
<text text-anchor="middle" x="231.5" y="-202.54" font-family="Times,serif" font-size="14.00">✗ Check</text>
<text text-anchor="middle" x="231.5" y="-187.54" font-family="Times,serif" font-size="14.00">src/main.py</text>
</g>
<!-- c0924dd9&#45;f311&#45;4e9f&#45;aa7c&#45;55a1eddcefa0&#45;&gt;7be945d2&#45;2469&#45;4d66&#45;a4b5&#45;9fca66b75f73 -->
<g id="edge3" class="edge">
<title>c0924dd9&#45;f311&#45;4e9f&#45;aa7c&#45;55a1eddcefa0&#45;&gt;7be945d2&#45;2469&#45;4d66&#45;a4b5&#45;9fca66b75f73</title>
<path fill="none" stroke="black" stroke-dasharray="5,2" d="M272.16,-255.47C265.56,-246.42 258.09,-236.19 251.37,-226.98"/>
<polygon fill="black" stroke="black" points="253.68,-225.2 244.96,-219.19 248.03,-229.33 253.68,-225.2"/>
</g>
<!-- 9a72a2b1&#45;e9dd&#45;4d0a&#45;a450&#45;0b0f16216c48 -->
<g id="node8" class="node">
<title>9a72a2b1&#45;e9dd&#45;4d0a&#45;a450&#45;0b0f16216c48</title>
<polygon fill="yellow" stroke="black" points="399.5,-217.74 299.5,-217.74 299.5,-179.74 399.5,-179.74 399.5,-217.74"/>
<text text-anchor="middle" x="349.5" y="-202.54" font-family="Times,serif" font-size="14.00">⋯ Check</text>
<text text-anchor="middle" x="349.5" y="-187.54" font-family="Times,serif" font-size="14.00">src/main.py</text>
</g>
<!-- c0924dd9&#45;f311&#45;4e9f&#45;aa7c&#45;55a1eddcefa0&#45;&gt;9a72a2b1&#45;e9dd&#45;4d0a&#45;a450&#45;0b0f16216c48 -->
<g id="edge6" class="edge">
<title>c0924dd9&#45;f311&#45;4e9f&#45;aa7c&#45;55a1eddcefa0&#45;&gt;9a72a2b1&#45;e9dd&#45;4d0a&#45;a450&#45;0b0f16216c48</title>
<path fill="none" stroke="black" stroke-dasharray="5,2" d="M308.84,-255.47C315.44,-246.42 322.91,-236.19 329.63,-226.98"/>
<polygon fill="black" stroke="black" points="332.97,-229.33 336.04,-219.19 327.32,-225.2 332.97,-229.33"/>
</g>
<!-- c2035a68&#45;b1a1&#45;4c1a&#45;8652&#45;fe8cb7eaf310&#45;&gt;end -->
<g id="edge10" class="edge">
<title>c2035a68&#45;b1a1&#45;4c1a&#45;8652&#45;fe8cb7eaf310&#45;&gt;end</title>
<path fill="none" stroke="black" d="M520.41,-281.61C540.39,-281.61 560.53,-281.61 572.5,-281.61"/>
<polygon fill="black" stroke="black" points="572.14,-285.11 582.14,-281.61 572.14,-278.11 572.14,-285.11"/>
<text text-anchor="middle" x="551.66" y="-288.41" font-family="Times,serif" font-size="14.00">Finish</text>
</g>
<!-- 526c4f22&#45;ecaf&#45;4bc0&#45;aa48&#45;6b1d6dd0e267 -->
<g id="node9" class="node">
<title>526c4f22&#45;ecaf&#45;4bc0&#45;aa48&#45;6b1d6dd0e267</title>
<polygon fill="white" stroke="black" points="503.5,-217.74 417.5,-217.74 417.5,-179.74 503.5,-179.74 503.5,-217.74"/>
<text text-anchor="middle" x="460.5" y="-202.54" font-family="Times,serif" font-size="14.00">▶ Check</text>
<text text-anchor="middle" x="460.5" y="-187.54" font-family="Times,serif" font-size="14.00">src/api.py</text>
</g>
<!-- c2035a68&#45;b1a1&#45;4c1a&#45;8652&#45;fe8cb7eaf310&#45;&gt;526c4f22&#45;ecaf&#45;4bc0&#45;aa48&#45;6b1d6dd0e267 -->
<g id="edge8" class="edge">
<title>c2035a68&#45;b1a1&#45;4c1a&#45;8652&#45;fe8cb7eaf310&#45;&gt;526c4f22&#45;ecaf&#45;4bc0&#45;aa48&#45;6b1d6dd0e267</title>
<path fill="none" stroke="black" stroke-dasharray="5,2" d="M459.82,-254.58C459.92,-246.32 460.04,-237.15 460.14,-228.7"/>
<polygon fill="black" stroke="black" points="463.65,-228.83 460.28,-218.79 456.65,-228.75 463.65,-228.83"/>
</g>
<!-- 53b17d3a&#45;c1fb&#45;4c5c&#45;a245&#45;5aa7215cc8e3 -->
<g id="node10" class="node">
<title>53b17d3a&#45;c1fb&#45;4c5c&#45;a245&#45;5aa7215cc8e3</title>
<ellipse fill="green" stroke="black" cx="231.5" cy="-101.87" rx="70.92" ry="26.74"/>
<text text-anchor="middle" x="231.5" y="-105.67" font-family="Times,serif" font-size="14.00">✓ Modify</text>
<text text-anchor="middle" x="231.5" y="-90.67" font-family="Times,serif" font-size="14.00">src/main.py</text>
</g>
<!-- 7be945d2&#45;2469&#45;4d66&#45;a4b5&#45;9fca66b75f73&#45;&gt;53b17d3a&#45;c1fb&#45;4c5c&#45;a245&#45;5aa7215cc8e3 -->
<g id="edge4" class="edge">
<title>7be945d2&#45;2469&#45;4d66&#45;a4b5&#45;9fca66b75f73&#45;&gt;53b17d3a&#45;c1fb&#45;4c5c&#45;a245&#45;5aa7215cc8e3</title>
<path fill="none" stroke="black" d="M231.5,-179.45C231.5,-168.26 231.5,-153.54 231.5,-139.99"/>
<polygon fill="black" stroke="black" points="235,-140 231.5,-130 228,-140 235,-140"/>
<text text-anchor="middle" x="332.5" y="-150.54" font-family="Times,serif" font-size="14.00">Additional changes required</text>
</g>
<!-- 7bd342c7&#45;56b7&#45;4392&#45;95ff&#45;af96fb98cb86 -->
<g id="node11" class="node">
<title>7bd342c7&#45;56b7&#45;4392&#45;95ff&#45;af96fb98cb86</title>
<polygon fill="green" stroke="black" points="281.5,-38 181.5,-38 181.5,0 281.5,0 281.5,-38"/>
<text text-anchor="middle" x="231.5" y="-22.8" font-family="Times,serif" font-size="14.00">✓ Check</text>
<text text-anchor="middle" x="231.5" y="-7.8" font-family="Times,serif" font-size="14.00">src/main.py</text>
</g>
<!-- 53b17d3a&#45;c1fb&#45;4c5c&#45;a245&#45;5aa7215cc8e3&#45;&gt;7bd342c7&#45;56b7&#45;4392&#45;95ff&#45;af96fb98cb86 -->
<g id="edge5" class="edge">
<title>53b17d3a&#45;c1fb&#45;4c5c&#45;a245&#45;5aa7215cc8e3&#45;&gt;7bd342c7&#45;56b7&#45;4392&#45;95ff&#45;af96fb98cb86</title>
<path fill="none" stroke="black" stroke-dasharray="5,2" d="M231.5,-74.84C231.5,-66.58 231.5,-57.41 231.5,-48.96"/>
<polygon fill="black" stroke="black" points="235,-49.05 231.5,-39.05 228,-49.05 235,-49.05"/>
</g>
</g>
</svg>
