<?xml version="1.0" encoding="UTF-8" standalone="no"?>
<!DOCTYPE svg PUBLIC "-//W3C//DTD SVG 1.1//EN"
 "http://www.w3.org/Graphics/SVG/1.1/DTD/svg11.dtd">
<!-- Generated by graphviz version 2.43.0 (0)
 -->
<!-- Title: %3 Pages: 1 -->
<svg width="580pt" height="238pt"
 viewBox="0.00 0.00 580.00 237.74" xmlns="http://www.w3.org/2000/svg" xmlns:xlink="http://www.w3.org/1999/xlink">
<g id="graph0" class="graph" transform="scale(1 1) rotate(0) translate(36 201.74)">
<title>%3</title>
<polygon fill="dimgray" stroke="transparent" points="-36,36 -36,-201.74 544,-201.74 544,36 -36,36"/>
<text text-anchor="middle" x="254" y="-150.54" font-family="Helvetica,sans-Serif" font-size="14.00">Sweep&#39;s Plan &amp; Progress</text>
<!-- start -->
<g id="node1" class="node">
<title>start</title>
</g>
<!-- 6fbeaf13&#45;5de6&#45;4c01&#45;841d&#45;7386f41bffb2 -->
<g id="node3" class="node">
<title>6fbeaf13&#45;5de6&#45;4c01&#45;841d&#45;7386f41bffb2</title>
<ellipse fill="#0ee832" stroke="black" cx="176" cy="-99.87" rx="69.09" ry="26.74"/>
<text text-anchor="middle" x="176" y="-103.67" font-family="Helvetica,sans-Serif" font-size="14.00">✓ Modify</text>
<text text-anchor="middle" x="176" y="-88.67" font-family="Helvetica,sans-Serif" font-size="14.00">src/main.py</text>
</g>
<!-- start&#45;&gt;6fbeaf13&#45;5de6&#45;4c01&#45;841d&#45;7386f41bffb2 -->
<g id="edge4" class="edge">
<title>start&#45;&gt;6fbeaf13&#45;5de6&#45;4c01&#45;841d&#45;7386f41bffb2</title>
<path fill="none" stroke="black" d="M55.77,-99.87C59.53,-99.87 76.49,-99.87 96.55,-99.87"/>
<polygon fill="black" stroke="black" points="96.61,-103.37 106.61,-99.87 96.61,-96.37 96.61,-103.37"/>
<text text-anchor="middle" x="81.1" y="-106.67" font-family="Helvetica,sans-Serif" font-size="14.00">Start</text>
</g>
<!-- end -->
<g id="node2" class="node">
<title>end</title>
</g>
<!-- 4e4adb16&#45;4b97&#45;42d9&#45;9256&#45;aac12701f9d6 -->
<g id="node4" class="node">
<title>4e4adb16&#45;4b97&#45;42d9&#45;9256&#45;aac12701f9d6</title>
<ellipse fill="white" stroke="black" cx="365" cy="-99.87" rx="59.29" ry="26.74"/>
<text text-anchor="middle" x="365" y="-103.67" font-family="Helvetica,sans-Serif" font-size="14.00">▶ Modify</text>
<text text-anchor="middle" x="365" y="-88.67" font-family="Helvetica,sans-Serif" font-size="14.00">src/api.py</text>
</g>
<!-- 6fbeaf13&#45;5de6&#45;4c01&#45;841d&#45;7386f41bffb2&#45;&gt;4e4adb16&#45;4b97&#45;42d9&#45;9256&#45;aac12701f9d6 -->
<g id="edge2" class="edge">
<title>6fbeaf13&#45;5de6&#45;4c01&#45;841d&#45;7386f41bffb2&#45;&gt;4e4adb16&#45;4b97&#45;42d9&#45;9256&#45;aac12701f9d6</title>
<path fill="none" stroke="black" d="M245.4,-99.87C261.91,-99.87 278.41,-99.87 294.92,-99.87"/>
<polygon fill="black" stroke="black" points="295.2,-103.37 305.2,-99.87 295.2,-96.37 295.2,-103.37"/>
</g>
<!-- e34f7650&#45;3928&#45;404c&#45;aa1d&#45;94ab2661733b -->
<g id="node5" class="node">
<title>e34f7650&#45;3928&#45;404c&#45;aa1d&#45;94ab2661733b</title>
<polygon fill="yellow" stroke="black" points="254,-36 0,-36 0,0 254,0 254,-36"/>
<text text-anchor="middle" x="127" y="-14.3" font-family="Helvetica,sans-Serif" font-size="14.00">⋯ Ran sandbox for `src/main.py`.</text>
</g>
<!-- 6fbeaf13&#45;5de6&#45;4c01&#45;841d&#45;7386f41bffb2&#45;&gt;e34f7650&#45;3928&#45;404c&#45;aa1d&#45;94ab2661733b -->
<g id="edge1" class="edge">
<title>6fbeaf13&#45;5de6&#45;4c01&#45;841d&#45;7386f41bffb2&#45;&gt;e34f7650&#45;3928&#45;404c&#45;aa1d&#45;94ab2661733b</title>
<path fill="none" stroke="black" stroke-dasharray="5,2" d="M160.5,-73.6C154.86,-64.41 148.49,-54.02 142.82,-44.79"/>
<polygon fill="black" stroke="black" points="145.66,-42.73 137.45,-36.04 139.7,-46.39 145.66,-42.73"/>
</g>
<!-- 4e4adb16&#45;4b97&#45;42d9&#45;9256&#45;aac12701f9d6&#45;&gt;end -->
<g id="edge5" class="edge">
<title>4e4adb16&#45;4b97&#45;42d9&#45;9256&#45;aac12701f9d6&#45;&gt;end</title>
<path fill="none" stroke="black" d="M424.53,-99.87C442.33,-99.87 460.01,-99.87 470.96,-99.87"/>
<polygon fill="black" stroke="black" points="471.27,-103.37 481.27,-99.87 471.27,-96.37 471.27,-103.37"/>
<text text-anchor="middle" x="452.95" y="-106.67" font-family="Helvetica,sans-Serif" font-size="14.00">Finish</text>
</g>
<!-- d5a6bf0a&#45;7324&#45;48e6&#45;afc3&#45;5cc1da3467dc -->
<g id="node6" class="node">
<title>d5a6bf0a&#45;7324&#45;48e6&#45;afc3&#45;5cc1da3467dc</title>
<polygon fill="white" stroke="black" points="508,-36 272,-36 272,0 508,0 508,-36"/>
<text text-anchor="middle" x="390" y="-14.3" font-family="Helvetica,sans-Serif" font-size="14.00">▶ Ran sandbox for `src/api.py`.</text>
</g>
<!-- 4e4adb16&#45;4b97&#45;42d9&#45;9256&#45;aac12701f9d6&#45;&gt;d5a6bf0a&#45;7324&#45;48e6&#45;afc3&#45;5cc1da3467dc -->
<g id="edge3" class="edge">
<title>4e4adb16&#45;4b97&#45;42d9&#45;9256&#45;aac12701f9d6&#45;&gt;d5a6bf0a&#45;7324&#45;48e6&#45;afc3&#45;5cc1da3467dc</title>
<path fill="none" stroke="black" stroke-dasharray="5,2" d="M373.05,-73.16C375.76,-64.51 378.79,-54.83 381.53,-46.07"/>
<polygon fill="black" stroke="black" points="384.93,-46.93 384.57,-36.34 378.25,-44.83 384.93,-46.93"/>
</g>
</g>
</svg>
