<?xml version="1.0" encoding="UTF-8" standalone="no"?>
<!DOCTYPE svg PUBLIC "-//W3C//DTD SVG 1.1//EN"
 "http://www.w3.org/Graphics/SVG/1.1/DTD/svg11.dtd">
<!-- Generated by graphviz version 8.0.3 (0)
 -->
<!-- Pages: 1 -->
<svg width="842pt" height="238pt"
 viewBox="0.00 0.00 842.00 237.74" xmlns="http://www.w3.org/2000/svg" xmlns:xlink="http://www.w3.org/1999/xlink">
<g id="graph0" class="graph" transform="scale(1 1) rotate(0) translate(36 201.74)">
<polygon fill="dimgray" stroke="none" points="-36,36 -36,-201.74 806,-201.74 806,36 -36,36"/>
<text text-anchor="middle" x="385" y="-150.54" font-family="Helvetica,sans-Serif" font-size="14.00">Sweep&#39;s Plan &amp; Progress</text>
<!-- start -->
<g id="node1" class="node">
<title>start</title>
</g>
<!-- 695d0d8b&#45;f664&#45;4dd8&#45;b231&#45;f731d35a385d -->
<g id="node3" class="node">
<title>695d0d8b&#45;f664&#45;4dd8&#45;b231&#45;f731d35a385d</title>
<ellipse fill="#0ee832" stroke="black" cx="169" cy="-99.87" rx="62.87" ry="26.74"/>
<text text-anchor="middle" x="169" y="-103.67" font-family="Helvetica,sans-Serif" font-size="14.00">✓ Create</text>
<text text-anchor="middle" x="169" y="-88.67" font-family="Helvetica,sans-Serif" font-size="14.00">src/cnn.py</text>
</g>
<!-- start&#45;&gt;695d0d8b&#45;f664&#45;4dd8&#45;b231&#45;f731d35a385d -->
<g id="edge6" class="edge">
<title>start&#45;&gt;695d0d8b&#45;f664&#45;4dd8&#45;b231&#45;f731d35a385d</title>
<path fill="none" stroke="black" d="M54.33,-99.87C56.91,-99.87 74.3,-99.87 94.78,-99.87"/>
<polygon fill="black" stroke="black" points="94.72,-103.37 104.72,-99.87 94.72,-96.37 94.72,-103.37"/>
<text text-anchor="middle" x="80.28" y="-106.67" font-family="Helvetica,sans-Serif" font-size="14.00">Start</text>
</g>
<!-- end -->
<g id="node2" class="node">
<title>end</title>
</g>
<!-- 5207f195&#45;3555&#45;46bc&#45;b831&#45;279c144e3466 -->
<g id="node4" class="node">
<title>5207f195&#45;3555&#45;46bc&#45;b831&#45;279c144e3466</title>
<ellipse fill="#0ee832" stroke="black" cx="386" cy="-99.87" rx="69.09" ry="26.74"/>
<text text-anchor="middle" x="386" y="-103.67" font-family="Helvetica,sans-Serif" font-size="14.00">✓ Modify</text>
<text text-anchor="middle" x="386" y="-88.67" font-family="Helvetica,sans-Serif" font-size="14.00">src/main.py</text>
</g>
<!-- 695d0d8b&#45;f664&#45;4dd8&#45;b231&#45;f731d35a385d&#45;&gt;5207f195&#45;3555&#45;46bc&#45;b831&#45;279c144e3466 -->
<g id="edge2" class="edge">
<title>695d0d8b&#45;f664&#45;4dd8&#45;b231&#45;f731d35a385d&#45;&gt;5207f195&#45;3555&#45;46bc&#45;b831&#45;279c144e3466</title>
<path fill="none" stroke="black" d="M232.15,-99.87C256.67,-99.87 281.19,-99.87 305.7,-99.87"/>
<polygon fill="black" stroke="black" points="305.59,-103.37 315.59,-99.87 305.59,-96.37 305.59,-103.37"/>
</g>
<!-- a2385577&#45;a505&#45;40a7&#45;9efb&#45;0e895efcdd14 -->
<g id="node6" class="node">
<title>a2385577&#45;a505&#45;40a7&#45;9efb&#45;0e895efcdd14</title>
<polygon fill="#0ee832" stroke="black" points="242,-36 0,-36 0,0 242,0 242,-36"/>
<text text-anchor="middle" x="121" y="-14.3" font-family="Helvetica,sans-Serif" font-size="14.00">✓ Ran sandbox for `src/cnn.py`.</text>
</g>
<!-- 695d0d8b&#45;f664&#45;4dd8&#45;b231&#45;f731d35a385d&#45;&gt;a2385577&#45;a505&#45;40a7&#45;9efb&#45;0e895efcdd14 -->
<g id="edge1" class="edge">
<title>695d0d8b&#45;f664&#45;4dd8&#45;b231&#45;f731d35a385d&#45;&gt;a2385577&#45;a505&#45;40a7&#45;9efb&#45;0e895efcdd14</title>
<path fill="none" stroke="black" stroke-dasharray="5,2" d="M153.81,-73.6C148.41,-64.6 142.31,-54.46 136.85,-45.37"/>
<polygon fill="black" stroke="black" points="139.39,-43.8 131.24,-37.04 133.39,-47.41 139.39,-43.8"/>
</g>
<!-- 2a6ae864&#45;d39f&#45;47df&#45;bba9&#45;fce7226273e9 -->
<g id="node5" class="node">
<title>2a6ae864&#45;d39f&#45;47df&#45;bba9&#45;fce7226273e9</title>
<ellipse fill="#ee0000" stroke="black" cx="600" cy="-99.87" rx="59.29" ry="26.74"/>
<text text-anchor="middle" x="600" y="-103.67" font-family="Helvetica,sans-Serif" font-size="14.00">✗ Modify</text>
<text text-anchor="middle" x="600" y="-88.67" font-family="Helvetica,sans-Serif" font-size="14.00">src/api.py</text>
</g>
<!-- 5207f195&#45;3555&#45;46bc&#45;b831&#45;279c144e3466&#45;&gt;2a6ae864&#45;d39f&#45;47df&#45;bba9&#45;fce7226273e9 -->
<g id="edge4" class="edge">
<title>5207f195&#45;3555&#45;46bc&#45;b831&#45;279c144e3466&#45;&gt;2a6ae864&#45;d39f&#45;47df&#45;bba9&#45;fce7226273e9</title>
<path fill="none" stroke="black" d="M455.38,-99.87C480.07,-99.87 504.76,-99.87 529.44,-99.87"/>
<polygon fill="black" stroke="black" points="529.4,-103.37 539.4,-99.87 529.4,-96.37 529.4,-103.37"/>
</g>
<!-- b83cf3ee&#45;fc08&#45;42ab&#45;b86d&#45;e8192f99a8ca -->
<g id="node7" class="node">
<title>b83cf3ee&#45;fc08&#45;42ab&#45;b86d&#45;e8192f99a8ca</title>
<polygon fill="#0ee832" stroke="black" points="511.5,-36 260.5,-36 260.5,0 511.5,0 511.5,-36"/>
<text text-anchor="middle" x="386" y="-14.3" font-family="Helvetica,sans-Serif" font-size="14.00">✓ Ran sandbox for `src/main.py`.</text>
</g>
<!-- 5207f195&#45;3555&#45;46bc&#45;b831&#45;279c144e3466&#45;&gt;b83cf3ee&#45;fc08&#45;42ab&#45;b86d&#45;e8192f99a8ca -->
<g id="edge3" class="edge">
<title>5207f195&#45;3555&#45;46bc&#45;b831&#45;279c144e3466&#45;&gt;b83cf3ee&#45;fc08&#45;42ab&#45;b86d&#45;e8192f99a8ca</title>
<path fill="none" stroke="black" stroke-dasharray="5,2" d="M386,-72.72C386,-64.46 386,-55.31 386,-46.93"/>
<polygon fill="black" stroke="black" points="389.5,-47.15 386,-37.15 382.5,-47.15 389.5,-47.15"/>
</g>
<!-- 2a6ae864&#45;d39f&#45;47df&#45;bba9&#45;fce7226273e9&#45;&gt;end -->
<g id="edge7" class="edge">
<title>2a6ae864&#45;d39f&#45;47df&#45;bba9&#45;fce7226273e9&#45;&gt;end</title>
<path fill="none" stroke="black" d="M659.53,-99.87C677.31,-99.87 694.97,-99.87 705.92,-99.87"/>
<polygon fill="black" stroke="black" points="705.67,-103.37 715.67,-99.87 705.67,-96.37 705.67,-103.37"/>
<text text-anchor="middle" x="687.95" y="-106.67" font-family="Helvetica,sans-Serif" font-size="14.00">Finish</text>
</g>
<!-- 609bdbab&#45;5719&#45;49a0&#45;9a8a&#45;527f18db893e -->
<g id="node8" class="node">
<title>609bdbab&#45;5719&#45;49a0&#45;9a8a&#45;527f18db893e</title>
<polygon fill="yellow" stroke="black" points="770,-36 530,-36 530,0 770,0 770,-36"/>
<text text-anchor="middle" x="650" y="-14.3" font-family="Helvetica,sans-Serif" font-size="14.00">⋯ Ran sandbox for `src/api.py`.</text>
</g>
<!-- 2a6ae864&#45;d39f&#45;47df&#45;bba9&#45;fce7226273e9&#45;&gt;609bdbab&#45;5719&#45;49a0&#45;9a8a&#45;527f18db893e -->
<g id="edge5" class="edge">
<title>2a6ae864&#45;d39f&#45;47df&#45;bba9&#45;fce7226273e9&#45;&gt;609bdbab&#45;5719&#45;49a0&#45;9a8a&#45;527f18db893e</title>
<path fill="none" stroke="black" stroke-dasharray="5,2" d="M615.55,-74.04C621.25,-64.93 627.72,-54.59 633.5,-45.35"/>
<polygon fill="black" stroke="black" points="636.88,-47.56 639.22,-37.22 630.95,-43.84 636.88,-47.56"/>
</g>
</g>
</svg>
