<?xml version="1.0" encoding="UTF-8" standalone="no"?>
<!DOCTYPE svg PUBLIC "-//W3C//DTD SVG 1.1//EN"
 "http://www.w3.org/Graphics/SVG/1.1/DTD/svg11.dtd">
<!-- Generated by graphviz version 8.0.3 (0)
 -->
<!-- Pages: 1 -->
<svg width="653pt" height="240pt"
 viewBox="0.00 0.00 653.00 239.74" xmlns="http://www.w3.org/2000/svg" xmlns:xlink="http://www.w3.org/1999/xlink">
<g id="graph0" class="graph" transform="scale(1 1) rotate(0) translate(36 203.74)">
<polygon fill="white" stroke="none" points="-36,36 -36,-203.74 617,-203.74 617,36 -36,36"/>
<text text-anchor="middle" x="290.5" y="-152.54" font-family="Times,serif" font-size="14.00">Sweep&#39;s Plan &amp; Progress</text>
<!-- start -->
<g id="node1" class="node">
<title>start</title>
</g>
<!-- 857fa90a&#45;21cf&#45;457a&#45;88a2&#45;380112b53d36 -->
<g id="node3" class="node">
<title>857fa90a&#45;21cf&#45;457a&#45;88a2&#45;380112b53d36</title>
<ellipse fill="green" stroke="black" cx="119.5" cy="-101.87" rx="63.78" ry="26.74"/>
<text text-anchor="middle" x="119.5" y="-105.67" font-family="Times,serif" font-size="14.00">✓ Create</text>
<text text-anchor="middle" x="119.5" y="-90.67" font-family="Times,serif" font-size="14.00">src/cnn.py</text>
</g>
<!-- start&#45;&gt;857fa90a&#45;21cf&#45;457a&#45;88a2&#45;380112b53d36 -->
<g id="edge6" class="edge">
<title>start&#45;&gt;857fa90a&#45;21cf&#45;457a&#45;88a2&#45;380112b53d36</title>
<path fill="none" stroke="black" d="M0.84,-101.87C3.58,-101.87 22.48,-101.87 44.41,-101.87"/>
<polygon fill="black" stroke="black" points="44.36,-105.37 54.36,-101.87 44.36,-98.37 44.36,-105.37"/>
<text text-anchor="middle" x="28.43" y="-108.67" font-family="Times,serif" font-size="14.00">Start</text>
</g>
<!-- end -->
<g id="node2" class="node">
<title>end</title>
</g>
<!-- c0924dd9&#45;f311&#45;4e9f&#45;aa7c&#45;55a1eddcefa0 -->
<g id="node4" class="node">
<title>c0924dd9&#45;f311&#45;4e9f&#45;aa7c&#45;55a1eddcefa0</title>
<ellipse fill="green" stroke="black" cx="289.5" cy="-101.87" rx="70.92" ry="26.74"/>
<text text-anchor="middle" x="289.5" y="-105.67" font-family="Times,serif" font-size="14.00">✓ Modify</text>
<text text-anchor="middle" x="289.5" y="-90.67" font-family="Times,serif" font-size="14.00">src/main.py</text>
</g>
<!-- 857fa90a&#45;21cf&#45;457a&#45;88a2&#45;380112b53d36&#45;&gt;c0924dd9&#45;f311&#45;4e9f&#45;aa7c&#45;55a1eddcefa0 -->
<g id="edge2" class="edge">
<title>857fa90a&#45;21cf&#45;457a&#45;88a2&#45;380112b53d36&#45;&gt;c0924dd9&#45;f311&#45;4e9f&#45;aa7c&#45;55a1eddcefa0</title>
<path fill="none" stroke="black" d="M183.58,-101.87C191.55,-101.87 199.51,-101.87 207.48,-101.87"/>
<polygon fill="black" stroke="black" points="207.34,-105.37 217.34,-101.87 207.34,-98.37 207.34,-105.37"/>
</g>
<!-- 7ff09831&#45;6583&#45;407c&#45;b657&#45;f59122cff3df -->
<g id="node6" class="node">
<title>7ff09831&#45;6583&#45;407c&#45;b657&#45;f59122cff3df</title>
<polygon fill="green" stroke="black" points="164.5,-38 74.5,-38 74.5,0 164.5,0 164.5,-38"/>
<text text-anchor="middle" x="119.5" y="-22.8" font-family="Times,serif" font-size="14.00">✓ Check</text>
<text text-anchor="middle" x="119.5" y="-7.8" font-family="Times,serif" font-size="14.00">src/cnn.py</text>
</g>
<!-- 857fa90a&#45;21cf&#45;457a&#45;88a2&#45;380112b53d36&#45;&gt;7ff09831&#45;6583&#45;407c&#45;b657&#45;f59122cff3df -->
<g id="edge1" class="edge">
<title>857fa90a&#45;21cf&#45;457a&#45;88a2&#45;380112b53d36&#45;&gt;7ff09831&#45;6583&#45;407c&#45;b657&#45;f59122cff3df</title>
<path fill="none" stroke="black" stroke-dasharray="5,2" d="M119.5,-74.84C119.5,-66.58 119.5,-57.41 119.5,-48.96"/>
<polygon fill="black" stroke="black" points="123,-49.05 119.5,-39.05 116,-49.05 123,-49.05"/>
</g>
<!-- c2035a68&#45;b1a1&#45;4c1a&#45;8652&#45;fe8cb7eaf310 -->
<g id="node5" class="node">
<title>c2035a68&#45;b1a1&#45;4c1a&#45;8652&#45;fe8cb7eaf310</title>
<ellipse fill="white" stroke="black" cx="456.5" cy="-101.87" rx="60.62" ry="26.74"/>
<text text-anchor="middle" x="456.5" y="-105.67" font-family="Times,serif" font-size="14.00">▶ Modify</text>
<text text-anchor="middle" x="456.5" y="-90.67" font-family="Times,serif" font-size="14.00">src/api.py</text>
</g>
<!-- c0924dd9&#45;f311&#45;4e9f&#45;aa7c&#45;55a1eddcefa0&#45;&gt;c2035a68&#45;b1a1&#45;4c1a&#45;8652&#45;fe8cb7eaf310 -->
<g id="edge4" class="edge">
<title>c0924dd9&#45;f311&#45;4e9f&#45;aa7c&#45;55a1eddcefa0&#45;&gt;c2035a68&#45;b1a1&#45;4c1a&#45;8652&#45;fe8cb7eaf310</title>
<path fill="none" stroke="black" d="M360.61,-101.87C368.59,-101.87 376.57,-101.87 384.56,-101.87"/>
<polygon fill="black" stroke="black" points="384.44,-105.37 394.44,-101.87 384.44,-98.37 384.44,-105.37"/>
</g>
<!-- 7be945d2&#45;2469&#45;4d66&#45;a4b5&#45;9fca66b75f73 -->
<g id="node7" class="node">
<title>7be945d2&#45;2469&#45;4d66&#45;a4b5&#45;9fca66b75f73</title>
<polygon fill="yellow" stroke="black" points="339.5,-38 239.5,-38 239.5,0 339.5,0 339.5,-38"/>
<text text-anchor="middle" x="289.5" y="-22.8" font-family="Times,serif" font-size="14.00">⋯ Check</text>
<text text-anchor="middle" x="289.5" y="-7.8" font-family="Times,serif" font-size="14.00">src/main.py</text>
</g>
<!-- c0924dd9&#45;f311&#45;4e9f&#45;aa7c&#45;55a1eddcefa0&#45;&gt;7be945d2&#45;2469&#45;4d66&#45;a4b5&#45;9fca66b75f73 -->
<g id="edge3" class="edge">
<title>c0924dd9&#45;f311&#45;4e9f&#45;aa7c&#45;55a1eddcefa0&#45;&gt;7be945d2&#45;2469&#45;4d66&#45;a4b5&#45;9fca66b75f73</title>
<path fill="none" stroke="black" stroke-dasharray="5,2" d="M289.5,-74.84C289.5,-66.58 289.5,-57.41 289.5,-48.96"/>
<polygon fill="black" stroke="black" points="293,-49.05 289.5,-39.05 286,-49.05 293,-49.05"/>
</g>
<!-- c2035a68&#45;b1a1&#45;4c1a&#45;8652&#45;fe8cb7eaf310&#45;&gt;end -->
<g id="edge7" class="edge">
<title>c2035a68&#45;b1a1&#45;4c1a&#45;8652&#45;fe8cb7eaf310&#45;&gt;end</title>
<path fill="none" stroke="black" d="M517.41,-101.87C537.39,-101.87 557.53,-101.87 569.5,-101.87"/>
<polygon fill="black" stroke="black" points="569.14,-105.37 579.14,-101.87 569.14,-98.37 569.14,-105.37"/>
<text text-anchor="middle" x="548.66" y="-108.67" font-family="Times,serif" font-size="14.00">Finish</text>
</g>
<!-- 526c4f22&#45;ecaf&#45;4bc0&#45;aa48&#45;6b1d6dd0e267 -->
<g id="node8" class="node">
<title>526c4f22&#45;ecaf&#45;4bc0&#45;aa48&#45;6b1d6dd0e267</title>
<polygon fill="white" stroke="black" points="499.5,-38 413.5,-38 413.5,0 499.5,0 499.5,-38"/>
<text text-anchor="middle" x="456.5" y="-22.8" font-family="Times,serif" font-size="14.00">▶ Check</text>
<text text-anchor="middle" x="456.5" y="-7.8" font-family="Times,serif" font-size="14.00">src/api.py</text>
</g>
<!-- c2035a68&#45;b1a1&#45;4c1a&#45;8652&#45;fe8cb7eaf310&#45;&gt;526c4f22&#45;ecaf&#45;4bc0&#45;aa48&#45;6b1d6dd0e267 -->
<g id="edge5" class="edge">
<title>c2035a68&#45;b1a1&#45;4c1a&#45;8652&#45;fe8cb7eaf310&#45;&gt;526c4f22&#45;ecaf&#45;4bc0&#45;aa48&#45;6b1d6dd0e267</title>
<path fill="none" stroke="black" stroke-dasharray="5,2" d="M456.5,-74.84C456.5,-66.58 456.5,-57.41 456.5,-48.96"/>
<polygon fill="black" stroke="black" points="460,-49.05 456.5,-39.05 453,-49.05 460,-49.05"/>
</g>
</g>
</svg>
