<?xml version="1.0" encoding="UTF-8" standalone="no"?>
<!DOCTYPE svg PUBLIC "-//W3C//DTD SVG 1.1//EN"
 "http://www.w3.org/Graphics/SVG/1.1/DTD/svg11.dtd">
<!-- Generated by graphviz version 8.0.3 (0)
 -->
<!-- Pages: 1 -->
<svg width="784pt" height="215pt"
 viewBox="0.00 0.00 783.50 214.74" xmlns="http://www.w3.org/2000/svg" xmlns:xlink="http://www.w3.org/1999/xlink">
<g id="graph0" class="graph" transform="scale(1 1) rotate(0) translate(36 178.74)">
<polygon fill="white" stroke="none" points="-36,36 -36,-178.74 747.5,-178.74 747.5,36 -36,36"/>
<!-- start -->
<g id="node1" class="node">
<title>start</title>
</g>
<!-- e9cbef73&#45;1762&#45;4070&#45;9334&#45;9583eeff8956 -->
<g id="node3" class="node">
<title>e9cbef73&#45;1762&#45;4070&#45;9334&#45;9583eeff8956</title>
<ellipse fill="green" stroke="black" cx="119.5" cy="-115.87" rx="63.78" ry="26.74"/>
<text text-anchor="middle" x="119.5" y="-119.67" font-family="Times,serif" font-size="14.00">✓ Create</text>
<text text-anchor="middle" x="119.5" y="-104.67" font-family="Times,serif" font-size="14.00">src/cnn.py</text>
</g>
<!-- start&#45;&gt;e9cbef73&#45;1762&#45;4070&#45;9334&#45;9583eeff8956 -->
<g id="edge6" class="edge">
<title>start&#45;&gt;e9cbef73&#45;1762&#45;4070&#45;9334&#45;9583eeff8956</title>
<path fill="none" stroke="black" d="M0.84,-115.87C3.58,-115.87 22.48,-115.87 44.41,-115.87"/>
<polygon fill="black" stroke="black" points="44.36,-119.37 54.36,-115.87 44.36,-112.37 44.36,-119.37"/>
<text text-anchor="middle" x="28.43" y="-122.67" font-family="Times,serif" font-size="14.00">Start</text>
</g>
<!-- end -->
<g id="node2" class="node">
<title>end</title>
</g>
<!-- c552ec41&#45;fb21&#45;43da&#45;883a&#45;cbe8e327bec2 -->
<g id="node4" class="node">
<title>c552ec41&#45;fb21&#45;43da&#45;883a&#45;cbe8e327bec2</title>
<ellipse fill="yellow" stroke="black" cx="336.5" cy="-115.87" rx="70.92" ry="26.74"/>
<text text-anchor="middle" x="336.5" y="-119.67" font-family="Times,serif" font-size="14.00">⋯ Modify</text>
<text text-anchor="middle" x="336.5" y="-104.67" font-family="Times,serif" font-size="14.00">src/main.py</text>
</g>
<!-- e9cbef73&#45;1762&#45;4070&#45;9334&#45;9583eeff8956&#45;&gt;c552ec41&#45;fb21&#45;43da&#45;883a&#45;cbe8e327bec2 -->
<g id="edge2" class="edge">
<title>e9cbef73&#45;1762&#45;4070&#45;9334&#45;9583eeff8956&#45;&gt;c552ec41&#45;fb21&#45;43da&#45;883a&#45;cbe8e327bec2</title>
<path fill="none" stroke="black" d="M183.73,-115.87C205.84,-115.87 230.92,-115.87 254.28,-115.87"/>
<polygon fill="black" stroke="black" points="254.22,-119.37 264.22,-115.87 254.22,-112.37 254.22,-119.37"/>
<text text-anchor="middle" x="224.46" y="-122.67" font-family="Times,serif" font-size="14.00">Continue</text>
</g>
<!-- 0e0fad6e&#45;470a&#45;46b4&#45;a6f3&#45;ea6f33ca694f -->
<g id="node6" class="node">
<title>0e0fad6e&#45;470a&#45;46b4&#45;a6f3&#45;ea6f33ca694f</title>
<polygon fill="green" stroke="black" points="164.5,-38 74.5,-38 74.5,0 164.5,0 164.5,-38"/>
<text text-anchor="middle" x="119.5" y="-22.8" font-family="Times,serif" font-size="14.00">✓ Check</text>
<text text-anchor="middle" x="119.5" y="-7.8" font-family="Times,serif" font-size="14.00">src/cnn.py</text>
</g>
<!-- e9cbef73&#45;1762&#45;4070&#45;9334&#45;9583eeff8956&#45;&gt;0e0fad6e&#45;470a&#45;46b4&#45;a6f3&#45;ea6f33ca694f -->
<g id="edge1" class="edge">
<title>e9cbef73&#45;1762&#45;4070&#45;9334&#45;9583eeff8956&#45;&gt;0e0fad6e&#45;470a&#45;46b4&#45;a6f3&#45;ea6f33ca694f</title>
<path fill="none" stroke="black" stroke-dasharray="5,2" d="M119.5,-88.7C119.5,-76.43 119.5,-61.78 119.5,-49.17"/>
<polygon fill="black" stroke="black" points="123,-49.28 119.5,-39.28 116,-49.28 123,-49.28"/>
<text text-anchor="middle" x="173" y="-59.8" font-family="Times,serif" font-size="14.00">Check changes</text>
</g>
<!-- 7895eb80&#45;06fb&#45;484d&#45;ae74&#45;341fb9fbb42d -->
<g id="node5" class="node">
<title>7895eb80&#45;06fb&#45;484d&#45;ae74&#45;341fb9fbb42d</title>
<ellipse fill="white" stroke="black" cx="550.5" cy="-115.87" rx="60.62" ry="26.74"/>
<text text-anchor="middle" x="550.5" y="-119.67" font-family="Times,serif" font-size="14.00">▶ Modify</text>
<text text-anchor="middle" x="550.5" y="-104.67" font-family="Times,serif" font-size="14.00">src/api.py</text>
</g>
<!-- c552ec41&#45;fb21&#45;43da&#45;883a&#45;cbe8e327bec2&#45;&gt;7895eb80&#45;06fb&#45;484d&#45;ae74&#45;341fb9fbb42d -->
<g id="edge4" class="edge">
<title>c552ec41&#45;fb21&#45;43da&#45;883a&#45;cbe8e327bec2&#45;&gt;7895eb80&#45;06fb&#45;484d&#45;ae74&#45;341fb9fbb42d</title>
<path fill="none" stroke="black" d="M407.76,-115.87C430.54,-115.87 455.76,-115.87 478.58,-115.87"/>
<polygon fill="black" stroke="black" points="478.57,-119.37 488.57,-115.87 478.57,-112.37 478.57,-119.37"/>
<text text-anchor="middle" x="448.45" y="-122.67" font-family="Times,serif" font-size="14.00">Continue</text>
</g>
<!-- ce8bbda7&#45;2d1c&#45;4b92&#45;ae5e&#45;37f1eff8c76c -->
<g id="node7" class="node">
<title>ce8bbda7&#45;2d1c&#45;4b92&#45;ae5e&#45;37f1eff8c76c</title>
<polygon fill="white" stroke="black" points="386.5,-38 286.5,-38 286.5,0 386.5,0 386.5,-38"/>
<text text-anchor="middle" x="336.5" y="-22.8" font-family="Times,serif" font-size="14.00">▶ Check</text>
<text text-anchor="middle" x="336.5" y="-7.8" font-family="Times,serif" font-size="14.00">src/main.py</text>
</g>
<!-- c552ec41&#45;fb21&#45;43da&#45;883a&#45;cbe8e327bec2&#45;&gt;ce8bbda7&#45;2d1c&#45;4b92&#45;ae5e&#45;37f1eff8c76c -->
<g id="edge3" class="edge">
<title>c552ec41&#45;fb21&#45;43da&#45;883a&#45;cbe8e327bec2&#45;&gt;ce8bbda7&#45;2d1c&#45;4b92&#45;ae5e&#45;37f1eff8c76c</title>
<path fill="none" stroke="black" stroke-dasharray="5,2" d="M336.5,-88.7C336.5,-76.43 336.5,-61.78 336.5,-49.17"/>
<polygon fill="black" stroke="black" points="340,-49.28 336.5,-39.28 333,-49.28 340,-49.28"/>
<text text-anchor="middle" x="390" y="-59.8" font-family="Times,serif" font-size="14.00">Check changes</text>
</g>
<!-- 74edb2bc&#45;107d&#45;4f88&#45;b26e&#45;513c976221fe -->
<g id="node8" class="node">
<title>74edb2bc&#45;107d&#45;4f88&#45;b26e&#45;513c976221fe</title>
<polygon fill="white" stroke="black" points="658.5,-38 572.5,-38 572.5,0 658.5,0 658.5,-38"/>
<text text-anchor="middle" x="615.5" y="-22.8" font-family="Times,serif" font-size="14.00">▶ Check</text>
<text text-anchor="middle" x="615.5" y="-7.8" font-family="Times,serif" font-size="14.00">src/api.py</text>
</g>
<!-- 7895eb80&#45;06fb&#45;484d&#45;ae74&#45;341fb9fbb42d&#45;&gt;74edb2bc&#45;107d&#45;4f88&#45;b26e&#45;513c976221fe -->
<g id="edge5" class="edge">
<title>7895eb80&#45;06fb&#45;484d&#45;ae74&#45;341fb9fbb42d&#45;&gt;74edb2bc&#45;107d&#45;4f88&#45;b26e&#45;513c976221fe</title>
<path fill="none" stroke="black" stroke-dasharray="5,2" d="M545.51,-88.98C544.73,-78.11 545.69,-65.75 551.5,-56 554.56,-50.87 558.65,-46.41 563.28,-42.55"/>
<polygon fill="black" stroke="black" points="565.01,-44.89 571.1,-36.23 560.94,-39.2 565.01,-44.89"/>
<text text-anchor="middle" x="605" y="-59.8" font-family="Times,serif" font-size="14.00">Check changes</text>
</g>
<!-- 74edb2bc&#45;107d&#45;4f88&#45;b26e&#45;513c976221fe&#45;&gt;end -->
<g id="edge7" class="edge">
<title>74edb2bc&#45;107d&#45;4f88&#45;b26e&#45;513c976221fe&#45;&gt;end</title>
<path fill="none" stroke="black" d="M641.7,-38.25C647.82,-43.45 653.89,-49.48 658.5,-56 668.5,-70.13 674.55,-89.35 677.71,-101.93"/>
<polygon fill="black" stroke="black" points="674.46,-102.42 680.05,-111.42 681.29,-100.89 674.46,-102.42"/>
<text text-anchor="middle" x="689" y="-59.8" font-family="Times,serif" font-size="14.00">Finish</text>
</g>
</g>
</svg>
