<?xml version="1.0" encoding="UTF-8" standalone="no"?>
<!DOCTYPE svg PUBLIC "-//W3C//DTD SVG 1.1//EN"
 "http://www.w3.org/Graphics/SVG/1.1/DTD/svg11.dtd">
<!-- Generated by graphviz version 2.43.0 (0)
 -->
<!-- Title: %3 Pages: 1 -->
<svg width="579pt" height="959pt"
 viewBox="0.00 0.00 579.13 958.70" xmlns="http://www.w3.org/2000/svg" xmlns:xlink="http://www.w3.org/1999/xlink">
<g id="graph0" class="graph" transform="scale(1 1) rotate(0) translate(36 922.7)">
<title>%3</title>
<polygon fill="dimgray" stroke="transparent" points="-36,36 -36,-922.7 543.13,-922.7 543.13,36 -36,36"/>
<text text-anchor="middle" x="253.57" y="-871.5" font-family="Helvetica,sans-Serif" font-size="14.00">Sweep&#39;s Plan &amp; Progress</text>
<!-- start -->
<g id="node1" class="node">
<title>start</title>
</g>
<!-- 3e1aa324&#45;24c5&#45;457e&#45;ad59&#45;71db9288c149 -->
<g id="node3" class="node">
<title>3e1aa324&#45;24c5&#45;457e&#45;ad59&#45;71db9288c149</title>
<ellipse fill="#0ee832" stroke="black" cx="292.63" cy="-820.83" rx="92.76" ry="26.74"/>
<text text-anchor="middle" x="292.63" y="-824.63" font-family="Helvetica,sans-Serif" font-size="14.00">✓ Create</text>
<text text-anchor="middle" x="292.63" y="-809.63" font-family="Helvetica,sans-Serif" font-size="14.00">src/test_main.py</text>
</g>
<!-- start&#45;&gt;3e1aa324&#45;24c5&#45;457e&#45;ad59&#45;71db9288c149 -->
<g id="edge17" class="edge">
<title>start&#45;&gt;3e1aa324&#45;24c5&#45;457e&#45;ad59&#45;71db9288c149</title>
<path fill="none" stroke="black" d="M148.28,-820.83C151.72,-820.83 168.5,-820.83 189.48,-820.83"/>
<polygon fill="black" stroke="black" points="189.73,-824.33 199.73,-820.83 189.73,-817.33 189.73,-824.33"/>
<text text-anchor="middle" x="174.07" y="-827.63" font-family="Helvetica,sans-Serif" font-size="14.00">Start</text>
</g>
<!-- end -->
<g id="node2" class="node">
<title>end</title>
</g>
<!-- 3e1aa324&#45;24c5&#45;457e&#45;ad59&#45;71db9288c149&#45;&gt;end -->
<g id="edge18" class="edge">
<title>3e1aa324&#45;24c5&#45;457e&#45;ad59&#45;71db9288c149&#45;&gt;end</title>
<path fill="none" stroke="black" d="M385.68,-820.83C404.6,-820.83 421.97,-820.83 432.65,-820.83"/>
<polygon fill="black" stroke="black" points="432.94,-824.33 442.94,-820.83 432.94,-817.33 432.94,-824.33"/>
<text text-anchor="middle" x="414.2" y="-827.63" font-family="Helvetica,sans-Serif" font-size="14.00">Finish</text>
</g>
<!-- 8630f1a1&#45;6c93&#45;4286&#45;9f62&#45;85931dd553a1 -->
<g id="node4" class="node">
<title>8630f1a1&#45;6c93&#45;4286&#45;9f62&#45;85931dd553a1</title>
<polygon fill="#ee0000" stroke="black" points="192.13,-756.96 61.13,-756.96 61.13,-718.96 192.13,-718.96 192.13,-756.96"/>
<text text-anchor="middle" x="126.63" y="-741.76" font-family="Helvetica,sans-Serif" font-size="14.00">✗ Check</text>
<text text-anchor="middle" x="126.63" y="-726.76" font-family="Helvetica,sans-Serif" font-size="14.00">src/test_main.py</text>
</g>
<!-- 3e1aa324&#45;24c5&#45;457e&#45;ad59&#45;71db9288c149&#45;&gt;8630f1a1&#45;6c93&#45;4286&#45;9f62&#45;85931dd553a1 -->
<g id="edge1" class="edge">
<title>3e1aa324&#45;24c5&#45;457e&#45;ad59&#45;71db9288c149&#45;&gt;8630f1a1&#45;6c93&#45;4286&#45;9f62&#45;85931dd553a1</title>
<path fill="none" stroke="black" stroke-dasharray="5,2" d="M246.39,-797.3C223.46,-786.13 195.83,-772.67 172.89,-761.5"/>
<polygon fill="black" stroke="black" points="174.23,-758.25 163.7,-757.02 171.16,-764.55 174.23,-758.25"/>
</g>
<!-- b1404f88&#45;786b&#45;4933&#45;9780&#45;b6caa36ec433 -->
<g id="node5" class="node">
<title>b1404f88&#45;786b&#45;4933&#45;9780&#45;b6caa36ec433</title>
<polygon fill="#ee0000" stroke="black" points="358.13,-756.96 227.13,-756.96 227.13,-718.96 358.13,-718.96 358.13,-756.96"/>
<text text-anchor="middle" x="292.63" y="-741.76" font-family="Helvetica,sans-Serif" font-size="14.00">✗ Check</text>
<text text-anchor="middle" x="292.63" y="-726.76" font-family="Helvetica,sans-Serif" font-size="14.00">src/test_main.py</text>
</g>
<!-- 3e1aa324&#45;24c5&#45;457e&#45;ad59&#45;71db9288c149&#45;&gt;b1404f88&#45;786b&#45;4933&#45;9780&#45;b6caa36ec433 -->
<g id="edge4" class="edge">
<title>3e1aa324&#45;24c5&#45;457e&#45;ad59&#45;71db9288c149&#45;&gt;b1404f88&#45;786b&#45;4933&#45;9780&#45;b6caa36ec433</title>
<path fill="none" stroke="black" stroke-dasharray="5,2" d="M292.63,-793.8C292.63,-785.26 292.63,-775.74 292.63,-767.06"/>
<polygon fill="black" stroke="black" points="296.13,-767.01 292.63,-757.01 289.13,-767.01 296.13,-767.01"/>
</g>
<!-- cfe9e19e&#45;788d&#45;40b2&#45;85b2&#45;9d594bc56b01 -->
<g id="node6" class="node">
<title>cfe9e19e&#45;788d&#45;40b2&#45;85b2&#45;9d594bc56b01</title>
<polygon fill="white" stroke="black" points="507.13,-756.96 376.13,-756.96 376.13,-718.96 507.13,-718.96 507.13,-756.96"/>
<text text-anchor="middle" x="441.63" y="-741.76" font-family="Helvetica,sans-Serif" font-size="14.00">▶ Check</text>
<text text-anchor="middle" x="441.63" y="-726.76" font-family="Helvetica,sans-Serif" font-size="14.00">src/test_main.py</text>
</g>
<!-- 3e1aa324&#45;24c5&#45;457e&#45;ad59&#45;71db9288c149&#45;&gt;cfe9e19e&#45;788d&#45;40b2&#45;85b2&#45;9d594bc56b01 -->
<g id="edge16" class="edge">
<title>3e1aa324&#45;24c5&#45;457e&#45;ad59&#45;71db9288c149&#45;&gt;cfe9e19e&#45;788d&#45;40b2&#45;85b2&#45;9d594bc56b01</title>
<path fill="none" stroke="black" stroke-dasharray="5,2" d="M334.93,-796.87C355.07,-785.94 379.11,-772.89 399.26,-761.96"/>
<polygon fill="black" stroke="black" points="401.1,-764.94 408.22,-757.09 397.76,-758.79 401.1,-764.94"/>
</g>
<!-- f05df1d8&#45;af7c&#45;4e7a&#45;9cfc&#45;25ade5d0fb35 -->
<g id="node7" class="node">
<title>f05df1d8&#45;af7c&#45;4e7a&#45;9cfc&#45;25ade5d0fb35</title>
<ellipse fill="#0ee832" stroke="black" cx="92.63" cy="-641.09" rx="92.76" ry="26.74"/>
<text text-anchor="middle" x="92.63" y="-644.89" font-family="Helvetica,sans-Serif" font-size="14.00">✓ Modify</text>
<text text-anchor="middle" x="92.63" y="-629.89" font-family="Helvetica,sans-Serif" font-size="14.00">src/test_main.py</text>
</g>
<!-- 8630f1a1&#45;6c93&#45;4286&#45;9f62&#45;85931dd553a1&#45;&gt;f05df1d8&#45;af7c&#45;4e7a&#45;9cfc&#45;25ade5d0fb35 -->
<g id="edge2" class="edge">
<title>8630f1a1&#45;6c93&#45;4286&#45;9f62&#45;85931dd553a1&#45;&gt;f05df1d8&#45;af7c&#45;4e7a&#45;9cfc&#45;25ade5d0fb35</title>
<path fill="none" stroke="black" d="M110.99,-718.94C107.01,-713.48 103.15,-707.26 100.63,-700.96 97.76,-693.77 95.88,-685.73 94.66,-677.96"/>
<polygon fill="black" stroke="black" points="98.13,-677.48 93.42,-668 91.18,-678.35 98.13,-677.48"/>
<text text-anchor="middle" x="198.13" y="-689.76" font-family="Helvetica,sans-Serif" font-size="14.00">Additional changes required</text>
</g>
<!-- 84d92349&#45;2187&#45;4fd9&#45;8fb6&#45;2ca61035cfa9 -->
<g id="node8" class="node">
<title>84d92349&#45;2187&#45;4fd9&#45;8fb6&#45;2ca61035cfa9</title>
<ellipse fill="#0ee832" stroke="black" cx="310.63" cy="-641.09" rx="92.76" ry="26.74"/>
<text text-anchor="middle" x="310.63" y="-644.89" font-family="Helvetica,sans-Serif" font-size="14.00">✓ Modify</text>
<text text-anchor="middle" x="310.63" y="-629.89" font-family="Helvetica,sans-Serif" font-size="14.00">src/test_main.py</text>
</g>
<!-- b1404f88&#45;786b&#45;4933&#45;9780&#45;b6caa36ec433&#45;&gt;84d92349&#45;2187&#45;4fd9&#45;8fb6&#45;2ca61035cfa9 -->
<g id="edge5" class="edge">
<title>b1404f88&#45;786b&#45;4933&#45;9780&#45;b6caa36ec433&#45;&gt;84d92349&#45;2187&#45;4fd9&#45;8fb6&#45;2ca61035cfa9</title>
<path fill="none" stroke="black" d="M296.1,-718.67C298.27,-707.26 301.13,-692.17 303.74,-678.4"/>
<polygon fill="black" stroke="black" points="307.25,-678.7 305.67,-668.22 300.37,-677.39 307.25,-678.7"/>
<text text-anchor="middle" x="400.13" y="-689.76" font-family="Helvetica,sans-Serif" font-size="14.00">Additional changes required</text>
</g>
<!-- 75d010a9&#45;7271&#45;4bc1&#45;95f7&#45;d85b30ac8f52 -->
<g id="node9" class="node">
<title>75d010a9&#45;7271&#45;4bc1&#45;95f7&#45;d85b30ac8f52</title>
<polygon fill="yellow" stroke="black" points="158.13,-577.22 27.13,-577.22 27.13,-539.22 158.13,-539.22 158.13,-577.22"/>
<text text-anchor="middle" x="92.63" y="-562.02" font-family="Helvetica,sans-Serif" font-size="14.00">⋯ Check</text>
<text text-anchor="middle" x="92.63" y="-547.02" font-family="Helvetica,sans-Serif" font-size="14.00">src/test_main.py</text>
</g>
<!-- f05df1d8&#45;af7c&#45;4e7a&#45;9cfc&#45;25ade5d0fb35&#45;&gt;75d010a9&#45;7271&#45;4bc1&#45;95f7&#45;d85b30ac8f52 -->
<g id="edge3" class="edge">
<title>f05df1d8&#45;af7c&#45;4e7a&#45;9cfc&#45;25ade5d0fb35&#45;&gt;75d010a9&#45;7271&#45;4bc1&#45;95f7&#45;d85b30ac8f52</title>
<path fill="none" stroke="black" stroke-dasharray="5,2" d="M92.63,-614.06C92.63,-605.52 92.63,-596 92.63,-587.32"/>
<polygon fill="black" stroke="black" points="96.13,-587.27 92.63,-577.27 89.13,-587.27 96.13,-587.27"/>
</g>
<!-- 8ea75ef7&#45;7898&#45;402c&#45;8c9e&#45;1cc779051213 -->
<g id="node10" class="node">
<title>8ea75ef7&#45;7898&#45;402c&#45;8c9e&#45;1cc779051213</title>
<polygon fill="#ee0000" stroke="black" points="341.13,-577.22 210.13,-577.22 210.13,-539.22 341.13,-539.22 341.13,-577.22"/>
<text text-anchor="middle" x="275.63" y="-562.02" font-family="Helvetica,sans-Serif" font-size="14.00">✗ Check</text>
<text text-anchor="middle" x="275.63" y="-547.02" font-family="Helvetica,sans-Serif" font-size="14.00">src/test_main.py</text>
</g>
<!-- 84d92349&#45;2187&#45;4fd9&#45;8fb6&#45;2ca61035cfa9&#45;&gt;8ea75ef7&#45;7898&#45;402c&#45;8c9e&#45;1cc779051213 -->
<g id="edge6" class="edge">
<title>84d92349&#45;2187&#45;4fd9&#45;8fb6&#45;2ca61035cfa9&#45;&gt;8ea75ef7&#45;7898&#45;402c&#45;8c9e&#45;1cc779051213</title>
<path fill="none" stroke="black" stroke-dasharray="5,2" d="M299.36,-614.06C295.55,-605.24 291.28,-595.37 287.42,-586.47"/>
<polygon fill="black" stroke="black" points="290.63,-585.06 283.44,-577.27 284.2,-587.84 290.63,-585.06"/>
</g>
<!-- 5f084205&#45;9d68&#45;4f81&#45;96c1&#45;b9c4208dc909 -->
<g id="node11" class="node">
<title>5f084205&#45;9d68&#45;4f81&#45;96c1&#45;b9c4208dc909</title>
<polygon fill="white" stroke="black" points="490.13,-577.22 359.13,-577.22 359.13,-539.22 490.13,-539.22 490.13,-577.22"/>
<text text-anchor="middle" x="424.63" y="-562.02" font-family="Helvetica,sans-Serif" font-size="14.00">▶ Check</text>
<text text-anchor="middle" x="424.63" y="-547.02" font-family="Helvetica,sans-Serif" font-size="14.00">src/test_main.py</text>
</g>
<!-- 84d92349&#45;2187&#45;4fd9&#45;8fb6&#45;2ca61035cfa9&#45;&gt;5f084205&#45;9d68&#45;4f81&#45;96c1&#45;b9c4208dc909 -->
<g id="edge15" class="edge">
<title>84d92349&#45;2187&#45;4fd9&#45;8fb6&#45;2ca61035cfa9&#45;&gt;5f084205&#45;9d68&#45;4f81&#45;96c1&#45;b9c4208dc909</title>
<path fill="none" stroke="black" stroke-dasharray="5,2" d="M344.53,-616.05C359.12,-605.69 376.15,-593.61 390.74,-583.26"/>
<polygon fill="black" stroke="black" points="392.88,-586.03 399.01,-577.39 388.83,-580.32 392.88,-586.03"/>
</g>
<!-- 1676f287&#45;a3bd&#45;4c7e&#45;b762&#45;ca0d154169f8 -->
<g id="node12" class="node">
<title>1676f287&#45;a3bd&#45;4c7e&#45;b762&#45;ca0d154169f8</title>
<ellipse fill="#0ee832" stroke="black" cx="275.63" cy="-461.35" rx="92.76" ry="26.74"/>
<text text-anchor="middle" x="275.63" y="-465.15" font-family="Helvetica,sans-Serif" font-size="14.00">✓ Modify</text>
<text text-anchor="middle" x="275.63" y="-450.15" font-family="Helvetica,sans-Serif" font-size="14.00">src/test_main.py</text>
</g>
<!-- 8ea75ef7&#45;7898&#45;402c&#45;8c9e&#45;1cc779051213&#45;&gt;1676f287&#45;a3bd&#45;4c7e&#45;b762&#45;ca0d154169f8 -->
<g id="edge7" class="edge">
<title>8ea75ef7&#45;7898&#45;402c&#45;8c9e&#45;1cc779051213&#45;&gt;1676f287&#45;a3bd&#45;4c7e&#45;b762&#45;ca0d154169f8</title>
<path fill="none" stroke="black" d="M275.63,-538.93C275.63,-527.52 275.63,-512.43 275.63,-498.66"/>
<polygon fill="black" stroke="black" points="279.13,-498.48 275.63,-488.48 272.13,-498.48 279.13,-498.48"/>
<text text-anchor="middle" x="373.13" y="-510.02" font-family="Helvetica,sans-Serif" font-size="14.00">Additional changes required</text>
</g>
<!-- 0c2eb4b7&#45;5203&#45;42fe&#45;8cc0&#45;a264ff947d76 -->
<g id="node13" class="node">
<title>0c2eb4b7&#45;5203&#45;42fe&#45;8cc0&#45;a264ff947d76</title>
<polygon fill="#ee0000" stroke="black" points="267.13,-397.48 136.13,-397.48 136.13,-359.48 267.13,-359.48 267.13,-397.48"/>
<text text-anchor="middle" x="201.63" y="-382.28" font-family="Helvetica,sans-Serif" font-size="14.00">✗ Check</text>
<text text-anchor="middle" x="201.63" y="-367.28" font-family="Helvetica,sans-Serif" font-size="14.00">src/test_main.py</text>
</g>
<!-- 1676f287&#45;a3bd&#45;4c7e&#45;b762&#45;ca0d154169f8&#45;&gt;0c2eb4b7&#45;5203&#45;42fe&#45;8cc0&#45;a264ff947d76 -->
<g id="edge8" class="edge">
<title>1676f287&#45;a3bd&#45;4c7e&#45;b762&#45;ca0d154169f8&#45;&gt;0c2eb4b7&#45;5203&#45;42fe&#45;8cc0&#45;a264ff947d76</title>
<path fill="none" stroke="black" stroke-dasharray="5,2" d="M252.62,-435.21C243.85,-425.62 233.85,-414.69 225.04,-405.06"/>
<polygon fill="black" stroke="black" points="227.61,-402.69 218.28,-397.67 222.45,-407.42 227.61,-402.69"/>
</g>
<!-- 4ecd077c&#45;7233&#45;46a0&#45;9238&#45;5c50d76a0fe3 -->
<g id="node14" class="node">
<title>4ecd077c&#45;7233&#45;46a0&#45;9238&#45;5c50d76a0fe3</title>
<polygon fill="white" stroke="black" points="416.13,-397.48 285.13,-397.48 285.13,-359.48 416.13,-359.48 416.13,-397.48"/>
<text text-anchor="middle" x="350.63" y="-382.28" font-family="Helvetica,sans-Serif" font-size="14.00">▶ Check</text>
<text text-anchor="middle" x="350.63" y="-367.28" font-family="Helvetica,sans-Serif" font-size="14.00">src/test_main.py</text>
</g>
<!-- 1676f287&#45;a3bd&#45;4c7e&#45;b762&#45;ca0d154169f8&#45;&gt;4ecd077c&#45;7233&#45;46a0&#45;9238&#45;5c50d76a0fe3 -->
<g id="edge14" class="edge">
<title>1676f287&#45;a3bd&#45;4c7e&#45;b762&#45;ca0d154169f8&#45;&gt;4ecd077c&#45;7233&#45;46a0&#45;9238&#45;5c50d76a0fe3</title>
<path fill="none" stroke="black" stroke-dasharray="5,2" d="M298.95,-435.21C307.84,-425.62 317.98,-414.69 326.9,-405.06"/>
<polygon fill="black" stroke="black" points="329.52,-407.39 333.76,-397.67 324.39,-402.63 329.52,-407.39"/>
</g>
<!-- 2d0dadfa&#45;87b7&#45;41fb&#45;94e2&#45;2ebbc709cd39 -->
<g id="node15" class="node">
<title>2d0dadfa&#45;87b7&#45;41fb&#45;94e2&#45;2ebbc709cd39</title>
<ellipse fill="#0ee832" stroke="black" cx="201.63" cy="-281.61" rx="92.76" ry="26.74"/>
<text text-anchor="middle" x="201.63" y="-285.41" font-family="Helvetica,sans-Serif" font-size="14.00">✓ Modify</text>
<text text-anchor="middle" x="201.63" y="-270.41" font-family="Helvetica,sans-Serif" font-size="14.00">src/test_main.py</text>
</g>
<!-- 0c2eb4b7&#45;5203&#45;42fe&#45;8cc0&#45;a264ff947d76&#45;&gt;2d0dadfa&#45;87b7&#45;41fb&#45;94e2&#45;2ebbc709cd39 -->
<g id="edge9" class="edge">
<title>0c2eb4b7&#45;5203&#45;42fe&#45;8cc0&#45;a264ff947d76&#45;&gt;2d0dadfa&#45;87b7&#45;41fb&#45;94e2&#45;2ebbc709cd39</title>
<path fill="none" stroke="black" d="M201.63,-359.19C201.63,-347.78 201.63,-332.69 201.63,-318.92"/>
<polygon fill="black" stroke="black" points="205.13,-318.74 201.63,-308.74 198.13,-318.74 205.13,-318.74"/>
<text text-anchor="middle" x="299.13" y="-330.28" font-family="Helvetica,sans-Serif" font-size="14.00">Additional changes required</text>
</g>
<!-- 50c6615e&#45;2753&#45;4489&#45;8b5e&#45;0d7eca910ad2 -->
<g id="node16" class="node">
<title>50c6615e&#45;2753&#45;4489&#45;8b5e&#45;0d7eca910ad2</title>
<polygon fill="#ee0000" stroke="black" points="193.13,-217.74 62.13,-217.74 62.13,-179.74 193.13,-179.74 193.13,-217.74"/>
<text text-anchor="middle" x="127.63" y="-202.54" font-family="Helvetica,sans-Serif" font-size="14.00">✗ Check</text>
<text text-anchor="middle" x="127.63" y="-187.54" font-family="Helvetica,sans-Serif" font-size="14.00">src/test_main.py</text>
</g>
<!-- 2d0dadfa&#45;87b7&#45;41fb&#45;94e2&#45;2ebbc709cd39&#45;&gt;50c6615e&#45;2753&#45;4489&#45;8b5e&#45;0d7eca910ad2 -->
<g id="edge10" class="edge">
<title>2d0dadfa&#45;87b7&#45;41fb&#45;94e2&#45;2ebbc709cd39&#45;&gt;50c6615e&#45;2753&#45;4489&#45;8b5e&#45;0d7eca910ad2</title>
<path fill="none" stroke="black" stroke-dasharray="5,2" d="M178.62,-255.47C169.85,-245.88 159.85,-234.95 151.04,-225.32"/>
<polygon fill="black" stroke="black" points="153.61,-222.95 144.28,-217.93 148.45,-227.67 153.61,-222.95"/>
</g>
<!-- 3030ff69&#45;fb69&#45;4d44&#45;aa27&#45;1087f1c1db17 -->
<g id="node17" class="node">
<title>3030ff69&#45;fb69&#45;4d44&#45;aa27&#45;1087f1c1db17</title>
<polygon fill="white" stroke="black" points="342.13,-217.74 211.13,-217.74 211.13,-179.74 342.13,-179.74 342.13,-217.74"/>
<text text-anchor="middle" x="276.63" y="-202.54" font-family="Helvetica,sans-Serif" font-size="14.00">▶ Check</text>
<text text-anchor="middle" x="276.63" y="-187.54" font-family="Helvetica,sans-Serif" font-size="14.00">src/test_main.py</text>
</g>
<!-- 2d0dadfa&#45;87b7&#45;41fb&#45;94e2&#45;2ebbc709cd39&#45;&gt;3030ff69&#45;fb69&#45;4d44&#45;aa27&#45;1087f1c1db17 -->
<g id="edge13" class="edge">
<title>2d0dadfa&#45;87b7&#45;41fb&#45;94e2&#45;2ebbc709cd39&#45;&gt;3030ff69&#45;fb69&#45;4d44&#45;aa27&#45;1087f1c1db17</title>
<path fill="none" stroke="black" stroke-dasharray="5,2" d="M224.95,-255.47C233.84,-245.88 243.98,-234.95 252.9,-225.32"/>
<polygon fill="black" stroke="black" points="255.52,-227.65 259.76,-217.93 250.39,-222.89 255.52,-227.65"/>
</g>
<!-- 27b0f516&#45;f7ba&#45;4535&#45;8953&#45;4224615b93f3 -->
<g id="node18" class="node">
<title>27b0f516&#45;f7ba&#45;4535&#45;8953&#45;4224615b93f3</title>
<ellipse fill="yellow" stroke="black" cx="127.63" cy="-101.87" rx="92.76" ry="26.74"/>
<text text-anchor="middle" x="127.63" y="-105.67" font-family="Helvetica,sans-Serif" font-size="14.00">⋯ Modify</text>
<text text-anchor="middle" x="127.63" y="-90.67" font-family="Helvetica,sans-Serif" font-size="14.00">src/test_main.py</text>
</g>
<!-- 50c6615e&#45;2753&#45;4489&#45;8b5e&#45;0d7eca910ad2&#45;&gt;27b0f516&#45;f7ba&#45;4535&#45;8953&#45;4224615b93f3 -->
<g id="edge11" class="edge">
<title>50c6615e&#45;2753&#45;4489&#45;8b5e&#45;0d7eca910ad2&#45;&gt;27b0f516&#45;f7ba&#45;4535&#45;8953&#45;4224615b93f3</title>
<path fill="none" stroke="black" d="M127.63,-179.45C127.63,-168.03 127.63,-152.95 127.63,-139.18"/>
<polygon fill="black" stroke="black" points="131.13,-139 127.63,-129 124.13,-139 131.13,-139"/>
<text text-anchor="middle" x="225.13" y="-150.54" font-family="Helvetica,sans-Serif" font-size="14.00">Additional changes required</text>
</g>
<!-- 7f804374&#45;b227&#45;43f1&#45;b4e0&#45;3adc570b36e1 -->
<g id="node19" class="node">
<title>7f804374&#45;b227&#45;43f1&#45;b4e0&#45;3adc570b36e1</title>
<polygon fill="white" stroke="black" points="193.13,-38 62.13,-38 62.13,0 193.13,0 193.13,-38"/>
<text text-anchor="middle" x="127.63" y="-22.8" font-family="Helvetica,sans-Serif" font-size="14.00">▶ Check</text>
<text text-anchor="middle" x="127.63" y="-7.8" font-family="Helvetica,sans-Serif" font-size="14.00">src/test_main.py</text>
</g>
<!-- 27b0f516&#45;f7ba&#45;4535&#45;8953&#45;4224615b93f3&#45;&gt;7f804374&#45;b227&#45;43f1&#45;b4e0&#45;3adc570b36e1 -->
<g id="edge12" class="edge">
<title>27b0f516&#45;f7ba&#45;4535&#45;8953&#45;4224615b93f3&#45;&gt;7f804374&#45;b227&#45;43f1&#45;b4e0&#45;3adc570b36e1</title>
<path fill="none" stroke="black" stroke-dasharray="5,2" d="M127.63,-74.84C127.63,-66.3 127.63,-56.78 127.63,-48.1"/>
<polygon fill="black" stroke="black" points="131.13,-48.05 127.63,-38.05 124.13,-48.05 131.13,-48.05"/>
</g>
</g>
</svg>
