<?xml version="1.0" encoding="UTF-8" standalone="no"?>
<!DOCTYPE svg PUBLIC "-//W3C//DTD SVG 1.1//EN"
 "http://www.w3.org/Graphics/SVG/1.1/DTD/svg11.dtd">
<!-- Generated by graphviz version 8.0.3 (0)
 -->
<!-- Pages: 1 -->
<svg width="730pt" height="215pt"
 viewBox="0.00 0.00 729.50 214.74" xmlns="http://www.w3.org/2000/svg" xmlns:xlink="http://www.w3.org/1999/xlink">
<g id="graph0" class="graph" transform="scale(1 1) rotate(0) translate(36 178.74)">
<polygon fill="white" stroke="none" points="-36,36 -36,-178.74 693.5,-178.74 693.5,36 -36,36"/>
<!-- start -->
<g id="node1" class="node">
<title>start</title>
</g>
<!-- e9d83e5e&#45;1d53&#45;433c&#45;b3f2&#45;3b3c5bf59b30 -->
<g id="node2" class="node">
<title>e9d83e5e&#45;1d53&#45;433c&#45;b3f2&#45;3b3c5bf59b30</title>
<ellipse fill="green" stroke="black" cx="119.5" cy="-115.87" rx="63.78" ry="26.74"/>
<text text-anchor="middle" x="119.5" y="-119.67" font-family="Times,serif" font-size="14.00">✓ Create</text>
<text text-anchor="middle" x="119.5" y="-104.67" font-family="Times,serif" font-size="14.00">src/cnn.py</text>
</g>
<!-- start&#45;&gt;e9d83e5e&#45;1d53&#45;433c&#45;b3f2&#45;3b3c5bf59b30 -->
<g id="edge6" class="edge">
<title>start&#45;&gt;e9d83e5e&#45;1d53&#45;433c&#45;b3f2&#45;3b3c5bf59b30</title>
<path fill="none" stroke="black" d="M0.84,-115.87C3.58,-115.87 22.48,-115.87 44.41,-115.87"/>
<polygon fill="black" stroke="black" points="44.36,-119.37 54.36,-115.87 44.36,-112.37 44.36,-119.37"/>
<text text-anchor="middle" x="28.43" y="-122.67" font-family="Times,serif" font-size="14.00">Start</text>
</g>
<!-- 352a3d7a&#45;3b7b&#45;4b49&#45;8d92&#45;4e8073374d5d -->
<g id="node3" class="node">
<title>352a3d7a&#45;3b7b&#45;4b49&#45;8d92&#45;4e8073374d5d</title>
<ellipse fill="green" stroke="black" cx="336.5" cy="-115.87" rx="70.92" ry="26.74"/>
<text text-anchor="middle" x="336.5" y="-119.67" font-family="Times,serif" font-size="14.00">✓ Modify</text>
<text text-anchor="middle" x="336.5" y="-104.67" font-family="Times,serif" font-size="14.00">src/main.py</text>
</g>
<!-- e9d83e5e&#45;1d53&#45;433c&#45;b3f2&#45;3b3c5bf59b30&#45;&gt;352a3d7a&#45;3b7b&#45;4b49&#45;8d92&#45;4e8073374d5d -->
<g id="edge2" class="edge">
<title>e9d83e5e&#45;1d53&#45;433c&#45;b3f2&#45;3b3c5bf59b30&#45;&gt;352a3d7a&#45;3b7b&#45;4b49&#45;8d92&#45;4e8073374d5d</title>
<path fill="none" stroke="black" d="M183.73,-115.87C205.84,-115.87 230.92,-115.87 254.28,-115.87"/>
<polygon fill="black" stroke="black" points="254.22,-119.37 264.22,-115.87 254.22,-112.37 254.22,-119.37"/>
<text text-anchor="middle" x="224.46" y="-122.67" font-family="Times,serif" font-size="14.00">Continue</text>
</g>
<!-- 72b1dbf4&#45;3b74&#45;45ec&#45;9730&#45;34c23131985d -->
<g id="node6" class="node">
<title>72b1dbf4&#45;3b74&#45;45ec&#45;9730&#45;34c23131985d</title>
<polygon fill="green" stroke="black" points="164.5,-38 74.5,-38 74.5,0 164.5,0 164.5,-38"/>
<text text-anchor="middle" x="119.5" y="-22.8" font-family="Times,serif" font-size="14.00">✓ Check</text>
<text text-anchor="middle" x="119.5" y="-7.8" font-family="Times,serif" font-size="14.00">src/cnn.py</text>
</g>
<!-- e9d83e5e&#45;1d53&#45;433c&#45;b3f2&#45;3b3c5bf59b30&#45;&gt;72b1dbf4&#45;3b74&#45;45ec&#45;9730&#45;34c23131985d -->
<g id="edge1" class="edge">
<title>e9d83e5e&#45;1d53&#45;433c&#45;b3f2&#45;3b3c5bf59b30&#45;&gt;72b1dbf4&#45;3b74&#45;45ec&#45;9730&#45;34c23131985d</title>
<path fill="none" stroke="black" stroke-dasharray="5,2" d="M119.5,-88.7C119.5,-76.43 119.5,-61.78 119.5,-49.17"/>
<polygon fill="black" stroke="black" points="123,-49.28 119.5,-39.28 116,-49.28 123,-49.28"/>
<text text-anchor="middle" x="173" y="-59.8" font-family="Times,serif" font-size="14.00">Check changes</text>
</g>
<!-- f85a96de&#45;adc9&#45;4ec6&#45;b7c5&#45;7ba93f5c8ee8 -->
<g id="node4" class="node">
<title>f85a96de&#45;adc9&#45;4ec6&#45;b7c5&#45;7ba93f5c8ee8</title>
<ellipse fill="white" stroke="black" cx="550.5" cy="-115.87" rx="60.62" ry="26.74"/>
<text text-anchor="middle" x="550.5" y="-119.67" font-family="Times,serif" font-size="14.00">▶ Modify</text>
<text text-anchor="middle" x="550.5" y="-104.67" font-family="Times,serif" font-size="14.00">src/api.py</text>
</g>
<!-- 352a3d7a&#45;3b7b&#45;4b49&#45;8d92&#45;4e8073374d5d&#45;&gt;f85a96de&#45;adc9&#45;4ec6&#45;b7c5&#45;7ba93f5c8ee8 -->
<g id="edge4" class="edge">
<title>352a3d7a&#45;3b7b&#45;4b49&#45;8d92&#45;4e8073374d5d&#45;&gt;f85a96de&#45;adc9&#45;4ec6&#45;b7c5&#45;7ba93f5c8ee8</title>
<path fill="none" stroke="black" d="M407.76,-115.87C430.54,-115.87 455.76,-115.87 478.58,-115.87"/>
<polygon fill="black" stroke="black" points="478.57,-119.37 488.57,-115.87 478.57,-112.37 478.57,-119.37"/>
<text text-anchor="middle" x="448.45" y="-122.67" font-family="Times,serif" font-size="14.00">Continue</text>
</g>
<!-- f8249848&#45;e545&#45;4d72&#45;8b50&#45;b02e442944d8 -->
<g id="node7" class="node">
<title>f8249848&#45;e545&#45;4d72&#45;8b50&#45;b02e442944d8</title>
<polygon fill="yellow" stroke="black" points="386.5,-38 286.5,-38 286.5,0 386.5,0 386.5,-38"/>
<text text-anchor="middle" x="336.5" y="-22.8" font-family="Times,serif" font-size="14.00">⋯ Check</text>
<text text-anchor="middle" x="336.5" y="-7.8" font-family="Times,serif" font-size="14.00">src/main.py</text>
</g>
<!-- 352a3d7a&#45;3b7b&#45;4b49&#45;8d92&#45;4e8073374d5d&#45;&gt;f8249848&#45;e545&#45;4d72&#45;8b50&#45;b02e442944d8 -->
<g id="edge3" class="edge">
<title>352a3d7a&#45;3b7b&#45;4b49&#45;8d92&#45;4e8073374d5d&#45;&gt;f8249848&#45;e545&#45;4d72&#45;8b50&#45;b02e442944d8</title>
<path fill="none" stroke="black" stroke-dasharray="5,2" d="M336.5,-88.7C336.5,-76.43 336.5,-61.78 336.5,-49.17"/>
<polygon fill="black" stroke="black" points="340,-49.28 336.5,-39.28 333,-49.28 340,-49.28"/>
<text text-anchor="middle" x="390" y="-59.8" font-family="Times,serif" font-size="14.00">Check changes</text>
</g>
<!-- 43571971&#45;00c7&#45;47da&#45;a614&#45;c481e8389623 -->
<g id="node8" class="node">
<title>43571971&#45;00c7&#45;47da&#45;a614&#45;c481e8389623</title>
<polygon fill="white" stroke="black" points="593.5,-38 507.5,-38 507.5,0 593.5,0 593.5,-38"/>
<text text-anchor="middle" x="550.5" y="-22.8" font-family="Times,serif" font-size="14.00">▶ Check</text>
<text text-anchor="middle" x="550.5" y="-7.8" font-family="Times,serif" font-size="14.00">src/api.py</text>
</g>
<!-- f85a96de&#45;adc9&#45;4ec6&#45;b7c5&#45;7ba93f5c8ee8&#45;&gt;43571971&#45;00c7&#45;47da&#45;a614&#45;c481e8389623 -->
<g id="edge5" class="edge">
<title>f85a96de&#45;adc9&#45;4ec6&#45;b7c5&#45;7ba93f5c8ee8&#45;&gt;43571971&#45;00c7&#45;47da&#45;a614&#45;c481e8389623</title>
<path fill="none" stroke="black" stroke-dasharray="5,2" d="M550.5,-88.7C550.5,-76.43 550.5,-61.78 550.5,-49.17"/>
<polygon fill="black" stroke="black" points="554,-49.28 550.5,-39.28 547,-49.28 554,-49.28"/>
<text text-anchor="middle" x="604" y="-59.8" font-family="Times,serif" font-size="14.00">Check changes</text>
</g>
<!-- end -->
<g id="node5" class="node">
<title>end</title>
</g>
<!-- 43571971&#45;00c7&#45;47da&#45;a614&#45;c481e8389623&#45;&gt;end -->
<g id="edge7" class="edge">
<title>43571971&#45;00c7&#45;47da&#45;a614&#45;c481e8389623&#45;&gt;end</title>
<path fill="none" stroke="black" d="M593.92,-19C612.57,-19 632.86,-19 645.13,-19"/>
<polygon fill="black" stroke="black" points="645.12,-22.5 655.12,-19 645.12,-15.5 645.12,-22.5"/>
<text text-anchor="middle" x="624.75" y="-25.8" font-family="Times,serif" font-size="14.00">Finish</text>
</g>
</g>
</svg>
