<?xml version="1.0" encoding="UTF-8" standalone="no"?>
<!DOCTYPE svg PUBLIC "-//W3C//DTD SVG 1.1//EN"
 "http://www.w3.org/Graphics/SVG/1.1/DTD/svg11.dtd">
<!-- Generated by graphviz version 2.43.0 (0)
 -->
<!-- Title: %3 Pages: 1 -->
<svg width="321pt" height="240pt"
 viewBox="0.00 0.00 321.00 239.74" xmlns="http://www.w3.org/2000/svg" xmlns:xlink="http://www.w3.org/1999/xlink">
<g id="graph0" class="graph" transform="scale(1 1) rotate(0) translate(36 203.74)">
<title>%3</title>
<polygon fill="dimgray" stroke="transparent" points="-36,36 -36,-203.74 285,-203.74 285,36 -36,36"/>
<text text-anchor="middle" x="124.5" y="-152.54" font-family="Helvetica,sans-Serif" font-size="14.00">Sweep&#39;s Plan &amp; Progress</text>
<!-- start -->
<g id="node1" class="node">
<title>start</title>
</g>
<!-- 78744fee&#45;24b5&#45;450e&#45;9ce9&#45;fddc0b7a7d3a -->
<g id="node3" class="node">
<title>78744fee&#45;24b5&#45;450e&#45;9ce9&#45;fddc0b7a7d3a</title>
<ellipse fill="#0ee832" stroke="black" cx="121.5" cy="-101.87" rx="69.09" ry="26.74"/>
<text text-anchor="middle" x="121.5" y="-105.67" font-family="Helvetica,sans-Serif" font-size="14.00">✓ Modify</text>
<text text-anchor="middle" x="121.5" y="-90.67" font-family="Helvetica,sans-Serif" font-size="14.00">src/main.py</text>
</g>
<!-- start&#45;&gt;78744fee&#45;24b5&#45;450e&#45;9ce9&#45;fddc0b7a7d3a -->
<g id="edge2" class="edge">
<title>start&#45;&gt;78744fee&#45;24b5&#45;450e&#45;9ce9&#45;fddc0b7a7d3a</title>
<path fill="none" stroke="black" d="M1.27,-101.87C5.03,-101.87 21.99,-101.87 42.05,-101.87"/>
<polygon fill="black" stroke="black" points="42.11,-105.37 52.11,-101.87 42.11,-98.37 42.11,-105.37"/>
<text text-anchor="middle" x="26.6" y="-108.67" font-family="Helvetica,sans-Serif" font-size="14.00">Start</text>
</g>
<!-- end -->
<g id="node2" class="node">
<title>end</title>
</g>
<!-- 78744fee&#45;24b5&#45;450e&#45;9ce9&#45;fddc0b7a7d3a&#45;&gt;end -->
<g id="edge3" class="edge">
<title>78744fee&#45;24b5&#45;450e&#45;9ce9&#45;fddc0b7a7d3a&#45;&gt;end</title>
<path fill="none" stroke="black" d="M190.95,-101.87C209.21,-101.87 226.81,-101.87 237.64,-101.87"/>
<polygon fill="black" stroke="black" points="237.79,-105.37 247.79,-101.87 237.79,-98.37 237.79,-105.37"/>
<text text-anchor="middle" x="219.4" y="-108.67" font-family="Helvetica,sans-Serif" font-size="14.00">Finish</text>
</g>
<!-- 5519f0e9&#45;af31&#45;4ea3&#45;b1b1&#45;9935ac8ac58f -->
<g id="node4" class="node">
<title>5519f0e9&#45;af31&#45;4ea3&#45;b1b1&#45;9935ac8ac58f</title>
<polygon fill="yellow" stroke="black" points="170.5,-38 72.5,-38 72.5,0 170.5,0 170.5,-38"/>
<text text-anchor="middle" x="121.5" y="-22.8" font-family="Helvetica,sans-Serif" font-size="14.00">⋯ Check</text>
<text text-anchor="middle" x="121.5" y="-7.8" font-family="Helvetica,sans-Serif" font-size="14.00">src/main.py</text>
</g>
<!-- 78744fee&#45;24b5&#45;450e&#45;9ce9&#45;fddc0b7a7d3a&#45;&gt;5519f0e9&#45;af31&#45;4ea3&#45;b1b1&#45;9935ac8ac58f -->
<g id="edge1" class="edge">
<title>78744fee&#45;24b5&#45;450e&#45;9ce9&#45;fddc0b7a7d3a&#45;&gt;5519f0e9&#45;af31&#45;4ea3&#45;b1b1&#45;9935ac8ac58f</title>
<path fill="none" stroke="black" stroke-dasharray="5,2" d="M121.5,-74.84C121.5,-66.3 121.5,-56.78 121.5,-48.1"/>
<polygon fill="black" stroke="black" points="125,-48.05 121.5,-38.05 118,-48.05 125,-48.05"/>
</g>
</g>
</svg>
